<?xml version="1.0" encoding="UTF-8"?>
<svg xmlns="http://www.w3.org/2000/svg" version="1.1" xmlns:inkscape="http://www.inkscape.org/namespaces/inkscape" xmlns:sodipodi="http://sodipodi.sourceforge.net/DTD/sodipodi-0.dtd" xmlns:svg="http://www.w3.org/2000/svg" viewBox="0 0 800 600">
  <defs>
    <style>
      .cls-1 {
        fill: none;
        stroke: #000;
        stroke-width: .5px;
      }
    </style>
  </defs>
  <!-- Generator: Adobe Illustrator 28.7.1, SVG Export Plug-In . SVG Version: 1.2.0 Build 142)  -->
  <g>
    <g id="svg1466">
      <path id="path56" class="cls-1" d="M14.12,157.65l-.9.18-.77.51-.51.76-.18.9v280l.18.9.51.76.77.51.9.18h184.89v1.89h11.76v-1.89h223.38v1.89h11.77v-1.89h339.96l.9-.18.77-.51.51-.76.18-.9V160l-.18-.9-.51-.76-.77-.51-.9-.18H14.12Z"/>
      <path id="path310" class="cls-1" d="M799.95,149.92l.05.67v298.82l-.05.67-.14.66-.24.63-.32.59-.4.53-.47.48-.54.4-.59.32-.63.24-.66.14-.67.05H4.71l-.67-.05-.66-.14-.63-.24-.59-.32-.54-.4-.47-.48-.4-.53-.32-.59-.24-.63-.14-.66-.05-.67V150.59l.05-.67.14-.66.24-.63.32-.59.4-.53.47-.48.54-.4.59-.32.63-.24.66-.14.67-.05h790.58l.67.05.66.14.63.24.59.32.54.4.47.48.4.53.32.59.24.63.14.66Z"/>
      <path id="path340" class="cls-1" d="M168.01,151.42l-.19.99-.56.84-.84.56-.99.2-.99-.2-.84-.56-.57-.84-.19-.99.19-.99.57-.84.84-.56.99-.19.99.19.84.56.56.84.19.99Z"/>
      <path id="path356" class="cls-1" d="M324.09,151.42l-.2.99-.56.84-.84.56-.99.2-.99-.2-.84-.56-.56-.84-.19-.99.19-.99.56-.84.84-.56.99-.19.99.19.84.56.56.84.2.99Z"/>
      <path id="path398" class="cls-1" d="M792.32,151.42l-.19.99-.56.84-.84.56-.99.2-.99-.2-.84-.56-.56-.84-.2-.99.2-.99.56-.84.84-.56.99-.19.99.19.84.56.56.84.19.99Z"/>
      <path id="path414" class="cls-1" d="M11.95,448.54l-.19.99-.57.84-.83.56-1,.2-.99-.2-.84-.56-.56-.84-.19-.99.19-.99.56-.84.84-.56.99-.2,1,.2.83.56.57.84.19.99Z"/>
      <path id="path430" class="cls-1" d="M480.19,448.54l-.2.99-.56.84-.84.56-.99.2-.99-.2-.84-.56-.56-.84-.2-.99.2-.99.56-.84.84-.56.99-.2.99.2.84.56.56.84.2.99Z"/>
      <path id="path446" class="cls-1" d="M792.34,448.54l-.2.99-.56.84-.84.56-.99.2-.99-.2-.84-.56-.56-.84-.2-.99.2-.99.56-.84.84-.56.99-.2.99.2.84.56.56.84.2.99Z"/>
      <path id="path462" class="cls-1" d="M636.26,448.54l-.19.99-.56.84-.84.56-.99.2-1-.2-.83-.56-.57-.84-.19-.99.19-.99.57-.84.83-.56,1-.2.99.2.84.56.56.84.19.99Z"/>
      <path id="path478" class="cls-1" d="M324.11,448.54l-.2.99-.56.84-.84.56-.99.2-.99-.2-.84-.56-.56-.84-.2-.99.2-.99.56-.84.84-.56.99-.2.99.2.84.56.56.84.2.99Z"/>
      <path id="path494" class="cls-1" d="M168.03,448.54l-.2.99-.56.84-.84.56-.99.2-.99-.2-.84-.56-.56-.84-.2-.99.2-.99.56-.84.84-.56.99-.2.99.2.84.56.56.84.2.99Z"/>
      <path id="path510" class="cls-1" d="M636.25,151.42l-.2.99-.56.84-.84.56-.99.2-.99-.2-.84-.56-.56-.84-.2-.99.2-.99.56-.84.84-.56.99-.19.99.19.84.56.56.84.2.99Z"/>
      <path id="path526" class="cls-1" d="M480.17,151.42l-.2.99-.56.84-.84.56-.99.2-.99-.2-.84-.56-.56-.84-.2-.99.2-.99.56-.84.84-.56.99-.19.99.19.84.56.56.84.2.99Z"/>
      <path id="path542" class="cls-1" d="M11.94,151.42l-.2.99-.56.84-.84.56-.99.2-.99-.2-.84-.56-.56-.84-.2-.99.2-.99.56-.84.84-.56.99-.19.99.19.84.56.56.84.2.99Z"/>
      <path id="path689" class="cls-1" d="M101.57,301.84l.2.99.56.84.84.56.99.2.99-.2.84-.56.56-.84.2-.99-.2-.99-.56-.84-.84-.56-.99-.2-.99.2-.84.56-.56.84-.2.99Z"/>
      <path id="path721" class="cls-1" d="M694.65,302.04l.2.99.56.84.84.56.99.2.99-.2.84-.56.56-.84.2-.99-.2-.99-.56-.84-.84-.56-.99-.2-.99.2-.84.56-.56.84-.2.99Z"/>
      <path id="path753" class="cls-1" d="M497.01,302.04l.19.99.57.84.83.56,1,.2.99-.2.84-.56.56-.84.19-.99-.19-.99-.56-.84-.84-.56-.99-.2-1,.2-.83.56-.57.84-.19.99Z"/>
      <path id="path785" class="cls-1" d="M299.22,301.84l.2.99.56.84.84.56.99.2.99-.2.84-.56.56-.84.2-.99-.2-.99-.56-.84-.84-.56-.99-.2-.99.2-.84.56-.56.84-.2.99Z"/>
      <path id="path815" class="cls-1" d="M697.24,334.78l3.56-.19,3.52-.58,3.44-.96,3.31-1.32,3.16-1.67,2.95-2,2.72-2.31,2.45-2.59,2.16-2.84,1.84-3.05,1.49-3.24,1.14-3.38.77-3.48.39-3.55v-3.57l-.39-3.54-.77-3.49-1.14-3.38-1.49-3.23-1.84-3.06-2.16-2.84-2.45-2.59-2.72-2.31-2.95-2-3.16-1.67-3.31-1.32-3.44-.95-3.52-.58-3.56-.19H104.16l-3.56.19-3.52.58-3.44.95-3.31,1.32-3.15,1.67-2.96,2-2.71,2.31-2.46,2.59-2.16,2.84-1.83,3.06-1.5,3.23-1.14,3.38-.77,3.49-.38,3.54v3.57l.38,3.55.77,3.48,1.14,3.38,1.5,3.24,1.83,3.05,2.16,2.84,2.46,2.59,2.71,2.31,2.96,2,3.15,1.67,3.31,1.32,3.44.96,3.52.58,3.56.19h593.08Z"/>
      <path id="path959" class="cls-1" d="M103.73,216.8l.2.99.56.84.84.56.99.19.99-.19.84-.56.56-.84.2-.99-.2-1-.56-.83-.84-.57-.99-.19-.99.19-.84.57-.56.83-.2,1Z"/>
      <path id="path991" class="cls-1" d="M696.81,217l.2.99.56.84.84.56.99.2.99-.2.84-.56.56-.84.2-.99-.2-.99-.56-.84-.84-.56-.99-.2-.99.2-.84.56-.56.84-.2.99Z"/>
      <path id="path1023" class="cls-1" d="M499.16,217l.2.99.56.84.84.56.99.2.99-.2.84-.56.56-.84.2-.99-.2-.99-.56-.84-.84-.56-.99-.2-.99.2-.84.56-.56.84-.2.99Z"/>
      <path id="path1055" class="cls-1" d="M301.38,216.8l.19.99.56.84.84.56.99.19.99-.19.84-.56.57-.84.19-.99-.19-1-.57-.83-.84-.57-.99-.19-.99.19-.84.57-.56.83-.19,1Z"/>
      <path id="path1086" class="cls-1" d="M699.4,254.44l3.81-.19,3.77-.58,3.69-.95,3.58-1.33,3.42-1.68,3.24-2.02,3.01-2.33,2.77-2.63,2.48-2.89,2.18-3.13,1.85-3.34,1.5-3.5,1.15-3.64.76-3.73.39-3.8v-3.81l-.39-3.8-.76-3.73-1.15-3.64-1.5-3.5-1.85-3.34-2.18-3.13-2.48-2.89-2.77-2.63-3.01-2.33-3.24-2.02-3.42-1.68-3.58-1.33-3.69-.95-3.77-.58-3.81-.19H106.32l-3.81.19-3.77.58-3.69.95-3.58,1.33-3.42,1.68-3.24,2.02-3.01,2.33-2.77,2.63-2.48,2.89-2.18,3.13-1.85,3.34-1.51,3.5-1.14,3.64-.77,3.73-.38,3.8v3.81l.38,3.8.77,3.73,1.14,3.64,1.51,3.5,1.85,3.34,2.18,3.13,2.48,2.89,2.77,2.63,3.01,2.33,3.24,2.02,3.42,1.68,3.58,1.33,3.69.95,3.77.58,3.81.19h593.08Z"/>
      <path id="path1239" class="cls-1" d="M101.24,376.66l.2.99.56.84.84.56.99.2.99-.2.84-.56.56-.84.2-.99-.2-.99-.56-.84-.84-.56-.99-.2-.99.2-.84.56-.56.84-.2.99Z"/>
      <path id="path1271" class="cls-1" d="M694.33,376.86l.19.99.56.84.84.56.99.2.99-.2.84-.56.57-.84.19-.99-.19-.99-.57-.84-.84-.56-.99-.19-.99.19-.84.56-.56.84-.19.99Z"/>
      <path id="path1303" class="cls-1" d="M496.68,376.86l.2.99.56.84.84.56.99.2.99-.2.84-.56.56-.84.2-.99-.2-.99-.56-.84-.84-.56-.99-.19-.99.19-.84.56-.56.84-.2.99Z"/>
      <path id="path1335" class="cls-1" d="M298.89,376.66l.2.99.56.84.84.56.99.2.99-.2.84-.56.56-.84.2-.99-.2-.99-.56-.84-.84-.56-.99-.2-.99.2-.84.56-.56.84-.2.99Z"/>
      <path id="path1364" class="cls-1" d="M696.91,404.89l3.28-.19,3.24-.57,3.14-.94,3.02-1.3,2.84-1.64,2.63-1.96,2.39-2.25,2.11-2.52,1.81-2.74,1.47-2.94,1.12-3.08.76-3.2.38-3.26v-3.28l-.38-3.26-.76-3.2-1.12-3.08-1.47-2.94-1.81-2.74-2.11-2.52-2.39-2.25-2.63-1.96-2.84-1.64-3.02-1.3-3.14-.95-3.24-.57-3.28-.19H103.83l-3.28.19-3.23.57-3.15.95-3.01,1.3-2.84,1.64-2.64,1.96-2.39,2.25-2.11,2.52-1.8,2.74-1.47,2.94-1.13,3.08-.75,3.2-.39,3.26v3.28l.39,3.26.75,3.2,1.13,3.08,1.47,2.94,1.8,2.74,2.11,2.52,2.39,2.25,2.64,1.96,2.84,1.64,3.01,1.3,3.15.94,3.23.57,3.28.19h593.08Z"/>
    </g>
  </g>
</svg>