<?xml version="1.0" encoding="UTF-8"?>
<svg xmlns="http://www.w3.org/2000/svg" version="1.1" xmlns:inkscape="http://www.inkscape.org/namespaces/inkscape" xmlns:sodipodi="http://sodipodi.sourceforge.net/DTD/sodipodi-0.dtd" xmlns:svg="http://www.w3.org/2000/svg" viewBox="0 0 800 600">
  <defs>
    <style>
      .cls-1 {
        fill: none;
        stroke: #000;
        stroke-width: .5px;
      }
    </style>
  </defs>
  <!-- Generator: Adobe Illustrator 28.7.1, SVG Export Plug-In . SVG Version: 1.2.0 Build 142)  -->
  <g>
    <g id="svg605">
      <path id="path72" class="cls-1" d="M318.92,151.42l.19.99.56.84.84.56.99.2.99-.2.84-.56.56-.84.2-.99-.2-.99-.56-.84-.84-.56-.99-.19-.99.19-.84.56-.56.84-.19.99Z"/>
      <path id="path104" class="cls-1" d="M6.76,151.42l.2.99.56.84.84.56.99.2.99-.2.84-.56.56-.84.2-.99-.2-.99-.56-.84-.84-.56-.99-.19-.99.19-.84.56-.56.84-.2.99Z"/>
      <path id="path136" class="cls-1" d="M787.16,448.54l.2.99.56.84.84.56.99.2.99-.2.84-.56.56-.84.2-.99-.2-.99-.56-.84-.84-.56-.99-.2-.99.2-.84.56-.56.84-.2.99Z"/>
      <path id="path168" class="cls-1" d="M631.09,448.54l.19.99.57.84.83.56,1,.2.99-.2.84-.56.56-.84.19-.99-.19-.99-.56-.84-.84-.56-.99-.2-1,.2-.83.56-.57.84-.19.99Z"/>
      <path id="path200" class="cls-1" d="M475.01,448.54l.2.99.56.84.84.56.99.2.99-.2.84-.56.56-.84.2-.99-.2-.99-.56-.84-.84-.56-.99-.2-.99.2-.84.56-.56.84-.2.99Z"/>
      <path id="path232" class="cls-1" d="M318.93,448.54l.2.99.56.84.84.56.99.2.99-.2.84-.56.56-.84.2-.99-.2-.99-.56-.84-.84-.56-.99-.2-.99.2-.84.56-.56.84-.2.99Z"/>
      <path id="path264" class="cls-1" d="M162.85,448.54l.2.99.56.84.84.56.99.2.99-.2.84-.56.56-.84.2-.99-.2-.99-.56-.84-.84-.56-.99-.2-.99.2-.84.56-.56.84-.2.99Z"/>
      <path id="path296" class="cls-1" d="M6.78,448.54l.19.99.56.84.84.56.99.2,1-.2.83-.56.57-.84.19-.99-.19-.99-.57-.84-.83-.56-1-.2-.99.2-.84.56-.56.84-.19.99Z"/>
      <path id="path328" class="cls-1" d="M162.84,151.42l.19.99.57.84.84.56.99.2.99-.2.84-.56.56-.84.19-.99-.19-.99-.56-.84-.84-.56-.99-.19-.99.19-.84.56-.57.84-.19.99Z"/>
      <path id="path344" class="cls-1" d="M4.71,454.12h790.58l1.33-.19,1.22-.56,1.01-.88.4-.53.56-1.22.19-1.33v-63.08h-11.76v53.67l-.18.9-.51.76-.77.51-.9.18h-39.91v1.79h-135.12v-1.79h-160.16v1.79H193.19v-1.79H14.12l-.9-.18-.77-.51-.51-.76-.18-.9V160l.18-.9.51-.76.77-.51.9-.18h372.96v-11.77H4.71l-1.33.19-1.22.56-1.01.88-.4.53-.56,1.22-.19,1.33v298.82l.16,1.22.47,1.13.75.98.97.75,1.14.47,1.22.16Z"/>
      <path id="path484" class="cls-1" d="M787.15,151.42l.2.99.56.84.84.56.99.2.99-.2.84-.56.56-.84.19-.99-.19-.99-.56-.84-.84-.56-.99-.19-.99.19-.84.56-.56.84-.2.99Z"/>
      <path id="path516" class="cls-1" d="M631.07,151.42l.2.99.56.84.84.56.99.2.99-.2.84-.56.56-.84.2-.99-.2-.99-.56-.84-.84-.56-.99-.19-.99.19-.84.56-.56.84-.2.99Z"/>
      <path id="path548" class="cls-1" d="M474.99,151.42l.2.99.56.84.84.56.99.2.99-.2.84-.56.56-.84.2-.99-.2-.99-.56-.84-.84-.56-.99-.19-.99.19-.84.56-.56.84-.2.99Z"/>
      <path id="path569" class="cls-1" d="M788.24,160l-.18-.9-.51-.76-.77-.51-.9-.18h-373.13v-11.77h382.54l1.33.19,1.22.56,1.01.88.4.53.56,1.22.19,1.33v202.8h-11.76v-193.39Z"/>
    </g>
  </g>
</svg>