<?xml version="1.0" encoding="UTF-8"?>
<svg xmlns="http://www.w3.org/2000/svg" version="1.1" xmlns:inkscape="http://www.inkscape.org/namespaces/inkscape" xmlns:sodipodi="http://sodipodi.sourceforge.net/DTD/sodipodi-0.dtd" xmlns:svg="http://www.w3.org/2000/svg" viewBox="0 0 800 600">
  <defs>
    <style>
      .cls-1 {
        fill: none;
        stroke: #000;
        stroke-width: .5px;
      }
    </style>
  </defs>
  <!-- Generator: Adobe Illustrator 28.7.1, SVG Export Plug-In . SVG Version: 1.2.0 Build 142)  -->
  <g>
    <g id="svg720">
      <path id="path81" class="cls-1" d="M303.67,210.52l-.19,1-.57.83-.83.57-1,.19-.99-.19-.84-.57-.56-.83-.19-1,.19-.99.56-.84.84-.56.99-.19,1,.19.83.56.57.84.19.99Z"/>
      <path id="path113" class="cls-1" d="M699.11,210.73l-.2.99-.56.84-.84.56-.99.2-.99-.2-.84-.56-.56-.84-.2-.99.2-.99.56-.84.84-.56.99-.2.99.2.84.56.56.84.2.99Z"/>
      <path id="path145" class="cls-1" d="M636.26,448.54l-.19.99-.56.84-.84.56-.99.2-1-.2-.83-.56-.57-.84-.19-.99.19-.99.57-.84.83-.56,1-.2.99.2.84.56.56.84.19.99Z"/>
      <path id="path177" class="cls-1" d="M324.11,448.54l-.2.99-.56.84-.84.56-.99.2-.99-.2-.84-.56-.56-.84-.2-.99.2-.99.56-.84.84-.56.99-.2.99.2.84.56.56.84.2.99Z"/>
      <path id="path209" class="cls-1" d="M792.32,151.42l-.19.99-.56.84-.84.56-.99.2-.99-.2-.84-.56-.56-.84-.2-.99.2-.99.56-.84.84-.56.99-.19.99.19.84.56.56.84.19.99Z"/>
      <path id="path241" class="cls-1" d="M636.25,151.42l-.2.99-.56.84-.84.56-.99.2-.99-.2-.84-.56-.56-.84-.2-.99.2-.99.56-.84.84-.56.99-.19.99.19.84.56.56.84.2.99Z"/>
      <path id="path273" class="cls-1" d="M480.17,151.42l-.2.99-.56.84-.84.56-.99.2-.99-.2-.84-.56-.56-.84-.2-.99.2-.99.56-.84.84-.56.99-.19.99.19.84.56.56.84.2.99Z"/>
      <path id="path305" class="cls-1" d="M324.09,151.42l-.2.99-.56.84-.84.56-.99.2-.99-.2-.84-.56-.56-.84-.19-.99.19-.99.56-.84.84-.56.99-.19.99.19.84.56.56.84.2.99Z"/>
      <path id="path337" class="cls-1" d="M168.01,151.42l-.19.99-.56.84-.84.56-.99.2-.99-.2-.84-.56-.57-.84-.19-.99.19-.99.57-.84.84-.56.99-.19.99.19.84.56.56.84.19.99Z"/>
      <path id="path369" class="cls-1" d="M11.94,151.42l-.2.99-.56.84-.84.56-.99.2-.99-.2-.84-.56-.56-.84-.2-.99.2-.99.56-.84.84-.56.99-.19.99.19.84.56.56.84.2.99Z"/>
      <path id="path401" class="cls-1" d="M11.95,448.54l-.19.99-.57.84-.83.56-1,.2-.99-.2-.84-.56-.56-.84-.19-.99.19-.99.56-.84.84-.56.99-.2,1,.2.83.56.57.84.19.99Z"/>
      <path id="path433" class="cls-1" d="M168.03,448.54l-.2.99-.56.84-.84.56-.99.2-.99-.2-.84-.56-.56-.84-.2-.99.2-.99.56-.84.84-.56.99-.2.99.2.84.56.56.84.2.99Z"/>
      <path id="path465" class="cls-1" d="M480.19,448.54l-.2.99-.56.84-.84.56-.99.2-.99-.2-.84-.56-.56-.84-.2-.99.2-.99.56-.84.84-.56.99-.2.99.2.84.56.56.84.2.99Z"/>
      <path id="path497" class="cls-1" d="M792.34,448.54l-.2.99-.56.84-.84.56-.99.2-.99-.2-.84-.56-.56-.84-.2-.99.2-.99.56-.84.84-.56.99-.2.99.2.84.56.56.84.2.99Z"/>
      <path id="path529" class="cls-1" d="M501.46,210.73l-.2.99-.56.84-.84.56-.99.2-.99-.2-.84-.56-.56-.84-.2-.99.2-.99.56-.84.84-.56.99-.2.99.2.84.56.56.84.2.99Z"/>
      <path id="path561" class="cls-1" d="M106.03,210.52l-.2,1-.56.83-.84.57-.99.19-.99-.19-.84-.57-.56-.83-.2-1,.2-.99.56-.84.84-.56.99-.19.99.19.84.56.56.84.2.99Z"/>
      <path id="path579" class="cls-1" d="M795.96,145.93l.66.14.63.24.59.32.54.4.47.48.4.53.32.59.24.63.14.66.05.67v298.82l-.05.67-.14.66-.24.63-.32.59-.4.53-.47.48-.54.4-.59.32-.63.24-.66.14-.67.05H4.71l-.67-.05-.66-.14-.63-.24-.59-.32-.54-.4-.47-.48-.4-.53-.32-.59-.24-.63-.14-.66-.05-.67V150.59l.05-.67.14-.66.24-.63.32-.59.4-.53.47-.48.54-.4.59-.32.63-.24.66-.14.67-.05h790.58l.67.05Z"/>
    </g>
  </g>
</svg>