<?xml version="1.0" encoding="UTF-8"?>
<svg xmlns="http://www.w3.org/2000/svg" version="1.1" xmlns:inkscape="http://www.inkscape.org/namespaces/inkscape" xmlns:sodipodi="http://sodipodi.sourceforge.net/DTD/sodipodi-0.dtd" xmlns:svg="http://www.w3.org/2000/svg" viewBox="0 0 893 600">
  <defs>
    <style>
      .cls-1 {
        fill: none;
        stroke: #000;
        stroke-width: .5px;
      }
    </style>
  </defs>
  <!-- Generator: Adobe Illustrator 28.7.1, SVG Export Plug-In . SVG Version: 1.2.0 Build 142)  -->
  <g>
    <g id="svg2194">
      <polygon class="cls-1" points="857.95 149.919 857.81 149.259 857.57 148.629 857.25 148.039 856.85 147.509 856.38 147.029 855.84 146.629 855.25 146.309 854.62 146.069 853.96 145.929 853.29 145.879 62.71 145.879 62.04 145.929 61.38 146.069 60.75 146.309 60.16 146.629 59.62 147.029 59.15 147.509 58.75 148.039 58.43 148.629 58.19 149.259 58.05 149.919 58 150.589 58 449.409 58.05 450.079 58.19 450.739 58.43 451.369 58.75 451.959 59.15 452.489 59.62 452.969 60.16 453.369 60.75 453.689 61.38 453.929 62.04 454.069 62.71 454.119 853.29 454.119 853.96 454.069 854.62 453.929 855.25 453.689 855.84 453.369 856.38 452.969 856.85 452.489 857.25 451.959 857.57 451.369 857.81 450.739 857.95 450.079 858 449.409 858 150.589 857.95 149.919"/>
      <polygon class="cls-1" points="845.35 150.429 845.91 149.589 846.75 149.029 847.74 148.839 848.73 149.029 849.57 149.589 850.13 150.429 850.32 151.419 850.13 152.409 849.57 153.249 848.73 153.809 847.74 154.009 846.75 153.809 845.91 153.249 845.35 152.409 845.15 151.419 845.35 150.429"/>
      <rect class="cls-1" x="805.8" y="221.859" width="32.94" height="32.94"/>
      <rect class="cls-1" x="805.78" y="266.689" width="32.94" height="32.94"/>
      <polygon class="cls-1" points="777.5 180.839 778.09 178.009 779.06 175.279 780.39 172.719 782.05 170.359 784.03 168.239 786.27 166.419 788.74 164.919 791.39 163.769 794.17 162.989 797.04 162.589 799.93 162.589 802.79 162.989 805.57 163.769 808.22 164.919 810.69 166.419 812.94 168.239 814.91 170.359 816.57 172.719 817.9 175.279 818.87 178.009 819.46 180.839 819.66 183.719 819.46 186.599 818.87 189.429 817.9 192.159 816.57 194.719 814.91 197.079 812.94 199.199 810.69 201.019 808.22 202.519 805.57 203.669 802.79 204.449 799.93 204.849 797.04 204.849 794.17 204.449 791.39 203.669 788.74 202.519 786.27 201.019 784.03 199.199 782.05 197.079 780.39 194.719 779.06 192.159 778.09 189.429 777.5 186.599 777.3 183.719 777.5 180.839"/>
      <rect class="cls-1" x="760.98" y="221.859" width="32.94" height="32.94"/>
      <rect class="cls-1" x="760.95" y="266.689" width="32.95" height="32.94"/>
      <rect class="cls-1" x="705.64" y="165.799" width="32.94" height="32.94"/>
      <polygon class="cls-1" points="689.27 150.429 689.83 149.589 690.67 149.029 691.66 148.839 692.65 149.029 693.49 149.589 694.05 150.429 694.25 151.419 694.05 152.409 693.49 153.249 692.65 153.809 691.66 154.009 690.67 153.809 689.83 153.249 689.27 152.409 689.07 151.419 689.27 150.429"/>
      <polygon class="cls-1" points="683.25 232.909 683.25 221.849 716.19 221.849 716.19 232.909 719.78 232.909 719.78 225.309 735.66 225.309 735.66 232.909 737.6 232.909 737.6 239.499 735.66 239.499 735.66 254.249 731.6 254.249 731.6 257.079 723.84 257.079 723.84 254.249 719.78 254.249 719.78 243.739 716.19 243.739 716.19 254.789 683.25 254.789 683.25 243.739 679.66 243.739 679.66 254.249 675.6 254.249 675.6 257.079 667.84 257.079 667.84 254.249 663.78 254.249 663.78 239.499 661.84 239.499 661.84 232.909 663.78 232.909 663.78 225.309 679.66 225.309 679.66 232.909 683.25 232.909"/>
      <rect class="cls-1" x="694.49" y="266.699" width="32.94" height="32.94"/>
      <rect class="cls-1" x="638.43" y="266.679" width="32.95" height="32.95"/>
      <rect class="cls-1" x="644.06" y="356.349" width="32.95" height="32.94"/>
      <rect class="cls-1" x="201.41" y="311.549" width="32.94" height="32.94"/>
      <rect class="cls-1" x="190.2" y="266.679" width="32.94" height="32.95"/>
      <rect class="cls-1" x="223.8" y="356.309" width="32.94" height="32.94"/>
      <rect class="cls-1" x="246.23" y="311.549" width="32.94" height="32.94"/>
      <rect class="cls-1" x="235.02" y="266.679" width="32.94" height="32.95"/>
      <rect class="cls-1" x="268.63" y="356.309" width="32.94" height="32.94"/>
      <rect class="cls-1" x="291.05" y="311.549" width="32.94" height="32.94"/>
      <rect class="cls-1" x="279.85" y="266.679" width="32.94" height="32.95"/>
      <rect class="cls-1" x="313.45" y="356.309" width="32.94" height="32.94"/>
      <rect class="cls-1" x="436.74" y="221.819" width="32.95" height="32.94"/>
      <rect class="cls-1" x="459.14" y="266.679" width="32.94" height="32.95"/>
      <rect class="cls-1" x="414.32" y="266.679" width="32.94" height="32.95"/>
      <rect class="cls-1" x="391.92" y="221.819" width="32.94" height="32.94"/>
      <rect class="cls-1" x="369.49" y="266.679" width="32.94" height="32.95"/>
      <rect class="cls-1" x="347.1" y="221.819" width="32.94" height="32.94"/>
      <rect class="cls-1" x="324.67" y="266.679" width="32.94" height="32.95"/>
      <rect class="cls-1" x="335.88" y="311.549" width="32.94" height="32.94"/>
      <rect class="cls-1" x="358.27" y="356.309" width="32.95" height="32.94"/>
      <rect class="cls-1" x="380.7" y="311.549" width="32.94" height="32.94"/>
      <rect class="cls-1" x="403.1" y="356.309" width="32.94" height="32.94"/>
      <rect class="cls-1" x="425.52" y="311.549" width="32.94" height="32.94"/>
      <rect class="cls-1" x="447.92" y="356.309" width="32.94" height="32.94"/>
      <rect class="cls-1" x="470.35" y="311.549" width="32.94" height="32.94"/>
      <rect class="cls-1" x="481.57" y="221.819" width="32.94" height="32.94"/>
      <rect class="cls-1" x="503.96" y="266.679" width="32.94" height="32.95"/>
      <rect class="cls-1" x="515.17" y="311.549" width="32.94" height="32.94"/>
      <rect class="cls-1" x="526.39" y="221.819" width="32.94" height="32.94"/>
      <rect class="cls-1" x="548.79" y="266.679" width="32.94" height="32.95"/>
      <rect class="cls-1" x="559.99" y="311.549" width="32.95" height="32.94"/>
      <rect class="cls-1" x="571.22" y="221.819" width="32.94" height="32.94"/>
      <rect class="cls-1" x="593.61" y="266.679" width="32.94" height="32.95"/>
      <rect class="cls-1" x="604.82" y="311.549" width="32.94" height="32.94"/>
      <rect class="cls-1" x="616.04" y="221.819" width="32.94" height="32.94"/>
      <rect class="cls-1" x="645.4" y="165.909" width="32.94" height="32.94"/>
      <rect class="cls-1" x="600.58" y="165.909" width="32.94" height="32.94"/>
      <rect class="cls-1" x="555.76" y="165.909" width="32.94" height="32.94"/>
      <polygon class="cls-1" points="533.19 150.429 533.75 149.589 534.59 149.029 535.58 148.839 536.57 149.029 537.41 149.589 537.97 150.429 538.17 151.419 537.97 152.409 537.41 153.249 536.57 153.809 535.58 154.009 534.59 153.809 533.75 153.249 533.19 152.409 532.99 151.419 533.19 150.429"/>
      <rect class="cls-1" x="510.93" y="165.909" width="32.94" height="32.94"/>
      <rect class="cls-1" x="456.32" y="165.879" width="32.94" height="32.94"/>
      <rect class="cls-1" x="411.5" y="165.879" width="32.94" height="32.94"/>
      <polygon class="cls-1" points="377.11 150.429 377.67 149.589 378.51 149.029 379.5 148.839 380.49 149.029 381.33 149.589 381.89 150.429 382.09 151.419 381.89 152.409 381.33 153.249 380.49 153.809 379.5 154.009 378.51 153.809 377.67 153.249 377.11 152.409 376.92 151.419 377.11 150.429"/>
      <rect class="cls-1" x="366.67" y="165.879" width="32.94" height="32.94"/>
      <rect class="cls-1" x="321.85" y="165.879" width="32.94" height="32.94"/>
      <rect class="cls-1" x="302.27" y="221.819" width="32.95" height="32.94"/>
      <rect class="cls-1" x="267.2" y="165.919" width="32.94" height="32.95"/>
      <rect class="cls-1" x="257.45" y="221.819" width="32.94" height="32.94"/>
      <rect class="cls-1" x="222.38" y="165.919" width="32.94" height="32.95"/>
      <polygon class="cls-1" points="221.03 150.429 221.6 149.589 222.44 149.029 223.43 148.839 224.42 149.029 225.26 149.589 225.82 150.429 226.01 151.419 225.82 152.409 225.26 153.249 224.42 153.809 223.43 154.009 222.44 153.809 221.6 153.249 221.03 152.409 220.84 151.419 221.03 150.429"/>
      <rect class="cls-1" x="212.63" y="221.819" width="32.94" height="32.94"/>
      <rect class="cls-1" x="177.55" y="165.919" width="32.95" height="32.95"/>
      <rect class="cls-1" x="167.8" y="221.819" width="32.94" height="32.94"/>
      <rect class="cls-1" x="156.58" y="311.549" width="32.94" height="32.94"/>
      <rect class="cls-1" x="145.38" y="266.679" width="32.94" height="32.95"/>
      <rect class="cls-1" x="132.73" y="165.919" width="32.94" height="32.95"/>
      <rect class="cls-1" x="122.98" y="221.819" width="32.94" height="32.94"/>
      <rect class="cls-1" x="94.92" y="311.519" width="32.94" height="32.94"/>
      <rect class="cls-1" x="89.37" y="266.709" width="32.94" height="32.94"/>
      <polygon class="cls-1" points="64.96 150.429 65.52 149.589 66.36 149.029 67.35 148.839 68.34 149.029 69.18 149.589 69.74 150.429 69.94 151.419 69.74 152.409 69.18 153.249 68.34 153.809 67.35 154.009 66.36 153.809 65.52 153.249 64.96 152.409 64.76 151.419 64.96 150.429"/>
      <polygon class="cls-1" points="69.76 449.529 69.19 450.369 68.36 450.929 67.36 451.129 66.37 450.929 65.53 450.369 64.97 449.529 64.78 448.539 64.97 447.549 65.53 446.709 66.37 446.149 67.36 445.949 68.36 446.149 69.19 446.709 69.76 447.549 69.95 448.539 69.76 449.529"/>
      <rect class="cls-1" x="78.03" y="165.909" width="32.95" height="32.94"/>
      <rect class="cls-1" x="78.16" y="221.819" width="32.94" height="32.94"/>
      <rect class="cls-1" x="83.76" y="401.159" width="32.94" height="32.94"/>
      <polygon class="cls-1" points="139.09 389.269 106.14 389.269 106.14 378.209 102.56 378.209 102.56 388.729 98.5 388.729 98.5 391.549 90.74 391.549 90.74 388.729 86.68 388.729 86.68 373.969 84.73 373.969 84.73 367.389 86.68 367.389 86.68 359.789 102.56 359.789 102.56 367.389 106.14 367.389 106.14 356.329 139.09 356.329 139.09 367.389 142.68 367.389 142.68 359.789 158.56 359.789 158.56 367.389 160.5 367.389 160.5 373.969 158.56 373.969 158.56 388.729 154.5 388.729 154.5 391.549 146.74 391.549 146.74 388.729 142.68 388.729 142.68 378.209 139.09 378.209 139.09 389.269"/>
      <rect class="cls-1" x="139.75" y="401.149" width="32.95" height="32.94"/>
      <rect class="cls-1" x="178.98" y="356.309" width="32.94" height="32.94"/>
      <polygon class="cls-1" points="225.83 449.529 225.27 450.369 224.43 450.929 223.44 451.129 222.45 450.929 221.61 450.369 221.05 449.529 220.85 448.539 221.05 447.549 221.61 446.709 222.45 446.149 223.44 445.949 224.43 446.149 225.27 446.709 225.83 447.549 226.03 448.539 225.83 449.529"/>
      <rect class="cls-1" x="195.8" y="401.159" width="32.94" height="32.94"/>
      <polygon class="cls-1" points="381.91 449.529 381.35 450.369 380.51 450.929 379.52 451.129 378.53 450.929 377.69 450.369 377.13 449.529 376.93 448.539 377.13 447.549 377.69 446.709 378.53 446.149 379.52 445.949 380.51 446.149 381.35 446.709 381.91 447.549 382.11 448.539 381.91 449.529"/>
      <polygon class="cls-1" points="507.88 418.799 505.94 418.799 505.94 433.549 501.88 433.549 501.88 436.379 494.12 436.379 494.12 433.549 490.06 433.549 490.06 423.039 396.82 423.039 396.82 434.089 363.88 434.089 363.88 423.039 270.65 423.039 270.65 433.549 266.59 433.549 266.59 436.379 258.82 436.379 258.82 433.549 254.76 433.549 254.76 418.799 252.82 418.799 252.82 412.209 254.76 412.209 254.76 404.609 270.65 404.609 270.65 412.209 363.88 412.209 363.88 401.149 396.82 401.149 396.82 412.209 490.06 412.209 490.06 404.609 505.94 404.609 505.94 412.209 507.88 412.209 507.88 418.799"/>
      <rect class="cls-1" x="492.74" y="356.309" width="32.95" height="32.94"/>
      <polygon class="cls-1" points="537.99 449.529 537.43 450.369 536.59 450.929 535.6 451.129 534.61 450.929 533.77 450.369 533.21 449.529 533.01 448.539 533.21 447.549 533.77 446.709 534.61 446.149 535.6 445.949 536.59 446.149 537.43 446.709 537.99 447.549 538.19 448.539 537.99 449.529"/>
      <rect class="cls-1" x="526.35" y="401.189" width="32.94" height="32.94"/>
      <rect class="cls-1" x="537.57" y="356.309" width="32.94" height="32.94"/>
      <rect class="cls-1" x="571.18" y="401.189" width="32.94" height="32.94"/>
      <rect class="cls-1" x="582.39" y="356.309" width="32.94" height="32.94"/>
      <rect class="cls-1" x="616" y="401.189" width="32.94" height="32.94"/>
      <polygon class="cls-1" points="694.07 449.529 693.51 450.369 692.67 450.929 691.68 451.129 690.68 450.929 689.85 450.369 689.28 449.529 689.09 448.539 689.28 447.549 689.85 446.709 690.68 446.149 691.68 445.949 692.67 446.149 693.51 446.709 694.07 447.549 694.26 448.539 694.07 449.529"/>
      <rect class="cls-1" x="674.91" y="404.679" width="32.94" height="32.94"/>
      <polygon class="cls-1" points="714.17 343.899 714.17 333.389 710.58 333.389 710.58 344.439 677.64 344.439 677.64 333.389 674.05 333.389 674.05 343.899 669.99 343.899 669.99 346.729 662.23 346.729 662.23 343.899 658.17 343.899 658.17 329.149 656.23 329.149 656.23 322.559 658.17 322.559 658.17 314.959 674.05 314.959 674.05 322.559 677.64 322.559 677.64 311.499 710.58 311.499 710.58 322.559 714.17 322.559 714.17 314.959 730.05 314.959 730.05 322.559 731.99 322.559 731.99 329.149 730.05 329.149 730.05 343.899 725.99 343.899 725.99 346.729 718.23 346.729 718.23 343.899 714.17 343.899"/>
      <rect class="cls-1" x="719.75" y="404.669" width="32.94" height="32.94"/>
      <rect class="cls-1" x="719.75" y="359.879" width="32.94" height="32.94"/>
      <rect class="cls-1" x="753.76" y="310.639" width="91.71" height="30.83"/>
      <rect class="cls-1" x="764.57" y="404.669" width="32.94" height="32.94"/>
      <polygon class="cls-1" points="839.16 387.689 839.11 388.359 838.97 389.009 838.73 389.639 838.41 390.229 838.01 390.769 837.53 391.239 837 391.649 836.41 391.969 835.78 392.199 835.12 392.349 834.45 392.389 770.35 392.389 769.68 392.349 769.02 392.199 768.39 391.969 767.8 391.649 767.26 391.239 766.79 390.769 766.39 390.229 766.07 389.639 765.83 389.009 765.69 388.359 765.64 387.689 765.64 355.249 765.69 354.579 765.83 353.919 766.07 353.289 766.39 352.699 766.79 352.169 767.26 351.689 767.8 351.289 768.39 350.969 769.02 350.729 769.68 350.589 770.35 350.539 834.45 350.539 835.12 350.589 835.78 350.729 836.41 350.969 837 351.289 837.53 351.689 838.01 352.169 838.41 352.699 838.73 353.289 838.97 353.919 839.11 354.579 839.16 355.249 839.16 387.689"/>
      <polygon class="cls-1" points="850.14 449.529 849.58 450.369 848.74 450.929 847.75 451.129 846.76 450.929 845.92 450.369 845.36 449.529 845.16 448.539 845.36 447.549 845.92 446.709 846.76 446.149 847.75 445.949 848.74 446.149 849.58 446.709 850.14 447.549 850.34 448.539 850.14 449.529"/>
    </g>
  </g>
</svg>