<?xml version="1.0" encoding="UTF-8"?>
<svg xmlns="http://www.w3.org/2000/svg" version="1.1" xmlns:inkscape="http://www.inkscape.org/namespaces/inkscape" xmlns:sodipodi="http://sodipodi.sourceforge.net/DTD/sodipodi-0.dtd" xmlns:svg="http://www.w3.org/2000/svg" viewBox="0 0 800 600">
  <defs>
    <style>
      .cls-1 {
        fill: none;
        stroke: #000;
        stroke-width: .5px;
      }
    </style>
  </defs>
  <!-- Generator: Adobe Illustrator 28.7.1, SVG Export Plug-In . SVG Version: 1.2.0 Build 142)  -->
  <g>
    <g id="svg812">
      <path id="path53" class="cls-1" d="M788.24,310.49v31.11h-92.75v-31.11h92.75Z"/>
      <path id="path77" class="cls-1" d="M795.29,145.88l.67.05.66.14.63.24.59.32.54.4.47.48.4.53.32.59.24.63.14.66.05.67v298.82l-.05.67-.14.66-.24.63-.32.59-.4.53-.47.48-.54.4-.59.32-.63.24-.66.14-.67.05H4.71l-.67-.05-.66-.14-.63-.24-.59-.32-.54-.4-.47-.48-.4-.53-.32-.59-.24-.63-.14-.66-.05-.67V150.59l.05-.67.14-.66.24-.63.32-.59.4-.53.47-.48.54-.4.59-.32.63-.24.66-.14.67-.05h790.58Z"/>
      <path id="path356" class="cls-1" d="M14.1,159.99v44.82h44.82v-44.82H14.1Z"/>
      <path id="path360" class="cls-1" d="M68.75,159.94v44.82h179.26v-44.82H68.75Z"/>
      <path id="path364" class="cls-1" d="M257.87,159.94v44.82h179.26v-44.82h-179.26Z"/>
      <path id="path368" class="cls-1" d="M447,159.92v44.83h179.26v-44.83h-179.26Z"/>
      <path id="path372" class="cls-1" d="M641.67,159.89v44.83h44.82v-44.83h-44.82Z"/>
      <path id="path376" class="cls-1" d="M697,215.91v89.64h89.65v-89.64h-89.65Z"/>
      <path id="path380" class="cls-1" d="M14.19,215.93v224.11h582.71v-44.81h44.83v-44.84h44.81v-134.46H14.19Z"/>
      <path id="path388" class="cls-1" d="M655.8,353.91v44.79h-44.83v44.83h134.47v-44.8h-44.81v-44.82h-44.83Z"/>
      <path id="path447" class="cls-1" d="M792.34,448.54l-.2.99-.56.84-.84.56-.99.2-.99-.2-.84-.56-.56-.84-.2-.99.2-.99.56-.84.84-.56.99-.2.99.2.84.56.56.84.2.99Z"/>
      <path id="path463" class="cls-1" d="M636.26,448.54l-.19.99-.56.84-.84.56-.99.2-1-.2-.83-.56-.57-.84-.19-.99.19-.99.57-.84.83-.56,1-.2.99.2.84.56.56.84.19.99Z"/>
      <path id="path487" class="cls-1" d="M480.19,448.54l-.2.99-.56.84-.84.56-.99.2-.99-.2-.84-.56-.56-.84-.2-.99.2-.99.56-.84.84-.56.99-.2.99.2.84.56.56.84.2.99Z"/>
      <path id="path503" class="cls-1" d="M324.11,448.54l-.2.99-.56.84-.84.56-.99.2-.99-.2-.84-.56-.56-.84-.2-.99.2-.99.56-.84.84-.56.99-.2.99.2.84.56.56.84.2.99Z"/>
      <path id="path519" class="cls-1" d="M168.03,448.54l-.2.99-.56.84-.84.56-.99.2-.99-.2-.84-.56-.56-.84-.2-.99.2-.99.56-.84.84-.56.99-.2.99.2.84.56.56.84.2.99Z"/>
      <path id="path535" class="cls-1" d="M11.95,448.54l-.19.99-.57.84-.83.56-1,.2-.99-.2-.84-.56-.56-.84-.19-.99.19-.99.56-.84.84-.56.99-.2,1,.2.83.56.57.84.19.99Z"/>
      <path id="path563" class="cls-1" d="M765.18,183.72l-.19,3.1-.58,3.05-.96,2.95-1.32,2.81-1.66,2.62-1.98,2.39-2.26,2.12-2.51,1.82-2.72,1.5-2.89,1.14-3,.77-3.08.39h-3.1l-3.08-.39-3.01-.77-2.88-1.14-2.72-1.5-2.51-1.82-2.26-2.12-1.98-2.39-1.66-2.62-1.32-2.81-.96-2.95-.58-3.05-.2-3.1.2-3.09.58-3.05.96-2.95,1.32-2.81,1.66-2.62,1.98-2.39,2.26-2.12,2.51-1.83,2.72-1.49,2.88-1.14,3.01-.77,3.08-.39h3.1l3.08.39,3,.77,2.89,1.14,2.72,1.49,2.51,1.83,2.26,2.12,1.98,2.39,1.66,2.62,1.32,2.81.96,2.95.58,3.05.19,3.09Z"/>
      <path id="path613" class="cls-1" d="M792.32,151.42l-.19.99-.56.84-.84.56-.99.2-.99-.2-.84-.56-.56-.84-.2-.99.2-.99.56-.84.84-.56.99-.19.99.19.84.56.56.84.19.99Z"/>
      <path id="path633" class="cls-1" d="M636.25,151.42l-.2.99-.56.84-.84.56-.99.2-.99-.2-.84-.56-.56-.84-.2-.99.2-.99.56-.84.84-.56.99-.19.99.19.84.56.56.84.2.99Z"/>
      <path id="path653" class="cls-1" d="M480.17,151.42l-.2.99-.56.84-.84.56-.99.2-.99-.2-.84-.56-.56-.84-.2-.99.2-.99.56-.84.84-.56.99-.19.99.19.84.56.56.84.2.99Z"/>
      <path id="path673" class="cls-1" d="M324.09,151.42l-.2.99-.56.84-.84.56-.99.2-.99-.2-.84-.56-.56-.84-.19-.99.19-.99.56-.84.84-.56.99-.19.99.19.84.56.56.84.2.99Z"/>
      <path id="path693" class="cls-1" d="M168.01,151.42l-.19.99-.56.84-.84.56-.99.2-.99-.2-.84-.56-.57-.84-.19-.99.19-.99.57-.84.84-.56.99-.19.99.19.84.56.56.84.19.99Z"/>
      <path id="path713" class="cls-1" d="M11.94,151.42l-.2.99-.56.84-.84.56-.99.2-.99-.2-.84-.56-.56-.84-.2-.99.2-.99.56-.84.84-.56.99-.19.99.19.84.56.56.84.2.99Z"/>
    </g>
  </g>
</svg>