<?xml version="1.0" encoding="UTF-8"?>
<svg xmlns="http://www.w3.org/2000/svg" version="1.1" xmlns:inkscape="http://www.inkscape.org/namespaces/inkscape" xmlns:sodipodi="http://sodipodi.sourceforge.net/DTD/sodipodi-0.dtd" xmlns:svg="http://www.w3.org/2000/svg" viewBox="0 0 800 600">
  <defs>
    <style>
      .cls-1 {
        fill: none;
        stroke: #000;
        stroke-width: .5px;
      }
    </style>
  </defs>
  <!-- Generator: Adobe Illustrator 28.7.1, SVG Export Plug-In . SVG Version: 1.2.0 Build 142)  -->
  <g>
    <g id="svg1136">
      <path id="path64" class="cls-1" d="M776.45,350.54l1.22.16,1.13.47.98.75.75.97.47,1.14.16,1.22v32.44l-.16,1.22-.47,1.13-.75.97-.98.75-1.13.47-1.22.16h-64.1l-1.22-.16-1.14-.47-.97-.75-.75-.97-.47-1.13-.16-1.22v-32.44l.16-1.22.47-1.14.75-.97.97-.75,1.14-.47,1.22-.16h64.1Z"/>
      <path id="path121" class="cls-1" d="M788.24,310.49v31.11h-92.75v-31.11h92.75Z"/>
      <path id="path145" class="cls-1" d="M795.29,145.88l.67.05.66.14.63.24.59.32.54.4.47.48.4.53.32.59.24.63.14.66.05.67v298.82l-.05.67-.14.66-.24.63-.32.59-.4.53-.47.48-.54.4-.59.32-.63.24-.66.14-.67.05H4.71l-.67-.05-.66-.14-.63-.24-.59-.32-.54-.4-.47-.48-.4-.53-.32-.59-.24-.63-.14-.66-.05-.67V150.59l.05-.67.14-.66.24-.63.32-.59.4-.53.47-.48.54-.4.59-.32.63-.24.66-.14.67-.05h790.58Z"/>
      <path id="path424" class="cls-1" d="M14.1,159.99v44.82h44.82v-44.82H14.1Z"/>
      <path id="path428" class="cls-1" d="M68.75,159.94v44.82h179.26v-44.82H68.75Z"/>
      <path id="path432" class="cls-1" d="M257.87,159.94v44.82h179.26v-44.82h-179.26Z"/>
      <path id="path436" class="cls-1" d="M447,159.92v44.83h179.26v-44.83h-179.26Z"/>
      <path id="path440" class="cls-1" d="M641.67,159.89v44.83h44.82v-44.83h-44.82Z"/>
      <path id="path444" class="cls-1" d="M697,215.91v89.64h89.65v-89.64h-89.65Z"/>
      <path id="path448" class="cls-1" d="M14.19,215.93v224.11h582.71v-44.81h44.83v-44.84h44.81v-134.46H14.19Z"/>
      <path id="path456" class="cls-1" d="M655.8,353.91v44.79h-44.83v44.83h134.47v-44.8h-44.81v-44.82h-44.83Z"/>
      <path id="path515" class="cls-1" d="M792.34,448.54l-.2.99-.56.84-.84.56-.99.2-.99-.2-.84-.56-.56-.84-.2-.99.2-.99.56-.84.84-.56.99-.2.99.2.84.56.56.84.2.99Z"/>
      <path id="path531" class="cls-1" d="M636.26,448.54l-.19.99-.56.84-.84.56-.99.2-1-.2-.83-.56-.57-.84-.19-.99.19-.99.57-.84.83-.56,1-.2.99.2.84.56.56.84.19.99Z"/>
      <path id="path555" class="cls-1" d="M480.19,448.54l-.2.99-.56.84-.84.56-.99.2-.99-.2-.84-.56-.56-.84-.2-.99.2-.99.56-.84.84-.56.99-.2.99.2.84.56.56.84.2.99Z"/>
      <path id="path571" class="cls-1" d="M324.11,448.54l-.2.99-.56.84-.84.56-.99.2-.99-.2-.84-.56-.56-.84-.2-.99.2-.99.56-.84.84-.56.99-.2.99.2.84.56.56.84.2.99Z"/>
      <path id="path587" class="cls-1" d="M168.03,448.54l-.2.99-.56.84-.84.56-.99.2-.99-.2-.84-.56-.56-.84-.2-.99.2-.99.56-.84.84-.56.99-.2.99.2.84.56.56.84.2.99Z"/>
      <path id="path603" class="cls-1" d="M11.95,448.54l-.19.99-.57.84-.83.56-1,.2-.99-.2-.84-.56-.56-.84-.19-.99.19-.99.56-.84.84-.56.99-.2,1,.2.83.56.57.84.19.99Z"/>
      <path id="path631" class="cls-1" d="M765.18,183.72l-.19,3.1-.58,3.05-.96,2.95-1.32,2.81-1.66,2.62-1.98,2.39-2.26,2.12-2.51,1.82-2.72,1.5-2.89,1.14-3,.77-3.08.39h-3.1l-3.08-.39-3.01-.77-2.88-1.14-2.72-1.5-2.51-1.82-2.26-2.12-1.98-2.39-1.66-2.62-1.32-2.81-.96-2.95-.58-3.05-.2-3.1.2-3.09.58-3.05.96-2.95,1.32-2.81,1.66-2.62,1.98-2.39,2.26-2.12,2.51-1.83,2.72-1.49,2.88-1.14,3.01-.77,3.08-.39h3.1l3.08.39,3,.77,2.89,1.14,2.72,1.49,2.51,1.83,2.26,2.12,1.98,2.39,1.66,2.62,1.32,2.81.96,2.95.58,3.05.19,3.09Z"/>
      <path id="path681" class="cls-1" d="M792.32,151.42l-.19.99-.56.84-.84.56-.99.2-.99-.2-.84-.56-.56-.84-.2-.99.2-.99.56-.84.84-.56.99-.19.99.19.84.56.56.84.19.99Z"/>
      <path id="path701" class="cls-1" d="M636.25,151.42l-.2.99-.56.84-.84.56-.99.2-.99-.2-.84-.56-.56-.84-.2-.99.2-.99.56-.84.84-.56.99-.19.99.19.84.56.56.84.2.99Z"/>
      <path id="path721" class="cls-1" d="M480.17,151.42l-.2.99-.56.84-.84.56-.99.2-.99-.2-.84-.56-.56-.84-.2-.99.2-.99.56-.84.84-.56.99-.19.99.19.84.56.56.84.2.99Z"/>
      <path id="path741" class="cls-1" d="M324.09,151.42l-.2.99-.56.84-.84.56-.99.2-.99-.2-.84-.56-.56-.84-.19-.99.19-.99.56-.84.84-.56.99-.19.99.19.84.56.56.84.2.99Z"/>
      <path id="path761" class="cls-1" d="M168.01,151.42l-.19.99-.56.84-.84.56-.99.2-.99-.2-.84-.56-.57-.84-.19-.99.19-.99.57-.84.84-.56.99-.19.99.19.84.56.56.84.19.99Z"/>
      <path id="path781" class="cls-1" d="M11.94,151.42l-.2.99-.56.84-.84.56-.99.2-.99-.2-.84-.56-.56-.84-.2-.99.2-.99.56-.84.84-.56.99-.19.99.19.84.56.56.84.2.99Z"/>
      <path id="path917" class="cls-1" d="M52.28,279.36l.19.99.56.84.84.56.99.2.99-.2.84-.56.56-.84.2-.99-.2-.99-.56-.84-.84-.56-.99-.2-.99.2-.84.56-.56.84-.19.99Z"/>
      <path id="path949" class="cls-1" d="M645.36,279.56l.19.99.57.84.84.56.99.2.99-.2.84-.56.56-.84.19-.99-.19-.99-.56-.84-.84-.56-.99-.2-.99.2-.84.56-.57.84-.19.99Z"/>
      <path id="path981" class="cls-1" d="M447.71,279.56l.2.99.56.84.84.56.99.2.99-.2.84-.56.56-.84.2-.99-.2-.99-.56-.84-.84-.56-.99-.2-.99.2-.84.56-.56.84-.2.99Z"/>
      <path id="path1013" class="cls-1" d="M249.92,279.36l.2.99.56.84.84.56.99.2.99-.2.84-.56.56-.84.2-.99-.2-.99-.56-.84-.84-.56-.99-.2-.99.2-.84.56-.56.84-.2.99Z"/>
      <path id="path1041" class="cls-1" d="M647.95,302.89l2.94-.19,2.91-.55,2.81-.91,2.67-1.26,2.5-1.59,2.27-1.88,2.03-2.15,1.73-2.39,1.43-2.59,1.08-2.75.74-2.86.37-2.93v-2.96l-.37-2.93-.74-2.86-1.08-2.75-1.43-2.59-1.73-2.39-2.03-2.15-2.27-1.89-2.5-1.58-2.67-1.26-2.81-.91-2.91-.56-2.94-.18H54.86l-2.95.18-2.9.56-2.81.91-2.67,1.26-2.5,1.58-2.27,1.89-2.03,2.15-1.73,2.39-1.43,2.59-1.08,2.75-.74,2.86-.37,2.93v2.96l.37,2.93.74,2.86,1.08,2.75,1.43,2.59,1.73,2.39,2.03,2.15,2.27,1.88,2.5,1.59,2.67,1.26,2.81.91,2.9.55,2.95.19h593.09Z"/>
    </g>
  </g>
</svg>