%TF.GenerationSoftware,KiCad,Pcbnew,7.0.9*%
%TF.CreationDate,2024-09-10T22:02:26-04:00*%
%TF.ProjectId,panel,70616e65-6c2e-46b6-9963-61645f706362,0.1*%
%TF.SameCoordinates,Original*%
%TF.FileFunction,Drillmap*%
%TF.FilePolarity,Positive*%
%FSLAX45Y45*%
G04 Gerber Fmt 4.5, Leading zero omitted, Abs format (unit mm)*
G04 Created by KiCad (PCBNEW 7.0.9) date 2024-09-10 22:02:26*
%MOMM*%
%LPD*%
G01*
G04 APERTURE LIST*
%ADD10C,0.100000*%
%ADD11C,0.200000*%
%ADD12C,0.260000*%
G04 APERTURE END LIST*
D10*
X3994154Y-11449644D02*
X3995694Y-11454305D01*
X38199518Y-2340198D02*
X38199880Y-2345093D01*
X17409570Y-2480321D02*
X17405557Y-2483147D01*
X38151410Y-11069106D02*
X38147140Y-11071525D01*
X17448918Y-15685327D02*
X17449518Y-15690198D01*
X37991176Y-15458655D02*
X37993267Y-15451348D01*
X17359802Y-2499518D02*
X17354907Y-2499880D01*
X30992755Y-15840399D02*
X30988268Y-15842388D01*
X37978974Y-15489202D02*
X37980090Y-15486928D01*
X3951410Y-7030894D02*
X3955557Y-7033520D01*
X31425702Y-15602997D02*
X31430491Y-15601921D01*
X38185773Y-15801410D02*
X38183147Y-15805557D01*
X31044154Y-2316311D02*
X31045694Y-2320971D01*
X38100000Y-15850000D02*
X31450000Y-15850000D01*
X10972699Y-2463439D02*
X10969679Y-2459570D01*
X38147140Y-7028474D02*
X38151410Y-7030894D01*
X24192755Y-2490399D02*
X24188268Y-2492388D01*
X4063147Y-2554192D02*
X4061311Y-2555937D01*
X24552997Y-2424298D02*
X24551921Y-2419509D01*
X24213439Y-2272699D02*
X24217156Y-2275905D01*
X24625702Y-15602997D02*
X24630491Y-15601921D01*
X3875702Y-7019663D02*
X3880491Y-7018588D01*
X38002997Y-11007631D02*
X38001921Y-11002842D01*
X24188268Y-15842388D02*
X24183689Y-15844154D01*
X38199518Y-6626468D02*
X38198918Y-6631340D01*
X17435773Y-15648590D02*
X17438192Y-15652860D01*
X31024095Y-2467156D02*
X31020711Y-2470711D01*
X38019679Y-6676237D02*
X38016853Y-6672224D01*
X37851348Y-2506733D02*
X37848896Y-2506098D01*
X24205557Y-15833147D02*
X24201410Y-15835773D01*
X24164673Y-15848918D02*
X24159802Y-15849518D01*
X24620971Y-15845694D02*
X24616311Y-15844154D01*
X38174095Y-2282844D02*
X38177301Y-2286561D01*
X31386561Y-15622699D02*
X31390430Y-15619679D01*
X31355845Y-2433689D02*
X31354306Y-2429029D01*
X4122305Y-2515739D02*
X4119978Y-2516737D01*
X38194154Y-15783689D02*
X38192388Y-15788268D01*
X38200000Y-6616667D02*
X38199880Y-6621573D01*
X24566853Y-15805557D02*
X24564227Y-15801410D01*
X3825905Y-7049511D02*
X3829289Y-7045956D01*
X24572699Y-15636561D02*
X24575905Y-15632844D01*
X3992388Y-6654935D02*
X3990399Y-6659422D01*
X38142756Y-11073732D02*
X38138268Y-11075721D01*
X38188192Y-6663806D02*
X38185773Y-6668077D01*
X31042388Y-15788268D02*
X31040399Y-15792755D01*
X31450000Y-2500000D02*
X31445093Y-2499880D01*
X10952997Y-2325702D02*
X10954306Y-2320971D01*
X17442388Y-2311732D02*
X17444154Y-2316311D01*
X4129362Y-15587080D02*
X4131738Y-15587960D01*
X38070971Y-11387639D02*
X38075702Y-11386330D01*
X24224095Y-15817156D02*
X24220711Y-15820711D01*
X10975905Y-2467156D02*
X10972699Y-2463439D01*
X31411731Y-15842388D02*
X31407244Y-15840399D01*
X10550000Y-15600000D02*
X10554907Y-15600120D01*
X4181029Y-2500930D02*
X4178510Y-2501186D01*
X10624095Y-2467156D02*
X10620711Y-2470711D01*
X38194154Y-7082978D02*
X38195694Y-7087638D01*
X4000000Y-15399367D02*
X4000016Y-15400633D01*
X37969032Y-15506850D02*
X37970372Y-15504701D01*
X4078600Y-15558905D02*
X4084725Y-15563403D01*
X3819679Y-6676237D02*
X3816853Y-6672224D01*
X38177301Y-11046773D02*
X38174095Y-11050489D01*
X31350120Y-15754907D02*
X31350000Y-15750000D01*
X10954306Y-15670971D02*
X10955846Y-15666311D01*
X37963403Y-2584725D02*
X37958905Y-2578600D01*
X24244154Y-2316311D02*
X24245694Y-2320971D01*
X38194154Y-6650356D02*
X38192388Y-6654935D01*
X10950000Y-15700000D02*
X10950120Y-15695093D01*
X38200000Y-15750000D02*
X38199880Y-15754907D01*
X31435327Y-2251082D02*
X31440198Y-2250482D01*
X24551921Y-15769509D02*
X24551082Y-15764673D01*
X3832844Y-7042571D02*
X3836561Y-7039365D01*
X38159570Y-2269679D02*
X38163439Y-2272699D01*
X24238192Y-2447140D02*
X24235773Y-2451410D01*
X3840430Y-6696987D02*
X3836561Y-6693968D01*
X3988192Y-11030473D02*
X3985773Y-11034744D01*
X38000482Y-6626468D02*
X38000120Y-6621573D01*
X3919509Y-11081412D02*
X3914673Y-11082251D01*
X38142756Y-7026268D02*
X38147140Y-7028474D01*
X37987080Y-15470637D02*
X37987960Y-15468262D01*
X10597140Y-15611808D02*
X10601410Y-15614227D01*
X31350481Y-2340198D02*
X31351082Y-2335327D01*
X17769679Y-15640430D02*
X17772699Y-15636561D01*
X11025702Y-15602997D02*
X11030491Y-15601921D01*
X37983263Y-15480022D02*
X37984261Y-15477695D01*
X31390430Y-15830321D02*
X31386561Y-15827301D01*
X4004380Y-15441494D02*
X4006098Y-15448896D01*
X24217156Y-15824095D02*
X24213439Y-15827301D01*
X4035150Y-2586804D02*
X4030968Y-2593149D01*
X24552997Y-15774298D02*
X24551921Y-15769509D01*
X38029289Y-11054044D02*
X38025905Y-11050489D01*
X38119509Y-11385255D02*
X38124298Y-11386330D01*
X3998918Y-6631340D02*
X3998078Y-6636176D01*
X38080491Y-11081412D02*
X38075702Y-11080336D01*
X24249518Y-2409802D02*
X24248918Y-2414673D01*
X4030968Y-2593149D02*
X4029628Y-2595299D01*
X31411731Y-2257612D02*
X31416311Y-2255846D01*
X17413439Y-15622699D02*
X17417156Y-15625905D01*
X10951082Y-2414673D02*
X10950482Y-2409802D01*
X10574298Y-15602997D02*
X10579029Y-15604306D01*
X10638192Y-2447140D02*
X10635773Y-2451410D01*
X3848590Y-2264227D02*
X3852860Y-2261808D01*
X4084725Y-15563403D02*
X4086804Y-15564850D01*
X3870971Y-15845694D02*
X3866311Y-15844154D01*
X3997003Y-6640965D02*
X3995694Y-6645695D01*
X10638192Y-2302860D02*
X10640399Y-2307244D01*
X38032844Y-11057428D02*
X38029289Y-11054044D01*
X10605557Y-2483147D02*
X10601410Y-2485773D01*
X30954907Y-15849879D02*
X30950000Y-15850000D01*
X10649880Y-2404907D02*
X10649518Y-2409802D01*
X38085327Y-7017749D02*
X38090198Y-7017148D01*
X11002860Y-2488192D02*
X10998590Y-2485773D01*
X24249879Y-2404907D02*
X24249518Y-2409802D01*
X37984261Y-2622305D02*
X37983263Y-2619978D01*
X3914673Y-7017749D02*
X3919509Y-7018588D01*
X38057244Y-11392934D02*
X38061732Y-11390945D01*
X38170711Y-15820711D02*
X38167156Y-15824095D01*
X10627301Y-15813439D02*
X10624095Y-15817156D01*
X4006098Y-15448896D02*
X4006733Y-15451348D01*
X37821490Y-2501186D02*
X37818970Y-2500930D01*
X3980321Y-6676237D02*
X3977301Y-6680106D01*
X37995620Y-2658506D02*
X37993902Y-2651104D01*
X31030321Y-2290430D02*
X31033147Y-2294443D01*
X3848590Y-6702439D02*
X3844443Y-6699814D01*
X31049518Y-2409802D02*
X31048918Y-2414673D01*
X37969032Y-2593149D02*
X37964850Y-2586804D01*
X17448918Y-2414673D02*
X17448079Y-2419509D01*
X38138268Y-2257612D02*
X38142756Y-2259601D01*
X38151410Y-7030894D02*
X38155557Y-7033520D01*
X17448918Y-2335327D02*
X17449518Y-2340198D01*
X24575905Y-2467156D02*
X24572699Y-2463439D01*
X38174095Y-11416177D02*
X38177301Y-11419894D01*
X4000000Y-11483333D02*
X4000000Y-15399367D01*
X10550000Y-2250000D02*
X10554907Y-2250120D01*
X4035150Y-15513196D02*
X4036597Y-15515275D01*
X3807612Y-11445065D02*
X3809601Y-11440578D01*
X38004306Y-11012362D02*
X38002997Y-11007631D01*
X31369679Y-15640430D02*
X31372699Y-15636561D01*
X4055937Y-2561311D02*
X4054192Y-2563147D01*
X17775905Y-2282844D02*
X17779289Y-2279289D01*
X24174298Y-15847003D02*
X24169509Y-15848078D01*
X3852860Y-2261808D02*
X3857244Y-2259601D01*
X24249879Y-15695093D02*
X24250000Y-15700000D01*
X31359601Y-15792755D02*
X31357612Y-15788268D01*
X17449518Y-2340198D02*
X17449880Y-2345093D01*
X37861071Y-2509582D02*
X37858655Y-2508824D01*
X38022699Y-6680106D02*
X38019679Y-6676237D01*
X31366853Y-2294443D02*
X31369679Y-2290430D01*
X3822699Y-11046773D02*
X3819679Y-11042903D01*
X24248078Y-2330491D02*
X24248918Y-2335327D01*
X38104907Y-7016787D02*
X38109802Y-7017148D01*
X24569679Y-15640430D02*
X24572699Y-15636561D01*
X3848590Y-7030894D02*
X3852860Y-7028474D01*
X3919509Y-6714745D02*
X3914673Y-6715584D01*
X10569509Y-2498079D02*
X10564673Y-2498918D01*
X11045093Y-15600120D02*
X11050000Y-15600000D01*
X17755846Y-2316311D02*
X17757612Y-2311732D01*
X17751082Y-15685327D02*
X17751921Y-15680491D01*
X38007612Y-11021602D02*
X38005846Y-11017022D01*
X3807612Y-11021602D02*
X3805845Y-11017022D01*
X38014227Y-11034744D02*
X38011808Y-11030473D01*
X38147140Y-15838192D02*
X38142756Y-15840399D01*
X24569679Y-2459570D02*
X24566853Y-2455557D01*
X24179028Y-2495694D02*
X24174298Y-2497003D01*
X4004380Y-2658506D02*
X4003870Y-2660987D01*
X24557612Y-2438268D02*
X24555845Y-2433689D01*
X31033147Y-2455557D02*
X31030321Y-2459570D01*
X24245694Y-2320971D02*
X24247003Y-2325702D01*
X10642388Y-2438268D02*
X10640399Y-2442756D01*
X11040198Y-2250482D02*
X11045093Y-2250120D01*
X24188268Y-15607612D02*
X24192755Y-15609601D01*
X4000016Y-2699367D02*
X4000000Y-2700633D01*
X31030321Y-15640430D02*
X31033147Y-15644443D01*
X31420971Y-2495694D02*
X31416311Y-2494154D01*
X38090198Y-11082852D02*
X38085327Y-11082251D01*
X4170971Y-2502146D02*
X4168467Y-2502530D01*
X3900000Y-6716667D02*
X3895093Y-6716546D01*
X38147140Y-11395141D02*
X38151410Y-11397560D01*
X3801082Y-15764673D02*
X3800481Y-15759802D01*
X10635773Y-2298590D02*
X10638192Y-2302860D01*
X3980321Y-7057097D02*
X3983147Y-7061109D01*
X24205557Y-15616853D02*
X24209570Y-15619679D01*
X17364673Y-2251082D02*
X17369509Y-2251921D01*
X17450000Y-15700000D02*
X17450000Y-15750000D01*
X37921400Y-2541095D02*
X37915275Y-2536597D01*
X4000930Y-2681030D02*
X4000353Y-2688607D01*
X4178510Y-15598814D02*
X4181029Y-15599070D01*
X10645694Y-2320971D02*
X10647003Y-2325702D01*
X17761808Y-15797140D02*
X17759601Y-15792755D01*
X4076597Y-15557354D02*
X4078600Y-15558905D01*
X24590430Y-2480321D02*
X24586561Y-2477301D01*
X3967156Y-11409238D02*
X3970711Y-11412623D01*
X17448079Y-15769509D02*
X17447003Y-15774298D01*
X10601410Y-2264227D02*
X10605557Y-2266853D01*
X31416311Y-2494154D02*
X31411731Y-2492388D01*
X24217156Y-2474095D02*
X24213439Y-2477301D01*
X37923403Y-2542645D02*
X37921400Y-2541095D01*
X17430321Y-2290430D02*
X17433147Y-2294443D01*
X38198079Y-2330491D02*
X38198918Y-2335327D01*
X31005557Y-15833147D02*
X31001410Y-15835773D01*
X31351921Y-2419509D02*
X31351082Y-2414673D01*
X10554907Y-15849879D02*
X10550000Y-15850000D01*
X17779289Y-15629289D02*
X17782844Y-15625905D01*
X24566853Y-15644443D02*
X24569679Y-15640430D01*
X17420711Y-2470711D02*
X17417156Y-2474095D01*
X17427301Y-2286561D02*
X17430321Y-2290430D01*
X10627301Y-2286561D02*
X10630321Y-2290430D01*
X3840430Y-15830321D02*
X3836561Y-15827301D01*
X17354907Y-15600120D02*
X17359802Y-15600481D01*
X4076597Y-2542645D02*
X4070707Y-2547448D01*
X38200000Y-2350000D02*
X38200000Y-6616667D01*
X17364673Y-15601082D02*
X17369509Y-15601921D01*
X24554306Y-2320971D02*
X24555845Y-2316311D01*
X24572699Y-2286561D02*
X24575905Y-2282844D01*
X4029628Y-2595299D02*
X4025773Y-2601848D01*
X38000000Y-7116666D02*
X38000120Y-7111760D01*
X24564227Y-2298590D02*
X24566853Y-2294443D01*
X38001082Y-7101993D02*
X38001921Y-7097157D01*
X3805845Y-2316311D02*
X3807612Y-2311732D01*
X31044154Y-15666311D02*
X31045694Y-15670971D01*
X37958905Y-2578600D02*
X37957355Y-2576597D01*
X38032844Y-7042571D02*
X38036561Y-7039365D01*
X10957612Y-2438268D02*
X10955846Y-2433689D01*
X17751082Y-2335327D02*
X17751921Y-2330491D01*
X38174095Y-11050489D02*
X38170711Y-11054044D01*
X24611731Y-2492388D02*
X24607244Y-2490399D01*
X31445093Y-15849879D02*
X31440198Y-15849518D01*
X38000120Y-6621573D02*
X38000000Y-6616667D01*
X38022699Y-7053227D02*
X38025905Y-7049511D01*
X17383689Y-2255846D02*
X17388268Y-2257612D01*
X37880022Y-2516737D02*
X37877695Y-2515739D01*
X17435773Y-2298590D02*
X17438192Y-2302860D01*
X3809601Y-11440578D02*
X3811808Y-11436194D01*
X3801921Y-11002842D02*
X3801082Y-10998006D01*
X38016853Y-7061109D02*
X38019679Y-7057097D01*
X31435327Y-15601082D02*
X31440198Y-15600481D01*
X38195694Y-11012362D02*
X38194154Y-11017022D01*
X38138268Y-7024279D02*
X38142756Y-7026268D01*
X38192388Y-11445065D02*
X38194154Y-11449644D01*
X17850000Y-2250000D02*
X24150000Y-2250000D01*
X3959570Y-11403012D02*
X3963439Y-11406032D01*
X24611731Y-2257612D02*
X24616311Y-2255846D01*
X24611731Y-15842388D02*
X24607244Y-15840399D01*
X3816853Y-11038890D02*
X3814227Y-11034744D01*
X38022699Y-11419894D02*
X38025905Y-11416177D01*
X3933689Y-11389179D02*
X3938268Y-11390945D01*
X24551921Y-2330491D02*
X24552997Y-2325702D01*
X3997003Y-7092368D02*
X3998078Y-7097157D01*
X3819679Y-11423763D02*
X3822699Y-11419894D01*
X38199518Y-15759802D02*
X38198918Y-15764673D01*
X30983689Y-15844154D02*
X30979028Y-15845694D01*
X37999647Y-15411393D02*
X37999775Y-15408863D01*
X31024095Y-15632844D02*
X31027301Y-15636561D01*
X10609570Y-15830321D02*
X10605557Y-15833147D01*
X31425702Y-2252997D02*
X31430491Y-2251921D01*
X24205557Y-2266853D02*
X24209570Y-2269679D01*
X38198079Y-7097157D02*
X38198918Y-7101993D01*
X24230321Y-15640430D02*
X24233147Y-15644443D01*
X24598590Y-15614227D02*
X24602860Y-15611808D01*
X38119509Y-7018588D02*
X38124298Y-7019663D01*
X17379029Y-2495694D02*
X17374298Y-2497003D01*
X24201410Y-15614227D02*
X24205557Y-15616853D01*
X31047003Y-15675702D02*
X31048078Y-15680491D01*
X31407244Y-15609601D02*
X31411731Y-15607612D01*
X37848896Y-15593902D02*
X37851348Y-15593267D01*
X17445694Y-2320971D02*
X17447003Y-2325702D01*
X37999775Y-15408863D02*
X37999984Y-15400633D01*
X38200000Y-11483333D02*
X38200000Y-15750000D01*
X38198079Y-11002842D02*
X38197003Y-11007631D01*
X17850000Y-15850000D02*
X17845093Y-15849879D01*
X38163439Y-11060634D02*
X38159570Y-11063654D01*
X17850000Y-2500000D02*
X17845093Y-2499880D01*
X11040198Y-15600481D02*
X11045093Y-15600120D01*
X37839013Y-2503871D02*
X37831533Y-2502530D01*
X24559601Y-15792755D02*
X24557612Y-15788268D01*
X3933689Y-6710821D02*
X3929028Y-6712361D01*
X10986561Y-2272699D02*
X10990430Y-2269679D01*
X17413439Y-2272699D02*
X17417156Y-2275905D01*
X4025773Y-15498152D02*
X4029628Y-15504701D01*
X38004306Y-11454305D02*
X38005846Y-11449644D01*
X10574298Y-15847003D02*
X10569509Y-15848078D01*
X24217156Y-2275905D02*
X24220711Y-2279289D01*
X24607244Y-15609601D02*
X24611731Y-15607612D01*
X17755846Y-15666311D02*
X17757612Y-15661731D01*
X37996129Y-2660987D02*
X37995620Y-2658506D01*
X17798590Y-15835773D02*
X17794443Y-15833147D01*
X31355845Y-15666311D02*
X31357612Y-15661731D01*
X10648918Y-2335327D02*
X10649518Y-2340198D01*
X3870971Y-7020973D02*
X3875702Y-7019663D01*
X24635327Y-15601082D02*
X24640198Y-15600481D01*
X24551921Y-2419509D02*
X24551082Y-2414673D01*
X4054192Y-2563147D02*
X4049098Y-2568785D01*
X24566853Y-2455557D02*
X24564227Y-2451410D01*
X3829289Y-11412623D02*
X3832844Y-11409238D01*
X3967156Y-7042571D02*
X3970711Y-7045956D01*
X38124298Y-2252997D02*
X38129029Y-2254306D01*
X38133689Y-11077488D02*
X38129029Y-11079027D01*
X10592756Y-15609601D02*
X10597140Y-15611808D01*
X3861731Y-6709055D02*
X3857244Y-6707066D01*
X3804306Y-6645695D02*
X3802997Y-6640965D01*
X38197003Y-11459035D02*
X38198079Y-11463824D01*
X10638192Y-15797140D02*
X10635773Y-15801410D01*
X4002530Y-2668467D02*
X4002146Y-2670971D01*
X24650000Y-15850000D02*
X24645093Y-15849879D01*
X31045694Y-15779028D02*
X31044154Y-15783689D01*
X4078600Y-2541095D02*
X4076597Y-2542645D01*
X17750482Y-2409802D02*
X17750120Y-2404907D01*
X10588268Y-15607612D02*
X10592756Y-15609601D01*
X17448079Y-2419509D02*
X17447003Y-2424298D01*
X24551082Y-2414673D02*
X24550481Y-2409802D01*
X3870971Y-11387639D02*
X3875702Y-11386330D01*
X31425702Y-15847003D02*
X31420971Y-15845694D01*
X24164673Y-2498918D02*
X24159802Y-2499518D01*
X17750120Y-15695093D02*
X17750482Y-15690198D01*
X10994443Y-15616853D02*
X10998590Y-15614227D01*
X24552997Y-15675702D02*
X24554306Y-15670971D01*
X37957355Y-15523403D02*
X37958905Y-15521400D01*
X17751921Y-15680491D02*
X17752997Y-15675702D01*
X38114673Y-7017749D02*
X38119509Y-7018588D01*
X38198918Y-15764673D02*
X38198079Y-15769509D01*
X17405557Y-2483147D02*
X17401410Y-2485773D01*
X3857244Y-6707066D02*
X3852860Y-6704859D01*
X30974298Y-2252997D02*
X30979028Y-2254306D01*
X38183147Y-7061109D02*
X38185773Y-7065256D01*
X24616311Y-15844154D02*
X24611731Y-15842388D01*
X38199518Y-11473531D02*
X38199880Y-11478426D01*
X38155557Y-2266853D02*
X38159570Y-2269679D01*
X10648918Y-15685327D02*
X10649518Y-15690198D01*
X3900000Y-11083333D02*
X3895093Y-11083213D01*
X17807244Y-15609601D02*
X17811732Y-15607612D01*
X31350000Y-15750000D02*
X31350000Y-15700000D01*
X38124298Y-11386330D02*
X38129029Y-11387639D01*
X37990418Y-2638929D02*
X37987960Y-2631738D01*
X17811732Y-2492388D02*
X17807244Y-2490399D01*
X38061732Y-11075721D02*
X38057244Y-11073732D01*
X10982844Y-2275905D02*
X10986561Y-2272699D01*
X38114673Y-2251082D02*
X38119509Y-2251921D01*
X3983147Y-7061109D02*
X3985773Y-7065256D01*
X31033147Y-15805557D02*
X31030321Y-15809570D01*
X3804306Y-15779028D02*
X3802997Y-15774298D01*
X24551082Y-15685327D02*
X24551921Y-15680491D01*
X38066311Y-11389179D02*
X38070971Y-11387639D01*
X38142756Y-6707066D02*
X38138268Y-6709055D01*
X31033147Y-15644443D02*
X31035773Y-15648590D01*
X24550000Y-15700000D02*
X24550120Y-15695093D01*
X38001921Y-7097157D02*
X38002997Y-7092368D01*
X3852860Y-11071525D02*
X3848590Y-11069106D01*
X3816853Y-6672224D02*
X3814227Y-6668077D01*
X24233147Y-2294443D02*
X24235773Y-2298590D01*
X17779289Y-15820711D02*
X17775905Y-15817156D01*
X10645694Y-15670971D02*
X10647003Y-15675702D01*
X10982844Y-15824095D02*
X10979289Y-15820711D01*
X17769679Y-2290430D02*
X17772699Y-2286561D01*
X3985773Y-7065256D02*
X3988192Y-7069527D01*
X17764227Y-2451410D02*
X17761808Y-2447140D01*
X31013439Y-2477301D02*
X31009570Y-2480321D01*
X3999518Y-7106865D02*
X3999879Y-7111760D01*
X17427301Y-15636561D02*
X17430321Y-15640430D01*
X10959601Y-15792755D02*
X10957612Y-15788268D01*
X38185773Y-7065256D02*
X38188192Y-7069527D01*
X3924298Y-11080336D02*
X3919509Y-11081412D01*
X3809601Y-15792755D02*
X3807612Y-15788268D01*
X11007244Y-2259601D02*
X11011732Y-2257612D01*
X4012919Y-15470637D02*
X4015738Y-15477695D01*
X17445694Y-15779028D02*
X17444154Y-15783689D01*
X38124298Y-6713670D02*
X38119509Y-6714745D01*
X4001186Y-15421490D02*
X4002146Y-15429029D01*
X10592756Y-2490399D02*
X10588268Y-2492388D01*
X37998814Y-2678510D02*
X37997854Y-2670971D01*
X31355845Y-2316311D02*
X31357612Y-2311732D01*
X31361808Y-2447140D02*
X31359601Y-2442756D01*
X3822699Y-7053227D02*
X3825905Y-7049511D01*
X4008824Y-15458655D02*
X4009582Y-15461071D01*
X10950482Y-2409802D02*
X10950120Y-2404907D01*
X38188192Y-11030473D02*
X38185773Y-11034744D01*
X31357612Y-15661731D02*
X31359601Y-15657244D01*
X24602860Y-15611808D02*
X24607244Y-15609601D01*
X4041095Y-15521400D02*
X4042645Y-15523403D01*
X38095093Y-11383454D02*
X38100000Y-11383333D01*
X17369509Y-15601921D02*
X17374298Y-15602997D01*
X10966853Y-2294443D02*
X10969679Y-2290430D01*
X10627301Y-2463439D02*
X10624095Y-2467156D01*
X38109802Y-11383815D02*
X38114673Y-11384416D01*
X10649880Y-15695093D02*
X10650000Y-15700000D01*
X24620971Y-2254306D02*
X24625702Y-2252997D01*
X10951921Y-15680491D02*
X10952997Y-15675702D01*
X17825702Y-2497003D02*
X17820971Y-2495694D01*
X10951082Y-2335327D02*
X10951921Y-2330491D01*
X3938268Y-6709055D02*
X3933689Y-6710821D01*
X31398590Y-2485773D02*
X31394443Y-2483147D01*
X17750120Y-15754907D02*
X17750000Y-15750000D01*
X38119509Y-2251921D02*
X38124298Y-2252997D01*
X3800000Y-15750000D02*
X3800000Y-11483333D01*
X4049098Y-2568785D02*
X4047448Y-2570707D01*
X10588268Y-2257612D02*
X10592756Y-2259601D01*
X4047448Y-15529293D02*
X4049098Y-15531214D01*
X24250000Y-15750000D02*
X24249879Y-15754907D01*
X3829289Y-7045956D02*
X3832844Y-7042571D01*
X4003870Y-2660987D02*
X4002530Y-2668467D01*
X3938268Y-7024279D02*
X3942755Y-7026268D01*
X3895093Y-6716546D02*
X3890198Y-6716185D01*
X24616311Y-2494154D02*
X24611731Y-2492388D01*
X31445093Y-2499880D02*
X31440198Y-2499518D01*
X10647003Y-2424298D02*
X10645694Y-2429029D01*
X17359802Y-2250482D02*
X17364673Y-2251082D01*
X38011808Y-11030473D02*
X38009601Y-11026089D01*
X10650000Y-15700000D02*
X10650000Y-15750000D01*
X38129029Y-6712361D02*
X38124298Y-6713670D01*
X4000225Y-15408863D02*
X4000353Y-15411393D01*
X10597140Y-15838192D02*
X10592756Y-15840399D01*
X38005846Y-7082978D02*
X38007612Y-7078398D01*
X3895093Y-15849879D02*
X3890198Y-15849518D01*
X38180321Y-7057097D02*
X38183147Y-7061109D01*
X24174298Y-2497003D02*
X24169509Y-2498079D01*
X3801082Y-2335327D02*
X3801921Y-2330491D01*
X30950000Y-2500000D02*
X24650000Y-2500000D01*
X24150000Y-15850000D02*
X17850000Y-15850000D01*
X24635327Y-15848918D02*
X24630491Y-15848078D01*
X11002860Y-15611808D02*
X11007244Y-15609601D01*
X38090198Y-7017148D02*
X38095093Y-7016787D01*
X31048918Y-2335327D02*
X31049518Y-2340198D01*
X10617156Y-2474095D02*
X10613439Y-2477301D01*
X38448773Y-16100000D02*
X38449970Y-16099970D01*
X37929293Y-2547448D02*
X37923403Y-2542645D01*
X17766853Y-15644443D02*
X17769679Y-15640430D01*
X10620711Y-2279289D02*
X10624095Y-2282844D01*
X17438192Y-15797140D02*
X17435773Y-15801410D01*
X3801082Y-7101993D02*
X3801921Y-7097157D01*
X4036597Y-15515275D02*
X4041095Y-15521400D01*
X37831533Y-2502530D02*
X37829029Y-2502146D01*
X17754306Y-2429029D02*
X17752997Y-2424298D01*
X3983147Y-11038890D02*
X3980321Y-11042903D01*
X17392756Y-2490399D02*
X17388268Y-2492388D01*
X38170711Y-6687377D02*
X38167156Y-6690762D01*
X3988192Y-7069527D02*
X3990399Y-7073911D01*
X3807612Y-7078398D02*
X3809601Y-7073911D01*
X10975905Y-15817156D02*
X10972699Y-15813439D01*
X10650000Y-2400000D02*
X10649880Y-2404907D01*
X37829029Y-15597854D02*
X37831533Y-15597470D01*
X3866311Y-7022512D02*
X3870971Y-7020973D01*
X3836561Y-7039365D02*
X3840430Y-7036346D01*
X31350120Y-15695093D02*
X31350481Y-15690198D01*
X10644154Y-15666311D02*
X10645694Y-15670971D01*
X24174298Y-2252997D02*
X24179028Y-2254306D01*
X37944063Y-2561311D02*
X37938689Y-2555937D01*
X3811808Y-11436194D02*
X3814227Y-11431923D01*
X10630321Y-2290430D02*
X10633147Y-2294443D01*
X10640399Y-2442756D02*
X10638192Y-2447140D01*
X37945808Y-2563147D02*
X37944063Y-2561311D01*
X38167156Y-7042571D02*
X38170711Y-7045956D01*
X17794443Y-2483147D02*
X17790430Y-2480321D01*
X31354306Y-15779028D02*
X31352997Y-15774298D01*
X3861731Y-15842388D02*
X3857244Y-15840399D01*
X3938268Y-11390945D02*
X3942755Y-11392934D01*
X17383689Y-15844154D02*
X17379029Y-15845694D01*
X17354907Y-2250120D02*
X17359802Y-2250482D01*
X31420971Y-15604306D02*
X31425702Y-15602997D01*
X10617156Y-15625905D02*
X10620711Y-15629289D01*
X24561808Y-15652860D02*
X24564227Y-15648590D01*
X31045694Y-2320971D02*
X31047003Y-2325702D01*
X10649518Y-15759802D02*
X10648918Y-15764673D01*
X17750482Y-2340198D02*
X17751082Y-2335327D01*
X38040430Y-6696987D02*
X38036561Y-6693968D01*
X10959601Y-15657244D02*
X10961808Y-15652860D01*
X38004306Y-7087638D02*
X38005846Y-7082978D01*
X38011808Y-7069527D02*
X38014227Y-7065256D01*
X31435327Y-15848918D02*
X31430491Y-15848078D01*
X31044154Y-2433689D02*
X31042388Y-2438268D01*
X38036561Y-6693968D02*
X38032844Y-6690762D01*
X38198079Y-15769509D02*
X38197003Y-15774298D01*
X17440399Y-15657244D02*
X17442388Y-15661731D01*
X38007612Y-7078398D02*
X38009601Y-7073911D01*
X17759601Y-15657244D02*
X17761808Y-15652860D01*
X37995620Y-15441494D02*
X37996129Y-15439013D01*
X37895938Y-15575456D02*
X37898152Y-15574227D01*
X31350000Y-2350000D02*
X31350120Y-2345093D01*
X38016853Y-11427776D02*
X38019679Y-11423763D01*
X24233147Y-15805557D02*
X24230321Y-15809570D01*
X3800120Y-2345093D02*
X3800481Y-2340198D01*
X31048918Y-15764673D02*
X31048078Y-15769509D01*
X31049518Y-15759802D02*
X31048918Y-15764673D01*
X31386561Y-15827301D02*
X31382844Y-15824095D01*
X4002146Y-2670971D02*
X4001186Y-2678510D01*
X38200000Y-7116666D02*
X38200000Y-10983333D01*
X38195694Y-15779028D02*
X38194154Y-15783689D01*
X31375905Y-2467156D02*
X31372699Y-2463439D01*
X31042388Y-2438268D02*
X31040399Y-2442756D01*
X3977301Y-11046773D02*
X3974095Y-11050489D01*
X38016853Y-6672224D02*
X38014227Y-6668077D01*
X31398590Y-15614227D02*
X31402860Y-15611808D01*
X10950482Y-15690198D02*
X10951082Y-15685327D01*
X17420711Y-15629289D02*
X17424095Y-15632844D01*
X24635327Y-2498918D02*
X24630491Y-2498079D01*
X31364227Y-2451410D02*
X31361808Y-2447140D01*
X24630491Y-2251921D02*
X24635327Y-2251082D01*
X4158506Y-2504380D02*
X4151103Y-2506098D01*
X10559802Y-2499518D02*
X10554907Y-2499880D01*
X3999879Y-11478426D02*
X4000000Y-11483333D01*
X11002860Y-15838192D02*
X10998590Y-15835773D01*
X3942755Y-7026268D02*
X3947140Y-7028474D01*
X3890198Y-11383815D02*
X3895093Y-11383454D01*
X30950000Y-15600000D02*
X30954907Y-15600120D01*
X37913196Y-15564850D02*
X37915275Y-15563403D01*
X17444154Y-15783689D02*
X17442388Y-15788268D01*
X37999984Y-15400633D02*
X38000000Y-15399367D01*
X24248078Y-15769509D02*
X24247003Y-15774298D01*
X11016311Y-2255846D02*
X11020971Y-2254306D01*
X10574298Y-2497003D02*
X10569509Y-2498079D01*
X3822699Y-15813439D02*
X3819679Y-15809570D01*
X3990399Y-6659422D02*
X3988192Y-6663806D01*
X38177301Y-15813439D02*
X38174095Y-15817156D01*
X24209570Y-15830321D02*
X24205557Y-15833147D01*
X24559601Y-15657244D02*
X24561808Y-15652860D01*
X10950120Y-15695093D02*
X10950482Y-15690198D01*
X38155557Y-11066480D02*
X38151410Y-11069106D01*
X30974298Y-15602997D02*
X30979028Y-15604306D01*
X38009601Y-6659422D02*
X38007612Y-6654935D01*
X31001410Y-2485773D02*
X30997140Y-2488192D01*
X3955557Y-6699814D02*
X3951410Y-6702439D01*
X38070971Y-11079027D02*
X38066311Y-11077488D01*
X3866311Y-15844154D02*
X3861731Y-15842388D01*
X3805845Y-11449644D02*
X3807612Y-11445065D01*
X30964673Y-2251082D02*
X30969509Y-2251921D01*
X37880022Y-15583263D02*
X37886928Y-15580090D01*
X24569679Y-15809570D02*
X24566853Y-15805557D01*
X24164673Y-15601082D02*
X24169509Y-15601921D01*
X24154907Y-2250120D02*
X24159802Y-2250482D01*
X38133689Y-6710821D02*
X38129029Y-6712361D01*
X3999879Y-7111760D02*
X4000000Y-7116666D01*
X38009601Y-11026089D02*
X38007612Y-11021602D01*
X38155557Y-6699814D02*
X38151410Y-6702439D01*
X3919509Y-11385255D02*
X3924298Y-11386330D01*
X37980090Y-2613072D02*
X37978974Y-2610798D01*
X3804306Y-7087638D02*
X3805845Y-7082978D01*
X3900000Y-2250000D02*
X10550000Y-2250000D01*
X24602860Y-2261808D02*
X24607244Y-2259601D01*
X24244154Y-2433689D02*
X24242388Y-2438268D01*
X4008824Y-2641345D02*
X4006733Y-2648652D01*
X4000353Y-15411393D02*
X4000930Y-15418970D01*
X17761808Y-15652860D02*
X17764227Y-15648590D01*
X38199880Y-6621573D02*
X38199518Y-6626468D01*
X11030491Y-15601921D02*
X11035327Y-15601082D01*
X38080491Y-6714745D02*
X38075702Y-6713670D01*
X38019679Y-11423763D02*
X38022699Y-11419894D01*
X31416311Y-2255846D02*
X31420971Y-2254306D01*
X24238192Y-2302860D02*
X24240399Y-2307244D01*
X3829289Y-2279289D02*
X3832844Y-2275905D01*
X4160987Y-15596129D02*
X4168467Y-15597470D01*
X10969679Y-2459570D02*
X10966853Y-2455557D01*
X38109802Y-11082852D02*
X38104907Y-11083213D01*
X31369679Y-15809570D02*
X31366853Y-15805557D01*
X31352997Y-15774298D02*
X31351921Y-15769509D01*
X4160987Y-2503871D02*
X4158506Y-2504380D01*
X24645093Y-2499880D02*
X24640198Y-2499518D01*
X37811393Y-2500353D02*
X37808863Y-2500225D01*
X30959802Y-2499518D02*
X30954907Y-2499880D01*
X24550000Y-2350000D02*
X24550120Y-2345093D01*
X37898152Y-2525773D02*
X37895938Y-2524544D01*
X38114673Y-6715584D02*
X38109802Y-6716185D01*
X31048078Y-15680491D02*
X31048918Y-15685327D01*
X17444154Y-15666311D02*
X17445694Y-15670971D01*
X3880491Y-2251921D02*
X3885327Y-2251082D01*
X3977301Y-11419894D02*
X3980321Y-11423763D01*
X38104907Y-6716546D02*
X38100000Y-6716667D01*
X31375905Y-15817156D02*
X31372699Y-15813439D01*
X37831533Y-15597470D02*
X37839013Y-15596129D01*
X37868262Y-15587960D02*
X37870638Y-15587080D01*
X31450000Y-2250000D02*
X38100000Y-2250000D01*
X30997140Y-2488192D02*
X30992755Y-2490399D01*
X31005557Y-15616853D02*
X31009570Y-15619679D01*
X30950000Y-2250000D02*
X30954907Y-2250120D01*
X3802997Y-11459035D02*
X3804306Y-11454305D01*
X31357612Y-2438268D02*
X31355845Y-2433689D01*
X37799367Y-15600000D02*
X37800633Y-15599984D01*
X37811393Y-15599647D02*
X37818970Y-15599070D01*
X37929293Y-15552552D02*
X37931215Y-15550902D01*
X3814227Y-11431923D02*
X3816853Y-11427776D01*
X10950482Y-2340198D02*
X10951082Y-2335327D01*
X4119978Y-2516737D02*
X4113072Y-2519910D01*
X4019910Y-2613072D02*
X4016737Y-2619978D01*
X3970711Y-11054044D02*
X3967156Y-11057428D01*
X38000000Y-15399367D02*
X38000000Y-11483333D01*
X24602860Y-15838192D02*
X24598590Y-15835773D01*
X38002997Y-11459035D02*
X38004306Y-11454305D01*
X17448079Y-2330491D02*
X17448918Y-2335327D01*
X38167156Y-15824095D02*
X38163439Y-15827301D01*
X17449518Y-2409802D02*
X17448918Y-2414673D01*
X38066311Y-11077488D02*
X38061732Y-11075721D01*
X24594443Y-2483147D02*
X24590430Y-2480321D01*
X24572699Y-2463439D02*
X24569679Y-2459570D01*
X3551227Y-2000000D02*
X3550029Y-2000029D01*
X17350000Y-2250000D02*
X17354907Y-2250120D01*
X38198918Y-6631340D02*
X38198079Y-6636176D01*
X38014227Y-7065256D02*
X38016853Y-7061109D01*
X31038192Y-15797140D02*
X31035773Y-15801410D01*
X31425702Y-2497003D02*
X31420971Y-2495694D01*
X24559601Y-2442756D02*
X24557612Y-2438268D01*
X24550120Y-2404907D02*
X24550000Y-2400000D01*
X17383689Y-15605845D02*
X17388268Y-15607612D01*
X10957612Y-2311732D02*
X10959601Y-2307244D01*
X10994443Y-15833147D02*
X10990430Y-15830321D01*
X38192388Y-6654935D02*
X38190399Y-6659422D01*
X3904907Y-7016787D02*
X3909802Y-7017148D01*
X17835327Y-15601082D02*
X17840198Y-15600481D01*
X17433147Y-2294443D02*
X17435773Y-2298590D01*
X37829029Y-2502146D02*
X37821490Y-2501186D01*
X24557612Y-15788268D02*
X24555845Y-15783689D01*
X10564673Y-2498918D02*
X10559802Y-2499518D01*
X10952997Y-2424298D02*
X10951921Y-2419509D01*
X24183689Y-15844154D02*
X24179028Y-15845694D01*
X4003870Y-15439013D02*
X4004380Y-15441494D01*
X3929028Y-6712361D02*
X3924298Y-6713670D01*
X38029289Y-7045956D02*
X38032844Y-7042571D01*
X3980321Y-11042903D02*
X3977301Y-11046773D01*
X24561808Y-2302860D02*
X24564227Y-2298590D01*
X4170971Y-15597854D02*
X4178510Y-15598814D01*
X11040198Y-15849518D02*
X11035327Y-15848918D01*
X38070971Y-6712361D02*
X38066311Y-6710821D01*
X17413439Y-15827301D02*
X17409570Y-15830321D01*
X4012919Y-2629362D02*
X4012040Y-2631738D01*
X37975456Y-15495937D02*
X37978974Y-15489202D01*
X3951410Y-6702439D02*
X3947140Y-6704859D01*
X4000000Y-2700633D02*
X4000000Y-6616667D01*
X38133689Y-15844154D02*
X38129029Y-15845694D01*
X3974095Y-11416177D02*
X3977301Y-11419894D01*
X3933689Y-11077488D02*
X3929028Y-11079027D01*
X38197003Y-11007631D02*
X38195694Y-11012362D01*
X38070971Y-7020973D02*
X38075702Y-7019663D01*
X10601410Y-15835773D02*
X10597140Y-15838192D01*
X38133689Y-2255846D02*
X38138268Y-2257612D01*
X10966853Y-15805557D02*
X10964227Y-15801410D01*
X17379029Y-15604306D02*
X17383689Y-15605845D01*
X38180321Y-11423763D02*
X38183147Y-11427776D01*
X38194154Y-11449644D02*
X38195694Y-11454305D01*
X31050000Y-2350000D02*
X31050000Y-2400000D01*
X24640198Y-2250482D02*
X24645093Y-2250120D01*
X31013439Y-15622699D02*
X31017156Y-15625905D01*
X17440399Y-2442756D02*
X17438192Y-2447140D01*
X24550000Y-15750000D02*
X24550000Y-15700000D01*
X10648918Y-2414673D02*
X10648079Y-2419509D01*
X10986561Y-15622699D02*
X10990430Y-15619679D01*
X24244154Y-15666311D02*
X24245694Y-15670971D01*
X4019910Y-15486928D02*
X4021026Y-15489202D01*
X24209570Y-2269679D02*
X24213439Y-2272699D01*
X37841494Y-15595620D02*
X37848896Y-15593902D01*
X24550481Y-15759802D02*
X24550120Y-15754907D01*
X3998918Y-11468660D02*
X3999518Y-11473531D01*
X3822699Y-6680106D02*
X3819679Y-6676237D01*
X10597140Y-2488192D02*
X10592756Y-2490399D01*
X24594443Y-15616853D02*
X24598590Y-15614227D01*
X38195694Y-11454305D02*
X38197003Y-11459035D01*
X10564673Y-15848918D02*
X10559802Y-15849518D01*
X10957612Y-15661731D02*
X10959601Y-15657244D01*
X30969509Y-15848078D02*
X30964673Y-15848918D01*
X3967156Y-6690762D02*
X3963439Y-6693968D01*
X17830491Y-15848078D02*
X17825702Y-15847003D01*
X3805845Y-7082978D02*
X3807612Y-7078398D01*
X38000000Y-10983333D02*
X38000000Y-7116666D01*
X3992388Y-11021602D02*
X3990399Y-11026089D01*
X31035773Y-15648590D02*
X31038192Y-15652860D01*
X38163439Y-15827301D02*
X38159570Y-15830321D01*
X11030491Y-2498079D02*
X11025702Y-2497003D01*
X24550120Y-2345093D02*
X24550481Y-2340198D01*
X10644154Y-2316311D02*
X10645694Y-2320971D01*
X11030491Y-2251921D02*
X11035327Y-2251082D01*
X37818970Y-15599070D02*
X37821490Y-15598814D01*
X31394443Y-15616853D02*
X31398590Y-15614227D01*
X37904701Y-15570371D02*
X37906851Y-15569032D01*
X3800120Y-10988240D02*
X3800000Y-10983333D01*
X3900000Y-7016667D02*
X3904907Y-7016787D01*
X3995694Y-11012362D02*
X3994154Y-11017022D01*
X3904907Y-11083213D02*
X3900000Y-11083333D01*
X38180321Y-15809570D02*
X38177301Y-15813439D01*
X4131738Y-2512040D02*
X4129362Y-2512920D01*
X10975905Y-2282844D02*
X10979289Y-2279289D01*
X10648079Y-2419509D02*
X10647003Y-2424298D01*
X30959802Y-15849518D02*
X30954907Y-15849879D01*
X24551082Y-2335327D02*
X24551921Y-2330491D01*
X30954907Y-2499880D02*
X30950000Y-2500000D01*
X10550000Y-2500000D02*
X4200633Y-2500000D01*
X10990430Y-2480321D02*
X10986561Y-2477301D01*
X3840430Y-2269679D02*
X3844443Y-2266853D01*
X24201410Y-2485773D02*
X24197140Y-2488192D01*
X17420711Y-15820711D02*
X17417156Y-15824095D01*
X38100000Y-11083333D02*
X38095093Y-11083213D01*
X37958905Y-15521400D02*
X37963403Y-15515275D01*
X3550000Y-2001227D02*
X3550000Y-16098773D01*
X31359601Y-2442756D02*
X31357612Y-2438268D01*
X10613439Y-15827301D02*
X10609570Y-15830321D01*
X4101848Y-2525773D02*
X4095299Y-2529628D01*
X38011808Y-6663806D02*
X38009601Y-6659422D01*
X31020711Y-15820711D02*
X31017156Y-15824095D01*
X17825702Y-15602997D02*
X17830491Y-15601921D01*
X17397140Y-15611808D02*
X17401410Y-15614227D01*
X4093149Y-2530968D02*
X4086804Y-2535150D01*
X17825702Y-15847003D02*
X17820971Y-15845694D01*
X3825905Y-6683822D02*
X3822699Y-6680106D01*
X24598590Y-15835773D02*
X24594443Y-15833147D01*
X24248918Y-2335327D02*
X24249518Y-2340198D01*
X10601410Y-2485773D02*
X10597140Y-2488192D01*
X38057244Y-11073732D02*
X38052860Y-11071525D01*
X17755846Y-2433689D02*
X17754306Y-2429029D01*
X24598590Y-2485773D02*
X24594443Y-2483147D01*
X17438192Y-15652860D02*
X17440399Y-15657244D01*
X3974095Y-7049511D02*
X3977301Y-7053227D01*
X4188607Y-15599647D02*
X4191136Y-15599775D01*
X38044443Y-6699814D02*
X38040430Y-6696987D01*
X10609570Y-2269679D02*
X10613439Y-2272699D01*
X24590430Y-15619679D02*
X24594443Y-15616853D01*
X38029289Y-11412623D02*
X38032844Y-11409238D01*
X3963439Y-7039365D02*
X3967156Y-7042571D01*
X17845093Y-15849879D02*
X17840198Y-15849518D01*
X3807612Y-2311732D02*
X3809601Y-2307244D01*
X38104907Y-11383454D02*
X38109802Y-11383815D01*
X3852860Y-6704859D02*
X3848590Y-6702439D01*
X24557612Y-15661731D02*
X24559601Y-15657244D01*
X3844443Y-6699814D02*
X3840430Y-6696987D01*
X24249518Y-15759802D02*
X24248918Y-15764673D01*
X38198918Y-10998006D02*
X38198079Y-11002842D01*
X24213439Y-2477301D02*
X24209570Y-2480321D01*
X31372699Y-15813439D02*
X31369679Y-15809570D01*
X17782844Y-2474095D02*
X17779289Y-2470711D01*
X3811808Y-7069527D02*
X3814227Y-7065256D01*
X17448918Y-15764673D02*
X17448079Y-15769509D01*
X37913196Y-2535150D02*
X37906851Y-2530968D01*
X10648079Y-15680491D02*
X10648918Y-15685327D01*
X17820971Y-15604306D02*
X17825702Y-15602997D01*
X3825905Y-2282844D02*
X3829289Y-2279289D01*
X38177301Y-6680106D02*
X38174095Y-6683822D01*
X17433147Y-2455557D02*
X17430321Y-2459570D01*
X3942755Y-11392934D02*
X3947140Y-11395141D01*
X38061732Y-11390945D02*
X38066311Y-11389179D01*
X4191136Y-15599775D02*
X4199367Y-15599984D01*
X17445694Y-2429029D02*
X17444154Y-2433689D01*
X10638192Y-15652860D02*
X10640399Y-15657244D01*
X37915275Y-2536597D02*
X37913196Y-2535150D01*
X3852860Y-7028474D02*
X3857244Y-7026268D01*
X38000482Y-10993135D02*
X38000120Y-10988240D01*
X37999647Y-2688607D02*
X37999070Y-2681030D01*
X10961808Y-15797140D02*
X10959601Y-15792755D01*
X17786561Y-15622699D02*
X17790430Y-15619679D01*
X17772699Y-2286561D02*
X17775905Y-2282844D01*
X3990399Y-11026089D02*
X3988192Y-11030473D01*
X37993267Y-15451348D02*
X37993902Y-15448896D01*
X24240399Y-2442756D02*
X24238192Y-2447140D01*
X3959570Y-7036346D02*
X3963439Y-7039365D01*
X24238192Y-15652860D02*
X24240399Y-15657244D01*
X3895093Y-2250120D02*
X3900000Y-2250000D01*
X38151410Y-2264227D02*
X38155557Y-2266853D01*
X38000000Y-11483333D02*
X38000120Y-11478426D01*
X38180321Y-2290430D02*
X38183147Y-2294443D01*
X31050000Y-15700000D02*
X31050000Y-15750000D01*
X17830491Y-15601921D02*
X17835327Y-15601082D01*
X4131738Y-15587960D02*
X4138929Y-15590418D01*
X17764227Y-15801410D02*
X17761808Y-15797140D01*
X17786561Y-15827301D02*
X17782844Y-15824095D01*
X11007244Y-15840399D02*
X11002860Y-15838192D01*
X38133689Y-11389179D02*
X38138268Y-11390945D01*
X37997854Y-15429029D02*
X37998814Y-15421490D01*
X10998590Y-2485773D02*
X10994443Y-2483147D01*
X38200000Y-10983333D02*
X38199880Y-10988240D01*
X38192388Y-7078398D02*
X38194154Y-7082978D01*
X24183689Y-2255846D02*
X24188268Y-2257612D01*
X3995694Y-11454305D02*
X3997003Y-11459035D01*
X10986561Y-15827301D02*
X10982844Y-15824095D01*
X10951082Y-15685327D02*
X10951921Y-15680491D01*
X3800000Y-11483333D02*
X3800120Y-11478426D01*
X30997140Y-15611808D02*
X31001410Y-15614227D01*
X10605557Y-2266853D02*
X10609570Y-2269679D01*
X24625702Y-2252997D02*
X24630491Y-2251921D01*
X11016311Y-15605845D02*
X11020971Y-15604306D01*
X10649518Y-15690198D02*
X10649880Y-15695093D01*
X31420971Y-2254306D02*
X31425702Y-2252997D01*
X3988192Y-11436194D02*
X3990399Y-11440578D01*
X24557612Y-2311732D02*
X24559601Y-2307244D01*
X24183689Y-2494154D02*
X24179028Y-2495694D01*
X4002530Y-15431532D02*
X4003870Y-15439013D01*
X31352997Y-2424298D02*
X31351921Y-2419509D01*
X10990430Y-15619679D02*
X10994443Y-15616853D01*
X37964850Y-15513196D02*
X37969032Y-15506850D01*
X3807612Y-15788268D02*
X3805845Y-15783689D01*
X17401410Y-2264227D02*
X17405557Y-2266853D01*
X38002997Y-6640965D02*
X38001921Y-6636176D01*
X17449880Y-15754907D02*
X17449518Y-15759802D01*
X24555845Y-2433689D02*
X24554306Y-2429029D01*
X3994154Y-7082978D02*
X3995694Y-7087638D01*
X11045093Y-2499880D02*
X11040198Y-2499518D01*
X24240399Y-15657244D02*
X24242388Y-15661731D01*
X30988268Y-2492388D02*
X30983689Y-2494154D01*
X31017156Y-15625905D02*
X31020711Y-15629289D01*
X38085327Y-11384416D02*
X38090198Y-11383815D01*
X31402860Y-15838192D02*
X31398590Y-15835773D01*
X3998918Y-10998006D02*
X3998078Y-11002842D01*
X31369679Y-2459570D02*
X31366853Y-2455557D01*
X37993267Y-2648652D02*
X37991176Y-2641345D01*
X37950902Y-15531214D02*
X37952552Y-15529293D01*
X3816853Y-2294443D02*
X3819679Y-2290430D01*
X3801921Y-15769509D02*
X3801082Y-15764673D01*
X38129029Y-7020973D02*
X38133689Y-7022512D01*
X4047448Y-2570707D02*
X4042645Y-2576597D01*
X30988268Y-2257612D02*
X30992755Y-2259601D01*
X3844443Y-15833147D02*
X3840430Y-15830321D01*
X24150000Y-15600000D02*
X24154907Y-15600120D01*
X31416311Y-15844154D02*
X31411731Y-15842388D01*
X24230321Y-2459570D02*
X24227301Y-2463439D01*
X38109802Y-6716185D02*
X38104907Y-6716546D01*
X3809601Y-11026089D02*
X3807612Y-11021602D01*
X38048590Y-6702439D02*
X38044443Y-6699814D01*
X24630491Y-15848078D02*
X24625702Y-15847003D01*
X31030321Y-2459570D02*
X31027301Y-2463439D01*
X38000000Y-2700633D02*
X37999984Y-2699367D01*
X37974227Y-2601848D02*
X37970372Y-2595299D01*
X38104907Y-11083213D02*
X38100000Y-11083333D01*
X24154907Y-15600120D02*
X24159802Y-15600481D01*
X31005557Y-2483147D02*
X31001410Y-2485773D01*
X24572699Y-15813439D02*
X24569679Y-15809570D01*
X3974095Y-11050489D02*
X3970711Y-11054044D01*
X17754306Y-2320971D02*
X17755846Y-2316311D01*
X17448079Y-15680491D02*
X17448918Y-15685327D01*
X4104062Y-15575456D02*
X4110798Y-15578974D01*
X4000000Y-10983333D02*
X3999879Y-10988240D01*
X24650000Y-15600000D02*
X30950000Y-15600000D01*
X24220711Y-2470711D02*
X24217156Y-2474095D01*
X3997003Y-11007631D02*
X3995694Y-11012362D01*
X38124298Y-7019663D02*
X38129029Y-7020973D01*
X31394443Y-2266853D02*
X31398590Y-2264227D01*
X17750000Y-15750000D02*
X17750000Y-15700000D01*
X10613439Y-15622699D02*
X10617156Y-15625905D01*
X17442388Y-15788268D02*
X17440399Y-15792755D01*
X31361808Y-15652860D02*
X31364227Y-15648590D01*
X3992388Y-11445065D02*
X3994154Y-11449644D01*
X3822699Y-2286561D02*
X3825905Y-2282844D01*
X31044154Y-15783689D02*
X31042388Y-15788268D01*
X38100000Y-11383333D02*
X38104907Y-11383454D01*
X4041095Y-2578600D02*
X4036597Y-2584725D01*
X24602860Y-2488192D02*
X24598590Y-2485773D01*
X17392756Y-15840399D02*
X17388268Y-15842388D01*
X31382844Y-15625905D02*
X31386561Y-15622699D01*
X24582844Y-15625905D02*
X24586561Y-15622699D01*
X38194154Y-2316311D02*
X38195694Y-2320971D01*
X10554907Y-2499880D02*
X10550000Y-2500000D01*
X31024095Y-15817156D02*
X31020711Y-15820711D01*
X3955557Y-7033520D02*
X3959570Y-7036346D01*
X37800633Y-2500016D02*
X37799367Y-2500000D01*
X31364227Y-15801410D02*
X31361808Y-15797140D01*
X17764227Y-15648590D02*
X17766853Y-15644443D01*
X38001082Y-6631340D02*
X38000482Y-6626468D01*
X38199880Y-15754907D02*
X38199518Y-15759802D01*
X24209570Y-15619679D02*
X24213439Y-15622699D01*
X4200633Y-2500000D02*
X4199367Y-2500016D01*
X10969679Y-15809570D02*
X10966853Y-15805557D01*
X10964227Y-15648590D02*
X10966853Y-15644443D01*
X10952997Y-15774298D02*
X10951921Y-15769509D01*
X24227301Y-15813439D02*
X24224095Y-15817156D01*
X10583689Y-15605845D02*
X10588268Y-15607612D01*
X4110798Y-2521026D02*
X4104062Y-2524544D01*
X3904907Y-6716546D02*
X3900000Y-6716667D01*
X4086804Y-2535150D02*
X4084725Y-2536597D01*
X24159802Y-2250482D02*
X24164673Y-2251082D01*
X31048078Y-2419509D02*
X31047003Y-2424298D01*
X4000000Y-6616667D02*
X3999879Y-6621573D01*
X17388268Y-2492388D02*
X17383689Y-2494154D01*
X37950902Y-2568785D02*
X37945808Y-2563147D01*
X37877695Y-2515739D02*
X37870638Y-2512920D01*
X31035773Y-15801410D02*
X31033147Y-15805557D01*
X3963439Y-6693968D02*
X3959570Y-6696987D01*
X38138268Y-6709055D02*
X38133689Y-6710821D01*
X37936853Y-2554192D02*
X37931215Y-2549098D01*
X10647003Y-2325702D02*
X10648079Y-2330491D01*
X4024544Y-15495937D02*
X4025773Y-15498152D01*
X24555845Y-2316311D02*
X24557612Y-2311732D01*
X17374298Y-15847003D02*
X17369509Y-15848078D01*
X11007244Y-2490399D02*
X11002860Y-2488192D01*
X38167156Y-6690762D02*
X38163439Y-6693968D01*
X17449880Y-15695093D02*
X17450000Y-15700000D01*
X17427301Y-15813439D02*
X17424095Y-15817156D01*
X37975456Y-2604062D02*
X37974227Y-2601848D01*
X17816311Y-15605845D02*
X17820971Y-15604306D01*
X17816311Y-2255846D02*
X17820971Y-2254306D01*
X3880491Y-7018588D02*
X3885327Y-7017749D01*
X38095093Y-7016787D02*
X38100000Y-7016667D01*
X31379289Y-2470711D02*
X31375905Y-2467156D01*
X17364673Y-2498918D02*
X17359802Y-2499518D01*
X10642388Y-2311732D02*
X10644154Y-2316311D01*
X3995694Y-7087638D02*
X3997003Y-7092368D01*
X38159570Y-6696987D02*
X38155557Y-6699814D01*
X31045694Y-15670971D02*
X31047003Y-15675702D01*
X37936853Y-15545808D02*
X37938689Y-15544063D01*
X38138268Y-15842388D02*
X38133689Y-15844154D01*
X11035327Y-15848918D02*
X11030491Y-15848078D01*
X37970372Y-2595299D02*
X37969032Y-2593149D01*
X17447003Y-15675702D02*
X17448079Y-15680491D01*
X38032844Y-11409238D02*
X38036561Y-11406032D01*
X37991176Y-2641345D02*
X37990418Y-2638929D01*
X3959570Y-11063654D02*
X3955557Y-11066480D01*
X31440198Y-2499518D02*
X31435327Y-2498918D01*
X17369509Y-2251921D02*
X17374298Y-2252997D01*
X24220711Y-15629289D02*
X24224095Y-15632844D01*
X17850000Y-15600000D02*
X24150000Y-15600000D01*
X38133689Y-7022512D02*
X38138268Y-7024279D01*
X31445093Y-2250120D02*
X31450000Y-2250000D01*
X4181029Y-15599070D02*
X4188607Y-15599647D01*
X30979028Y-15604306D02*
X30983689Y-15605845D01*
X3870971Y-6712361D02*
X3866311Y-6710821D01*
X3880491Y-11081412D02*
X3875702Y-11080336D01*
X10559802Y-15600481D02*
X10564673Y-15601082D01*
X37997854Y-2670971D02*
X37997470Y-2668467D01*
X4001186Y-2678510D02*
X4000930Y-2681030D01*
X10569509Y-2251921D02*
X10574298Y-2252997D01*
X3919509Y-7018588D02*
X3924298Y-7019663D01*
X3998078Y-11002842D02*
X3997003Y-11007631D01*
X31402860Y-2261808D02*
X31407244Y-2259601D01*
X37990418Y-15461071D02*
X37991176Y-15458655D01*
X3811808Y-15797140D02*
X3809601Y-15792755D01*
X10955846Y-2433689D02*
X10954306Y-2429029D01*
X3990399Y-7073911D02*
X3992388Y-7078398D01*
X3983147Y-6672224D02*
X3980321Y-6676237D01*
X4068785Y-15550902D02*
X4070707Y-15552552D01*
X31407244Y-15840399D02*
X31402860Y-15838192D01*
X31049879Y-15754907D02*
X31049518Y-15759802D01*
X31354306Y-15670971D02*
X31355845Y-15666311D01*
X37974227Y-15498152D02*
X37975456Y-15495937D01*
X24645093Y-2250120D02*
X24650000Y-2250000D01*
X17840198Y-15600481D02*
X17845093Y-15600120D01*
X17379029Y-15845694D02*
X17374298Y-15847003D01*
X10986561Y-2477301D02*
X10982844Y-2474095D01*
X4015738Y-15477695D02*
X4016737Y-15480022D01*
X10627301Y-15636561D02*
X10630321Y-15640430D01*
X10554907Y-2250120D02*
X10559802Y-2250482D01*
X4016737Y-2619978D02*
X4015738Y-2622305D01*
X3802997Y-6640965D02*
X3801921Y-6636176D01*
X3977301Y-6680106D02*
X3974095Y-6683822D01*
X24154907Y-2499880D02*
X24150000Y-2500000D01*
X10579029Y-2254306D02*
X10583689Y-2255846D01*
X31351082Y-15685327D02*
X31351921Y-15680491D01*
X31042388Y-15661731D02*
X31044154Y-15666311D01*
X17830491Y-2251921D02*
X17835327Y-2251082D01*
X37999984Y-2699367D02*
X37999775Y-2691137D01*
X3947140Y-7028474D02*
X3951410Y-7030894D01*
X4009582Y-15461071D02*
X4012040Y-15468262D01*
X38198918Y-7101993D02*
X38199518Y-7106865D01*
X4138929Y-15590418D02*
X4141345Y-15591176D01*
X17750000Y-15700000D02*
X17750120Y-15695093D01*
X24245694Y-2429029D02*
X24244154Y-2433689D01*
X17449880Y-2345093D02*
X17450000Y-2350000D01*
X10982844Y-15625905D02*
X10986561Y-15622699D01*
X38197003Y-2325702D02*
X38198079Y-2330491D01*
X24224095Y-2282844D02*
X24227301Y-2286561D01*
X17775905Y-15632844D02*
X17779289Y-15629289D01*
X24188268Y-2492388D02*
X24183689Y-2494154D01*
X24242388Y-15788268D02*
X24240399Y-15792755D01*
X24575905Y-2282844D02*
X24579289Y-2279289D01*
X3814227Y-6668077D02*
X3811808Y-6663806D01*
X37898152Y-15574227D02*
X37904701Y-15570371D01*
X10950482Y-15759802D02*
X10950120Y-15754907D01*
X38014227Y-6668077D02*
X38011808Y-6663806D01*
X17388268Y-15607612D02*
X17392756Y-15609601D01*
X31382844Y-2275905D02*
X31386561Y-2272699D01*
X3804306Y-11012362D02*
X3802997Y-11007631D01*
X30992755Y-15609601D02*
X30997140Y-15611808D01*
X3832844Y-11409238D02*
X3836561Y-11406032D01*
X4141345Y-15591176D02*
X4148651Y-15593267D01*
X3857244Y-11073732D02*
X3852860Y-11071525D01*
X38190399Y-15792755D02*
X38188192Y-15797140D01*
X17750000Y-2350000D02*
X17750120Y-2345093D01*
X24640198Y-15600481D02*
X24645093Y-15600120D01*
X38190399Y-2307244D02*
X38192388Y-2311732D01*
X17752997Y-2424298D02*
X17751921Y-2419509D01*
X24248918Y-2414673D02*
X24248078Y-2419509D01*
X3890198Y-15849518D02*
X3885327Y-15848918D01*
X11035327Y-2251082D02*
X11040198Y-2250482D01*
X17440399Y-15792755D02*
X17438192Y-15797140D01*
X30964673Y-2498918D02*
X30959802Y-2499518D01*
X4030968Y-15506850D02*
X4035150Y-15513196D01*
X3870971Y-2254306D02*
X3875702Y-2252997D01*
X4012040Y-2631738D02*
X4009582Y-2638929D01*
X24197140Y-2261808D02*
X24201410Y-2264227D01*
X3890198Y-7017148D02*
X3895093Y-7016787D01*
X10648079Y-15769509D02*
X10647003Y-15774298D01*
X17442388Y-2438268D02*
X17440399Y-2442756D01*
X3929028Y-7020973D02*
X3933689Y-7022512D01*
X17759601Y-2442756D02*
X17757612Y-2438268D01*
X31049879Y-2345093D02*
X31050000Y-2350000D01*
X30964673Y-15601082D02*
X30969509Y-15601921D01*
X31351921Y-15680491D02*
X31352997Y-15675702D01*
X3844443Y-11400186D02*
X3848590Y-11397560D01*
X37889202Y-15578974D02*
X37895938Y-15575456D01*
X17405557Y-15616853D02*
X17409570Y-15619679D01*
X17388268Y-2257612D02*
X17392756Y-2259601D01*
X31379289Y-15820711D02*
X31375905Y-15817156D01*
X37970372Y-15504701D02*
X37974227Y-15498152D01*
X17374298Y-2497003D02*
X17369509Y-2498079D01*
X10559802Y-2250482D02*
X10564673Y-2251082D01*
X10642388Y-15788268D02*
X10640399Y-15792755D01*
X31386561Y-2477301D02*
X31382844Y-2474095D01*
X17775905Y-15817156D02*
X17772699Y-15813439D01*
X24183689Y-15605845D02*
X24188268Y-15607612D01*
X24248918Y-15685327D02*
X24249518Y-15690198D01*
X10990430Y-15830321D02*
X10986561Y-15827301D01*
X24564227Y-2451410D02*
X24561808Y-2447140D01*
X38019679Y-7057097D02*
X38022699Y-7053227D01*
X3875702Y-6713670D02*
X3870971Y-6712361D01*
X3840430Y-11063654D02*
X3836561Y-11060634D01*
X10964227Y-2451410D02*
X10961808Y-2447140D01*
X4016737Y-15480022D02*
X4019910Y-15486928D01*
X3870971Y-11079027D02*
X3866311Y-11077488D01*
X24245694Y-15670971D02*
X24247003Y-15675702D01*
X3836561Y-11406032D02*
X3840430Y-11403012D01*
X30964673Y-15848918D02*
X30959802Y-15849518D01*
X24213439Y-15622699D02*
X24217156Y-15625905D01*
X30954907Y-2250120D02*
X30959802Y-2250482D01*
X17444154Y-2433689D02*
X17442388Y-2438268D01*
X38000120Y-10988240D02*
X38000000Y-10983333D01*
X31049518Y-2340198D02*
X31049879Y-2345093D01*
X31020711Y-2279289D02*
X31024095Y-2282844D01*
X38119509Y-11081412D02*
X38114673Y-11082251D01*
X17764227Y-2298590D02*
X17766853Y-2294443D01*
X38180321Y-11042903D02*
X38177301Y-11046773D01*
X11011732Y-2257612D02*
X11016311Y-2255846D01*
X38449971Y-16099970D02*
X38450000Y-16098773D01*
X10644154Y-15783689D02*
X10642388Y-15788268D01*
X3819679Y-2290430D02*
X3822699Y-2286561D01*
X37931215Y-15550902D02*
X37936853Y-15545808D01*
X17430321Y-15809570D02*
X17427301Y-15813439D01*
X37923403Y-15557354D02*
X37929293Y-15552552D01*
X38183147Y-11038890D02*
X38180321Y-11042903D01*
X31440198Y-15600481D02*
X31445093Y-15600120D01*
X37851348Y-15593267D02*
X37858655Y-15591176D01*
X24551921Y-15680491D02*
X24552997Y-15675702D01*
X3914673Y-11082251D02*
X3909802Y-11082852D01*
X17790430Y-15830321D02*
X17786561Y-15827301D01*
X10550000Y-15850000D02*
X3900000Y-15850000D01*
X17752997Y-15774298D02*
X17751921Y-15769509D01*
X38001082Y-11468660D02*
X38001921Y-11463824D01*
X17447003Y-2325702D02*
X17448079Y-2330491D01*
X38177301Y-11419894D02*
X38180321Y-11423763D01*
X17433147Y-15805557D02*
X17430321Y-15809570D01*
X17766853Y-15805557D02*
X17764227Y-15801410D01*
X17772699Y-15636561D02*
X17775905Y-15632844D01*
X4068785Y-2549098D02*
X4063147Y-2554192D01*
X31382844Y-2474095D02*
X31379289Y-2470711D01*
X17790430Y-2269679D02*
X17794443Y-2266853D01*
X31027301Y-15636561D02*
X31030321Y-15640430D01*
X31394443Y-2483147D02*
X31390430Y-2480321D01*
X24620971Y-2495694D02*
X24616311Y-2494154D01*
X3880491Y-11385255D02*
X3885327Y-11384416D01*
X31351082Y-2414673D02*
X31350481Y-2409802D01*
X31009570Y-2480321D02*
X31005557Y-2483147D01*
X17752997Y-15675702D02*
X17754306Y-15670971D01*
X10640399Y-15657244D02*
X10642388Y-15661731D01*
X17790430Y-2480321D02*
X17786561Y-2477301D01*
X38199880Y-7111760D02*
X38200000Y-7116666D01*
X37904701Y-2529628D02*
X37898152Y-2525773D01*
X17409570Y-15619679D02*
X17413439Y-15622699D01*
X3900000Y-11383333D02*
X3904907Y-11383454D01*
X3909802Y-11383815D02*
X3914673Y-11384416D01*
X38198079Y-6636176D02*
X38197003Y-6640965D01*
X17754306Y-15670971D02*
X17755846Y-15666311D01*
X3970711Y-7045956D02*
X3974095Y-7049511D01*
X3909802Y-11082852D02*
X3904907Y-11083213D01*
X38075702Y-7019663D02*
X38080491Y-7018588D01*
X3909802Y-6716185D02*
X3904907Y-6716546D01*
X17782844Y-15824095D02*
X17779289Y-15820711D01*
X38080491Y-11385255D02*
X38085327Y-11384416D01*
X24150000Y-2500000D02*
X17850000Y-2500000D01*
X38100000Y-7016667D02*
X38104907Y-7016787D01*
X38198918Y-11468660D02*
X38199518Y-11473531D01*
X31359601Y-15657244D02*
X31361808Y-15652860D01*
X38450000Y-16098773D02*
X38450000Y-2001227D01*
X37987960Y-2631738D02*
X37987080Y-2629362D01*
X38109802Y-7017148D02*
X38114673Y-7017749D01*
X3880491Y-15848078D02*
X3875702Y-15847003D01*
X30969509Y-15601921D02*
X30974298Y-15602997D01*
X11020971Y-15845694D02*
X11016311Y-15844154D01*
X37964850Y-2586804D02*
X37963403Y-2584725D01*
X31402860Y-15611808D02*
X31407244Y-15609601D01*
X17769679Y-2459570D02*
X17766853Y-2455557D01*
X31450000Y-15600000D02*
X37799367Y-15600000D01*
X11020971Y-2254306D02*
X11025702Y-2252997D01*
X38075702Y-11080336D02*
X38070971Y-11079027D01*
X37999775Y-2691137D02*
X37999647Y-2688607D01*
X24220711Y-15820711D02*
X24217156Y-15824095D01*
X31390430Y-2480321D02*
X31386561Y-2477301D01*
X11040198Y-2499518D02*
X11035327Y-2498918D01*
X3861731Y-7024279D02*
X3866311Y-7022512D01*
X3951410Y-11069106D02*
X3947140Y-11071525D01*
X17374298Y-2252997D02*
X17379029Y-2254306D01*
X38147140Y-2261808D02*
X38151410Y-2264227D01*
X3890198Y-6716185D02*
X3885327Y-6715584D01*
X17401410Y-15614227D02*
X17405557Y-15616853D01*
X38170711Y-11412623D02*
X38174095Y-11416177D01*
X3819679Y-7057097D02*
X3822699Y-7053227D01*
X3822699Y-11419894D02*
X3825905Y-11416177D01*
X10583689Y-15844154D02*
X10579029Y-15845694D01*
X37957355Y-2576597D02*
X37952552Y-2570707D01*
X17397140Y-2261808D02*
X17401410Y-2264227D01*
X24550481Y-2340198D02*
X24551082Y-2335327D01*
X38138268Y-11390945D02*
X38142756Y-11392934D01*
X24197140Y-2488192D02*
X24192755Y-2490399D01*
X31040399Y-2307244D02*
X31042388Y-2311732D01*
X4095299Y-2529628D02*
X4093149Y-2530968D01*
X31038192Y-2302860D02*
X31040399Y-2307244D01*
X30959802Y-2250482D02*
X30964673Y-2251082D01*
X11035327Y-15601082D02*
X11040198Y-15600481D01*
X3814227Y-7065256D02*
X3816853Y-7061109D01*
X3800481Y-7106865D02*
X3801082Y-7101993D01*
X38000120Y-7111760D02*
X38000482Y-7106865D01*
X10961808Y-15652860D02*
X10964227Y-15648590D01*
X4036597Y-2584725D02*
X4035150Y-2586804D01*
X38085327Y-11082251D02*
X38080491Y-11081412D01*
X17449880Y-2404907D02*
X17449518Y-2409802D01*
X37996129Y-15439013D02*
X37997470Y-15431532D01*
X10969679Y-15640430D02*
X10972699Y-15636561D01*
X31048078Y-2330491D02*
X31048918Y-2335327D01*
X11025702Y-15847003D02*
X11020971Y-15845694D01*
X31351921Y-15769509D02*
X31351082Y-15764673D01*
X10954306Y-15779028D02*
X10952997Y-15774298D01*
X17840198Y-2250482D02*
X17845093Y-2250120D01*
X3802997Y-7092368D02*
X3804306Y-7087638D01*
X38052860Y-6704859D02*
X38048590Y-6702439D01*
X10972699Y-2286561D02*
X10975905Y-2282844D01*
X17450000Y-15750000D02*
X17449880Y-15754907D01*
X17420711Y-2279289D02*
X17424095Y-2282844D01*
X3801082Y-6631340D02*
X3800481Y-6626468D01*
X3955557Y-11066480D02*
X3951410Y-11069106D01*
X31440198Y-2250482D02*
X31445093Y-2250120D01*
X17802860Y-15611808D02*
X17807244Y-15609601D01*
X31049879Y-2404907D02*
X31049518Y-2409802D01*
X3875702Y-15847003D02*
X3870971Y-15845694D01*
X38190399Y-11026089D02*
X38188192Y-11030473D01*
X31350120Y-2404907D02*
X31350000Y-2400000D01*
X3875702Y-11080336D02*
X3870971Y-11079027D01*
X4054192Y-15536853D02*
X4055937Y-15538689D01*
X4000016Y-15400633D02*
X4000225Y-15408863D01*
X24227301Y-15636561D02*
X24230321Y-15640430D01*
X17409570Y-2269679D02*
X17413439Y-2272699D01*
X31005557Y-2266853D02*
X31009570Y-2269679D01*
X10951921Y-15769509D02*
X10951082Y-15764673D01*
X3909802Y-7017148D02*
X3914673Y-7017749D01*
X38190399Y-6659422D02*
X38188192Y-6663806D01*
X38188192Y-7069527D02*
X38190399Y-7073911D01*
X4024544Y-2604062D02*
X4021026Y-2610798D01*
X37886928Y-15580090D02*
X37889202Y-15578974D01*
X38007612Y-6654935D02*
X38005846Y-6650356D01*
X38190399Y-7073911D02*
X38192388Y-7078398D01*
X10642388Y-15661731D02*
X10644154Y-15666311D01*
X38194154Y-11017022D02*
X38192388Y-11021602D01*
X38019679Y-11042903D02*
X38016853Y-11038890D01*
X10950000Y-15750000D02*
X10950000Y-15700000D01*
X4104062Y-2524544D02*
X4101848Y-2525773D01*
X38032844Y-6690762D02*
X38029289Y-6687377D01*
X17397140Y-15838192D02*
X17392756Y-15840399D01*
X17433147Y-15644443D02*
X17435773Y-15648590D01*
X24550481Y-2409802D02*
X24550120Y-2404907D01*
X31040399Y-2442756D02*
X31038192Y-2447140D01*
X10633147Y-15644443D02*
X10635773Y-15648590D01*
X17369509Y-2498079D02*
X17364673Y-2498918D01*
X3929028Y-11387639D02*
X3933689Y-11389179D01*
X24197140Y-15838192D02*
X24192755Y-15840399D01*
X38199518Y-10993135D02*
X38198918Y-10998006D01*
X24555845Y-15783689D02*
X24554306Y-15779028D01*
X17769679Y-15809570D02*
X17766853Y-15805557D01*
X17802860Y-2488192D02*
X17798590Y-2485773D01*
X3836561Y-11060634D02*
X3832844Y-11057428D01*
X17845093Y-15600120D02*
X17850000Y-15600000D01*
X3829289Y-15820711D02*
X3825905Y-15817156D01*
X38119509Y-6714745D02*
X38114673Y-6715584D01*
X10588268Y-15842388D02*
X10583689Y-15844154D01*
X3550000Y-16098773D02*
X3550029Y-16099970D01*
X31048918Y-15685327D02*
X31049518Y-15690198D01*
X31355845Y-15783689D02*
X31354306Y-15779028D01*
X10950120Y-2345093D02*
X10950482Y-2340198D01*
X17430321Y-2459570D02*
X17427301Y-2463439D01*
X31040399Y-15792755D02*
X31038192Y-15797140D01*
X10617156Y-15824095D02*
X10613439Y-15827301D01*
X17751921Y-2419509D02*
X17751082Y-2414673D01*
X38151410Y-11397560D02*
X38155557Y-11400186D01*
X24247003Y-2325702D02*
X24248078Y-2330491D01*
X31027301Y-2286561D02*
X31030321Y-2290430D01*
X17754306Y-15779028D02*
X17752997Y-15774298D01*
X10955846Y-15666311D02*
X10957612Y-15661731D01*
X3963439Y-11406032D02*
X3967156Y-11409238D01*
X3800481Y-10993135D02*
X3800120Y-10988240D01*
X3866311Y-11077488D02*
X3861731Y-11075721D01*
X38142756Y-15840399D02*
X38138268Y-15842388D01*
X31361808Y-2302860D02*
X31364227Y-2298590D01*
X38177301Y-2286561D02*
X38180321Y-2290430D01*
X38001082Y-10998006D02*
X38000482Y-10993135D01*
X38011808Y-11436194D02*
X38014227Y-11431923D01*
X17379029Y-2254306D02*
X17383689Y-2255846D01*
X37870638Y-2512920D02*
X37868262Y-2512040D01*
X17450000Y-2400000D02*
X17449880Y-2404907D01*
X3985773Y-11431923D02*
X3988192Y-11436194D01*
X11050000Y-2250000D02*
X17350000Y-2250000D01*
X4006098Y-2651104D02*
X4004380Y-2658506D01*
X31357612Y-2311732D02*
X31359601Y-2307244D01*
X38129029Y-15845694D02*
X38124298Y-15847003D01*
X37997470Y-2668467D02*
X37996129Y-2660987D01*
X37877695Y-15584261D02*
X37880022Y-15583263D01*
X10640399Y-15792755D02*
X10638192Y-15797140D01*
X17782844Y-15625905D02*
X17786561Y-15622699D01*
X10998590Y-15835773D02*
X10994443Y-15833147D01*
X38167156Y-2275905D02*
X38170711Y-2279289D01*
X4200633Y-15600000D02*
X10550000Y-15600000D01*
X10574298Y-2252997D02*
X10579029Y-2254306D01*
X24630491Y-15601921D02*
X24635327Y-15601082D01*
X31017156Y-2275905D02*
X31020711Y-2279289D01*
X10620711Y-15629289D02*
X10624095Y-15632844D01*
X30950000Y-15850000D02*
X24650000Y-15850000D01*
X24224095Y-2467156D02*
X24220711Y-2470711D01*
X24616311Y-15605845D02*
X24620971Y-15604306D01*
X17450000Y-2350000D02*
X17450000Y-2400000D01*
X3885327Y-6715584D02*
X3880491Y-6714745D01*
X30969509Y-2498079D02*
X30964673Y-2498918D01*
X10609570Y-2480321D02*
X10605557Y-2483147D01*
X37998814Y-15421490D02*
X37999070Y-15418970D01*
X3880491Y-6714745D02*
X3875702Y-6713670D01*
X4070707Y-2547448D02*
X4068785Y-2549098D01*
X31354306Y-2320971D02*
X31355845Y-2316311D01*
X38185773Y-11431923D02*
X38188192Y-11436194D01*
X24235773Y-2451410D02*
X24233147Y-2455557D01*
X3866311Y-11389179D02*
X3870971Y-11387639D01*
X3967156Y-11057428D02*
X3963439Y-11060634D01*
X17816311Y-15844154D02*
X17811732Y-15842388D01*
X30988268Y-15842388D02*
X30983689Y-15844154D01*
X24235773Y-2298590D02*
X24238192Y-2302860D01*
X3999879Y-6621573D02*
X3999518Y-6626468D01*
X17359802Y-15600481D02*
X17364673Y-15601082D01*
X17438192Y-2302860D02*
X17440399Y-2307244D01*
X24554306Y-15779028D02*
X24552997Y-15774298D01*
X31440198Y-15849518D02*
X31435327Y-15848918D01*
X38198079Y-11463824D02*
X38198918Y-11468660D01*
X3861731Y-11075721D02*
X3857244Y-11073732D01*
X31013439Y-15827301D02*
X31009570Y-15830321D01*
X3809601Y-2307244D02*
X3811808Y-2302860D01*
X38005846Y-11017022D02*
X38004306Y-11012362D01*
X10592756Y-15840399D02*
X10588268Y-15842388D01*
X3844443Y-7033520D02*
X3848590Y-7030894D01*
X17359802Y-15849518D02*
X17354907Y-15849879D01*
X4129362Y-2512920D02*
X4122305Y-2515739D01*
X17825702Y-2252997D02*
X17830491Y-2251921D01*
X10633147Y-15805557D02*
X10630321Y-15809570D01*
X24201410Y-15835773D02*
X24197140Y-15838192D01*
X37978974Y-2610798D02*
X37975456Y-2604062D01*
X37870638Y-15587080D02*
X37877695Y-15584261D01*
X17845093Y-2499880D02*
X17840198Y-2499518D01*
X17424095Y-15817156D02*
X17420711Y-15820711D01*
X3805845Y-11017022D02*
X3804306Y-11012362D01*
X38040430Y-11403012D02*
X38044443Y-11400186D01*
X4199367Y-2500016D02*
X4191136Y-2500225D01*
X24248918Y-15764673D02*
X24248078Y-15769509D01*
X24233147Y-2455557D02*
X24230321Y-2459570D01*
X31398590Y-2264227D02*
X31402860Y-2261808D01*
X24192755Y-15609601D02*
X24197140Y-15611808D01*
X31430491Y-15848078D02*
X31425702Y-15847003D01*
X3840430Y-7036346D02*
X3844443Y-7033520D01*
X38163439Y-11406032D02*
X38167156Y-11409238D01*
X3970711Y-11412623D02*
X3974095Y-11416177D01*
X4015738Y-2622305D02*
X4012919Y-2629362D01*
X30997140Y-2261808D02*
X31001410Y-2264227D01*
X38155557Y-11400186D02*
X38159570Y-11403012D01*
X24590430Y-2269679D02*
X24594443Y-2266853D01*
X3861731Y-11390945D02*
X3866311Y-11389179D01*
X30997140Y-15838192D02*
X30992755Y-15840399D01*
X38085327Y-6715584D02*
X38080491Y-6714745D01*
X10569509Y-15848078D02*
X10564673Y-15848918D01*
X24201410Y-2264227D02*
X24205557Y-2266853D01*
X31390430Y-15619679D02*
X31394443Y-15616853D01*
X37983263Y-2619978D02*
X37980090Y-2613072D01*
X31445093Y-15600120D02*
X31450000Y-15600000D01*
X10994443Y-2483147D02*
X10990430Y-2480321D01*
X38044443Y-11400186D02*
X38048590Y-11397560D01*
X38188192Y-15797140D02*
X38185773Y-15801410D01*
X10583689Y-2255846D02*
X10588268Y-2257612D01*
X17405557Y-15833147D02*
X17401410Y-15835773D01*
X38016853Y-11038890D02*
X38014227Y-11034744D01*
X4000353Y-2688607D02*
X4000225Y-2691137D01*
X3914673Y-11384416D02*
X3919509Y-11385255D01*
X37921400Y-15558905D02*
X37923403Y-15557354D01*
X4012040Y-15468262D02*
X4012919Y-15470637D01*
X10579029Y-2495694D02*
X10574298Y-2497003D01*
X24235773Y-15648590D02*
X24238192Y-15652860D01*
X38159570Y-15830321D02*
X38155557Y-15833147D01*
X17435773Y-15801410D02*
X17433147Y-15805557D01*
X30979028Y-15845694D02*
X30974298Y-15847003D01*
X3844443Y-11066480D02*
X3840430Y-11063654D01*
X17354907Y-15849879D02*
X17350000Y-15850000D01*
X31398590Y-15835773D02*
X31394443Y-15833147D01*
X24245694Y-15779028D02*
X24244154Y-15783689D01*
X37952552Y-15529293D02*
X37957355Y-15523403D01*
X3933689Y-7022512D02*
X3938268Y-7024279D01*
X3832844Y-15824095D02*
X3829289Y-15820711D01*
X17750482Y-15690198D02*
X17751082Y-15685327D01*
X3885327Y-15848918D02*
X3880491Y-15848078D01*
X17811732Y-15842388D02*
X17807244Y-15840399D01*
X24249518Y-2340198D02*
X24249879Y-2345093D01*
X24159802Y-15600481D02*
X24164673Y-15601082D01*
X24650000Y-2500000D02*
X24645093Y-2499880D01*
X10952997Y-15675702D02*
X10954306Y-15670971D01*
X10961808Y-2447140D02*
X10959601Y-2442756D01*
X10957612Y-15788268D02*
X10955846Y-15783689D01*
X31352997Y-2325702D02*
X31354306Y-2320971D01*
X17401410Y-2485773D02*
X17397140Y-2488192D01*
X10559802Y-15849518D02*
X10554907Y-15849879D01*
X38188192Y-2302860D02*
X38190399Y-2307244D01*
X10592756Y-2259601D02*
X10597140Y-2261808D01*
X3848590Y-15835773D02*
X3844443Y-15833147D01*
X38195694Y-2320971D02*
X38197003Y-2325702D01*
X17435773Y-2451410D02*
X17433147Y-2455557D01*
X4122305Y-15584261D02*
X4129362Y-15587080D01*
X24248078Y-15680491D02*
X24248918Y-15685327D01*
X3840430Y-11403012D02*
X3844443Y-11400186D01*
X24564227Y-15648590D02*
X24566853Y-15644443D01*
X38009601Y-7073911D02*
X38011808Y-7069527D01*
X37980090Y-15486928D02*
X37983263Y-15480022D01*
X38000000Y-6616667D02*
X38000000Y-2700633D01*
X4188607Y-2500353D02*
X4181029Y-2500930D01*
X24247003Y-2424298D02*
X24245694Y-2429029D01*
X11011732Y-15842388D02*
X11007244Y-15840399D01*
X31407244Y-2259601D02*
X31411731Y-2257612D01*
X31411731Y-15607612D02*
X31416311Y-15605845D01*
X3802997Y-2325702D02*
X3804306Y-2320971D01*
X37931215Y-2549098D02*
X37929293Y-2547448D01*
X31017156Y-15824095D02*
X31013439Y-15827301D01*
X31035773Y-2298590D02*
X31038192Y-2302860D01*
X10650000Y-2350000D02*
X10650000Y-2400000D01*
X31027301Y-15813439D02*
X31024095Y-15817156D01*
X24607244Y-15840399D02*
X24602860Y-15838192D01*
X38044443Y-11066480D02*
X38040430Y-11063654D01*
X31351082Y-15764673D02*
X31350481Y-15759802D01*
X24217156Y-15625905D02*
X24220711Y-15629289D01*
X10630321Y-2459570D02*
X10627301Y-2463439D01*
X38124298Y-15847003D02*
X38119509Y-15848078D01*
X4199367Y-15599984D02*
X4200633Y-15600000D01*
X10966853Y-15644443D02*
X10969679Y-15640430D01*
X30974298Y-2497003D02*
X30969509Y-2498079D01*
X38195694Y-7087638D02*
X38197003Y-7092368D01*
X4042645Y-15523403D02*
X4047448Y-15529293D01*
X38147140Y-6704859D02*
X38142756Y-6707066D01*
X30979028Y-2254306D02*
X30983689Y-2255846D01*
X17802860Y-2261808D02*
X17807244Y-2259601D01*
X11020971Y-15604306D02*
X11025702Y-15602997D01*
X37858655Y-15591176D02*
X37861071Y-15590418D01*
X4110798Y-15578974D02*
X4113072Y-15580090D01*
X38005846Y-6650356D02*
X38004306Y-6645695D01*
X4006733Y-2648652D02*
X4006098Y-2651104D01*
X10554907Y-15600120D02*
X10559802Y-15600481D01*
X24150000Y-2250000D02*
X24154907Y-2250120D01*
X4049098Y-15531214D02*
X4054192Y-15536853D01*
X24640198Y-15849518D02*
X24635327Y-15848918D01*
X31350481Y-2409802D02*
X31350120Y-2404907D01*
X4093149Y-15569032D02*
X4095299Y-15570371D01*
X4113072Y-15580090D02*
X4119978Y-15583263D01*
X3802997Y-11007631D02*
X3801921Y-11002842D01*
X37800633Y-15599984D02*
X37808863Y-15599775D01*
X17397140Y-2488192D02*
X17392756Y-2490399D01*
X4168467Y-2502530D02*
X4160987Y-2503871D01*
X17835327Y-15848918D02*
X17830491Y-15848078D01*
X37808863Y-15599775D02*
X37811393Y-15599647D01*
X38001921Y-6636176D02*
X38001082Y-6631340D01*
X24174298Y-15602997D02*
X24179028Y-15604306D01*
X38036561Y-11406032D02*
X38040430Y-11403012D01*
X17811732Y-2257612D02*
X17816311Y-2255846D01*
X10966853Y-2455557D02*
X10964227Y-2451410D01*
X17757612Y-15661731D02*
X17759601Y-15657244D01*
X3814227Y-11034744D02*
X3811808Y-11030473D01*
X37889202Y-2521026D02*
X37886928Y-2519910D01*
X24250000Y-2350000D02*
X24250000Y-2400000D01*
X3800120Y-11478426D02*
X3800481Y-11473531D01*
X24555845Y-15666311D02*
X24557612Y-15661731D01*
X24582844Y-2275905D02*
X24586561Y-2272699D01*
X3816853Y-11427776D02*
X3819679Y-11423763D01*
X31402860Y-2488192D02*
X31398590Y-2485773D01*
X17430321Y-15640430D02*
X17433147Y-15644443D01*
X17752997Y-2325702D02*
X17754306Y-2320971D01*
X31049518Y-15690198D02*
X31049879Y-15695093D01*
X3998078Y-11463824D02*
X3998918Y-11468660D01*
X38048590Y-11069106D02*
X38044443Y-11066480D01*
X3805845Y-15783689D02*
X3804306Y-15779028D01*
X31372699Y-2286561D02*
X31375905Y-2282844D01*
X17798590Y-15614227D02*
X17802860Y-15611808D01*
X31013439Y-2272699D02*
X31017156Y-2275905D01*
X3801921Y-11463824D02*
X3802997Y-11459035D01*
X10633147Y-2294443D02*
X10635773Y-2298590D01*
X38114673Y-11384416D02*
X38119509Y-11385255D01*
X3836561Y-15827301D02*
X3832844Y-15824095D01*
X3811808Y-6663806D02*
X3809601Y-6659422D01*
X37868262Y-2512040D02*
X37861071Y-2509582D01*
X17424095Y-2467156D02*
X17420711Y-2470711D01*
X30969509Y-2251921D02*
X30974298Y-2252997D01*
X38199518Y-7106865D02*
X38199880Y-7111760D01*
X10951921Y-2419509D02*
X10951082Y-2414673D01*
X31350120Y-2345093D02*
X31350481Y-2340198D01*
X10645694Y-2429029D02*
X10644154Y-2433689D01*
X17392756Y-15609601D02*
X17397140Y-15611808D01*
X24620971Y-15604306D02*
X24625702Y-15602997D01*
X38048590Y-11397560D02*
X38052860Y-11395141D01*
X17779289Y-2470711D02*
X17775905Y-2467156D01*
X4101848Y-15574227D02*
X4104062Y-15575456D01*
X3998078Y-6636176D02*
X3997003Y-6640965D01*
X31375905Y-15632844D02*
X31379289Y-15629289D01*
X24594443Y-2266853D02*
X24598590Y-2264227D01*
X31350481Y-15690198D02*
X31351082Y-15685327D01*
X38044443Y-7033520D02*
X38048590Y-7030894D01*
X3942755Y-6707066D02*
X3938268Y-6709055D01*
X11016311Y-2494154D02*
X11011732Y-2492388D01*
X24249518Y-15690198D02*
X24249879Y-15695093D01*
X10635773Y-2451410D02*
X10633147Y-2455557D01*
X17449518Y-15690198D02*
X17449880Y-15695093D01*
X3801921Y-6636176D02*
X3801082Y-6631340D01*
X17772699Y-15813439D02*
X17769679Y-15809570D01*
X24227301Y-2463439D02*
X24224095Y-2467156D01*
X3857244Y-15840399D02*
X3852860Y-15838192D01*
X38163439Y-2272699D02*
X38167156Y-2275905D01*
X38109802Y-15849518D02*
X38104907Y-15849879D01*
X17775905Y-2467156D02*
X17772699Y-2463439D01*
X10650000Y-15750000D02*
X10649880Y-15754907D01*
X24640198Y-2499518D02*
X24635327Y-2498918D01*
X38198918Y-2335327D02*
X38199518Y-2340198D01*
X3995694Y-6645695D02*
X3994154Y-6650356D01*
X31361808Y-15797140D02*
X31359601Y-15792755D01*
X4042645Y-2576597D02*
X4041095Y-2578600D01*
X17750000Y-2400000D02*
X17750000Y-2350000D01*
X38025905Y-7049511D02*
X38029289Y-7045956D01*
X37952552Y-2570707D02*
X37950902Y-2568785D01*
X31040399Y-15657244D02*
X31042388Y-15661731D01*
X38197003Y-15774298D02*
X38195694Y-15779028D01*
X11030491Y-15848078D02*
X11025702Y-15847003D01*
X24550000Y-2400000D02*
X24550000Y-2350000D01*
X10951082Y-15764673D02*
X10950482Y-15759802D01*
X38170711Y-2279289D02*
X38174095Y-2282844D01*
X3800481Y-11473531D02*
X3801082Y-11468660D01*
X17350000Y-15850000D02*
X11050000Y-15850000D01*
X17757612Y-2311732D02*
X17759601Y-2307244D01*
X38195694Y-6645695D02*
X38194154Y-6650356D01*
X4055937Y-15538689D02*
X4061311Y-15544063D01*
X24192755Y-2259601D02*
X24197140Y-2261808D01*
X10569509Y-15601921D02*
X10574298Y-15602997D01*
X10624095Y-2282844D02*
X10627301Y-2286561D01*
X38170711Y-7045956D02*
X38174095Y-7049511D01*
X24227301Y-2286561D02*
X24230321Y-2290430D01*
X24240399Y-15792755D02*
X24238192Y-15797140D01*
X17424095Y-2282844D02*
X17427301Y-2286561D01*
X3800120Y-6621573D02*
X3800000Y-6616667D01*
X30979028Y-2495694D02*
X30974298Y-2497003D01*
X38185773Y-2298590D02*
X38188192Y-2302860D01*
X24235773Y-15801410D02*
X24233147Y-15805557D01*
X17424095Y-15632844D02*
X17427301Y-15636561D01*
X38188192Y-11436194D02*
X38190399Y-11440578D01*
X38025905Y-11416177D02*
X38029289Y-11412623D01*
X3999518Y-11473531D02*
X3999879Y-11478426D01*
X17374298Y-15602997D02*
X17379029Y-15604306D01*
X38075702Y-11386330D02*
X38080491Y-11385255D01*
X3836561Y-6693968D02*
X3832844Y-6690762D01*
X37915275Y-15563403D02*
X37921400Y-15558905D01*
X38170711Y-11054044D02*
X38167156Y-11057428D01*
X3929028Y-11079027D02*
X3924298Y-11080336D01*
X17790430Y-15619679D02*
X17794443Y-15616853D01*
X3804306Y-11454305D02*
X3805845Y-11449644D01*
X24240399Y-2307244D02*
X24242388Y-2311732D01*
X37993902Y-15448896D02*
X37995620Y-15441494D01*
X37938689Y-15544063D02*
X37944063Y-15538689D01*
X38183147Y-6672224D02*
X38180321Y-6676237D01*
X30959802Y-15600481D02*
X30964673Y-15601082D01*
X31366853Y-2455557D02*
X31364227Y-2451410D01*
X3814227Y-2298590D02*
X3816853Y-2294443D01*
X17417156Y-2275905D02*
X17420711Y-2279289D01*
X3832844Y-2275905D02*
X3836561Y-2272699D01*
X17449518Y-15759802D02*
X17448918Y-15764673D01*
X10950000Y-2350000D02*
X10950120Y-2345093D01*
X24554306Y-15670971D02*
X24555845Y-15666311D01*
X10633147Y-2455557D02*
X10630321Y-2459570D01*
X3985773Y-6668077D02*
X3983147Y-6672224D01*
X3800120Y-15754907D02*
X3800000Y-15750000D01*
X38025905Y-11050489D02*
X38022699Y-11046773D01*
X4000000Y-7116666D02*
X4000000Y-10983333D01*
X17830491Y-2498079D02*
X17825702Y-2497003D01*
X17794443Y-15833147D02*
X17790430Y-15830321D01*
X10647003Y-15774298D02*
X10645694Y-15779028D01*
X31047003Y-2424298D02*
X31045694Y-2429029D01*
X17798590Y-2485773D02*
X17794443Y-2483147D01*
X31017156Y-2474095D02*
X31013439Y-2477301D01*
X3998078Y-7097157D02*
X3998918Y-7101993D01*
X31364227Y-15648590D02*
X31366853Y-15644443D01*
X38022699Y-11046773D02*
X38019679Y-11042903D01*
X30983689Y-2494154D02*
X30979028Y-2495694D01*
X17751921Y-2330491D02*
X17752997Y-2325702D01*
X3999518Y-10993135D02*
X3998918Y-10998006D01*
X3814227Y-15801410D02*
X3811808Y-15797140D01*
X24607244Y-2490399D02*
X24602860Y-2488192D01*
X31394443Y-15833147D02*
X31390430Y-15830321D01*
X30954907Y-15600120D02*
X30959802Y-15600481D01*
X38192388Y-15788268D02*
X38190399Y-15792755D01*
X38080491Y-7018588D02*
X38085327Y-7017749D01*
X11025702Y-2252997D02*
X11030491Y-2251921D01*
X17802860Y-15838192D02*
X17798590Y-15835773D01*
X10620711Y-2470711D02*
X10617156Y-2474095D01*
X3807612Y-6654935D02*
X3805845Y-6650356D01*
X4191136Y-2500225D02*
X4188607Y-2500353D01*
X31001410Y-15835773D02*
X30997140Y-15838192D01*
X11025702Y-2497003D02*
X11020971Y-2495694D01*
X4168467Y-15597470D02*
X4170971Y-15597854D01*
X37984261Y-15477695D02*
X37987080Y-15470637D01*
X3924298Y-7019663D02*
X3929028Y-7020973D01*
X38163439Y-7039365D02*
X38167156Y-7042571D01*
X38174095Y-15817156D02*
X38170711Y-15820711D01*
X38163439Y-6693968D02*
X38159570Y-6696987D01*
X10959601Y-2442756D02*
X10957612Y-2438268D01*
X10601410Y-15614227D02*
X10605557Y-15616853D01*
X4029628Y-15504701D02*
X4030968Y-15506850D01*
X10964227Y-15801410D02*
X10961808Y-15797140D01*
X10647003Y-15675702D02*
X10648079Y-15680491D01*
X10635773Y-15648590D02*
X10638192Y-15652860D01*
X38190399Y-11440578D02*
X38192388Y-11445065D01*
X24561808Y-15797140D02*
X24559601Y-15792755D01*
X17364673Y-15848918D02*
X17359802Y-15849518D01*
X17350000Y-2500000D02*
X11050000Y-2500000D01*
X37818970Y-2500930D02*
X37811393Y-2500353D01*
X38104907Y-2250120D02*
X38109802Y-2250482D01*
X38155557Y-15833147D02*
X38151410Y-15835773D01*
X31369679Y-2290430D02*
X31372699Y-2286561D01*
X10972699Y-15636561D02*
X10975905Y-15632844D01*
X38100000Y-6716667D02*
X38095093Y-6716546D01*
X17786561Y-2477301D02*
X17782844Y-2474095D01*
X31009570Y-15619679D02*
X31013439Y-15622699D01*
X17409570Y-15830321D02*
X17405557Y-15833147D01*
X4084725Y-2536597D02*
X4078600Y-2541095D01*
X38075702Y-6713670D02*
X38070971Y-6712361D01*
X11050000Y-15850000D02*
X11045093Y-15849879D01*
X24579289Y-2279289D02*
X24582844Y-2275905D01*
X37906851Y-15569032D02*
X37913196Y-15564850D01*
X4148651Y-2506733D02*
X4141345Y-2508824D01*
X17816311Y-2494154D02*
X17811732Y-2492388D01*
X24590430Y-15830321D02*
X24586561Y-15827301D01*
X10954306Y-2320971D02*
X10955846Y-2316311D01*
X3844443Y-2266853D02*
X3848590Y-2264227D01*
X24169509Y-15601921D02*
X24174298Y-15602997D01*
X10990430Y-2269679D02*
X10994443Y-2266853D01*
X38002997Y-7092368D02*
X38004306Y-7087638D01*
X31038192Y-2447140D02*
X31035773Y-2451410D01*
X17782844Y-2275905D02*
X17786561Y-2272699D01*
X3825905Y-15817156D02*
X3822699Y-15813439D01*
X31420971Y-15845694D02*
X31416311Y-15844154D01*
X3866311Y-2255846D02*
X3870971Y-2254306D01*
X10994443Y-2266853D02*
X10998590Y-2264227D01*
X3832844Y-6690762D02*
X3829289Y-6687377D01*
X3836561Y-2272699D02*
X3840430Y-2269679D01*
X24582844Y-15824095D02*
X24579289Y-15820711D01*
X31030321Y-15809570D02*
X31027301Y-15813439D01*
X38114673Y-11082251D02*
X38109802Y-11082852D01*
X31350000Y-15700000D02*
X31350120Y-15695093D01*
X24242388Y-2311732D02*
X24244154Y-2316311D01*
X24188268Y-2257612D02*
X24192755Y-2259601D01*
X10950120Y-2404907D02*
X10950000Y-2400000D01*
X10609570Y-15619679D02*
X10613439Y-15622699D01*
X24598590Y-2264227D02*
X24602860Y-2261808D01*
X24625702Y-2497003D02*
X24620971Y-2495694D01*
X31450000Y-15850000D02*
X31445093Y-15849879D01*
X4070707Y-15552552D02*
X4076597Y-15557354D01*
X17772699Y-2463439D02*
X17769679Y-2459570D01*
X10635773Y-15801410D02*
X10633147Y-15805557D01*
X38129029Y-2254306D02*
X38133689Y-2255846D01*
X4151103Y-15593902D02*
X4158506Y-15595620D01*
X37944063Y-15538689D02*
X37945808Y-15536853D01*
X17759601Y-15792755D02*
X17757612Y-15788268D01*
X24586561Y-15622699D02*
X24590430Y-15619679D01*
X24561808Y-2447140D02*
X24559601Y-2442756D01*
X11035327Y-2498918D02*
X11030491Y-2498079D01*
X38066311Y-7022512D02*
X38070971Y-7020973D01*
X10959601Y-2307244D02*
X10961808Y-2302860D01*
X4025773Y-2601848D02*
X4024544Y-2604062D01*
X38004306Y-6645695D02*
X38002997Y-6640965D01*
X24579289Y-15820711D02*
X24575905Y-15817156D01*
X38159570Y-11403012D02*
X38163439Y-11406032D01*
X38036561Y-11060634D02*
X38032844Y-11057428D01*
X30983689Y-2255846D02*
X30988268Y-2257612D01*
X3852860Y-15838192D02*
X3848590Y-15835773D01*
X24550120Y-15695093D02*
X24550481Y-15690198D01*
X11016311Y-15844154D02*
X11011732Y-15842388D01*
X3924298Y-6713670D02*
X3919509Y-6714745D01*
X11045093Y-2250120D02*
X11050000Y-2250000D01*
X3895093Y-11383454D02*
X3900000Y-11383333D01*
X3959570Y-6696987D02*
X3955557Y-6699814D01*
X17835327Y-2498918D02*
X17830491Y-2498079D01*
X31035773Y-2451410D02*
X31033147Y-2455557D01*
X38061732Y-7024279D02*
X38066311Y-7022512D01*
X24249879Y-15754907D02*
X24249518Y-15759802D01*
X3983147Y-11427776D02*
X3985773Y-11431923D01*
X3895093Y-7016787D02*
X3900000Y-7016667D01*
X17761808Y-2302860D02*
X17764227Y-2298590D01*
X24635327Y-2251082D02*
X24640198Y-2250482D01*
X4063147Y-15545808D02*
X4068785Y-15550902D01*
X38167156Y-11057428D02*
X38163439Y-11060634D01*
X31020711Y-15629289D02*
X31024095Y-15632844D01*
X3875702Y-11386330D02*
X3880491Y-11385255D01*
X17369509Y-15848078D02*
X17364673Y-15848918D01*
X37799367Y-2500000D02*
X31450000Y-2500000D01*
X4006733Y-15451348D02*
X4008824Y-15458655D01*
X17751082Y-2414673D02*
X17750482Y-2409802D01*
X10617156Y-2275905D02*
X10620711Y-2279289D01*
X31351921Y-2330491D02*
X31352997Y-2325702D01*
X38005846Y-11449644D02*
X38007612Y-11445065D01*
X31047003Y-2325702D02*
X31048078Y-2330491D01*
X38057244Y-6707066D02*
X38052860Y-6704859D01*
X10998590Y-2264227D02*
X11002860Y-2261808D01*
X17751082Y-15764673D02*
X17750482Y-15759802D01*
X3947140Y-11071525D02*
X3942755Y-11073732D01*
X38142756Y-2259601D02*
X38147140Y-2261808D01*
X31001410Y-15614227D02*
X31005557Y-15616853D01*
X3802997Y-15774298D02*
X3801921Y-15769509D01*
X24233147Y-15644443D02*
X24235773Y-15648590D01*
X3801082Y-11468660D02*
X3801921Y-11463824D01*
X3550029Y-16099970D02*
X3551227Y-16100000D01*
X4000225Y-2691137D02*
X4000016Y-2699367D01*
X10951921Y-2330491D02*
X10952997Y-2325702D01*
X3977301Y-7053227D02*
X3980321Y-7057097D01*
X17750120Y-2404907D02*
X17750000Y-2400000D01*
X37848896Y-2506098D02*
X37841494Y-2504380D01*
X24554306Y-2429029D02*
X24552997Y-2424298D01*
X38450000Y-2001227D02*
X38449971Y-2000029D01*
X38048590Y-7030894D02*
X38052860Y-7028474D01*
X10630321Y-15640430D02*
X10633147Y-15644443D01*
X4141345Y-2508824D02*
X4138929Y-2509582D01*
X38001921Y-11002842D02*
X38001082Y-10998006D01*
X3885327Y-11384416D02*
X3890198Y-11383815D01*
X38185773Y-11034744D02*
X38183147Y-11038890D01*
X10613439Y-2272699D02*
X10617156Y-2275905D01*
X31048078Y-15769509D02*
X31047003Y-15774298D01*
X24244154Y-15783689D02*
X24242388Y-15788268D01*
X24566853Y-2294443D02*
X24569679Y-2290430D01*
X31372699Y-15636561D02*
X31375905Y-15632844D01*
X38129029Y-11387639D02*
X38133689Y-11389179D01*
X31049879Y-15695093D02*
X31050000Y-15700000D01*
X11011732Y-15607612D02*
X11016311Y-15605845D01*
X38040430Y-11063654D02*
X38036561Y-11060634D01*
X24169509Y-15848078D02*
X24164673Y-15848918D01*
X10979289Y-15820711D02*
X10975905Y-15817156D01*
X3900000Y-15850000D02*
X3895093Y-15849879D01*
X24238192Y-15797140D02*
X24235773Y-15801410D01*
X17840198Y-15849518D02*
X17835327Y-15848918D01*
X24579289Y-15629289D02*
X24582844Y-15625905D01*
X3890198Y-2250482D02*
X3895093Y-2250120D01*
X37906851Y-2530968D02*
X37904701Y-2529628D01*
X31379289Y-15629289D02*
X31382844Y-15625905D01*
X31416311Y-15605845D02*
X31420971Y-15604306D01*
X31359601Y-2307244D02*
X31361808Y-2302860D01*
X4151103Y-2506098D02*
X4148651Y-2506733D01*
X38119509Y-15848078D02*
X38114673Y-15848918D01*
X3800481Y-2340198D02*
X3801082Y-2335327D01*
X3904907Y-11383454D02*
X3909802Y-11383815D01*
X31407244Y-2490399D02*
X31402860Y-2488192D01*
X4061311Y-2555937D02*
X4055937Y-2561311D01*
X38151410Y-6702439D02*
X38147140Y-6704859D01*
X31390430Y-2269679D02*
X31394443Y-2266853D01*
X31375905Y-2282844D02*
X31379289Y-2279289D01*
X3819679Y-11042903D02*
X3816853Y-11038890D01*
X30983689Y-15605845D02*
X30988268Y-15607612D01*
X3816853Y-7061109D02*
X3819679Y-7057097D01*
X24220711Y-2279289D02*
X24224095Y-2282844D01*
X3800481Y-6626468D02*
X3800120Y-6621573D01*
X30988268Y-15607612D02*
X30992755Y-15609601D01*
X3857244Y-7026268D02*
X3861731Y-7024279D01*
X17766853Y-2294443D02*
X17769679Y-2290430D01*
X31386561Y-2272699D02*
X31390430Y-2269679D01*
X24579289Y-2470711D02*
X24575905Y-2467156D01*
X24594443Y-15833147D02*
X24590430Y-15830321D01*
X24250000Y-15700000D02*
X24250000Y-15750000D01*
X30992755Y-2490399D02*
X30988268Y-2492388D01*
X10597140Y-2261808D02*
X10601410Y-2264227D01*
X10605557Y-15833147D02*
X10601410Y-15835773D01*
X37987960Y-15468262D02*
X37990418Y-15461071D01*
X17445694Y-15670971D02*
X17447003Y-15675702D01*
X10648918Y-15764673D02*
X10648079Y-15769509D01*
X31382844Y-15824095D02*
X31379289Y-15820711D01*
X24197140Y-15611808D02*
X24201410Y-15614227D01*
X24248078Y-2419509D02*
X24247003Y-2424298D01*
X24179028Y-15604306D02*
X24183689Y-15605845D01*
X3829289Y-6687377D02*
X3825905Y-6683822D01*
X3970711Y-6687377D02*
X3967156Y-6690762D01*
X3895093Y-11083213D02*
X3890198Y-11082852D01*
X3938268Y-11075721D02*
X3933689Y-11077488D01*
X31354306Y-2429029D02*
X31352997Y-2424298D01*
X38000482Y-7106865D02*
X38001082Y-7101993D01*
X10979289Y-2279289D02*
X10982844Y-2275905D01*
X3951410Y-11397560D02*
X3955557Y-11400186D01*
X31357612Y-15788268D02*
X31355845Y-15783689D01*
X17447003Y-2424298D02*
X17445694Y-2429029D01*
X3994154Y-6650356D02*
X3992388Y-6654935D01*
X37895938Y-2524544D02*
X37889202Y-2521026D01*
X38180321Y-6676237D02*
X38177301Y-6680106D01*
X4061311Y-15544063D02*
X4063147Y-15545808D01*
X38197003Y-6640965D02*
X38195694Y-6645695D01*
X3857244Y-2259601D02*
X3861731Y-2257612D01*
X4148651Y-15593267D02*
X4151103Y-15593902D01*
X38090198Y-6716185D02*
X38085327Y-6715584D01*
X3988192Y-6663806D02*
X3985773Y-6668077D01*
X4119978Y-15583263D02*
X4122305Y-15584261D01*
X30974298Y-15847003D02*
X30969509Y-15848078D01*
X24192755Y-15840399D02*
X24188268Y-15842388D01*
X38061732Y-6709055D02*
X38057244Y-6707066D01*
X17440399Y-2307244D02*
X17442388Y-2311732D01*
X17383689Y-2494154D02*
X17379029Y-2495694D01*
X10969679Y-2290430D02*
X10972699Y-2286561D01*
X24209570Y-2480321D02*
X24205557Y-2483147D01*
X37808863Y-2500225D02*
X37800633Y-2500016D01*
X38155557Y-7033520D02*
X38159570Y-7036346D01*
X24230321Y-2290430D02*
X24233147Y-2294443D01*
X38025905Y-6683822D02*
X38022699Y-6680106D01*
X17766853Y-2455557D02*
X17764227Y-2451410D01*
X17392756Y-2259601D02*
X17397140Y-2261808D01*
X3914673Y-6715584D02*
X3909802Y-6716185D01*
X17798590Y-2264227D02*
X17802860Y-2261808D01*
X24179028Y-2254306D02*
X24183689Y-2255846D01*
X24586561Y-2272699D02*
X24590430Y-2269679D01*
X38197003Y-7092368D02*
X38198079Y-7097157D01*
X38052860Y-7028474D02*
X38057244Y-7026268D01*
X17820971Y-2495694D02*
X17816311Y-2494154D01*
X37839013Y-15596129D02*
X37841494Y-15595620D01*
X11045093Y-15849879D02*
X11040198Y-15849518D01*
X24169509Y-2498079D02*
X24164673Y-2498918D01*
X31009570Y-2269679D02*
X31013439Y-2272699D01*
X10579029Y-15604306D02*
X10583689Y-15605845D01*
X10979289Y-15629289D02*
X10982844Y-15625905D01*
X17750120Y-2345093D02*
X17750482Y-2340198D01*
X38057244Y-7026268D02*
X38061732Y-7024279D01*
X17759601Y-2307244D02*
X17761808Y-2302860D01*
X24650000Y-2250000D02*
X30950000Y-2250000D01*
X3885327Y-7017749D02*
X3890198Y-7017148D01*
X17417156Y-2474095D02*
X17413439Y-2477301D01*
X31350481Y-15759802D02*
X31350120Y-15754907D01*
X24630491Y-2498079D02*
X24625702Y-2497003D01*
X3809601Y-7073911D02*
X3811808Y-7069527D01*
X10613439Y-2477301D02*
X10609570Y-2480321D01*
X3924298Y-11386330D02*
X3929028Y-11387639D01*
X38114673Y-15848918D02*
X38109802Y-15849518D01*
X3885327Y-2251082D02*
X3890198Y-2250482D01*
X3942755Y-11073732D02*
X3938268Y-11075721D01*
X38167156Y-11409238D02*
X38170711Y-11412623D01*
X38142756Y-11392934D02*
X38147140Y-11395141D01*
X3811808Y-11030473D02*
X3809601Y-11026089D01*
X37886928Y-2519910D02*
X37880022Y-2516737D01*
X38129029Y-11079027D02*
X38124298Y-11080336D01*
X3999879Y-10988240D02*
X3999518Y-10993135D01*
X37999070Y-2681030D02*
X37998814Y-2678510D01*
X17427301Y-2463439D02*
X17424095Y-2467156D01*
X4000930Y-15418970D02*
X4001186Y-15421490D01*
X24224095Y-15632844D02*
X24227301Y-15636561D01*
X24164673Y-2251082D02*
X24169509Y-2251921D01*
X31351082Y-2335327D02*
X31351921Y-2330491D01*
X17405557Y-2266853D02*
X17409570Y-2269679D01*
X3866311Y-6710821D02*
X3861731Y-6709055D01*
X38192388Y-2311732D02*
X38194154Y-2316311D01*
X24249879Y-2345093D02*
X24250000Y-2350000D01*
X31020711Y-2470711D02*
X31017156Y-2474095D01*
X31009570Y-15830321D02*
X31005557Y-15833147D01*
X3857244Y-11392934D02*
X3861731Y-11390945D01*
X31001410Y-2264227D02*
X31005557Y-2266853D01*
X11011732Y-2492388D02*
X11007244Y-2490399D01*
X38192388Y-11021602D02*
X38190399Y-11026089D01*
X24159802Y-15849518D02*
X24154907Y-15849879D01*
X38448773Y-2000000D02*
X3551227Y-2000000D01*
X24569679Y-2290430D02*
X24572699Y-2286561D01*
X10975905Y-15632844D02*
X10979289Y-15629289D01*
X10964227Y-2298590D02*
X10966853Y-2294443D01*
X37861071Y-15590418D02*
X37868262Y-15587960D01*
X31364227Y-2298590D02*
X31366853Y-2294443D01*
X10620711Y-15820711D02*
X10617156Y-15824095D01*
X38090198Y-11383815D02*
X38095093Y-11383454D01*
X17417156Y-15824095D02*
X17413439Y-15827301D01*
X24611731Y-15607612D02*
X24616311Y-15605845D01*
X31042388Y-2311732D02*
X31044154Y-2316311D01*
X3800000Y-2350000D02*
X3800120Y-2345093D01*
X31350000Y-2400000D02*
X31350000Y-2350000D01*
X17388268Y-15842388D02*
X17383689Y-15844154D01*
X31372699Y-2463439D02*
X31369679Y-2459570D01*
X37963403Y-15515275D02*
X37964850Y-15513196D01*
X31430491Y-2498079D02*
X31425702Y-2497003D01*
X38040430Y-7036346D02*
X38044443Y-7033520D01*
X3861731Y-2257612D02*
X3866311Y-2255846D01*
X38199880Y-10988240D02*
X38199518Y-10993135D01*
X38109802Y-2250482D02*
X38114673Y-2251082D01*
X38159570Y-11063654D02*
X38155557Y-11066480D01*
X4178510Y-2501186D02*
X4170971Y-2502146D01*
X3852860Y-11395141D02*
X3857244Y-11392934D01*
X38159570Y-7036346D02*
X38163439Y-7039365D01*
X38007612Y-11445065D02*
X38009601Y-11440578D01*
X24154907Y-15849879D02*
X24150000Y-15850000D01*
X3848590Y-11069106D02*
X3844443Y-11066480D01*
X4021026Y-15489202D02*
X4024544Y-15495937D01*
X38199880Y-2345093D02*
X38200000Y-2350000D01*
X17757612Y-15788268D02*
X17755846Y-15783689D01*
X3819679Y-15809570D02*
X3816853Y-15805557D01*
X3825905Y-11050489D02*
X3822699Y-11046773D01*
X38036561Y-7039365D02*
X38040430Y-7036346D01*
X17807244Y-2490399D02*
X17802860Y-2488192D01*
X37987080Y-2629362D02*
X37984261Y-2622305D01*
X31033147Y-2294443D02*
X31035773Y-2298590D01*
X17845093Y-2250120D02*
X17850000Y-2250000D01*
X17757612Y-2438268D02*
X17755846Y-2433689D01*
X38147140Y-11071525D02*
X38142756Y-11073732D01*
X10955846Y-2316311D02*
X10957612Y-2311732D01*
X17417156Y-15625905D02*
X17420711Y-15629289D01*
X10624095Y-15817156D02*
X10620711Y-15820711D01*
X24564227Y-15801410D02*
X24561808Y-15797140D01*
X37841494Y-2504380D02*
X37839013Y-2503871D01*
X11007244Y-15609601D02*
X11011732Y-15607612D01*
X10998590Y-15614227D02*
X11002860Y-15611808D01*
X31048918Y-2414673D02*
X31048078Y-2419509D01*
X24550120Y-15754907D02*
X24550000Y-15750000D01*
X31435327Y-2498918D02*
X31430491Y-2498079D01*
X3998918Y-7101993D02*
X3999518Y-7106865D01*
X24230321Y-15809570D02*
X24227301Y-15813439D01*
X38095093Y-11083213D02*
X38090198Y-11082852D01*
X37999070Y-15418970D02*
X37999647Y-15411393D01*
X3955557Y-11400186D02*
X3959570Y-11403012D01*
X38009601Y-11440578D02*
X38011808Y-11436194D01*
X38185773Y-6668077D02*
X38183147Y-6672224D01*
X17750482Y-15759802D02*
X17750120Y-15754907D01*
X17761808Y-2447140D02*
X17759601Y-2442756D01*
X24582844Y-2474095D02*
X24579289Y-2470711D01*
X38000120Y-11478426D02*
X38000482Y-11473531D01*
X10649518Y-2409802D02*
X10648918Y-2414673D01*
X3997003Y-11459035D02*
X3998078Y-11463824D01*
X10630321Y-15809570D02*
X10627301Y-15813439D01*
X3985773Y-11034744D02*
X3983147Y-11038890D01*
X10982844Y-2474095D02*
X10979289Y-2470711D01*
X24551082Y-15764673D02*
X24550481Y-15759802D01*
X10649518Y-2340198D02*
X10649880Y-2345093D01*
X31366853Y-15805557D02*
X31364227Y-15801410D01*
X38124298Y-11080336D02*
X38119509Y-11081412D01*
X38177301Y-7053227D02*
X38180321Y-7057097D01*
X24575905Y-15817156D02*
X24572699Y-15813439D01*
X3992388Y-7078398D02*
X3994154Y-7082978D01*
X11050000Y-15600000D02*
X17350000Y-15600000D01*
X31050000Y-15750000D02*
X31049879Y-15754907D01*
X11020971Y-2495694D02*
X11016311Y-2494154D01*
X3974095Y-6683822D02*
X3970711Y-6687377D01*
X3800000Y-10983333D02*
X3800000Y-7116666D01*
X3890198Y-11082852D02*
X3885327Y-11082251D01*
X17438192Y-2447140D02*
X17435773Y-2451410D01*
X10564673Y-2251082D02*
X10569509Y-2251921D01*
X24179028Y-15845694D02*
X24174298Y-15847003D01*
X3804306Y-2320971D02*
X3805845Y-2316311D01*
X17807244Y-15840399D02*
X17802860Y-15838192D01*
X3963439Y-11060634D02*
X3959570Y-11063654D01*
X31038192Y-15652860D02*
X31040399Y-15657244D01*
X4021026Y-2610798D02*
X4019910Y-2613072D01*
X38052860Y-11395141D02*
X38057244Y-11392934D01*
X37938689Y-2555937D02*
X37936853Y-2554192D01*
X24242388Y-15661731D02*
X24244154Y-15666311D01*
X38183147Y-2294443D02*
X38185773Y-2298590D01*
X31411731Y-2492388D02*
X31407244Y-2490399D01*
X31050000Y-2400000D02*
X31049879Y-2404907D01*
X24552997Y-2325702D02*
X24554306Y-2320971D01*
X30992755Y-2259601D02*
X30997140Y-2261808D01*
X38095093Y-6716546D02*
X38090198Y-6716185D01*
X17820971Y-15845694D02*
X17816311Y-15844154D01*
X17807244Y-2259601D02*
X17811732Y-2257612D01*
X3800481Y-15759802D02*
X3800120Y-15754907D01*
X24247003Y-15675702D02*
X24248078Y-15680491D01*
X37993902Y-2651104D02*
X37993267Y-2648652D01*
X31024095Y-2282844D02*
X31027301Y-2286561D01*
X3805845Y-6650356D02*
X3804306Y-6645695D01*
X38174095Y-7049511D02*
X38177301Y-7053227D01*
X24575905Y-15632844D02*
X24579289Y-15629289D01*
X24645093Y-15849879D02*
X24640198Y-15849518D01*
X38000482Y-11473531D02*
X38001082Y-11468660D01*
X3848590Y-11397560D02*
X3852860Y-11395141D01*
X3800120Y-7111760D02*
X3800481Y-7106865D01*
X24645093Y-15600120D02*
X24650000Y-15600000D01*
X17354907Y-2499880D02*
X17350000Y-2500000D01*
X24625702Y-15847003D02*
X24620971Y-15845694D01*
X4113072Y-2519910D02*
X4110798Y-2521026D01*
X17444154Y-2316311D02*
X17445694Y-2320971D01*
X31366853Y-15644443D02*
X31369679Y-15640430D01*
X10950120Y-15754907D02*
X10950000Y-15750000D01*
X10648079Y-2330491D02*
X10648918Y-2335327D01*
X24169509Y-2251921D02*
X24174298Y-2252997D01*
X3875702Y-2252997D02*
X3880491Y-2251921D01*
X38052860Y-11071525D02*
X38048590Y-11069106D01*
X11050000Y-2500000D02*
X11045093Y-2499880D01*
X24586561Y-15827301D02*
X24582844Y-15824095D01*
X3816853Y-15805557D02*
X3814227Y-15801410D01*
X10644154Y-2433689D02*
X10642388Y-2438268D01*
X3832844Y-11057428D02*
X3829289Y-11054044D01*
X24213439Y-15827301D02*
X24209570Y-15830321D01*
X10645694Y-15779028D02*
X10644154Y-15783689D01*
X10564673Y-15601082D02*
X10569509Y-15601921D01*
X31352997Y-15675702D02*
X31354306Y-15670971D01*
X4138929Y-2509582D02*
X4131738Y-2512040D01*
X31379289Y-2279289D02*
X31382844Y-2275905D01*
X10624095Y-15632844D02*
X10627301Y-15636561D01*
X17779289Y-2279289D02*
X17782844Y-2275905D01*
X31047003Y-15774298D02*
X31045694Y-15779028D01*
X3980321Y-11423763D02*
X3983147Y-11427776D01*
X38138268Y-11075721D02*
X38133689Y-11077488D01*
X4009582Y-2638929D02*
X4008824Y-2641345D01*
X10649880Y-2345093D02*
X10650000Y-2350000D01*
X17447003Y-15774298D02*
X17445694Y-15779028D01*
X24159802Y-2499518D02*
X24154907Y-2499880D01*
X37858655Y-2508824D02*
X37851348Y-2506733D01*
X3801082Y-10998006D02*
X3800481Y-10993135D01*
X10950000Y-2400000D02*
X10950000Y-2350000D01*
X38001921Y-11463824D02*
X38002997Y-11459035D01*
X3994154Y-11017022D02*
X3992388Y-11021602D01*
X38104907Y-15849879D02*
X38100000Y-15850000D01*
X31027301Y-2463439D02*
X31024095Y-2467156D01*
X17820971Y-2254306D02*
X17825702Y-2252997D01*
X17786561Y-2272699D02*
X17790430Y-2269679D01*
X24205557Y-2483147D02*
X24201410Y-2485773D01*
X17835327Y-2251082D02*
X17840198Y-2250482D01*
X10583689Y-2494154D02*
X10579029Y-2495694D01*
X3999518Y-6626468D02*
X3998918Y-6631340D01*
X17751921Y-15769509D02*
X17751082Y-15764673D01*
X3800000Y-6616667D02*
X3800000Y-2350000D01*
X24607244Y-2259601D02*
X24611731Y-2257612D01*
X24247003Y-15774298D02*
X24245694Y-15779028D01*
X17840198Y-2499518D02*
X17835327Y-2498918D01*
X3811808Y-2302860D02*
X3814227Y-2298590D01*
X38449970Y-2000029D02*
X38448773Y-2000000D01*
X17794443Y-2266853D02*
X17798590Y-2264227D01*
X10588268Y-2492388D02*
X10583689Y-2494154D01*
X38183147Y-15805557D02*
X38180321Y-15809570D01*
X3809601Y-6659422D02*
X3807612Y-6654935D01*
X10979289Y-2470711D02*
X10975905Y-2467156D01*
X31430491Y-2251921D02*
X31435327Y-2251082D01*
X4158506Y-15595620D02*
X4160987Y-15596129D01*
X10955846Y-15783689D02*
X10954306Y-15779028D01*
X10649880Y-15754907D02*
X10649518Y-15759802D01*
X38174095Y-6683822D02*
X38170711Y-6687377D01*
X24242388Y-2438268D02*
X24240399Y-2442756D01*
X38100000Y-2250000D02*
X38104907Y-2250120D01*
X3801921Y-7097157D02*
X3802997Y-7092368D01*
X24586561Y-2477301D02*
X24582844Y-2474095D01*
X38014227Y-11431923D02*
X38016853Y-11427776D01*
X3550029Y-2000029D02*
X3550000Y-2001227D01*
X38151410Y-15835773D02*
X38147140Y-15838192D01*
X10579029Y-15845694D02*
X10574298Y-15847003D01*
X3947140Y-11395141D02*
X3951410Y-11397560D01*
X10972699Y-15813439D02*
X10969679Y-15809570D01*
X37945808Y-15536853D02*
X37950902Y-15531214D01*
X38199880Y-11478426D02*
X38200000Y-11483333D01*
X24559601Y-2307244D02*
X24561808Y-2302860D01*
X4086804Y-15564850D02*
X4093149Y-15569032D01*
X10961808Y-2302860D02*
X10964227Y-2298590D01*
X17413439Y-2477301D02*
X17409570Y-2480321D01*
X31430491Y-15601921D02*
X31435327Y-15601082D01*
X3829289Y-11054044D02*
X3825905Y-11050489D01*
X17350000Y-15600000D02*
X17354907Y-15600120D01*
X31045694Y-2429029D02*
X31044154Y-2433689D01*
X3551227Y-16100000D02*
X38448773Y-16100000D01*
X24616311Y-2255846D02*
X24620971Y-2254306D01*
X24250000Y-2400000D02*
X24249879Y-2404907D01*
X3825905Y-11416177D02*
X3829289Y-11412623D01*
X17811732Y-15607612D02*
X17816311Y-15605845D01*
X3800000Y-7116666D02*
X3800120Y-7111760D01*
X3801921Y-2330491D02*
X3802997Y-2325702D01*
X10640399Y-2307244D02*
X10642388Y-2311732D01*
X17755846Y-15783689D02*
X17754306Y-15779028D01*
X3885327Y-11082251D02*
X3880491Y-11081412D01*
X38183147Y-11427776D02*
X38185773Y-11431923D01*
X17442388Y-15661731D02*
X17444154Y-15666311D01*
X3947140Y-6704859D02*
X3942755Y-6707066D01*
X38029289Y-6687377D02*
X38025905Y-6683822D01*
X38066311Y-6710821D02*
X38061732Y-6709055D01*
X10605557Y-15616853D02*
X10609570Y-15619679D01*
X37821490Y-15598814D02*
X37829029Y-15597854D01*
X37997470Y-15431532D02*
X37997854Y-15429029D01*
X11002860Y-2261808D02*
X11007244Y-2259601D01*
X24550481Y-15690198D02*
X24551082Y-15685327D01*
X4095299Y-15570371D02*
X4101848Y-15574227D01*
X4002146Y-15429029D02*
X4002530Y-15431532D01*
X17794443Y-15616853D02*
X17798590Y-15614227D01*
X17401410Y-15835773D02*
X17397140Y-15838192D01*
X10954306Y-2429029D02*
X10952997Y-2424298D01*
X3990399Y-11440578D02*
X3992388Y-11445065D01*
D11*
D10*
X20631600Y-2986650D02*
X20651600Y-3006650D01*
X20651600Y-2986650D02*
X20631600Y-3006650D01*
X21336800Y-2977350D02*
X21356800Y-2997350D01*
X21356800Y-2977350D02*
X21336800Y-2997350D01*
X28015700Y-12944300D02*
X28035700Y-12964300D01*
X28035700Y-12944300D02*
X28015700Y-12964300D01*
X30519600Y-13002700D02*
X30539600Y-13022700D01*
X30539600Y-13002700D02*
X30519600Y-13022700D01*
X30893300Y-11217800D02*
X30913300Y-11237800D01*
X30913300Y-11217800D02*
X30893300Y-11237800D01*
X31509000Y-13026600D02*
X31529000Y-13046600D01*
X31529000Y-13026600D02*
X31509000Y-13046600D01*
X32314962Y-10301538D02*
X32334962Y-10321538D01*
X32334962Y-10301538D02*
X32314962Y-10321538D01*
X32373400Y-10579000D02*
X32393400Y-10599000D01*
X32393400Y-10579000D02*
X32373400Y-10599000D01*
X32515000Y-13037100D02*
X32535000Y-13057100D01*
X32535000Y-13037100D02*
X32515000Y-13057100D01*
X32642312Y-10628888D02*
X32662312Y-10648888D01*
X32662312Y-10628888D02*
X32642312Y-10648888D01*
X32772050Y-8343700D02*
X32792050Y-8363700D01*
X32792050Y-8343700D02*
X32772050Y-8363700D01*
X32779100Y-7529000D02*
X32799100Y-7549000D01*
X32799100Y-7529000D02*
X32779100Y-7549000D01*
X32817050Y-9225200D02*
X32837050Y-9245200D01*
X32837050Y-9225200D02*
X32817050Y-9245200D01*
X32817050Y-10475700D02*
X32837050Y-10495700D01*
X32837050Y-10475700D02*
X32817050Y-10495700D01*
X32832700Y-9005300D02*
X32852700Y-9025300D01*
X32852700Y-9005300D02*
X32832700Y-9025300D01*
X33111600Y-13032900D02*
X33131600Y-13052900D01*
X33131600Y-13032900D02*
X33111600Y-13052900D01*
X33144900Y-12419600D02*
X33164900Y-12439600D01*
X33164900Y-12419600D02*
X33144900Y-12439600D01*
X33154100Y-9461300D02*
X33174100Y-9481300D01*
X33174100Y-9461300D02*
X33154100Y-9481300D01*
X33439900Y-12481600D02*
X33459900Y-12501600D01*
X33459900Y-12481600D02*
X33439900Y-12501600D01*
X33508600Y-10283600D02*
X33528600Y-10303600D01*
X33528600Y-10283600D02*
X33508600Y-10303600D01*
X33570700Y-9402400D02*
X33590700Y-9422400D01*
X33590700Y-9402400D02*
X33570700Y-9422400D01*
X33636200Y-7449200D02*
X33656200Y-7469200D01*
X33656200Y-7449200D02*
X33636200Y-7469200D01*
X33648300Y-8143500D02*
X33668300Y-8163500D01*
X33668300Y-8143500D02*
X33648300Y-8163500D01*
X33683900Y-8719600D02*
X33703900Y-8739600D01*
X33703900Y-8719600D02*
X33683900Y-8739600D01*
X33684896Y-8779542D02*
X33704896Y-8799542D01*
X33704896Y-8779542D02*
X33684896Y-8799542D01*
X33687179Y-8839449D02*
X33707179Y-8859449D01*
X33707179Y-8839449D02*
X33687179Y-8859449D01*
X33962600Y-9112300D02*
X33982600Y-9132300D01*
X33982600Y-9112300D02*
X33962600Y-9132300D01*
X34056200Y-11209000D02*
X34076200Y-11229000D01*
X34076200Y-11209000D02*
X34056200Y-11229000D01*
X34134000Y-11017600D02*
X34154000Y-11037600D01*
X34154000Y-11017600D02*
X34134000Y-11037600D01*
X34212500Y-5631600D02*
X34232500Y-5651600D01*
X34232500Y-5631600D02*
X34212500Y-5651600D01*
X34261800Y-8943500D02*
X34281800Y-8963500D01*
X34281800Y-8943500D02*
X34261800Y-8963500D01*
X34272793Y-12701650D02*
X34292793Y-12721650D01*
X34292793Y-12701650D02*
X34272793Y-12721650D01*
X34301200Y-9009400D02*
X34321200Y-9029400D01*
X34321200Y-9009400D02*
X34301200Y-9029400D01*
X34333520Y-12702270D02*
X34353520Y-12722270D01*
X34353520Y-12702270D02*
X34333520Y-12722270D01*
X34807300Y-12052100D02*
X34827300Y-12072100D01*
X34827300Y-12052100D02*
X34807300Y-12072100D01*
X34953500Y-12050600D02*
X34973500Y-12070600D01*
X34973500Y-12050600D02*
X34953500Y-12070600D01*
X34984059Y-12102177D02*
X35004059Y-12122177D01*
X35004059Y-12102177D02*
X34984059Y-12122177D01*
X35358900Y-11824400D02*
X35378900Y-11844400D01*
X35378900Y-11824400D02*
X35358900Y-11844400D01*
X35443900Y-11871750D02*
X35463900Y-11891750D01*
X35463900Y-11871750D02*
X35443900Y-11891750D01*
X35498202Y-11813806D02*
X35518202Y-11833806D01*
X35518202Y-11813806D02*
X35498202Y-11833806D01*
X35630300Y-13528300D02*
X35650300Y-13548300D01*
X35650300Y-13528300D02*
X35630300Y-13548300D01*
X35760300Y-12668400D02*
X35780300Y-12688400D01*
X35780300Y-12668400D02*
X35760300Y-12688400D01*
X35935100Y-11114600D02*
X35955100Y-11134600D01*
X35955100Y-11114600D02*
X35935100Y-11134600D01*
X35941551Y-11574349D02*
X35961551Y-11594349D01*
X35961551Y-11574349D02*
X35941551Y-11594349D01*
X35974200Y-9134500D02*
X35994200Y-9154500D01*
X35994200Y-9134500D02*
X35974200Y-9154500D01*
X36085323Y-11417911D02*
X36105323Y-11437911D01*
X36105323Y-11417911D02*
X36085323Y-11437911D01*
X36137400Y-13070050D02*
X36157400Y-13090050D01*
X36157400Y-13070050D02*
X36137400Y-13090050D01*
X36153750Y-11624900D02*
X36173750Y-11644900D01*
X36173750Y-11624900D02*
X36153750Y-11644900D01*
X36159154Y-12530513D02*
X36179154Y-12550513D01*
X36179154Y-12530513D02*
X36159154Y-12550513D01*
X36196300Y-11792200D02*
X36216300Y-11812200D01*
X36216300Y-11792200D02*
X36196300Y-11812200D01*
X36246898Y-12704502D02*
X36266898Y-12724502D01*
X36266898Y-12704502D02*
X36246898Y-12724502D01*
X36316566Y-11791390D02*
X36336566Y-11811390D01*
X36336566Y-11791390D02*
X36316566Y-11811390D01*
X36355200Y-12960300D02*
X36375200Y-12980300D01*
X36375200Y-12960300D02*
X36355200Y-12980300D01*
X36367580Y-13018958D02*
X36387580Y-13038958D01*
X36387580Y-13018958D02*
X36367580Y-13038958D01*
X36396250Y-12319250D02*
X36416250Y-12339250D01*
X36416250Y-12319250D02*
X36396250Y-12339250D01*
X36432650Y-12902916D02*
X36452650Y-12922916D01*
X36452650Y-12902916D02*
X36432650Y-12922916D01*
X36433500Y-12521650D02*
X36453500Y-12541650D01*
X36453500Y-12521650D02*
X36433500Y-12541650D01*
X36478023Y-11725273D02*
X36498023Y-11745273D01*
X36498023Y-11725273D02*
X36478023Y-11745273D01*
X36687000Y-12086650D02*
X36707000Y-12106650D01*
X36707000Y-12086650D02*
X36687000Y-12106650D01*
X36692900Y-11791750D02*
X36712900Y-11811750D01*
X36712900Y-11791750D02*
X36692900Y-11811750D01*
X36752300Y-12452400D02*
X36772300Y-12472400D01*
X36772300Y-12452400D02*
X36752300Y-12472400D01*
X36826800Y-11592500D02*
X36846800Y-11612500D01*
X36846800Y-11592500D02*
X36826800Y-11612500D01*
X36873950Y-12042300D02*
X36893950Y-12062300D01*
X36893950Y-12042300D02*
X36873950Y-12062300D01*
X36898856Y-11871750D02*
X36918856Y-11891750D01*
X36918856Y-11871750D02*
X36898856Y-11891750D01*
X36914950Y-11813101D02*
X36934950Y-11833101D01*
X36934950Y-11813101D02*
X36914950Y-11833101D01*
X36984200Y-11738900D02*
X37004200Y-11758900D01*
X37004200Y-11738900D02*
X36984200Y-11758900D01*
X37010600Y-12139100D02*
X37030600Y-12159100D01*
X37030600Y-12139100D02*
X37010600Y-12159100D01*
X37242600Y-11771400D02*
X37262600Y-11791400D01*
X37262600Y-11771400D02*
X37242600Y-11791400D01*
X37296100Y-11528500D02*
X37316100Y-11548500D01*
X37316100Y-11528500D02*
X37296100Y-11548500D01*
X37313550Y-11603048D02*
X37333550Y-11623048D01*
X37333550Y-11603048D02*
X37313550Y-11623048D01*
X37751100Y-12311700D02*
X37771100Y-12331700D01*
X37771100Y-12311700D02*
X37751100Y-12331700D01*
X37788500Y-11695500D02*
X37808500Y-11715500D01*
X37808500Y-11695500D02*
X37788500Y-11715500D01*
X36036200Y-11941700D02*
G75*
G03*
X36036200Y-11941700I-17500J0D01*
G01*
X36036200Y-12069200D02*
G75*
G03*
X36036200Y-12069200I-17500J0D01*
G01*
X36036200Y-12196700D02*
G75*
G03*
X36036200Y-12196700I-17500J0D01*
G01*
X36163700Y-11941700D02*
G75*
G03*
X36163700Y-11941700I-17500J0D01*
G01*
X36163700Y-12069200D02*
G75*
G03*
X36163700Y-12069200I-17500J0D01*
G01*
X36163700Y-12196700D02*
G75*
G03*
X36163700Y-12196700I-17500J0D01*
G01*
X36291200Y-11941700D02*
G75*
G03*
X36291200Y-11941700I-17500J0D01*
G01*
X36291200Y-12069200D02*
G75*
G03*
X36291200Y-12069200I-17500J0D01*
G01*
X36291200Y-12196700D02*
G75*
G03*
X36291200Y-12196700I-17500J0D01*
G01*
X5540300Y-7248500D02*
X5540300Y-7288500D01*
X5520300Y-7268500D02*
X5560300Y-7268500D01*
X5562300Y-4863700D02*
X5562300Y-4903700D01*
X5542300Y-4883700D02*
X5582300Y-4883700D01*
X5791100Y-14846100D02*
X5791100Y-14886100D01*
X5771100Y-14866100D02*
X5811100Y-14866100D01*
X5985900Y-12105600D02*
X5985900Y-12145600D01*
X5965900Y-12125600D02*
X6005900Y-12125600D01*
X6045700Y-9141900D02*
X6045700Y-9181900D01*
X6025700Y-9161900D02*
X6065700Y-9161900D01*
X6283200Y-11052500D02*
X6283200Y-11092500D01*
X6263200Y-11072500D02*
X6303200Y-11072500D01*
X7424400Y-11841500D02*
X7424400Y-11881500D01*
X7404400Y-11861500D02*
X7444400Y-11861500D01*
X7464300Y-7265300D02*
X7464300Y-7305300D01*
X7444300Y-7285300D02*
X7484300Y-7285300D01*
X7855700Y-4865300D02*
X7855700Y-4905300D01*
X7835700Y-4885300D02*
X7875700Y-4885300D01*
X8165600Y-14854400D02*
X8165600Y-14894400D01*
X8145600Y-14874400D02*
X8185600Y-14874400D01*
X8414400Y-9155700D02*
X8414400Y-9195700D01*
X8394400Y-9175700D02*
X8434400Y-9175700D01*
X8903000Y-11059500D02*
X8903000Y-11099500D01*
X8883000Y-11079500D02*
X8923000Y-11079500D01*
X9370800Y-7246500D02*
X9370800Y-7286500D01*
X9350800Y-7266500D02*
X9390800Y-7266500D01*
X9658700Y-12708600D02*
X9658700Y-12748600D01*
X9638700Y-12728600D02*
X9678700Y-12728600D01*
X9763600Y-4870800D02*
X9763600Y-4910800D01*
X9743600Y-4890800D02*
X9783600Y-4890800D01*
X10217500Y-12586500D02*
X10217500Y-12626500D01*
X10197500Y-12606500D02*
X10237500Y-12606500D01*
X10308500Y-9149500D02*
X10308500Y-9189500D01*
X10288500Y-9169500D02*
X10328500Y-9169500D01*
X10572250Y-14866450D02*
X10572250Y-14906450D01*
X10552250Y-14886450D02*
X10592250Y-14886450D01*
X10795900Y-11057600D02*
X10795900Y-11097600D01*
X10775900Y-11077600D02*
X10815900Y-11077600D01*
X11283600Y-7242300D02*
X11283600Y-7282300D01*
X11263600Y-7262300D02*
X11303600Y-7262300D01*
X11699300Y-4883300D02*
X11699300Y-4923300D01*
X11679300Y-4903300D02*
X11719300Y-4903300D01*
X11745800Y-12961500D02*
X11745800Y-13001500D01*
X11725800Y-12981500D02*
X11765800Y-12981500D01*
X12167200Y-12598250D02*
X12167200Y-12638250D01*
X12147200Y-12618250D02*
X12187200Y-12618250D01*
X12213100Y-9160300D02*
X12213100Y-9200300D01*
X12193100Y-9180300D02*
X12233100Y-9180300D01*
X12706900Y-11058400D02*
X12706900Y-11098400D01*
X12686900Y-11078400D02*
X12726900Y-11078400D01*
X13181800Y-7242300D02*
X13181800Y-7282300D01*
X13161800Y-7262300D02*
X13201800Y-7262300D01*
X13585000Y-4876400D02*
X13585000Y-4916400D01*
X13565000Y-4896400D02*
X13605000Y-4896400D01*
X13668100Y-12966700D02*
X13668100Y-13006700D01*
X13648100Y-12986700D02*
X13688100Y-12986700D01*
X14133800Y-9148300D02*
X14133800Y-9188300D01*
X14113800Y-9168300D02*
X14153800Y-9168300D01*
X14322900Y-12633250D02*
X14322900Y-12673250D01*
X14302900Y-12653250D02*
X14342900Y-12653250D01*
X14615900Y-11053900D02*
X14615900Y-11093900D01*
X14595900Y-11073900D02*
X14635900Y-11073900D01*
X15098700Y-7244400D02*
X15098700Y-7284400D01*
X15078700Y-7264400D02*
X15118700Y-7264400D01*
X15545300Y-12958100D02*
X15545300Y-12998100D01*
X15525300Y-12978100D02*
X15565300Y-12978100D01*
X15914200Y-4868100D02*
X15914200Y-4908100D01*
X15894200Y-4888100D02*
X15934200Y-4888100D01*
X16030900Y-9152000D02*
X16030900Y-9192000D01*
X16010900Y-9172000D02*
X16050900Y-9172000D01*
X16245500Y-12668250D02*
X16245500Y-12708250D01*
X16225500Y-12688250D02*
X16265500Y-12688250D01*
X16505000Y-11055800D02*
X16505000Y-11095800D01*
X16485000Y-11075800D02*
X16525000Y-11075800D01*
X17003200Y-7244400D02*
X17003200Y-7284400D01*
X16983200Y-7264400D02*
X17023200Y-7264400D01*
X17455100Y-12945100D02*
X17455100Y-12985100D01*
X17435100Y-12965100D02*
X17475100Y-12965100D01*
X17819400Y-4866700D02*
X17819400Y-4906700D01*
X17799400Y-4886700D02*
X17839400Y-4886700D01*
X17949100Y-9145700D02*
X17949100Y-9185700D01*
X17929100Y-9165700D02*
X17969100Y-9165700D01*
X18097000Y-14292300D02*
X18097000Y-14332300D01*
X18077000Y-14312300D02*
X18117000Y-14312300D01*
X18214200Y-12703250D02*
X18214200Y-12743250D01*
X18194200Y-12723250D02*
X18234200Y-12723250D01*
X18417800Y-11049800D02*
X18417800Y-11089800D01*
X18397800Y-11069800D02*
X18437800Y-11069800D01*
X18905500Y-7250700D02*
X18905500Y-7290700D01*
X18885500Y-7270700D02*
X18925500Y-7270700D01*
X19351900Y-12956200D02*
X19351900Y-12996200D01*
X19331900Y-12976200D02*
X19371900Y-12976200D01*
X19720300Y-4880600D02*
X19720300Y-4920600D01*
X19700300Y-4900600D02*
X19740300Y-4900600D01*
X19722800Y-12738250D02*
X19722800Y-12778250D01*
X19702800Y-12758250D02*
X19742800Y-12758250D01*
X19855300Y-9150800D02*
X19855300Y-9190800D01*
X19835300Y-9170800D02*
X19875300Y-9170800D01*
X20353200Y-11066900D02*
X20353200Y-11106900D01*
X20333200Y-11086900D02*
X20373200Y-11086900D01*
X20565100Y-3573100D02*
X20565100Y-3613100D01*
X20545100Y-3593100D02*
X20585100Y-3593100D01*
X20743526Y-3313941D02*
X20743526Y-3353941D01*
X20723526Y-3333941D02*
X20763526Y-3333941D01*
X20807900Y-7234000D02*
X20807900Y-7274000D01*
X20787900Y-7254000D02*
X20827900Y-7254000D01*
X21096500Y-3050750D02*
X21096500Y-3090750D01*
X21076500Y-3070750D02*
X21116500Y-3070750D01*
X21245200Y-3310350D02*
X21245200Y-3350350D01*
X21225200Y-3330350D02*
X21265200Y-3330350D01*
X21268900Y-12957100D02*
X21268900Y-12997100D01*
X21248900Y-12977100D02*
X21288900Y-12977100D01*
X21621300Y-4873600D02*
X21621300Y-4913600D01*
X21601300Y-4893600D02*
X21641300Y-4893600D01*
X21752500Y-9147700D02*
X21752500Y-9187700D01*
X21732500Y-9167700D02*
X21772500Y-9167700D01*
X21935300Y-12773250D02*
X21935300Y-12813250D01*
X21915300Y-12793250D02*
X21955300Y-12793250D01*
X21936100Y-3263700D02*
X21936100Y-3303700D01*
X21916100Y-3283700D02*
X21956100Y-3283700D01*
X22238200Y-11043900D02*
X22238200Y-11083900D01*
X22218200Y-11063900D02*
X22258200Y-11063900D01*
X22712300Y-7244400D02*
X22712300Y-7284400D01*
X22692300Y-7264400D02*
X22732300Y-7264400D01*
X23171300Y-12942600D02*
X23171300Y-12982600D01*
X23151300Y-12962600D02*
X23191300Y-12962600D01*
X23681700Y-9153300D02*
X23681700Y-9193300D01*
X23661700Y-9173300D02*
X23701700Y-9173300D01*
X23834000Y-12808250D02*
X23834000Y-12848250D01*
X23814000Y-12828250D02*
X23854000Y-12828250D01*
X23963000Y-4870800D02*
X23963000Y-4910800D01*
X23943000Y-4890800D02*
X23983000Y-4890800D01*
X24143400Y-11058200D02*
X24143400Y-11098200D01*
X24123400Y-11078200D02*
X24163400Y-11078200D01*
X24627200Y-7247000D02*
X24627200Y-7287000D01*
X24607200Y-7267000D02*
X24647200Y-7267000D01*
X24637787Y-14746213D02*
X24637787Y-14786213D01*
X24617787Y-14766213D02*
X24657787Y-14766213D01*
X25105800Y-12981000D02*
X25105800Y-13021000D01*
X25085800Y-13001000D02*
X25125800Y-13001000D01*
X25580600Y-9148700D02*
X25580600Y-9188700D01*
X25560600Y-9168700D02*
X25600600Y-9168700D01*
X25661900Y-12843250D02*
X25661900Y-12883250D01*
X25641900Y-12863250D02*
X25681900Y-12863250D01*
X25848700Y-4869400D02*
X25848700Y-4909400D01*
X25828700Y-4889400D02*
X25868700Y-4889400D01*
X26029900Y-11044400D02*
X26029900Y-11084400D01*
X26009900Y-11064400D02*
X26049900Y-11064400D01*
X26517000Y-7240700D02*
X26517000Y-7280700D01*
X26497000Y-7260700D02*
X26537000Y-7260700D01*
X26518100Y-14855600D02*
X26518100Y-14895600D01*
X26498100Y-14875600D02*
X26538100Y-14875600D01*
X26980100Y-12955100D02*
X26980100Y-12995100D01*
X26960100Y-12975100D02*
X27000100Y-12975100D01*
X27406800Y-12878250D02*
X27406800Y-12918250D01*
X27386800Y-12898250D02*
X27426800Y-12898250D01*
X27473200Y-9143100D02*
X27473200Y-9183100D01*
X27453200Y-9163100D02*
X27493200Y-9163100D01*
X27763600Y-4870800D02*
X27763600Y-4910800D01*
X27743600Y-4890800D02*
X27783600Y-4890800D01*
X27927200Y-11059100D02*
X27927200Y-11099100D01*
X27907200Y-11079100D02*
X27947200Y-11079100D01*
X28419400Y-7248000D02*
X28419400Y-7288000D01*
X28399400Y-7268000D02*
X28439400Y-7268000D01*
X28427700Y-14868200D02*
X28427700Y-14908200D01*
X28407700Y-14888200D02*
X28447700Y-14888200D01*
X28647100Y-12920000D02*
X28647100Y-12960000D01*
X28627100Y-12940000D02*
X28667100Y-12940000D01*
X29304000Y-7028300D02*
X29304000Y-7068300D01*
X29284000Y-7048300D02*
X29324000Y-7048300D01*
X29374100Y-9146500D02*
X29374100Y-9186500D01*
X29354100Y-9166500D02*
X29394100Y-9166500D01*
X29611300Y-12997300D02*
X29611300Y-13037300D01*
X29591300Y-13017300D02*
X29631300Y-13017300D01*
X29667300Y-4868100D02*
X29667300Y-4908100D01*
X29647300Y-4888100D02*
X29687300Y-4888100D01*
X30150590Y-10148500D02*
X30150590Y-10188500D01*
X30130590Y-10168500D02*
X30170590Y-10168500D01*
X30475000Y-6594400D02*
X30475000Y-6634400D01*
X30455000Y-6614400D02*
X30495000Y-6614400D01*
X30882800Y-15010300D02*
X30882800Y-15050300D01*
X30862800Y-15030300D02*
X30902800Y-15030300D01*
X31053550Y-12976150D02*
X31053550Y-13016150D01*
X31033550Y-12996150D02*
X31073550Y-12996150D01*
X31562100Y-9152500D02*
X31562100Y-9192500D01*
X31542100Y-9172500D02*
X31582100Y-9172500D01*
X31826900Y-6936900D02*
X31826900Y-6976900D01*
X31806900Y-6956900D02*
X31846900Y-6956900D01*
X32214500Y-4869800D02*
X32214500Y-4909800D01*
X32194500Y-4889800D02*
X32234500Y-4889800D01*
X32253700Y-4769000D02*
X32253700Y-4809000D01*
X32233700Y-4789000D02*
X32273700Y-4789000D01*
X32612700Y-5004600D02*
X32612700Y-5044600D01*
X32592700Y-5024600D02*
X32632700Y-5024600D01*
X32690756Y-9815756D02*
X32690756Y-9855756D01*
X32670756Y-9835756D02*
X32710756Y-9835756D01*
X32807700Y-14971400D02*
X32807700Y-15011400D01*
X32787700Y-14991400D02*
X32827700Y-14991400D01*
X32824100Y-13036600D02*
X32824100Y-13076600D01*
X32804100Y-13056600D02*
X32844100Y-13056600D01*
X33257827Y-13011150D02*
X33257827Y-13051150D01*
X33237827Y-13031150D02*
X33277827Y-13031150D01*
X33387100Y-11026400D02*
X33387100Y-11066400D01*
X33367100Y-11046400D02*
X33407100Y-11046400D01*
X33632100Y-4937300D02*
X33632100Y-4977300D01*
X33612100Y-4957300D02*
X33652100Y-4957300D01*
X34555700Y-9088500D02*
X34555700Y-9128500D01*
X34535700Y-9108500D02*
X34575700Y-9108500D01*
X34568200Y-7222300D02*
X34568200Y-7262300D01*
X34548200Y-7242300D02*
X34588200Y-7242300D01*
X34761647Y-14993824D02*
X34761647Y-15033824D01*
X34741647Y-15013824D02*
X34781647Y-15013824D01*
X36459600Y-9123000D02*
X36459600Y-9163000D01*
X36439600Y-9143000D02*
X36479600Y-9143000D01*
X36481800Y-7242300D02*
X36481800Y-7282300D01*
X36461800Y-7262300D02*
X36501800Y-7262300D01*
X20587513Y-2726563D02*
X20587513Y-2684137D01*
X20545087Y-2684137D01*
X20545087Y-2726563D01*
X20587513Y-2726563D01*
X20596300Y-2735350D02*
X20596300Y-2675350D01*
X20596300Y-2675350D02*
G75*
G03*
X20536300Y-2675350I-30000J0D01*
G01*
X20536300Y-2675350D02*
X20536300Y-2735350D01*
X20536300Y-2735350D02*
G75*
G03*
X20596300Y-2735350I30000J0D01*
G01*
X20587513Y-3144563D02*
X20587513Y-3102137D01*
X20545087Y-3102137D01*
X20545087Y-3144563D01*
X20587513Y-3144563D01*
X20596300Y-3178350D02*
X20596300Y-3068350D01*
X20596300Y-3068350D02*
G75*
G03*
X20536300Y-3068350I-30000J0D01*
G01*
X20536300Y-3068350D02*
X20536300Y-3178350D01*
X20536300Y-3178350D02*
G75*
G03*
X20596300Y-3178350I30000J0D01*
G01*
X21451513Y-2726563D02*
X21451513Y-2684137D01*
X21409087Y-2684137D01*
X21409087Y-2726563D01*
X21451513Y-2726563D01*
X21460300Y-2735350D02*
X21460300Y-2675350D01*
X21460300Y-2675350D02*
G75*
G03*
X21400300Y-2675350I-30000J0D01*
G01*
X21400300Y-2675350D02*
X21400300Y-2735350D01*
X21400300Y-2735350D02*
G75*
G03*
X21460300Y-2735350I30000J0D01*
G01*
X21451513Y-3144563D02*
X21451513Y-3102137D01*
X21409087Y-3102137D01*
X21409087Y-3144563D01*
X21451513Y-3144563D01*
X21460300Y-3178350D02*
X21460300Y-3068350D01*
X21460300Y-3068350D02*
G75*
G03*
X21400300Y-3068350I-30000J0D01*
G01*
X21400300Y-3068350D02*
X21400300Y-3178350D01*
X21400300Y-3178350D02*
G75*
G03*
X21460300Y-3178350I30000J0D01*
G01*
X33749700Y-9825900D02*
X33799700Y-9775900D01*
X33749700Y-9725900D01*
X33699700Y-9775900D01*
X33749700Y-9825900D01*
X33749700Y-10079900D02*
X33799700Y-10029900D01*
X33749700Y-9979900D01*
X33699700Y-10029900D01*
X33749700Y-10079900D01*
X33749700Y-10333900D02*
X33799700Y-10283900D01*
X33749700Y-10233900D01*
X33699700Y-10283900D01*
X33749700Y-10333900D01*
X33749700Y-10587900D02*
X33799700Y-10537900D01*
X33749700Y-10487900D01*
X33699700Y-10537900D01*
X33749700Y-10587900D01*
X34720200Y-3908300D02*
X34770200Y-3858300D01*
X34720200Y-3808300D01*
X34670200Y-3858300D01*
X34720200Y-3908300D01*
X34720200Y-4158300D02*
X34770200Y-4108300D01*
X34720200Y-4058300D01*
X34670200Y-4108300D01*
X34720200Y-4158300D01*
X34720200Y-4408300D02*
X34770200Y-4358300D01*
X34720200Y-4308300D01*
X34670200Y-4358300D01*
X34720200Y-4408300D01*
X36170200Y-3908300D02*
X36220200Y-3858300D01*
X36170200Y-3808300D01*
X36120200Y-3858300D01*
X36170200Y-3908300D01*
X36170200Y-4408300D02*
X36220200Y-4358300D01*
X36170200Y-4308300D01*
X36120200Y-4358300D01*
X36170200Y-4408300D01*
D12*
X35340200Y-3418300D02*
X35600200Y-3678300D01*
X35600200Y-3418300D02*
X35340200Y-3678300D01*
X35600200Y-3548300D02*
G75*
G03*
X35600200Y-3548300I-130000J0D01*
G01*
X35340200Y-4538300D02*
X35600200Y-4798300D01*
X35600200Y-4538300D02*
X35340200Y-4798300D01*
X35600200Y-4668300D02*
G75*
G03*
X35600200Y-4668300I-130000J0D01*
G01*
D11*
X3805777Y-16416484D02*
X3805777Y-16216484D01*
X3805777Y-16216484D02*
X3853396Y-16216484D01*
X3853396Y-16216484D02*
X3881967Y-16226008D01*
X3881967Y-16226008D02*
X3901015Y-16245055D01*
X3901015Y-16245055D02*
X3910539Y-16264103D01*
X3910539Y-16264103D02*
X3920062Y-16302198D01*
X3920062Y-16302198D02*
X3920062Y-16330769D01*
X3920062Y-16330769D02*
X3910539Y-16368865D01*
X3910539Y-16368865D02*
X3901015Y-16387912D01*
X3901015Y-16387912D02*
X3881967Y-16406960D01*
X3881967Y-16406960D02*
X3853396Y-16416484D01*
X3853396Y-16416484D02*
X3805777Y-16416484D01*
X4005777Y-16416484D02*
X4005777Y-16283150D01*
X4005777Y-16321246D02*
X4015301Y-16302198D01*
X4015301Y-16302198D02*
X4024824Y-16292674D01*
X4024824Y-16292674D02*
X4043872Y-16283150D01*
X4043872Y-16283150D02*
X4062920Y-16283150D01*
X4129586Y-16416484D02*
X4129586Y-16283150D01*
X4129586Y-16216484D02*
X4120062Y-16226008D01*
X4120062Y-16226008D02*
X4129586Y-16235531D01*
X4129586Y-16235531D02*
X4139110Y-16226008D01*
X4139110Y-16226008D02*
X4129586Y-16216484D01*
X4129586Y-16216484D02*
X4129586Y-16235531D01*
X4253396Y-16416484D02*
X4234348Y-16406960D01*
X4234348Y-16406960D02*
X4224824Y-16387912D01*
X4224824Y-16387912D02*
X4224824Y-16216484D01*
X4358158Y-16416484D02*
X4339110Y-16406960D01*
X4339110Y-16406960D02*
X4329586Y-16387912D01*
X4329586Y-16387912D02*
X4329586Y-16216484D01*
X4586729Y-16416484D02*
X4586729Y-16216484D01*
X4586729Y-16216484D02*
X4653396Y-16359341D01*
X4653396Y-16359341D02*
X4720063Y-16216484D01*
X4720063Y-16216484D02*
X4720063Y-16416484D01*
X4901015Y-16416484D02*
X4901015Y-16311722D01*
X4901015Y-16311722D02*
X4891491Y-16292674D01*
X4891491Y-16292674D02*
X4872444Y-16283150D01*
X4872444Y-16283150D02*
X4834348Y-16283150D01*
X4834348Y-16283150D02*
X4815301Y-16292674D01*
X4901015Y-16406960D02*
X4881967Y-16416484D01*
X4881967Y-16416484D02*
X4834348Y-16416484D01*
X4834348Y-16416484D02*
X4815301Y-16406960D01*
X4815301Y-16406960D02*
X4805777Y-16387912D01*
X4805777Y-16387912D02*
X4805777Y-16368865D01*
X4805777Y-16368865D02*
X4815301Y-16349817D01*
X4815301Y-16349817D02*
X4834348Y-16340293D01*
X4834348Y-16340293D02*
X4881967Y-16340293D01*
X4881967Y-16340293D02*
X4901015Y-16330769D01*
X4996253Y-16283150D02*
X4996253Y-16483150D01*
X4996253Y-16292674D02*
X5015301Y-16283150D01*
X5015301Y-16283150D02*
X5053396Y-16283150D01*
X5053396Y-16283150D02*
X5072444Y-16292674D01*
X5072444Y-16292674D02*
X5081967Y-16302198D01*
X5081967Y-16302198D02*
X5091491Y-16321246D01*
X5091491Y-16321246D02*
X5091491Y-16378388D01*
X5091491Y-16378388D02*
X5081967Y-16397436D01*
X5081967Y-16397436D02*
X5072444Y-16406960D01*
X5072444Y-16406960D02*
X5053396Y-16416484D01*
X5053396Y-16416484D02*
X5015301Y-16416484D01*
X5015301Y-16416484D02*
X4996253Y-16406960D01*
X5177205Y-16397436D02*
X5186729Y-16406960D01*
X5186729Y-16406960D02*
X5177205Y-16416484D01*
X5177205Y-16416484D02*
X5167682Y-16406960D01*
X5167682Y-16406960D02*
X5177205Y-16397436D01*
X5177205Y-16397436D02*
X5177205Y-16416484D01*
X5177205Y-16292674D02*
X5186729Y-16302198D01*
X5186729Y-16302198D02*
X5177205Y-16311722D01*
X5177205Y-16311722D02*
X5167682Y-16302198D01*
X5167682Y-16302198D02*
X5177205Y-16292674D01*
X5177205Y-16292674D02*
X5177205Y-16311722D01*
D10*
X3525000Y-16735000D02*
X3545000Y-16755000D01*
X3545000Y-16735000D02*
X3525000Y-16755000D01*
D11*
X3843872Y-16636484D02*
X3862920Y-16636484D01*
X3862920Y-16636484D02*
X3881967Y-16646008D01*
X3881967Y-16646008D02*
X3891491Y-16655531D01*
X3891491Y-16655531D02*
X3901015Y-16674579D01*
X3901015Y-16674579D02*
X3910539Y-16712674D01*
X3910539Y-16712674D02*
X3910539Y-16760293D01*
X3910539Y-16760293D02*
X3901015Y-16798389D01*
X3901015Y-16798389D02*
X3891491Y-16817436D01*
X3891491Y-16817436D02*
X3881967Y-16826960D01*
X3881967Y-16826960D02*
X3862920Y-16836484D01*
X3862920Y-16836484D02*
X3843872Y-16836484D01*
X3843872Y-16836484D02*
X3824824Y-16826960D01*
X3824824Y-16826960D02*
X3815301Y-16817436D01*
X3815301Y-16817436D02*
X3805777Y-16798389D01*
X3805777Y-16798389D02*
X3796253Y-16760293D01*
X3796253Y-16760293D02*
X3796253Y-16712674D01*
X3796253Y-16712674D02*
X3805777Y-16674579D01*
X3805777Y-16674579D02*
X3815301Y-16655531D01*
X3815301Y-16655531D02*
X3824824Y-16646008D01*
X3824824Y-16646008D02*
X3843872Y-16636484D01*
X3996253Y-16817436D02*
X4005777Y-16826960D01*
X4005777Y-16826960D02*
X3996253Y-16836484D01*
X3996253Y-16836484D02*
X3986729Y-16826960D01*
X3986729Y-16826960D02*
X3996253Y-16817436D01*
X3996253Y-16817436D02*
X3996253Y-16836484D01*
X4081967Y-16655531D02*
X4091491Y-16646008D01*
X4091491Y-16646008D02*
X4110539Y-16636484D01*
X4110539Y-16636484D02*
X4158158Y-16636484D01*
X4158158Y-16636484D02*
X4177205Y-16646008D01*
X4177205Y-16646008D02*
X4186729Y-16655531D01*
X4186729Y-16655531D02*
X4196253Y-16674579D01*
X4196253Y-16674579D02*
X4196253Y-16693627D01*
X4196253Y-16693627D02*
X4186729Y-16722198D01*
X4186729Y-16722198D02*
X4072443Y-16836484D01*
X4072443Y-16836484D02*
X4196253Y-16836484D01*
X4320063Y-16636484D02*
X4339110Y-16636484D01*
X4339110Y-16636484D02*
X4358158Y-16646008D01*
X4358158Y-16646008D02*
X4367682Y-16655531D01*
X4367682Y-16655531D02*
X4377205Y-16674579D01*
X4377205Y-16674579D02*
X4386729Y-16712674D01*
X4386729Y-16712674D02*
X4386729Y-16760293D01*
X4386729Y-16760293D02*
X4377205Y-16798389D01*
X4377205Y-16798389D02*
X4367682Y-16817436D01*
X4367682Y-16817436D02*
X4358158Y-16826960D01*
X4358158Y-16826960D02*
X4339110Y-16836484D01*
X4339110Y-16836484D02*
X4320063Y-16836484D01*
X4320063Y-16836484D02*
X4301015Y-16826960D01*
X4301015Y-16826960D02*
X4291491Y-16817436D01*
X4291491Y-16817436D02*
X4281967Y-16798389D01*
X4281967Y-16798389D02*
X4272444Y-16760293D01*
X4272444Y-16760293D02*
X4272444Y-16712674D01*
X4272444Y-16712674D02*
X4281967Y-16674579D01*
X4281967Y-16674579D02*
X4291491Y-16655531D01*
X4291491Y-16655531D02*
X4301015Y-16646008D01*
X4301015Y-16646008D02*
X4320063Y-16636484D01*
X4510539Y-16636484D02*
X4529586Y-16636484D01*
X4529586Y-16636484D02*
X4548634Y-16646008D01*
X4548634Y-16646008D02*
X4558158Y-16655531D01*
X4558158Y-16655531D02*
X4567682Y-16674579D01*
X4567682Y-16674579D02*
X4577205Y-16712674D01*
X4577205Y-16712674D02*
X4577205Y-16760293D01*
X4577205Y-16760293D02*
X4567682Y-16798389D01*
X4567682Y-16798389D02*
X4558158Y-16817436D01*
X4558158Y-16817436D02*
X4548634Y-16826960D01*
X4548634Y-16826960D02*
X4529586Y-16836484D01*
X4529586Y-16836484D02*
X4510539Y-16836484D01*
X4510539Y-16836484D02*
X4491491Y-16826960D01*
X4491491Y-16826960D02*
X4481967Y-16817436D01*
X4481967Y-16817436D02*
X4472444Y-16798389D01*
X4472444Y-16798389D02*
X4462920Y-16760293D01*
X4462920Y-16760293D02*
X4462920Y-16712674D01*
X4462920Y-16712674D02*
X4472444Y-16674579D01*
X4472444Y-16674579D02*
X4481967Y-16655531D01*
X4481967Y-16655531D02*
X4491491Y-16646008D01*
X4491491Y-16646008D02*
X4510539Y-16636484D01*
X4662920Y-16836484D02*
X4662920Y-16703150D01*
X4662920Y-16722198D02*
X4672444Y-16712674D01*
X4672444Y-16712674D02*
X4691491Y-16703150D01*
X4691491Y-16703150D02*
X4720063Y-16703150D01*
X4720063Y-16703150D02*
X4739110Y-16712674D01*
X4739110Y-16712674D02*
X4748634Y-16731722D01*
X4748634Y-16731722D02*
X4748634Y-16836484D01*
X4748634Y-16731722D02*
X4758158Y-16712674D01*
X4758158Y-16712674D02*
X4777205Y-16703150D01*
X4777205Y-16703150D02*
X4805777Y-16703150D01*
X4805777Y-16703150D02*
X4824825Y-16712674D01*
X4824825Y-16712674D02*
X4834348Y-16731722D01*
X4834348Y-16731722D02*
X4834348Y-16836484D01*
X4929586Y-16836484D02*
X4929586Y-16703150D01*
X4929586Y-16722198D02*
X4939110Y-16712674D01*
X4939110Y-16712674D02*
X4958158Y-16703150D01*
X4958158Y-16703150D02*
X4986729Y-16703150D01*
X4986729Y-16703150D02*
X5005777Y-16712674D01*
X5005777Y-16712674D02*
X5015301Y-16731722D01*
X5015301Y-16731722D02*
X5015301Y-16836484D01*
X5015301Y-16731722D02*
X5024825Y-16712674D01*
X5024825Y-16712674D02*
X5043872Y-16703150D01*
X5043872Y-16703150D02*
X5072444Y-16703150D01*
X5072444Y-16703150D02*
X5091491Y-16712674D01*
X5091491Y-16712674D02*
X5101015Y-16731722D01*
X5101015Y-16731722D02*
X5101015Y-16836484D01*
X5491491Y-16626960D02*
X5320063Y-16884103D01*
X5748634Y-16636484D02*
X5767682Y-16636484D01*
X5767682Y-16636484D02*
X5786729Y-16646008D01*
X5786729Y-16646008D02*
X5796253Y-16655531D01*
X5796253Y-16655531D02*
X5805777Y-16674579D01*
X5805777Y-16674579D02*
X5815301Y-16712674D01*
X5815301Y-16712674D02*
X5815301Y-16760293D01*
X5815301Y-16760293D02*
X5805777Y-16798389D01*
X5805777Y-16798389D02*
X5796253Y-16817436D01*
X5796253Y-16817436D02*
X5786729Y-16826960D01*
X5786729Y-16826960D02*
X5767682Y-16836484D01*
X5767682Y-16836484D02*
X5748634Y-16836484D01*
X5748634Y-16836484D02*
X5729586Y-16826960D01*
X5729586Y-16826960D02*
X5720063Y-16817436D01*
X5720063Y-16817436D02*
X5710539Y-16798389D01*
X5710539Y-16798389D02*
X5701015Y-16760293D01*
X5701015Y-16760293D02*
X5701015Y-16712674D01*
X5701015Y-16712674D02*
X5710539Y-16674579D01*
X5710539Y-16674579D02*
X5720063Y-16655531D01*
X5720063Y-16655531D02*
X5729586Y-16646008D01*
X5729586Y-16646008D02*
X5748634Y-16636484D01*
X5901015Y-16817436D02*
X5910539Y-16826960D01*
X5910539Y-16826960D02*
X5901015Y-16836484D01*
X5901015Y-16836484D02*
X5891491Y-16826960D01*
X5891491Y-16826960D02*
X5901015Y-16817436D01*
X5901015Y-16817436D02*
X5901015Y-16836484D01*
X6034348Y-16636484D02*
X6053396Y-16636484D01*
X6053396Y-16636484D02*
X6072444Y-16646008D01*
X6072444Y-16646008D02*
X6081967Y-16655531D01*
X6081967Y-16655531D02*
X6091491Y-16674579D01*
X6091491Y-16674579D02*
X6101015Y-16712674D01*
X6101015Y-16712674D02*
X6101015Y-16760293D01*
X6101015Y-16760293D02*
X6091491Y-16798389D01*
X6091491Y-16798389D02*
X6081967Y-16817436D01*
X6081967Y-16817436D02*
X6072444Y-16826960D01*
X6072444Y-16826960D02*
X6053396Y-16836484D01*
X6053396Y-16836484D02*
X6034348Y-16836484D01*
X6034348Y-16836484D02*
X6015301Y-16826960D01*
X6015301Y-16826960D02*
X6005777Y-16817436D01*
X6005777Y-16817436D02*
X5996253Y-16798389D01*
X5996253Y-16798389D02*
X5986729Y-16760293D01*
X5986729Y-16760293D02*
X5986729Y-16712674D01*
X5986729Y-16712674D02*
X5996253Y-16674579D01*
X5996253Y-16674579D02*
X6005777Y-16655531D01*
X6005777Y-16655531D02*
X6015301Y-16646008D01*
X6015301Y-16646008D02*
X6034348Y-16636484D01*
X6224825Y-16636484D02*
X6243872Y-16636484D01*
X6243872Y-16636484D02*
X6262920Y-16646008D01*
X6262920Y-16646008D02*
X6272444Y-16655531D01*
X6272444Y-16655531D02*
X6281967Y-16674579D01*
X6281967Y-16674579D02*
X6291491Y-16712674D01*
X6291491Y-16712674D02*
X6291491Y-16760293D01*
X6291491Y-16760293D02*
X6281967Y-16798389D01*
X6281967Y-16798389D02*
X6272444Y-16817436D01*
X6272444Y-16817436D02*
X6262920Y-16826960D01*
X6262920Y-16826960D02*
X6243872Y-16836484D01*
X6243872Y-16836484D02*
X6224825Y-16836484D01*
X6224825Y-16836484D02*
X6205777Y-16826960D01*
X6205777Y-16826960D02*
X6196253Y-16817436D01*
X6196253Y-16817436D02*
X6186729Y-16798389D01*
X6186729Y-16798389D02*
X6177206Y-16760293D01*
X6177206Y-16760293D02*
X6177206Y-16712674D01*
X6177206Y-16712674D02*
X6186729Y-16674579D01*
X6186729Y-16674579D02*
X6196253Y-16655531D01*
X6196253Y-16655531D02*
X6205777Y-16646008D01*
X6205777Y-16646008D02*
X6224825Y-16636484D01*
X6358158Y-16636484D02*
X6491491Y-16636484D01*
X6491491Y-16636484D02*
X6405777Y-16836484D01*
X6577206Y-16836484D02*
X6615301Y-16836484D01*
X6615301Y-16836484D02*
X6634348Y-16826960D01*
X6634348Y-16826960D02*
X6643872Y-16817436D01*
X6643872Y-16817436D02*
X6662920Y-16788865D01*
X6662920Y-16788865D02*
X6672444Y-16750769D01*
X6672444Y-16750769D02*
X6672444Y-16674579D01*
X6672444Y-16674579D02*
X6662920Y-16655531D01*
X6662920Y-16655531D02*
X6653396Y-16646008D01*
X6653396Y-16646008D02*
X6634348Y-16636484D01*
X6634348Y-16636484D02*
X6596253Y-16636484D01*
X6596253Y-16636484D02*
X6577206Y-16646008D01*
X6577206Y-16646008D02*
X6567682Y-16655531D01*
X6567682Y-16655531D02*
X6558158Y-16674579D01*
X6558158Y-16674579D02*
X6558158Y-16722198D01*
X6558158Y-16722198D02*
X6567682Y-16741246D01*
X6567682Y-16741246D02*
X6577206Y-16750769D01*
X6577206Y-16750769D02*
X6596253Y-16760293D01*
X6596253Y-16760293D02*
X6634348Y-16760293D01*
X6634348Y-16760293D02*
X6653396Y-16750769D01*
X6653396Y-16750769D02*
X6662920Y-16741246D01*
X6662920Y-16741246D02*
X6672444Y-16722198D01*
X6748634Y-16636484D02*
X6748634Y-16674579D01*
X6824825Y-16636484D02*
X6824825Y-16674579D01*
X7120063Y-16912674D02*
X7110539Y-16903150D01*
X7110539Y-16903150D02*
X7091491Y-16874579D01*
X7091491Y-16874579D02*
X7081968Y-16855531D01*
X7081968Y-16855531D02*
X7072444Y-16826960D01*
X7072444Y-16826960D02*
X7062920Y-16779341D01*
X7062920Y-16779341D02*
X7062920Y-16741246D01*
X7062920Y-16741246D02*
X7072444Y-16693627D01*
X7072444Y-16693627D02*
X7081968Y-16665055D01*
X7081968Y-16665055D02*
X7091491Y-16646008D01*
X7091491Y-16646008D02*
X7110539Y-16617436D01*
X7110539Y-16617436D02*
X7120063Y-16607912D01*
X7177206Y-16636484D02*
X7310539Y-16636484D01*
X7310539Y-16636484D02*
X7224825Y-16836484D01*
X7377206Y-16655531D02*
X7386729Y-16646008D01*
X7386729Y-16646008D02*
X7405777Y-16636484D01*
X7405777Y-16636484D02*
X7453396Y-16636484D01*
X7453396Y-16636484D02*
X7472444Y-16646008D01*
X7472444Y-16646008D02*
X7481968Y-16655531D01*
X7481968Y-16655531D02*
X7491491Y-16674579D01*
X7491491Y-16674579D02*
X7491491Y-16693627D01*
X7491491Y-16693627D02*
X7481968Y-16722198D01*
X7481968Y-16722198D02*
X7367682Y-16836484D01*
X7367682Y-16836484D02*
X7491491Y-16836484D01*
X7729587Y-16836484D02*
X7729587Y-16636484D01*
X7815301Y-16836484D02*
X7815301Y-16731722D01*
X7815301Y-16731722D02*
X7805777Y-16712674D01*
X7805777Y-16712674D02*
X7786730Y-16703150D01*
X7786730Y-16703150D02*
X7758158Y-16703150D01*
X7758158Y-16703150D02*
X7739110Y-16712674D01*
X7739110Y-16712674D02*
X7729587Y-16722198D01*
X7939110Y-16836484D02*
X7920063Y-16826960D01*
X7920063Y-16826960D02*
X7910539Y-16817436D01*
X7910539Y-16817436D02*
X7901015Y-16798389D01*
X7901015Y-16798389D02*
X7901015Y-16741246D01*
X7901015Y-16741246D02*
X7910539Y-16722198D01*
X7910539Y-16722198D02*
X7920063Y-16712674D01*
X7920063Y-16712674D02*
X7939110Y-16703150D01*
X7939110Y-16703150D02*
X7967682Y-16703150D01*
X7967682Y-16703150D02*
X7986730Y-16712674D01*
X7986730Y-16712674D02*
X7996253Y-16722198D01*
X7996253Y-16722198D02*
X8005777Y-16741246D01*
X8005777Y-16741246D02*
X8005777Y-16798389D01*
X8005777Y-16798389D02*
X7996253Y-16817436D01*
X7996253Y-16817436D02*
X7986730Y-16826960D01*
X7986730Y-16826960D02*
X7967682Y-16836484D01*
X7967682Y-16836484D02*
X7939110Y-16836484D01*
X8120063Y-16836484D02*
X8101015Y-16826960D01*
X8101015Y-16826960D02*
X8091491Y-16807912D01*
X8091491Y-16807912D02*
X8091491Y-16636484D01*
X8272444Y-16826960D02*
X8253396Y-16836484D01*
X8253396Y-16836484D02*
X8215301Y-16836484D01*
X8215301Y-16836484D02*
X8196253Y-16826960D01*
X8196253Y-16826960D02*
X8186730Y-16807912D01*
X8186730Y-16807912D02*
X8186730Y-16731722D01*
X8186730Y-16731722D02*
X8196253Y-16712674D01*
X8196253Y-16712674D02*
X8215301Y-16703150D01*
X8215301Y-16703150D02*
X8253396Y-16703150D01*
X8253396Y-16703150D02*
X8272444Y-16712674D01*
X8272444Y-16712674D02*
X8281968Y-16731722D01*
X8281968Y-16731722D02*
X8281968Y-16750769D01*
X8281968Y-16750769D02*
X8186730Y-16769817D01*
X8358158Y-16826960D02*
X8377206Y-16836484D01*
X8377206Y-16836484D02*
X8415301Y-16836484D01*
X8415301Y-16836484D02*
X8434349Y-16826960D01*
X8434349Y-16826960D02*
X8443873Y-16807912D01*
X8443873Y-16807912D02*
X8443873Y-16798389D01*
X8443873Y-16798389D02*
X8434349Y-16779341D01*
X8434349Y-16779341D02*
X8415301Y-16769817D01*
X8415301Y-16769817D02*
X8386730Y-16769817D01*
X8386730Y-16769817D02*
X8367682Y-16760293D01*
X8367682Y-16760293D02*
X8358158Y-16741246D01*
X8358158Y-16741246D02*
X8358158Y-16731722D01*
X8358158Y-16731722D02*
X8367682Y-16712674D01*
X8367682Y-16712674D02*
X8386730Y-16703150D01*
X8386730Y-16703150D02*
X8415301Y-16703150D01*
X8415301Y-16703150D02*
X8434349Y-16712674D01*
X8510539Y-16912674D02*
X8520063Y-16903150D01*
X8520063Y-16903150D02*
X8539111Y-16874579D01*
X8539111Y-16874579D02*
X8548634Y-16855531D01*
X8548634Y-16855531D02*
X8558158Y-16826960D01*
X8558158Y-16826960D02*
X8567682Y-16779341D01*
X8567682Y-16779341D02*
X8567682Y-16741246D01*
X8567682Y-16741246D02*
X8558158Y-16693627D01*
X8558158Y-16693627D02*
X8548634Y-16665055D01*
X8548634Y-16665055D02*
X8539111Y-16646008D01*
X8539111Y-16646008D02*
X8520063Y-16617436D01*
X8520063Y-16617436D02*
X8510539Y-16607912D01*
D10*
X3545000Y-17009000D02*
G75*
G03*
X3545000Y-17009000I-17500J0D01*
G01*
D11*
X3843872Y-16900484D02*
X3862920Y-16900484D01*
X3862920Y-16900484D02*
X3881967Y-16910008D01*
X3881967Y-16910008D02*
X3891491Y-16919531D01*
X3891491Y-16919531D02*
X3901015Y-16938579D01*
X3901015Y-16938579D02*
X3910539Y-16976674D01*
X3910539Y-16976674D02*
X3910539Y-17024293D01*
X3910539Y-17024293D02*
X3901015Y-17062389D01*
X3901015Y-17062389D02*
X3891491Y-17081436D01*
X3891491Y-17081436D02*
X3881967Y-17090960D01*
X3881967Y-17090960D02*
X3862920Y-17100484D01*
X3862920Y-17100484D02*
X3843872Y-17100484D01*
X3843872Y-17100484D02*
X3824824Y-17090960D01*
X3824824Y-17090960D02*
X3815301Y-17081436D01*
X3815301Y-17081436D02*
X3805777Y-17062389D01*
X3805777Y-17062389D02*
X3796253Y-17024293D01*
X3796253Y-17024293D02*
X3796253Y-16976674D01*
X3796253Y-16976674D02*
X3805777Y-16938579D01*
X3805777Y-16938579D02*
X3815301Y-16919531D01*
X3815301Y-16919531D02*
X3824824Y-16910008D01*
X3824824Y-16910008D02*
X3843872Y-16900484D01*
X3996253Y-17081436D02*
X4005777Y-17090960D01*
X4005777Y-17090960D02*
X3996253Y-17100484D01*
X3996253Y-17100484D02*
X3986729Y-17090960D01*
X3986729Y-17090960D02*
X3996253Y-17081436D01*
X3996253Y-17081436D02*
X3996253Y-17100484D01*
X4072443Y-16900484D02*
X4196253Y-16900484D01*
X4196253Y-16900484D02*
X4129586Y-16976674D01*
X4129586Y-16976674D02*
X4158158Y-16976674D01*
X4158158Y-16976674D02*
X4177205Y-16986198D01*
X4177205Y-16986198D02*
X4186729Y-16995722D01*
X4186729Y-16995722D02*
X4196253Y-17014770D01*
X4196253Y-17014770D02*
X4196253Y-17062389D01*
X4196253Y-17062389D02*
X4186729Y-17081436D01*
X4186729Y-17081436D02*
X4177205Y-17090960D01*
X4177205Y-17090960D02*
X4158158Y-17100484D01*
X4158158Y-17100484D02*
X4101015Y-17100484D01*
X4101015Y-17100484D02*
X4081967Y-17090960D01*
X4081967Y-17090960D02*
X4072443Y-17081436D01*
X4377205Y-16900484D02*
X4281967Y-16900484D01*
X4281967Y-16900484D02*
X4272444Y-16995722D01*
X4272444Y-16995722D02*
X4281967Y-16986198D01*
X4281967Y-16986198D02*
X4301015Y-16976674D01*
X4301015Y-16976674D02*
X4348634Y-16976674D01*
X4348634Y-16976674D02*
X4367682Y-16986198D01*
X4367682Y-16986198D02*
X4377205Y-16995722D01*
X4377205Y-16995722D02*
X4386729Y-17014770D01*
X4386729Y-17014770D02*
X4386729Y-17062389D01*
X4386729Y-17062389D02*
X4377205Y-17081436D01*
X4377205Y-17081436D02*
X4367682Y-17090960D01*
X4367682Y-17090960D02*
X4348634Y-17100484D01*
X4348634Y-17100484D02*
X4301015Y-17100484D01*
X4301015Y-17100484D02*
X4281967Y-17090960D01*
X4281967Y-17090960D02*
X4272444Y-17081436D01*
X4510539Y-16900484D02*
X4529586Y-16900484D01*
X4529586Y-16900484D02*
X4548634Y-16910008D01*
X4548634Y-16910008D02*
X4558158Y-16919531D01*
X4558158Y-16919531D02*
X4567682Y-16938579D01*
X4567682Y-16938579D02*
X4577205Y-16976674D01*
X4577205Y-16976674D02*
X4577205Y-17024293D01*
X4577205Y-17024293D02*
X4567682Y-17062389D01*
X4567682Y-17062389D02*
X4558158Y-17081436D01*
X4558158Y-17081436D02*
X4548634Y-17090960D01*
X4548634Y-17090960D02*
X4529586Y-17100484D01*
X4529586Y-17100484D02*
X4510539Y-17100484D01*
X4510539Y-17100484D02*
X4491491Y-17090960D01*
X4491491Y-17090960D02*
X4481967Y-17081436D01*
X4481967Y-17081436D02*
X4472444Y-17062389D01*
X4472444Y-17062389D02*
X4462920Y-17024293D01*
X4462920Y-17024293D02*
X4462920Y-16976674D01*
X4462920Y-16976674D02*
X4472444Y-16938579D01*
X4472444Y-16938579D02*
X4481967Y-16919531D01*
X4481967Y-16919531D02*
X4491491Y-16910008D01*
X4491491Y-16910008D02*
X4510539Y-16900484D01*
X4662920Y-17100484D02*
X4662920Y-16967150D01*
X4662920Y-16986198D02*
X4672444Y-16976674D01*
X4672444Y-16976674D02*
X4691491Y-16967150D01*
X4691491Y-16967150D02*
X4720063Y-16967150D01*
X4720063Y-16967150D02*
X4739110Y-16976674D01*
X4739110Y-16976674D02*
X4748634Y-16995722D01*
X4748634Y-16995722D02*
X4748634Y-17100484D01*
X4748634Y-16995722D02*
X4758158Y-16976674D01*
X4758158Y-16976674D02*
X4777205Y-16967150D01*
X4777205Y-16967150D02*
X4805777Y-16967150D01*
X4805777Y-16967150D02*
X4824825Y-16976674D01*
X4824825Y-16976674D02*
X4834348Y-16995722D01*
X4834348Y-16995722D02*
X4834348Y-17100484D01*
X4929586Y-17100484D02*
X4929586Y-16967150D01*
X4929586Y-16986198D02*
X4939110Y-16976674D01*
X4939110Y-16976674D02*
X4958158Y-16967150D01*
X4958158Y-16967150D02*
X4986729Y-16967150D01*
X4986729Y-16967150D02*
X5005777Y-16976674D01*
X5005777Y-16976674D02*
X5015301Y-16995722D01*
X5015301Y-16995722D02*
X5015301Y-17100484D01*
X5015301Y-16995722D02*
X5024825Y-16976674D01*
X5024825Y-16976674D02*
X5043872Y-16967150D01*
X5043872Y-16967150D02*
X5072444Y-16967150D01*
X5072444Y-16967150D02*
X5091491Y-16976674D01*
X5091491Y-16976674D02*
X5101015Y-16995722D01*
X5101015Y-16995722D02*
X5101015Y-17100484D01*
X5491491Y-16890960D02*
X5320063Y-17148103D01*
X5748634Y-16900484D02*
X5767682Y-16900484D01*
X5767682Y-16900484D02*
X5786729Y-16910008D01*
X5786729Y-16910008D02*
X5796253Y-16919531D01*
X5796253Y-16919531D02*
X5805777Y-16938579D01*
X5805777Y-16938579D02*
X5815301Y-16976674D01*
X5815301Y-16976674D02*
X5815301Y-17024293D01*
X5815301Y-17024293D02*
X5805777Y-17062389D01*
X5805777Y-17062389D02*
X5796253Y-17081436D01*
X5796253Y-17081436D02*
X5786729Y-17090960D01*
X5786729Y-17090960D02*
X5767682Y-17100484D01*
X5767682Y-17100484D02*
X5748634Y-17100484D01*
X5748634Y-17100484D02*
X5729586Y-17090960D01*
X5729586Y-17090960D02*
X5720063Y-17081436D01*
X5720063Y-17081436D02*
X5710539Y-17062389D01*
X5710539Y-17062389D02*
X5701015Y-17024293D01*
X5701015Y-17024293D02*
X5701015Y-16976674D01*
X5701015Y-16976674D02*
X5710539Y-16938579D01*
X5710539Y-16938579D02*
X5720063Y-16919531D01*
X5720063Y-16919531D02*
X5729586Y-16910008D01*
X5729586Y-16910008D02*
X5748634Y-16900484D01*
X5901015Y-17081436D02*
X5910539Y-17090960D01*
X5910539Y-17090960D02*
X5901015Y-17100484D01*
X5901015Y-17100484D02*
X5891491Y-17090960D01*
X5891491Y-17090960D02*
X5901015Y-17081436D01*
X5901015Y-17081436D02*
X5901015Y-17100484D01*
X6034348Y-16900484D02*
X6053396Y-16900484D01*
X6053396Y-16900484D02*
X6072444Y-16910008D01*
X6072444Y-16910008D02*
X6081967Y-16919531D01*
X6081967Y-16919531D02*
X6091491Y-16938579D01*
X6091491Y-16938579D02*
X6101015Y-16976674D01*
X6101015Y-16976674D02*
X6101015Y-17024293D01*
X6101015Y-17024293D02*
X6091491Y-17062389D01*
X6091491Y-17062389D02*
X6081967Y-17081436D01*
X6081967Y-17081436D02*
X6072444Y-17090960D01*
X6072444Y-17090960D02*
X6053396Y-17100484D01*
X6053396Y-17100484D02*
X6034348Y-17100484D01*
X6034348Y-17100484D02*
X6015301Y-17090960D01*
X6015301Y-17090960D02*
X6005777Y-17081436D01*
X6005777Y-17081436D02*
X5996253Y-17062389D01*
X5996253Y-17062389D02*
X5986729Y-17024293D01*
X5986729Y-17024293D02*
X5986729Y-16976674D01*
X5986729Y-16976674D02*
X5996253Y-16938579D01*
X5996253Y-16938579D02*
X6005777Y-16919531D01*
X6005777Y-16919531D02*
X6015301Y-16910008D01*
X6015301Y-16910008D02*
X6034348Y-16900484D01*
X6291491Y-17100484D02*
X6177206Y-17100484D01*
X6234348Y-17100484D02*
X6234348Y-16900484D01*
X6234348Y-16900484D02*
X6215301Y-16929055D01*
X6215301Y-16929055D02*
X6196253Y-16948103D01*
X6196253Y-16948103D02*
X6177206Y-16957627D01*
X6358158Y-16900484D02*
X6481967Y-16900484D01*
X6481967Y-16900484D02*
X6415301Y-16976674D01*
X6415301Y-16976674D02*
X6443872Y-16976674D01*
X6443872Y-16976674D02*
X6462920Y-16986198D01*
X6462920Y-16986198D02*
X6472444Y-16995722D01*
X6472444Y-16995722D02*
X6481967Y-17014770D01*
X6481967Y-17014770D02*
X6481967Y-17062389D01*
X6481967Y-17062389D02*
X6472444Y-17081436D01*
X6472444Y-17081436D02*
X6462920Y-17090960D01*
X6462920Y-17090960D02*
X6443872Y-17100484D01*
X6443872Y-17100484D02*
X6386729Y-17100484D01*
X6386729Y-17100484D02*
X6367682Y-17090960D01*
X6367682Y-17090960D02*
X6358158Y-17081436D01*
X6596253Y-16986198D02*
X6577206Y-16976674D01*
X6577206Y-16976674D02*
X6567682Y-16967150D01*
X6567682Y-16967150D02*
X6558158Y-16948103D01*
X6558158Y-16948103D02*
X6558158Y-16938579D01*
X6558158Y-16938579D02*
X6567682Y-16919531D01*
X6567682Y-16919531D02*
X6577206Y-16910008D01*
X6577206Y-16910008D02*
X6596253Y-16900484D01*
X6596253Y-16900484D02*
X6634348Y-16900484D01*
X6634348Y-16900484D02*
X6653396Y-16910008D01*
X6653396Y-16910008D02*
X6662920Y-16919531D01*
X6662920Y-16919531D02*
X6672444Y-16938579D01*
X6672444Y-16938579D02*
X6672444Y-16948103D01*
X6672444Y-16948103D02*
X6662920Y-16967150D01*
X6662920Y-16967150D02*
X6653396Y-16976674D01*
X6653396Y-16976674D02*
X6634348Y-16986198D01*
X6634348Y-16986198D02*
X6596253Y-16986198D01*
X6596253Y-16986198D02*
X6577206Y-16995722D01*
X6577206Y-16995722D02*
X6567682Y-17005246D01*
X6567682Y-17005246D02*
X6558158Y-17024293D01*
X6558158Y-17024293D02*
X6558158Y-17062389D01*
X6558158Y-17062389D02*
X6567682Y-17081436D01*
X6567682Y-17081436D02*
X6577206Y-17090960D01*
X6577206Y-17090960D02*
X6596253Y-17100484D01*
X6596253Y-17100484D02*
X6634348Y-17100484D01*
X6634348Y-17100484D02*
X6653396Y-17090960D01*
X6653396Y-17090960D02*
X6662920Y-17081436D01*
X6662920Y-17081436D02*
X6672444Y-17062389D01*
X6672444Y-17062389D02*
X6672444Y-17024293D01*
X6672444Y-17024293D02*
X6662920Y-17005246D01*
X6662920Y-17005246D02*
X6653396Y-16995722D01*
X6653396Y-16995722D02*
X6634348Y-16986198D01*
X6748634Y-16900484D02*
X6748634Y-16938579D01*
X6824825Y-16900484D02*
X6824825Y-16938579D01*
X7120063Y-17176674D02*
X7110539Y-17167150D01*
X7110539Y-17167150D02*
X7091491Y-17138579D01*
X7091491Y-17138579D02*
X7081968Y-17119531D01*
X7081968Y-17119531D02*
X7072444Y-17090960D01*
X7072444Y-17090960D02*
X7062920Y-17043341D01*
X7062920Y-17043341D02*
X7062920Y-17005246D01*
X7062920Y-17005246D02*
X7072444Y-16957627D01*
X7072444Y-16957627D02*
X7081968Y-16929055D01*
X7081968Y-16929055D02*
X7091491Y-16910008D01*
X7091491Y-16910008D02*
X7110539Y-16881436D01*
X7110539Y-16881436D02*
X7120063Y-16871912D01*
X7205777Y-17100484D02*
X7243872Y-17100484D01*
X7243872Y-17100484D02*
X7262920Y-17090960D01*
X7262920Y-17090960D02*
X7272444Y-17081436D01*
X7272444Y-17081436D02*
X7291491Y-17052865D01*
X7291491Y-17052865D02*
X7301015Y-17014770D01*
X7301015Y-17014770D02*
X7301015Y-16938579D01*
X7301015Y-16938579D02*
X7291491Y-16919531D01*
X7291491Y-16919531D02*
X7281968Y-16910008D01*
X7281968Y-16910008D02*
X7262920Y-16900484D01*
X7262920Y-16900484D02*
X7224825Y-16900484D01*
X7224825Y-16900484D02*
X7205777Y-16910008D01*
X7205777Y-16910008D02*
X7196253Y-16919531D01*
X7196253Y-16919531D02*
X7186729Y-16938579D01*
X7186729Y-16938579D02*
X7186729Y-16986198D01*
X7186729Y-16986198D02*
X7196253Y-17005246D01*
X7196253Y-17005246D02*
X7205777Y-17014770D01*
X7205777Y-17014770D02*
X7224825Y-17024293D01*
X7224825Y-17024293D02*
X7262920Y-17024293D01*
X7262920Y-17024293D02*
X7281968Y-17014770D01*
X7281968Y-17014770D02*
X7291491Y-17005246D01*
X7291491Y-17005246D02*
X7301015Y-16986198D01*
X7539110Y-17100484D02*
X7539110Y-16900484D01*
X7624825Y-17100484D02*
X7624825Y-16995722D01*
X7624825Y-16995722D02*
X7615301Y-16976674D01*
X7615301Y-16976674D02*
X7596253Y-16967150D01*
X7596253Y-16967150D02*
X7567682Y-16967150D01*
X7567682Y-16967150D02*
X7548634Y-16976674D01*
X7548634Y-16976674D02*
X7539110Y-16986198D01*
X7748634Y-17100484D02*
X7729587Y-17090960D01*
X7729587Y-17090960D02*
X7720063Y-17081436D01*
X7720063Y-17081436D02*
X7710539Y-17062389D01*
X7710539Y-17062389D02*
X7710539Y-17005246D01*
X7710539Y-17005246D02*
X7720063Y-16986198D01*
X7720063Y-16986198D02*
X7729587Y-16976674D01*
X7729587Y-16976674D02*
X7748634Y-16967150D01*
X7748634Y-16967150D02*
X7777206Y-16967150D01*
X7777206Y-16967150D02*
X7796253Y-16976674D01*
X7796253Y-16976674D02*
X7805777Y-16986198D01*
X7805777Y-16986198D02*
X7815301Y-17005246D01*
X7815301Y-17005246D02*
X7815301Y-17062389D01*
X7815301Y-17062389D02*
X7805777Y-17081436D01*
X7805777Y-17081436D02*
X7796253Y-17090960D01*
X7796253Y-17090960D02*
X7777206Y-17100484D01*
X7777206Y-17100484D02*
X7748634Y-17100484D01*
X7929587Y-17100484D02*
X7910539Y-17090960D01*
X7910539Y-17090960D02*
X7901015Y-17071912D01*
X7901015Y-17071912D02*
X7901015Y-16900484D01*
X8081968Y-17090960D02*
X8062920Y-17100484D01*
X8062920Y-17100484D02*
X8024825Y-17100484D01*
X8024825Y-17100484D02*
X8005777Y-17090960D01*
X8005777Y-17090960D02*
X7996253Y-17071912D01*
X7996253Y-17071912D02*
X7996253Y-16995722D01*
X7996253Y-16995722D02*
X8005777Y-16976674D01*
X8005777Y-16976674D02*
X8024825Y-16967150D01*
X8024825Y-16967150D02*
X8062920Y-16967150D01*
X8062920Y-16967150D02*
X8081968Y-16976674D01*
X8081968Y-16976674D02*
X8091491Y-16995722D01*
X8091491Y-16995722D02*
X8091491Y-17014770D01*
X8091491Y-17014770D02*
X7996253Y-17033817D01*
X8167682Y-17090960D02*
X8186730Y-17100484D01*
X8186730Y-17100484D02*
X8224825Y-17100484D01*
X8224825Y-17100484D02*
X8243872Y-17090960D01*
X8243872Y-17090960D02*
X8253396Y-17071912D01*
X8253396Y-17071912D02*
X8253396Y-17062389D01*
X8253396Y-17062389D02*
X8243872Y-17043341D01*
X8243872Y-17043341D02*
X8224825Y-17033817D01*
X8224825Y-17033817D02*
X8196253Y-17033817D01*
X8196253Y-17033817D02*
X8177206Y-17024293D01*
X8177206Y-17024293D02*
X8167682Y-17005246D01*
X8167682Y-17005246D02*
X8167682Y-16995722D01*
X8167682Y-16995722D02*
X8177206Y-16976674D01*
X8177206Y-16976674D02*
X8196253Y-16967150D01*
X8196253Y-16967150D02*
X8224825Y-16967150D01*
X8224825Y-16967150D02*
X8243872Y-16976674D01*
X8320063Y-17176674D02*
X8329587Y-17167150D01*
X8329587Y-17167150D02*
X8348634Y-17138579D01*
X8348634Y-17138579D02*
X8358158Y-17119531D01*
X8358158Y-17119531D02*
X8367682Y-17090960D01*
X8367682Y-17090960D02*
X8377206Y-17043341D01*
X8377206Y-17043341D02*
X8377206Y-17005246D01*
X8377206Y-17005246D02*
X8367682Y-16957627D01*
X8367682Y-16957627D02*
X8358158Y-16929055D01*
X8358158Y-16929055D02*
X8348634Y-16910008D01*
X8348634Y-16910008D02*
X8329587Y-16881436D01*
X8329587Y-16881436D02*
X8320063Y-16871912D01*
D10*
X3525000Y-17253000D02*
X3525000Y-17293000D01*
X3505000Y-17273000D02*
X3545000Y-17273000D01*
D11*
X3843872Y-17164484D02*
X3862920Y-17164484D01*
X3862920Y-17164484D02*
X3881967Y-17174008D01*
X3881967Y-17174008D02*
X3891491Y-17183531D01*
X3891491Y-17183531D02*
X3901015Y-17202579D01*
X3901015Y-17202579D02*
X3910539Y-17240674D01*
X3910539Y-17240674D02*
X3910539Y-17288293D01*
X3910539Y-17288293D02*
X3901015Y-17326389D01*
X3901015Y-17326389D02*
X3891491Y-17345436D01*
X3891491Y-17345436D02*
X3881967Y-17354960D01*
X3881967Y-17354960D02*
X3862920Y-17364484D01*
X3862920Y-17364484D02*
X3843872Y-17364484D01*
X3843872Y-17364484D02*
X3824824Y-17354960D01*
X3824824Y-17354960D02*
X3815301Y-17345436D01*
X3815301Y-17345436D02*
X3805777Y-17326389D01*
X3805777Y-17326389D02*
X3796253Y-17288293D01*
X3796253Y-17288293D02*
X3796253Y-17240674D01*
X3796253Y-17240674D02*
X3805777Y-17202579D01*
X3805777Y-17202579D02*
X3815301Y-17183531D01*
X3815301Y-17183531D02*
X3824824Y-17174008D01*
X3824824Y-17174008D02*
X3843872Y-17164484D01*
X3996253Y-17345436D02*
X4005777Y-17354960D01*
X4005777Y-17354960D02*
X3996253Y-17364484D01*
X3996253Y-17364484D02*
X3986729Y-17354960D01*
X3986729Y-17354960D02*
X3996253Y-17345436D01*
X3996253Y-17345436D02*
X3996253Y-17364484D01*
X4177205Y-17231150D02*
X4177205Y-17364484D01*
X4129586Y-17154960D02*
X4081967Y-17297817D01*
X4081967Y-17297817D02*
X4205777Y-17297817D01*
X4320063Y-17164484D02*
X4339110Y-17164484D01*
X4339110Y-17164484D02*
X4358158Y-17174008D01*
X4358158Y-17174008D02*
X4367682Y-17183531D01*
X4367682Y-17183531D02*
X4377205Y-17202579D01*
X4377205Y-17202579D02*
X4386729Y-17240674D01*
X4386729Y-17240674D02*
X4386729Y-17288293D01*
X4386729Y-17288293D02*
X4377205Y-17326389D01*
X4377205Y-17326389D02*
X4367682Y-17345436D01*
X4367682Y-17345436D02*
X4358158Y-17354960D01*
X4358158Y-17354960D02*
X4339110Y-17364484D01*
X4339110Y-17364484D02*
X4320063Y-17364484D01*
X4320063Y-17364484D02*
X4301015Y-17354960D01*
X4301015Y-17354960D02*
X4291491Y-17345436D01*
X4291491Y-17345436D02*
X4281967Y-17326389D01*
X4281967Y-17326389D02*
X4272444Y-17288293D01*
X4272444Y-17288293D02*
X4272444Y-17240674D01*
X4272444Y-17240674D02*
X4281967Y-17202579D01*
X4281967Y-17202579D02*
X4291491Y-17183531D01*
X4291491Y-17183531D02*
X4301015Y-17174008D01*
X4301015Y-17174008D02*
X4320063Y-17164484D01*
X4510539Y-17164484D02*
X4529586Y-17164484D01*
X4529586Y-17164484D02*
X4548634Y-17174008D01*
X4548634Y-17174008D02*
X4558158Y-17183531D01*
X4558158Y-17183531D02*
X4567682Y-17202579D01*
X4567682Y-17202579D02*
X4577205Y-17240674D01*
X4577205Y-17240674D02*
X4577205Y-17288293D01*
X4577205Y-17288293D02*
X4567682Y-17326389D01*
X4567682Y-17326389D02*
X4558158Y-17345436D01*
X4558158Y-17345436D02*
X4548634Y-17354960D01*
X4548634Y-17354960D02*
X4529586Y-17364484D01*
X4529586Y-17364484D02*
X4510539Y-17364484D01*
X4510539Y-17364484D02*
X4491491Y-17354960D01*
X4491491Y-17354960D02*
X4481967Y-17345436D01*
X4481967Y-17345436D02*
X4472444Y-17326389D01*
X4472444Y-17326389D02*
X4462920Y-17288293D01*
X4462920Y-17288293D02*
X4462920Y-17240674D01*
X4462920Y-17240674D02*
X4472444Y-17202579D01*
X4472444Y-17202579D02*
X4481967Y-17183531D01*
X4481967Y-17183531D02*
X4491491Y-17174008D01*
X4491491Y-17174008D02*
X4510539Y-17164484D01*
X4662920Y-17364484D02*
X4662920Y-17231150D01*
X4662920Y-17250198D02*
X4672444Y-17240674D01*
X4672444Y-17240674D02*
X4691491Y-17231150D01*
X4691491Y-17231150D02*
X4720063Y-17231150D01*
X4720063Y-17231150D02*
X4739110Y-17240674D01*
X4739110Y-17240674D02*
X4748634Y-17259722D01*
X4748634Y-17259722D02*
X4748634Y-17364484D01*
X4748634Y-17259722D02*
X4758158Y-17240674D01*
X4758158Y-17240674D02*
X4777205Y-17231150D01*
X4777205Y-17231150D02*
X4805777Y-17231150D01*
X4805777Y-17231150D02*
X4824825Y-17240674D01*
X4824825Y-17240674D02*
X4834348Y-17259722D01*
X4834348Y-17259722D02*
X4834348Y-17364484D01*
X4929586Y-17364484D02*
X4929586Y-17231150D01*
X4929586Y-17250198D02*
X4939110Y-17240674D01*
X4939110Y-17240674D02*
X4958158Y-17231150D01*
X4958158Y-17231150D02*
X4986729Y-17231150D01*
X4986729Y-17231150D02*
X5005777Y-17240674D01*
X5005777Y-17240674D02*
X5015301Y-17259722D01*
X5015301Y-17259722D02*
X5015301Y-17364484D01*
X5015301Y-17259722D02*
X5024825Y-17240674D01*
X5024825Y-17240674D02*
X5043872Y-17231150D01*
X5043872Y-17231150D02*
X5072444Y-17231150D01*
X5072444Y-17231150D02*
X5091491Y-17240674D01*
X5091491Y-17240674D02*
X5101015Y-17259722D01*
X5101015Y-17259722D02*
X5101015Y-17364484D01*
X5491491Y-17154960D02*
X5320063Y-17412103D01*
X5748634Y-17164484D02*
X5767682Y-17164484D01*
X5767682Y-17164484D02*
X5786729Y-17174008D01*
X5786729Y-17174008D02*
X5796253Y-17183531D01*
X5796253Y-17183531D02*
X5805777Y-17202579D01*
X5805777Y-17202579D02*
X5815301Y-17240674D01*
X5815301Y-17240674D02*
X5815301Y-17288293D01*
X5815301Y-17288293D02*
X5805777Y-17326389D01*
X5805777Y-17326389D02*
X5796253Y-17345436D01*
X5796253Y-17345436D02*
X5786729Y-17354960D01*
X5786729Y-17354960D02*
X5767682Y-17364484D01*
X5767682Y-17364484D02*
X5748634Y-17364484D01*
X5748634Y-17364484D02*
X5729586Y-17354960D01*
X5729586Y-17354960D02*
X5720063Y-17345436D01*
X5720063Y-17345436D02*
X5710539Y-17326389D01*
X5710539Y-17326389D02*
X5701015Y-17288293D01*
X5701015Y-17288293D02*
X5701015Y-17240674D01*
X5701015Y-17240674D02*
X5710539Y-17202579D01*
X5710539Y-17202579D02*
X5720063Y-17183531D01*
X5720063Y-17183531D02*
X5729586Y-17174008D01*
X5729586Y-17174008D02*
X5748634Y-17164484D01*
X5901015Y-17345436D02*
X5910539Y-17354960D01*
X5910539Y-17354960D02*
X5901015Y-17364484D01*
X5901015Y-17364484D02*
X5891491Y-17354960D01*
X5891491Y-17354960D02*
X5901015Y-17345436D01*
X5901015Y-17345436D02*
X5901015Y-17364484D01*
X6034348Y-17164484D02*
X6053396Y-17164484D01*
X6053396Y-17164484D02*
X6072444Y-17174008D01*
X6072444Y-17174008D02*
X6081967Y-17183531D01*
X6081967Y-17183531D02*
X6091491Y-17202579D01*
X6091491Y-17202579D02*
X6101015Y-17240674D01*
X6101015Y-17240674D02*
X6101015Y-17288293D01*
X6101015Y-17288293D02*
X6091491Y-17326389D01*
X6091491Y-17326389D02*
X6081967Y-17345436D01*
X6081967Y-17345436D02*
X6072444Y-17354960D01*
X6072444Y-17354960D02*
X6053396Y-17364484D01*
X6053396Y-17364484D02*
X6034348Y-17364484D01*
X6034348Y-17364484D02*
X6015301Y-17354960D01*
X6015301Y-17354960D02*
X6005777Y-17345436D01*
X6005777Y-17345436D02*
X5996253Y-17326389D01*
X5996253Y-17326389D02*
X5986729Y-17288293D01*
X5986729Y-17288293D02*
X5986729Y-17240674D01*
X5986729Y-17240674D02*
X5996253Y-17202579D01*
X5996253Y-17202579D02*
X6005777Y-17183531D01*
X6005777Y-17183531D02*
X6015301Y-17174008D01*
X6015301Y-17174008D02*
X6034348Y-17164484D01*
X6291491Y-17364484D02*
X6177206Y-17364484D01*
X6234348Y-17364484D02*
X6234348Y-17164484D01*
X6234348Y-17164484D02*
X6215301Y-17193055D01*
X6215301Y-17193055D02*
X6196253Y-17212103D01*
X6196253Y-17212103D02*
X6177206Y-17221627D01*
X6472444Y-17164484D02*
X6377206Y-17164484D01*
X6377206Y-17164484D02*
X6367682Y-17259722D01*
X6367682Y-17259722D02*
X6377206Y-17250198D01*
X6377206Y-17250198D02*
X6396253Y-17240674D01*
X6396253Y-17240674D02*
X6443872Y-17240674D01*
X6443872Y-17240674D02*
X6462920Y-17250198D01*
X6462920Y-17250198D02*
X6472444Y-17259722D01*
X6472444Y-17259722D02*
X6481967Y-17278770D01*
X6481967Y-17278770D02*
X6481967Y-17326389D01*
X6481967Y-17326389D02*
X6472444Y-17345436D01*
X6472444Y-17345436D02*
X6462920Y-17354960D01*
X6462920Y-17354960D02*
X6443872Y-17364484D01*
X6443872Y-17364484D02*
X6396253Y-17364484D01*
X6396253Y-17364484D02*
X6377206Y-17354960D01*
X6377206Y-17354960D02*
X6367682Y-17345436D01*
X6548634Y-17164484D02*
X6681967Y-17164484D01*
X6681967Y-17164484D02*
X6596253Y-17364484D01*
X6748634Y-17164484D02*
X6748634Y-17202579D01*
X6824825Y-17164484D02*
X6824825Y-17202579D01*
X7120063Y-17440674D02*
X7110539Y-17431150D01*
X7110539Y-17431150D02*
X7091491Y-17402579D01*
X7091491Y-17402579D02*
X7081968Y-17383531D01*
X7081968Y-17383531D02*
X7072444Y-17354960D01*
X7072444Y-17354960D02*
X7062920Y-17307341D01*
X7062920Y-17307341D02*
X7062920Y-17269246D01*
X7062920Y-17269246D02*
X7072444Y-17221627D01*
X7072444Y-17221627D02*
X7081968Y-17193055D01*
X7081968Y-17193055D02*
X7091491Y-17174008D01*
X7091491Y-17174008D02*
X7110539Y-17145436D01*
X7110539Y-17145436D02*
X7120063Y-17135912D01*
X7301015Y-17364484D02*
X7186729Y-17364484D01*
X7243872Y-17364484D02*
X7243872Y-17164484D01*
X7243872Y-17164484D02*
X7224825Y-17193055D01*
X7224825Y-17193055D02*
X7205777Y-17212103D01*
X7205777Y-17212103D02*
X7186729Y-17221627D01*
X7424825Y-17164484D02*
X7443872Y-17164484D01*
X7443872Y-17164484D02*
X7462920Y-17174008D01*
X7462920Y-17174008D02*
X7472444Y-17183531D01*
X7472444Y-17183531D02*
X7481968Y-17202579D01*
X7481968Y-17202579D02*
X7491491Y-17240674D01*
X7491491Y-17240674D02*
X7491491Y-17288293D01*
X7491491Y-17288293D02*
X7481968Y-17326389D01*
X7481968Y-17326389D02*
X7472444Y-17345436D01*
X7472444Y-17345436D02*
X7462920Y-17354960D01*
X7462920Y-17354960D02*
X7443872Y-17364484D01*
X7443872Y-17364484D02*
X7424825Y-17364484D01*
X7424825Y-17364484D02*
X7405777Y-17354960D01*
X7405777Y-17354960D02*
X7396253Y-17345436D01*
X7396253Y-17345436D02*
X7386729Y-17326389D01*
X7386729Y-17326389D02*
X7377206Y-17288293D01*
X7377206Y-17288293D02*
X7377206Y-17240674D01*
X7377206Y-17240674D02*
X7386729Y-17202579D01*
X7386729Y-17202579D02*
X7396253Y-17183531D01*
X7396253Y-17183531D02*
X7405777Y-17174008D01*
X7405777Y-17174008D02*
X7424825Y-17164484D01*
X7605777Y-17250198D02*
X7586729Y-17240674D01*
X7586729Y-17240674D02*
X7577206Y-17231150D01*
X7577206Y-17231150D02*
X7567682Y-17212103D01*
X7567682Y-17212103D02*
X7567682Y-17202579D01*
X7567682Y-17202579D02*
X7577206Y-17183531D01*
X7577206Y-17183531D02*
X7586729Y-17174008D01*
X7586729Y-17174008D02*
X7605777Y-17164484D01*
X7605777Y-17164484D02*
X7643872Y-17164484D01*
X7643872Y-17164484D02*
X7662920Y-17174008D01*
X7662920Y-17174008D02*
X7672444Y-17183531D01*
X7672444Y-17183531D02*
X7681968Y-17202579D01*
X7681968Y-17202579D02*
X7681968Y-17212103D01*
X7681968Y-17212103D02*
X7672444Y-17231150D01*
X7672444Y-17231150D02*
X7662920Y-17240674D01*
X7662920Y-17240674D02*
X7643872Y-17250198D01*
X7643872Y-17250198D02*
X7605777Y-17250198D01*
X7605777Y-17250198D02*
X7586729Y-17259722D01*
X7586729Y-17259722D02*
X7577206Y-17269246D01*
X7577206Y-17269246D02*
X7567682Y-17288293D01*
X7567682Y-17288293D02*
X7567682Y-17326389D01*
X7567682Y-17326389D02*
X7577206Y-17345436D01*
X7577206Y-17345436D02*
X7586729Y-17354960D01*
X7586729Y-17354960D02*
X7605777Y-17364484D01*
X7605777Y-17364484D02*
X7643872Y-17364484D01*
X7643872Y-17364484D02*
X7662920Y-17354960D01*
X7662920Y-17354960D02*
X7672444Y-17345436D01*
X7672444Y-17345436D02*
X7681968Y-17326389D01*
X7681968Y-17326389D02*
X7681968Y-17288293D01*
X7681968Y-17288293D02*
X7672444Y-17269246D01*
X7672444Y-17269246D02*
X7662920Y-17259722D01*
X7662920Y-17259722D02*
X7643872Y-17250198D01*
X7920063Y-17364484D02*
X7920063Y-17164484D01*
X8005777Y-17364484D02*
X8005777Y-17259722D01*
X8005777Y-17259722D02*
X7996253Y-17240674D01*
X7996253Y-17240674D02*
X7977206Y-17231150D01*
X7977206Y-17231150D02*
X7948634Y-17231150D01*
X7948634Y-17231150D02*
X7929587Y-17240674D01*
X7929587Y-17240674D02*
X7920063Y-17250198D01*
X8129587Y-17364484D02*
X8110539Y-17354960D01*
X8110539Y-17354960D02*
X8101015Y-17345436D01*
X8101015Y-17345436D02*
X8091491Y-17326389D01*
X8091491Y-17326389D02*
X8091491Y-17269246D01*
X8091491Y-17269246D02*
X8101015Y-17250198D01*
X8101015Y-17250198D02*
X8110539Y-17240674D01*
X8110539Y-17240674D02*
X8129587Y-17231150D01*
X8129587Y-17231150D02*
X8158158Y-17231150D01*
X8158158Y-17231150D02*
X8177206Y-17240674D01*
X8177206Y-17240674D02*
X8186730Y-17250198D01*
X8186730Y-17250198D02*
X8196253Y-17269246D01*
X8196253Y-17269246D02*
X8196253Y-17326389D01*
X8196253Y-17326389D02*
X8186730Y-17345436D01*
X8186730Y-17345436D02*
X8177206Y-17354960D01*
X8177206Y-17354960D02*
X8158158Y-17364484D01*
X8158158Y-17364484D02*
X8129587Y-17364484D01*
X8310539Y-17364484D02*
X8291491Y-17354960D01*
X8291491Y-17354960D02*
X8281968Y-17335912D01*
X8281968Y-17335912D02*
X8281968Y-17164484D01*
X8462920Y-17354960D02*
X8443873Y-17364484D01*
X8443873Y-17364484D02*
X8405777Y-17364484D01*
X8405777Y-17364484D02*
X8386730Y-17354960D01*
X8386730Y-17354960D02*
X8377206Y-17335912D01*
X8377206Y-17335912D02*
X8377206Y-17259722D01*
X8377206Y-17259722D02*
X8386730Y-17240674D01*
X8386730Y-17240674D02*
X8405777Y-17231150D01*
X8405777Y-17231150D02*
X8443873Y-17231150D01*
X8443873Y-17231150D02*
X8462920Y-17240674D01*
X8462920Y-17240674D02*
X8472444Y-17259722D01*
X8472444Y-17259722D02*
X8472444Y-17278770D01*
X8472444Y-17278770D02*
X8377206Y-17297817D01*
X8548634Y-17354960D02*
X8567682Y-17364484D01*
X8567682Y-17364484D02*
X8605777Y-17364484D01*
X8605777Y-17364484D02*
X8624825Y-17354960D01*
X8624825Y-17354960D02*
X8634349Y-17335912D01*
X8634349Y-17335912D02*
X8634349Y-17326389D01*
X8634349Y-17326389D02*
X8624825Y-17307341D01*
X8624825Y-17307341D02*
X8605777Y-17297817D01*
X8605777Y-17297817D02*
X8577206Y-17297817D01*
X8577206Y-17297817D02*
X8558158Y-17288293D01*
X8558158Y-17288293D02*
X8548634Y-17269246D01*
X8548634Y-17269246D02*
X8548634Y-17259722D01*
X8548634Y-17259722D02*
X8558158Y-17240674D01*
X8558158Y-17240674D02*
X8577206Y-17231150D01*
X8577206Y-17231150D02*
X8605777Y-17231150D01*
X8605777Y-17231150D02*
X8624825Y-17240674D01*
X8701015Y-17440674D02*
X8710539Y-17431150D01*
X8710539Y-17431150D02*
X8729587Y-17402579D01*
X8729587Y-17402579D02*
X8739111Y-17383531D01*
X8739111Y-17383531D02*
X8748634Y-17354960D01*
X8748634Y-17354960D02*
X8758158Y-17307341D01*
X8758158Y-17307341D02*
X8758158Y-17269246D01*
X8758158Y-17269246D02*
X8748634Y-17221627D01*
X8748634Y-17221627D02*
X8739111Y-17193055D01*
X8739111Y-17193055D02*
X8729587Y-17174008D01*
X8729587Y-17174008D02*
X8710539Y-17145436D01*
X8710539Y-17145436D02*
X8701015Y-17135912D01*
D10*
X3536213Y-17558213D02*
X3536213Y-17515787D01*
X3493787Y-17515787D01*
X3493787Y-17558213D01*
X3536213Y-17558213D01*
D11*
X3843872Y-17428484D02*
X3862920Y-17428484D01*
X3862920Y-17428484D02*
X3881967Y-17438008D01*
X3881967Y-17438008D02*
X3891491Y-17447531D01*
X3891491Y-17447531D02*
X3901015Y-17466579D01*
X3901015Y-17466579D02*
X3910539Y-17504674D01*
X3910539Y-17504674D02*
X3910539Y-17552293D01*
X3910539Y-17552293D02*
X3901015Y-17590389D01*
X3901015Y-17590389D02*
X3891491Y-17609436D01*
X3891491Y-17609436D02*
X3881967Y-17618960D01*
X3881967Y-17618960D02*
X3862920Y-17628484D01*
X3862920Y-17628484D02*
X3843872Y-17628484D01*
X3843872Y-17628484D02*
X3824824Y-17618960D01*
X3824824Y-17618960D02*
X3815301Y-17609436D01*
X3815301Y-17609436D02*
X3805777Y-17590389D01*
X3805777Y-17590389D02*
X3796253Y-17552293D01*
X3796253Y-17552293D02*
X3796253Y-17504674D01*
X3796253Y-17504674D02*
X3805777Y-17466579D01*
X3805777Y-17466579D02*
X3815301Y-17447531D01*
X3815301Y-17447531D02*
X3824824Y-17438008D01*
X3824824Y-17438008D02*
X3843872Y-17428484D01*
X3996253Y-17609436D02*
X4005777Y-17618960D01*
X4005777Y-17618960D02*
X3996253Y-17628484D01*
X3996253Y-17628484D02*
X3986729Y-17618960D01*
X3986729Y-17618960D02*
X3996253Y-17609436D01*
X3996253Y-17609436D02*
X3996253Y-17628484D01*
X4177205Y-17428484D02*
X4139110Y-17428484D01*
X4139110Y-17428484D02*
X4120062Y-17438008D01*
X4120062Y-17438008D02*
X4110539Y-17447531D01*
X4110539Y-17447531D02*
X4091491Y-17476103D01*
X4091491Y-17476103D02*
X4081967Y-17514198D01*
X4081967Y-17514198D02*
X4081967Y-17590389D01*
X4081967Y-17590389D02*
X4091491Y-17609436D01*
X4091491Y-17609436D02*
X4101015Y-17618960D01*
X4101015Y-17618960D02*
X4120062Y-17628484D01*
X4120062Y-17628484D02*
X4158158Y-17628484D01*
X4158158Y-17628484D02*
X4177205Y-17618960D01*
X4177205Y-17618960D02*
X4186729Y-17609436D01*
X4186729Y-17609436D02*
X4196253Y-17590389D01*
X4196253Y-17590389D02*
X4196253Y-17542770D01*
X4196253Y-17542770D02*
X4186729Y-17523722D01*
X4186729Y-17523722D02*
X4177205Y-17514198D01*
X4177205Y-17514198D02*
X4158158Y-17504674D01*
X4158158Y-17504674D02*
X4120062Y-17504674D01*
X4120062Y-17504674D02*
X4101015Y-17514198D01*
X4101015Y-17514198D02*
X4091491Y-17523722D01*
X4091491Y-17523722D02*
X4081967Y-17542770D01*
X4320063Y-17428484D02*
X4339110Y-17428484D01*
X4339110Y-17428484D02*
X4358158Y-17438008D01*
X4358158Y-17438008D02*
X4367682Y-17447531D01*
X4367682Y-17447531D02*
X4377205Y-17466579D01*
X4377205Y-17466579D02*
X4386729Y-17504674D01*
X4386729Y-17504674D02*
X4386729Y-17552293D01*
X4386729Y-17552293D02*
X4377205Y-17590389D01*
X4377205Y-17590389D02*
X4367682Y-17609436D01*
X4367682Y-17609436D02*
X4358158Y-17618960D01*
X4358158Y-17618960D02*
X4339110Y-17628484D01*
X4339110Y-17628484D02*
X4320063Y-17628484D01*
X4320063Y-17628484D02*
X4301015Y-17618960D01*
X4301015Y-17618960D02*
X4291491Y-17609436D01*
X4291491Y-17609436D02*
X4281967Y-17590389D01*
X4281967Y-17590389D02*
X4272444Y-17552293D01*
X4272444Y-17552293D02*
X4272444Y-17504674D01*
X4272444Y-17504674D02*
X4281967Y-17466579D01*
X4281967Y-17466579D02*
X4291491Y-17447531D01*
X4291491Y-17447531D02*
X4301015Y-17438008D01*
X4301015Y-17438008D02*
X4320063Y-17428484D01*
X4510539Y-17428484D02*
X4529586Y-17428484D01*
X4529586Y-17428484D02*
X4548634Y-17438008D01*
X4548634Y-17438008D02*
X4558158Y-17447531D01*
X4558158Y-17447531D02*
X4567682Y-17466579D01*
X4567682Y-17466579D02*
X4577205Y-17504674D01*
X4577205Y-17504674D02*
X4577205Y-17552293D01*
X4577205Y-17552293D02*
X4567682Y-17590389D01*
X4567682Y-17590389D02*
X4558158Y-17609436D01*
X4558158Y-17609436D02*
X4548634Y-17618960D01*
X4548634Y-17618960D02*
X4529586Y-17628484D01*
X4529586Y-17628484D02*
X4510539Y-17628484D01*
X4510539Y-17628484D02*
X4491491Y-17618960D01*
X4491491Y-17618960D02*
X4481967Y-17609436D01*
X4481967Y-17609436D02*
X4472444Y-17590389D01*
X4472444Y-17590389D02*
X4462920Y-17552293D01*
X4462920Y-17552293D02*
X4462920Y-17504674D01*
X4462920Y-17504674D02*
X4472444Y-17466579D01*
X4472444Y-17466579D02*
X4481967Y-17447531D01*
X4481967Y-17447531D02*
X4491491Y-17438008D01*
X4491491Y-17438008D02*
X4510539Y-17428484D01*
X4662920Y-17628484D02*
X4662920Y-17495150D01*
X4662920Y-17514198D02*
X4672444Y-17504674D01*
X4672444Y-17504674D02*
X4691491Y-17495150D01*
X4691491Y-17495150D02*
X4720063Y-17495150D01*
X4720063Y-17495150D02*
X4739110Y-17504674D01*
X4739110Y-17504674D02*
X4748634Y-17523722D01*
X4748634Y-17523722D02*
X4748634Y-17628484D01*
X4748634Y-17523722D02*
X4758158Y-17504674D01*
X4758158Y-17504674D02*
X4777205Y-17495150D01*
X4777205Y-17495150D02*
X4805777Y-17495150D01*
X4805777Y-17495150D02*
X4824825Y-17504674D01*
X4824825Y-17504674D02*
X4834348Y-17523722D01*
X4834348Y-17523722D02*
X4834348Y-17628484D01*
X4929586Y-17628484D02*
X4929586Y-17495150D01*
X4929586Y-17514198D02*
X4939110Y-17504674D01*
X4939110Y-17504674D02*
X4958158Y-17495150D01*
X4958158Y-17495150D02*
X4986729Y-17495150D01*
X4986729Y-17495150D02*
X5005777Y-17504674D01*
X5005777Y-17504674D02*
X5015301Y-17523722D01*
X5015301Y-17523722D02*
X5015301Y-17628484D01*
X5015301Y-17523722D02*
X5024825Y-17504674D01*
X5024825Y-17504674D02*
X5043872Y-17495150D01*
X5043872Y-17495150D02*
X5072444Y-17495150D01*
X5072444Y-17495150D02*
X5091491Y-17504674D01*
X5091491Y-17504674D02*
X5101015Y-17523722D01*
X5101015Y-17523722D02*
X5101015Y-17628484D01*
X5491491Y-17418960D02*
X5320063Y-17676103D01*
X5748634Y-17428484D02*
X5767682Y-17428484D01*
X5767682Y-17428484D02*
X5786729Y-17438008D01*
X5786729Y-17438008D02*
X5796253Y-17447531D01*
X5796253Y-17447531D02*
X5805777Y-17466579D01*
X5805777Y-17466579D02*
X5815301Y-17504674D01*
X5815301Y-17504674D02*
X5815301Y-17552293D01*
X5815301Y-17552293D02*
X5805777Y-17590389D01*
X5805777Y-17590389D02*
X5796253Y-17609436D01*
X5796253Y-17609436D02*
X5786729Y-17618960D01*
X5786729Y-17618960D02*
X5767682Y-17628484D01*
X5767682Y-17628484D02*
X5748634Y-17628484D01*
X5748634Y-17628484D02*
X5729586Y-17618960D01*
X5729586Y-17618960D02*
X5720063Y-17609436D01*
X5720063Y-17609436D02*
X5710539Y-17590389D01*
X5710539Y-17590389D02*
X5701015Y-17552293D01*
X5701015Y-17552293D02*
X5701015Y-17504674D01*
X5701015Y-17504674D02*
X5710539Y-17466579D01*
X5710539Y-17466579D02*
X5720063Y-17447531D01*
X5720063Y-17447531D02*
X5729586Y-17438008D01*
X5729586Y-17438008D02*
X5748634Y-17428484D01*
X5901015Y-17609436D02*
X5910539Y-17618960D01*
X5910539Y-17618960D02*
X5901015Y-17628484D01*
X5901015Y-17628484D02*
X5891491Y-17618960D01*
X5891491Y-17618960D02*
X5901015Y-17609436D01*
X5901015Y-17609436D02*
X5901015Y-17628484D01*
X6034348Y-17428484D02*
X6053396Y-17428484D01*
X6053396Y-17428484D02*
X6072444Y-17438008D01*
X6072444Y-17438008D02*
X6081967Y-17447531D01*
X6081967Y-17447531D02*
X6091491Y-17466579D01*
X6091491Y-17466579D02*
X6101015Y-17504674D01*
X6101015Y-17504674D02*
X6101015Y-17552293D01*
X6101015Y-17552293D02*
X6091491Y-17590389D01*
X6091491Y-17590389D02*
X6081967Y-17609436D01*
X6081967Y-17609436D02*
X6072444Y-17618960D01*
X6072444Y-17618960D02*
X6053396Y-17628484D01*
X6053396Y-17628484D02*
X6034348Y-17628484D01*
X6034348Y-17628484D02*
X6015301Y-17618960D01*
X6015301Y-17618960D02*
X6005777Y-17609436D01*
X6005777Y-17609436D02*
X5996253Y-17590389D01*
X5996253Y-17590389D02*
X5986729Y-17552293D01*
X5986729Y-17552293D02*
X5986729Y-17504674D01*
X5986729Y-17504674D02*
X5996253Y-17466579D01*
X5996253Y-17466579D02*
X6005777Y-17447531D01*
X6005777Y-17447531D02*
X6015301Y-17438008D01*
X6015301Y-17438008D02*
X6034348Y-17428484D01*
X6177206Y-17447531D02*
X6186729Y-17438008D01*
X6186729Y-17438008D02*
X6205777Y-17428484D01*
X6205777Y-17428484D02*
X6253396Y-17428484D01*
X6253396Y-17428484D02*
X6272444Y-17438008D01*
X6272444Y-17438008D02*
X6281967Y-17447531D01*
X6281967Y-17447531D02*
X6291491Y-17466579D01*
X6291491Y-17466579D02*
X6291491Y-17485627D01*
X6291491Y-17485627D02*
X6281967Y-17514198D01*
X6281967Y-17514198D02*
X6167682Y-17628484D01*
X6167682Y-17628484D02*
X6291491Y-17628484D01*
X6358158Y-17428484D02*
X6481967Y-17428484D01*
X6481967Y-17428484D02*
X6415301Y-17504674D01*
X6415301Y-17504674D02*
X6443872Y-17504674D01*
X6443872Y-17504674D02*
X6462920Y-17514198D01*
X6462920Y-17514198D02*
X6472444Y-17523722D01*
X6472444Y-17523722D02*
X6481967Y-17542770D01*
X6481967Y-17542770D02*
X6481967Y-17590389D01*
X6481967Y-17590389D02*
X6472444Y-17609436D01*
X6472444Y-17609436D02*
X6462920Y-17618960D01*
X6462920Y-17618960D02*
X6443872Y-17628484D01*
X6443872Y-17628484D02*
X6386729Y-17628484D01*
X6386729Y-17628484D02*
X6367682Y-17618960D01*
X6367682Y-17618960D02*
X6358158Y-17609436D01*
X6653396Y-17428484D02*
X6615301Y-17428484D01*
X6615301Y-17428484D02*
X6596253Y-17438008D01*
X6596253Y-17438008D02*
X6586729Y-17447531D01*
X6586729Y-17447531D02*
X6567682Y-17476103D01*
X6567682Y-17476103D02*
X6558158Y-17514198D01*
X6558158Y-17514198D02*
X6558158Y-17590389D01*
X6558158Y-17590389D02*
X6567682Y-17609436D01*
X6567682Y-17609436D02*
X6577206Y-17618960D01*
X6577206Y-17618960D02*
X6596253Y-17628484D01*
X6596253Y-17628484D02*
X6634348Y-17628484D01*
X6634348Y-17628484D02*
X6653396Y-17618960D01*
X6653396Y-17618960D02*
X6662920Y-17609436D01*
X6662920Y-17609436D02*
X6672444Y-17590389D01*
X6672444Y-17590389D02*
X6672444Y-17542770D01*
X6672444Y-17542770D02*
X6662920Y-17523722D01*
X6662920Y-17523722D02*
X6653396Y-17514198D01*
X6653396Y-17514198D02*
X6634348Y-17504674D01*
X6634348Y-17504674D02*
X6596253Y-17504674D01*
X6596253Y-17504674D02*
X6577206Y-17514198D01*
X6577206Y-17514198D02*
X6567682Y-17523722D01*
X6567682Y-17523722D02*
X6558158Y-17542770D01*
X6748634Y-17428484D02*
X6748634Y-17466579D01*
X6824825Y-17428484D02*
X6824825Y-17466579D01*
X7120063Y-17704674D02*
X7110539Y-17695150D01*
X7110539Y-17695150D02*
X7091491Y-17666579D01*
X7091491Y-17666579D02*
X7081968Y-17647531D01*
X7081968Y-17647531D02*
X7072444Y-17618960D01*
X7072444Y-17618960D02*
X7062920Y-17571341D01*
X7062920Y-17571341D02*
X7062920Y-17533246D01*
X7062920Y-17533246D02*
X7072444Y-17485627D01*
X7072444Y-17485627D02*
X7081968Y-17457055D01*
X7081968Y-17457055D02*
X7091491Y-17438008D01*
X7091491Y-17438008D02*
X7110539Y-17409436D01*
X7110539Y-17409436D02*
X7120063Y-17399912D01*
X7234348Y-17428484D02*
X7253396Y-17428484D01*
X7253396Y-17428484D02*
X7272444Y-17438008D01*
X7272444Y-17438008D02*
X7281968Y-17447531D01*
X7281968Y-17447531D02*
X7291491Y-17466579D01*
X7291491Y-17466579D02*
X7301015Y-17504674D01*
X7301015Y-17504674D02*
X7301015Y-17552293D01*
X7301015Y-17552293D02*
X7291491Y-17590389D01*
X7291491Y-17590389D02*
X7281968Y-17609436D01*
X7281968Y-17609436D02*
X7272444Y-17618960D01*
X7272444Y-17618960D02*
X7253396Y-17628484D01*
X7253396Y-17628484D02*
X7234348Y-17628484D01*
X7234348Y-17628484D02*
X7215301Y-17618960D01*
X7215301Y-17618960D02*
X7205777Y-17609436D01*
X7205777Y-17609436D02*
X7196253Y-17590389D01*
X7196253Y-17590389D02*
X7186729Y-17552293D01*
X7186729Y-17552293D02*
X7186729Y-17504674D01*
X7186729Y-17504674D02*
X7196253Y-17466579D01*
X7196253Y-17466579D02*
X7205777Y-17447531D01*
X7205777Y-17447531D02*
X7215301Y-17438008D01*
X7215301Y-17438008D02*
X7234348Y-17428484D01*
X7539110Y-17628484D02*
X7539110Y-17428484D01*
X7624825Y-17628484D02*
X7624825Y-17523722D01*
X7624825Y-17523722D02*
X7615301Y-17504674D01*
X7615301Y-17504674D02*
X7596253Y-17495150D01*
X7596253Y-17495150D02*
X7567682Y-17495150D01*
X7567682Y-17495150D02*
X7548634Y-17504674D01*
X7548634Y-17504674D02*
X7539110Y-17514198D01*
X7748634Y-17628484D02*
X7729587Y-17618960D01*
X7729587Y-17618960D02*
X7720063Y-17609436D01*
X7720063Y-17609436D02*
X7710539Y-17590389D01*
X7710539Y-17590389D02*
X7710539Y-17533246D01*
X7710539Y-17533246D02*
X7720063Y-17514198D01*
X7720063Y-17514198D02*
X7729587Y-17504674D01*
X7729587Y-17504674D02*
X7748634Y-17495150D01*
X7748634Y-17495150D02*
X7777206Y-17495150D01*
X7777206Y-17495150D02*
X7796253Y-17504674D01*
X7796253Y-17504674D02*
X7805777Y-17514198D01*
X7805777Y-17514198D02*
X7815301Y-17533246D01*
X7815301Y-17533246D02*
X7815301Y-17590389D01*
X7815301Y-17590389D02*
X7805777Y-17609436D01*
X7805777Y-17609436D02*
X7796253Y-17618960D01*
X7796253Y-17618960D02*
X7777206Y-17628484D01*
X7777206Y-17628484D02*
X7748634Y-17628484D01*
X7929587Y-17628484D02*
X7910539Y-17618960D01*
X7910539Y-17618960D02*
X7901015Y-17599912D01*
X7901015Y-17599912D02*
X7901015Y-17428484D01*
X8081968Y-17618960D02*
X8062920Y-17628484D01*
X8062920Y-17628484D02*
X8024825Y-17628484D01*
X8024825Y-17628484D02*
X8005777Y-17618960D01*
X8005777Y-17618960D02*
X7996253Y-17599912D01*
X7996253Y-17599912D02*
X7996253Y-17523722D01*
X7996253Y-17523722D02*
X8005777Y-17504674D01*
X8005777Y-17504674D02*
X8024825Y-17495150D01*
X8024825Y-17495150D02*
X8062920Y-17495150D01*
X8062920Y-17495150D02*
X8081968Y-17504674D01*
X8081968Y-17504674D02*
X8091491Y-17523722D01*
X8091491Y-17523722D02*
X8091491Y-17542770D01*
X8091491Y-17542770D02*
X7996253Y-17561817D01*
X8167682Y-17618960D02*
X8186730Y-17628484D01*
X8186730Y-17628484D02*
X8224825Y-17628484D01*
X8224825Y-17628484D02*
X8243872Y-17618960D01*
X8243872Y-17618960D02*
X8253396Y-17599912D01*
X8253396Y-17599912D02*
X8253396Y-17590389D01*
X8253396Y-17590389D02*
X8243872Y-17571341D01*
X8243872Y-17571341D02*
X8224825Y-17561817D01*
X8224825Y-17561817D02*
X8196253Y-17561817D01*
X8196253Y-17561817D02*
X8177206Y-17552293D01*
X8177206Y-17552293D02*
X8167682Y-17533246D01*
X8167682Y-17533246D02*
X8167682Y-17523722D01*
X8167682Y-17523722D02*
X8177206Y-17504674D01*
X8177206Y-17504674D02*
X8196253Y-17495150D01*
X8196253Y-17495150D02*
X8224825Y-17495150D01*
X8224825Y-17495150D02*
X8243872Y-17504674D01*
X8491492Y-17552293D02*
X8643873Y-17552293D01*
X8567682Y-17628484D02*
X8567682Y-17476103D01*
X8977206Y-17495150D02*
X8977206Y-17628484D01*
X8929587Y-17418960D02*
X8881968Y-17561817D01*
X8881968Y-17561817D02*
X9005777Y-17561817D01*
X9224825Y-17618960D02*
X9243873Y-17628484D01*
X9243873Y-17628484D02*
X9281968Y-17628484D01*
X9281968Y-17628484D02*
X9301016Y-17618960D01*
X9301016Y-17618960D02*
X9310539Y-17599912D01*
X9310539Y-17599912D02*
X9310539Y-17590389D01*
X9310539Y-17590389D02*
X9301016Y-17571341D01*
X9301016Y-17571341D02*
X9281968Y-17561817D01*
X9281968Y-17561817D02*
X9253396Y-17561817D01*
X9253396Y-17561817D02*
X9234349Y-17552293D01*
X9234349Y-17552293D02*
X9224825Y-17533246D01*
X9224825Y-17533246D02*
X9224825Y-17523722D01*
X9224825Y-17523722D02*
X9234349Y-17504674D01*
X9234349Y-17504674D02*
X9253396Y-17495150D01*
X9253396Y-17495150D02*
X9281968Y-17495150D01*
X9281968Y-17495150D02*
X9301016Y-17504674D01*
X9424825Y-17628484D02*
X9405777Y-17618960D01*
X9405777Y-17618960D02*
X9396254Y-17599912D01*
X9396254Y-17599912D02*
X9396254Y-17428484D01*
X9529587Y-17628484D02*
X9510539Y-17618960D01*
X9510539Y-17618960D02*
X9501016Y-17609436D01*
X9501016Y-17609436D02*
X9491492Y-17590389D01*
X9491492Y-17590389D02*
X9491492Y-17533246D01*
X9491492Y-17533246D02*
X9501016Y-17514198D01*
X9501016Y-17514198D02*
X9510539Y-17504674D01*
X9510539Y-17504674D02*
X9529587Y-17495150D01*
X9529587Y-17495150D02*
X9558158Y-17495150D01*
X9558158Y-17495150D02*
X9577206Y-17504674D01*
X9577206Y-17504674D02*
X9586730Y-17514198D01*
X9586730Y-17514198D02*
X9596254Y-17533246D01*
X9596254Y-17533246D02*
X9596254Y-17590389D01*
X9596254Y-17590389D02*
X9586730Y-17609436D01*
X9586730Y-17609436D02*
X9577206Y-17618960D01*
X9577206Y-17618960D02*
X9558158Y-17628484D01*
X9558158Y-17628484D02*
X9529587Y-17628484D01*
X9653397Y-17495150D02*
X9729587Y-17495150D01*
X9681968Y-17428484D02*
X9681968Y-17599912D01*
X9681968Y-17599912D02*
X9691492Y-17618960D01*
X9691492Y-17618960D02*
X9710539Y-17628484D01*
X9710539Y-17628484D02*
X9729587Y-17628484D01*
X9786730Y-17618960D02*
X9805777Y-17628484D01*
X9805777Y-17628484D02*
X9843873Y-17628484D01*
X9843873Y-17628484D02*
X9862920Y-17618960D01*
X9862920Y-17618960D02*
X9872444Y-17599912D01*
X9872444Y-17599912D02*
X9872444Y-17590389D01*
X9872444Y-17590389D02*
X9862920Y-17571341D01*
X9862920Y-17571341D02*
X9843873Y-17561817D01*
X9843873Y-17561817D02*
X9815301Y-17561817D01*
X9815301Y-17561817D02*
X9796254Y-17552293D01*
X9796254Y-17552293D02*
X9786730Y-17533246D01*
X9786730Y-17533246D02*
X9786730Y-17523722D01*
X9786730Y-17523722D02*
X9796254Y-17504674D01*
X9796254Y-17504674D02*
X9815301Y-17495150D01*
X9815301Y-17495150D02*
X9843873Y-17495150D01*
X9843873Y-17495150D02*
X9862920Y-17504674D01*
X9939111Y-17704674D02*
X9948635Y-17695150D01*
X9948635Y-17695150D02*
X9967682Y-17666579D01*
X9967682Y-17666579D02*
X9977206Y-17647531D01*
X9977206Y-17647531D02*
X9986730Y-17618960D01*
X9986730Y-17618960D02*
X9996254Y-17571341D01*
X9996254Y-17571341D02*
X9996254Y-17533246D01*
X9996254Y-17533246D02*
X9986730Y-17485627D01*
X9986730Y-17485627D02*
X9977206Y-17457055D01*
X9977206Y-17457055D02*
X9967682Y-17438008D01*
X9967682Y-17438008D02*
X9948635Y-17409436D01*
X9948635Y-17409436D02*
X9939111Y-17399912D01*
D10*
X3495000Y-17851000D02*
X3545000Y-17801000D01*
X3495000Y-17751000D01*
X3445000Y-17801000D01*
X3495000Y-17851000D01*
D11*
X3910539Y-17892484D02*
X3796253Y-17892484D01*
X3853396Y-17892484D02*
X3853396Y-17692484D01*
X3853396Y-17692484D02*
X3834348Y-17721055D01*
X3834348Y-17721055D02*
X3815301Y-17740103D01*
X3815301Y-17740103D02*
X3796253Y-17749627D01*
X3996253Y-17873436D02*
X4005777Y-17882960D01*
X4005777Y-17882960D02*
X3996253Y-17892484D01*
X3996253Y-17892484D02*
X3986729Y-17882960D01*
X3986729Y-17882960D02*
X3996253Y-17873436D01*
X3996253Y-17873436D02*
X3996253Y-17892484D01*
X4129586Y-17692484D02*
X4148634Y-17692484D01*
X4148634Y-17692484D02*
X4167682Y-17702008D01*
X4167682Y-17702008D02*
X4177205Y-17711531D01*
X4177205Y-17711531D02*
X4186729Y-17730579D01*
X4186729Y-17730579D02*
X4196253Y-17768674D01*
X4196253Y-17768674D02*
X4196253Y-17816293D01*
X4196253Y-17816293D02*
X4186729Y-17854389D01*
X4186729Y-17854389D02*
X4177205Y-17873436D01*
X4177205Y-17873436D02*
X4167682Y-17882960D01*
X4167682Y-17882960D02*
X4148634Y-17892484D01*
X4148634Y-17892484D02*
X4129586Y-17892484D01*
X4129586Y-17892484D02*
X4110539Y-17882960D01*
X4110539Y-17882960D02*
X4101015Y-17873436D01*
X4101015Y-17873436D02*
X4091491Y-17854389D01*
X4091491Y-17854389D02*
X4081967Y-17816293D01*
X4081967Y-17816293D02*
X4081967Y-17768674D01*
X4081967Y-17768674D02*
X4091491Y-17730579D01*
X4091491Y-17730579D02*
X4101015Y-17711531D01*
X4101015Y-17711531D02*
X4110539Y-17702008D01*
X4110539Y-17702008D02*
X4129586Y-17692484D01*
X4320063Y-17692484D02*
X4339110Y-17692484D01*
X4339110Y-17692484D02*
X4358158Y-17702008D01*
X4358158Y-17702008D02*
X4367682Y-17711531D01*
X4367682Y-17711531D02*
X4377205Y-17730579D01*
X4377205Y-17730579D02*
X4386729Y-17768674D01*
X4386729Y-17768674D02*
X4386729Y-17816293D01*
X4386729Y-17816293D02*
X4377205Y-17854389D01*
X4377205Y-17854389D02*
X4367682Y-17873436D01*
X4367682Y-17873436D02*
X4358158Y-17882960D01*
X4358158Y-17882960D02*
X4339110Y-17892484D01*
X4339110Y-17892484D02*
X4320063Y-17892484D01*
X4320063Y-17892484D02*
X4301015Y-17882960D01*
X4301015Y-17882960D02*
X4291491Y-17873436D01*
X4291491Y-17873436D02*
X4281967Y-17854389D01*
X4281967Y-17854389D02*
X4272444Y-17816293D01*
X4272444Y-17816293D02*
X4272444Y-17768674D01*
X4272444Y-17768674D02*
X4281967Y-17730579D01*
X4281967Y-17730579D02*
X4291491Y-17711531D01*
X4291491Y-17711531D02*
X4301015Y-17702008D01*
X4301015Y-17702008D02*
X4320063Y-17692484D01*
X4510539Y-17692484D02*
X4529586Y-17692484D01*
X4529586Y-17692484D02*
X4548634Y-17702008D01*
X4548634Y-17702008D02*
X4558158Y-17711531D01*
X4558158Y-17711531D02*
X4567682Y-17730579D01*
X4567682Y-17730579D02*
X4577205Y-17768674D01*
X4577205Y-17768674D02*
X4577205Y-17816293D01*
X4577205Y-17816293D02*
X4567682Y-17854389D01*
X4567682Y-17854389D02*
X4558158Y-17873436D01*
X4558158Y-17873436D02*
X4548634Y-17882960D01*
X4548634Y-17882960D02*
X4529586Y-17892484D01*
X4529586Y-17892484D02*
X4510539Y-17892484D01*
X4510539Y-17892484D02*
X4491491Y-17882960D01*
X4491491Y-17882960D02*
X4481967Y-17873436D01*
X4481967Y-17873436D02*
X4472444Y-17854389D01*
X4472444Y-17854389D02*
X4462920Y-17816293D01*
X4462920Y-17816293D02*
X4462920Y-17768674D01*
X4462920Y-17768674D02*
X4472444Y-17730579D01*
X4472444Y-17730579D02*
X4481967Y-17711531D01*
X4481967Y-17711531D02*
X4491491Y-17702008D01*
X4491491Y-17702008D02*
X4510539Y-17692484D01*
X4662920Y-17892484D02*
X4662920Y-17759150D01*
X4662920Y-17778198D02*
X4672444Y-17768674D01*
X4672444Y-17768674D02*
X4691491Y-17759150D01*
X4691491Y-17759150D02*
X4720063Y-17759150D01*
X4720063Y-17759150D02*
X4739110Y-17768674D01*
X4739110Y-17768674D02*
X4748634Y-17787722D01*
X4748634Y-17787722D02*
X4748634Y-17892484D01*
X4748634Y-17787722D02*
X4758158Y-17768674D01*
X4758158Y-17768674D02*
X4777205Y-17759150D01*
X4777205Y-17759150D02*
X4805777Y-17759150D01*
X4805777Y-17759150D02*
X4824825Y-17768674D01*
X4824825Y-17768674D02*
X4834348Y-17787722D01*
X4834348Y-17787722D02*
X4834348Y-17892484D01*
X4929586Y-17892484D02*
X4929586Y-17759150D01*
X4929586Y-17778198D02*
X4939110Y-17768674D01*
X4939110Y-17768674D02*
X4958158Y-17759150D01*
X4958158Y-17759150D02*
X4986729Y-17759150D01*
X4986729Y-17759150D02*
X5005777Y-17768674D01*
X5005777Y-17768674D02*
X5015301Y-17787722D01*
X5015301Y-17787722D02*
X5015301Y-17892484D01*
X5015301Y-17787722D02*
X5024825Y-17768674D01*
X5024825Y-17768674D02*
X5043872Y-17759150D01*
X5043872Y-17759150D02*
X5072444Y-17759150D01*
X5072444Y-17759150D02*
X5091491Y-17768674D01*
X5091491Y-17768674D02*
X5101015Y-17787722D01*
X5101015Y-17787722D02*
X5101015Y-17892484D01*
X5491491Y-17682960D02*
X5320063Y-17940103D01*
X5748634Y-17692484D02*
X5767682Y-17692484D01*
X5767682Y-17692484D02*
X5786729Y-17702008D01*
X5786729Y-17702008D02*
X5796253Y-17711531D01*
X5796253Y-17711531D02*
X5805777Y-17730579D01*
X5805777Y-17730579D02*
X5815301Y-17768674D01*
X5815301Y-17768674D02*
X5815301Y-17816293D01*
X5815301Y-17816293D02*
X5805777Y-17854389D01*
X5805777Y-17854389D02*
X5796253Y-17873436D01*
X5796253Y-17873436D02*
X5786729Y-17882960D01*
X5786729Y-17882960D02*
X5767682Y-17892484D01*
X5767682Y-17892484D02*
X5748634Y-17892484D01*
X5748634Y-17892484D02*
X5729586Y-17882960D01*
X5729586Y-17882960D02*
X5720063Y-17873436D01*
X5720063Y-17873436D02*
X5710539Y-17854389D01*
X5710539Y-17854389D02*
X5701015Y-17816293D01*
X5701015Y-17816293D02*
X5701015Y-17768674D01*
X5701015Y-17768674D02*
X5710539Y-17730579D01*
X5710539Y-17730579D02*
X5720063Y-17711531D01*
X5720063Y-17711531D02*
X5729586Y-17702008D01*
X5729586Y-17702008D02*
X5748634Y-17692484D01*
X5901015Y-17873436D02*
X5910539Y-17882960D01*
X5910539Y-17882960D02*
X5901015Y-17892484D01*
X5901015Y-17892484D02*
X5891491Y-17882960D01*
X5891491Y-17882960D02*
X5901015Y-17873436D01*
X5901015Y-17873436D02*
X5901015Y-17892484D01*
X6034348Y-17692484D02*
X6053396Y-17692484D01*
X6053396Y-17692484D02*
X6072444Y-17702008D01*
X6072444Y-17702008D02*
X6081967Y-17711531D01*
X6081967Y-17711531D02*
X6091491Y-17730579D01*
X6091491Y-17730579D02*
X6101015Y-17768674D01*
X6101015Y-17768674D02*
X6101015Y-17816293D01*
X6101015Y-17816293D02*
X6091491Y-17854389D01*
X6091491Y-17854389D02*
X6081967Y-17873436D01*
X6081967Y-17873436D02*
X6072444Y-17882960D01*
X6072444Y-17882960D02*
X6053396Y-17892484D01*
X6053396Y-17892484D02*
X6034348Y-17892484D01*
X6034348Y-17892484D02*
X6015301Y-17882960D01*
X6015301Y-17882960D02*
X6005777Y-17873436D01*
X6005777Y-17873436D02*
X5996253Y-17854389D01*
X5996253Y-17854389D02*
X5986729Y-17816293D01*
X5986729Y-17816293D02*
X5986729Y-17768674D01*
X5986729Y-17768674D02*
X5996253Y-17730579D01*
X5996253Y-17730579D02*
X6005777Y-17711531D01*
X6005777Y-17711531D02*
X6015301Y-17702008D01*
X6015301Y-17702008D02*
X6034348Y-17692484D01*
X6167682Y-17692484D02*
X6291491Y-17692484D01*
X6291491Y-17692484D02*
X6224825Y-17768674D01*
X6224825Y-17768674D02*
X6253396Y-17768674D01*
X6253396Y-17768674D02*
X6272444Y-17778198D01*
X6272444Y-17778198D02*
X6281967Y-17787722D01*
X6281967Y-17787722D02*
X6291491Y-17806770D01*
X6291491Y-17806770D02*
X6291491Y-17854389D01*
X6291491Y-17854389D02*
X6281967Y-17873436D01*
X6281967Y-17873436D02*
X6272444Y-17882960D01*
X6272444Y-17882960D02*
X6253396Y-17892484D01*
X6253396Y-17892484D02*
X6196253Y-17892484D01*
X6196253Y-17892484D02*
X6177206Y-17882960D01*
X6177206Y-17882960D02*
X6167682Y-17873436D01*
X6386729Y-17892484D02*
X6424825Y-17892484D01*
X6424825Y-17892484D02*
X6443872Y-17882960D01*
X6443872Y-17882960D02*
X6453396Y-17873436D01*
X6453396Y-17873436D02*
X6472444Y-17844865D01*
X6472444Y-17844865D02*
X6481967Y-17806770D01*
X6481967Y-17806770D02*
X6481967Y-17730579D01*
X6481967Y-17730579D02*
X6472444Y-17711531D01*
X6472444Y-17711531D02*
X6462920Y-17702008D01*
X6462920Y-17702008D02*
X6443872Y-17692484D01*
X6443872Y-17692484D02*
X6405777Y-17692484D01*
X6405777Y-17692484D02*
X6386729Y-17702008D01*
X6386729Y-17702008D02*
X6377206Y-17711531D01*
X6377206Y-17711531D02*
X6367682Y-17730579D01*
X6367682Y-17730579D02*
X6367682Y-17778198D01*
X6367682Y-17778198D02*
X6377206Y-17797246D01*
X6377206Y-17797246D02*
X6386729Y-17806770D01*
X6386729Y-17806770D02*
X6405777Y-17816293D01*
X6405777Y-17816293D02*
X6443872Y-17816293D01*
X6443872Y-17816293D02*
X6462920Y-17806770D01*
X6462920Y-17806770D02*
X6472444Y-17797246D01*
X6472444Y-17797246D02*
X6481967Y-17778198D01*
X6653396Y-17759150D02*
X6653396Y-17892484D01*
X6605777Y-17682960D02*
X6558158Y-17825817D01*
X6558158Y-17825817D02*
X6681967Y-17825817D01*
X6748634Y-17692484D02*
X6748634Y-17730579D01*
X6824825Y-17692484D02*
X6824825Y-17730579D01*
X7120063Y-17968674D02*
X7110539Y-17959150D01*
X7110539Y-17959150D02*
X7091491Y-17930579D01*
X7091491Y-17930579D02*
X7081968Y-17911531D01*
X7081968Y-17911531D02*
X7072444Y-17882960D01*
X7072444Y-17882960D02*
X7062920Y-17835341D01*
X7062920Y-17835341D02*
X7062920Y-17797246D01*
X7062920Y-17797246D02*
X7072444Y-17749627D01*
X7072444Y-17749627D02*
X7081968Y-17721055D01*
X7081968Y-17721055D02*
X7091491Y-17702008D01*
X7091491Y-17702008D02*
X7110539Y-17673436D01*
X7110539Y-17673436D02*
X7120063Y-17663912D01*
X7205777Y-17892484D02*
X7243872Y-17892484D01*
X7243872Y-17892484D02*
X7262920Y-17882960D01*
X7262920Y-17882960D02*
X7272444Y-17873436D01*
X7272444Y-17873436D02*
X7291491Y-17844865D01*
X7291491Y-17844865D02*
X7301015Y-17806770D01*
X7301015Y-17806770D02*
X7301015Y-17730579D01*
X7301015Y-17730579D02*
X7291491Y-17711531D01*
X7291491Y-17711531D02*
X7281968Y-17702008D01*
X7281968Y-17702008D02*
X7262920Y-17692484D01*
X7262920Y-17692484D02*
X7224825Y-17692484D01*
X7224825Y-17692484D02*
X7205777Y-17702008D01*
X7205777Y-17702008D02*
X7196253Y-17711531D01*
X7196253Y-17711531D02*
X7186729Y-17730579D01*
X7186729Y-17730579D02*
X7186729Y-17778198D01*
X7186729Y-17778198D02*
X7196253Y-17797246D01*
X7196253Y-17797246D02*
X7205777Y-17806770D01*
X7205777Y-17806770D02*
X7224825Y-17816293D01*
X7224825Y-17816293D02*
X7262920Y-17816293D01*
X7262920Y-17816293D02*
X7281968Y-17806770D01*
X7281968Y-17806770D02*
X7291491Y-17797246D01*
X7291491Y-17797246D02*
X7301015Y-17778198D01*
X7539110Y-17892484D02*
X7539110Y-17692484D01*
X7624825Y-17892484D02*
X7624825Y-17787722D01*
X7624825Y-17787722D02*
X7615301Y-17768674D01*
X7615301Y-17768674D02*
X7596253Y-17759150D01*
X7596253Y-17759150D02*
X7567682Y-17759150D01*
X7567682Y-17759150D02*
X7548634Y-17768674D01*
X7548634Y-17768674D02*
X7539110Y-17778198D01*
X7748634Y-17892484D02*
X7729587Y-17882960D01*
X7729587Y-17882960D02*
X7720063Y-17873436D01*
X7720063Y-17873436D02*
X7710539Y-17854389D01*
X7710539Y-17854389D02*
X7710539Y-17797246D01*
X7710539Y-17797246D02*
X7720063Y-17778198D01*
X7720063Y-17778198D02*
X7729587Y-17768674D01*
X7729587Y-17768674D02*
X7748634Y-17759150D01*
X7748634Y-17759150D02*
X7777206Y-17759150D01*
X7777206Y-17759150D02*
X7796253Y-17768674D01*
X7796253Y-17768674D02*
X7805777Y-17778198D01*
X7805777Y-17778198D02*
X7815301Y-17797246D01*
X7815301Y-17797246D02*
X7815301Y-17854389D01*
X7815301Y-17854389D02*
X7805777Y-17873436D01*
X7805777Y-17873436D02*
X7796253Y-17882960D01*
X7796253Y-17882960D02*
X7777206Y-17892484D01*
X7777206Y-17892484D02*
X7748634Y-17892484D01*
X7929587Y-17892484D02*
X7910539Y-17882960D01*
X7910539Y-17882960D02*
X7901015Y-17863912D01*
X7901015Y-17863912D02*
X7901015Y-17692484D01*
X8081968Y-17882960D02*
X8062920Y-17892484D01*
X8062920Y-17892484D02*
X8024825Y-17892484D01*
X8024825Y-17892484D02*
X8005777Y-17882960D01*
X8005777Y-17882960D02*
X7996253Y-17863912D01*
X7996253Y-17863912D02*
X7996253Y-17787722D01*
X7996253Y-17787722D02*
X8005777Y-17768674D01*
X8005777Y-17768674D02*
X8024825Y-17759150D01*
X8024825Y-17759150D02*
X8062920Y-17759150D01*
X8062920Y-17759150D02*
X8081968Y-17768674D01*
X8081968Y-17768674D02*
X8091491Y-17787722D01*
X8091491Y-17787722D02*
X8091491Y-17806770D01*
X8091491Y-17806770D02*
X7996253Y-17825817D01*
X8167682Y-17882960D02*
X8186730Y-17892484D01*
X8186730Y-17892484D02*
X8224825Y-17892484D01*
X8224825Y-17892484D02*
X8243872Y-17882960D01*
X8243872Y-17882960D02*
X8253396Y-17863912D01*
X8253396Y-17863912D02*
X8253396Y-17854389D01*
X8253396Y-17854389D02*
X8243872Y-17835341D01*
X8243872Y-17835341D02*
X8224825Y-17825817D01*
X8224825Y-17825817D02*
X8196253Y-17825817D01*
X8196253Y-17825817D02*
X8177206Y-17816293D01*
X8177206Y-17816293D02*
X8167682Y-17797246D01*
X8167682Y-17797246D02*
X8167682Y-17787722D01*
X8167682Y-17787722D02*
X8177206Y-17768674D01*
X8177206Y-17768674D02*
X8196253Y-17759150D01*
X8196253Y-17759150D02*
X8224825Y-17759150D01*
X8224825Y-17759150D02*
X8243872Y-17768674D01*
X8320063Y-17968674D02*
X8329587Y-17959150D01*
X8329587Y-17959150D02*
X8348634Y-17930579D01*
X8348634Y-17930579D02*
X8358158Y-17911531D01*
X8358158Y-17911531D02*
X8367682Y-17882960D01*
X8367682Y-17882960D02*
X8377206Y-17835341D01*
X8377206Y-17835341D02*
X8377206Y-17797246D01*
X8377206Y-17797246D02*
X8367682Y-17749627D01*
X8367682Y-17749627D02*
X8358158Y-17721055D01*
X8358158Y-17721055D02*
X8348634Y-17702008D01*
X8348634Y-17702008D02*
X8329587Y-17673436D01*
X8329587Y-17673436D02*
X8320063Y-17663912D01*
X3345000Y-17965000D02*
X3545000Y-18165000D01*
X3545000Y-17965000D02*
X3345000Y-18165000D01*
X3545000Y-18065000D02*
G75*
G03*
X3545000Y-18065000I-100000J0D01*
G01*
X3796253Y-17975531D02*
X3805777Y-17966008D01*
X3805777Y-17966008D02*
X3824824Y-17956484D01*
X3824824Y-17956484D02*
X3872443Y-17956484D01*
X3872443Y-17956484D02*
X3891491Y-17966008D01*
X3891491Y-17966008D02*
X3901015Y-17975531D01*
X3901015Y-17975531D02*
X3910539Y-17994579D01*
X3910539Y-17994579D02*
X3910539Y-18013627D01*
X3910539Y-18013627D02*
X3901015Y-18042198D01*
X3901015Y-18042198D02*
X3786729Y-18156484D01*
X3786729Y-18156484D02*
X3910539Y-18156484D01*
X3996253Y-18137436D02*
X4005777Y-18146960D01*
X4005777Y-18146960D02*
X3996253Y-18156484D01*
X3996253Y-18156484D02*
X3986729Y-18146960D01*
X3986729Y-18146960D02*
X3996253Y-18137436D01*
X3996253Y-18137436D02*
X3996253Y-18156484D01*
X4177205Y-17956484D02*
X4139110Y-17956484D01*
X4139110Y-17956484D02*
X4120062Y-17966008D01*
X4120062Y-17966008D02*
X4110539Y-17975531D01*
X4110539Y-17975531D02*
X4091491Y-18004103D01*
X4091491Y-18004103D02*
X4081967Y-18042198D01*
X4081967Y-18042198D02*
X4081967Y-18118389D01*
X4081967Y-18118389D02*
X4091491Y-18137436D01*
X4091491Y-18137436D02*
X4101015Y-18146960D01*
X4101015Y-18146960D02*
X4120062Y-18156484D01*
X4120062Y-18156484D02*
X4158158Y-18156484D01*
X4158158Y-18156484D02*
X4177205Y-18146960D01*
X4177205Y-18146960D02*
X4186729Y-18137436D01*
X4186729Y-18137436D02*
X4196253Y-18118389D01*
X4196253Y-18118389D02*
X4196253Y-18070770D01*
X4196253Y-18070770D02*
X4186729Y-18051722D01*
X4186729Y-18051722D02*
X4177205Y-18042198D01*
X4177205Y-18042198D02*
X4158158Y-18032674D01*
X4158158Y-18032674D02*
X4120062Y-18032674D01*
X4120062Y-18032674D02*
X4101015Y-18042198D01*
X4101015Y-18042198D02*
X4091491Y-18051722D01*
X4091491Y-18051722D02*
X4081967Y-18070770D01*
X4320063Y-17956484D02*
X4339110Y-17956484D01*
X4339110Y-17956484D02*
X4358158Y-17966008D01*
X4358158Y-17966008D02*
X4367682Y-17975531D01*
X4367682Y-17975531D02*
X4377205Y-17994579D01*
X4377205Y-17994579D02*
X4386729Y-18032674D01*
X4386729Y-18032674D02*
X4386729Y-18080293D01*
X4386729Y-18080293D02*
X4377205Y-18118389D01*
X4377205Y-18118389D02*
X4367682Y-18137436D01*
X4367682Y-18137436D02*
X4358158Y-18146960D01*
X4358158Y-18146960D02*
X4339110Y-18156484D01*
X4339110Y-18156484D02*
X4320063Y-18156484D01*
X4320063Y-18156484D02*
X4301015Y-18146960D01*
X4301015Y-18146960D02*
X4291491Y-18137436D01*
X4291491Y-18137436D02*
X4281967Y-18118389D01*
X4281967Y-18118389D02*
X4272444Y-18080293D01*
X4272444Y-18080293D02*
X4272444Y-18032674D01*
X4272444Y-18032674D02*
X4281967Y-17994579D01*
X4281967Y-17994579D02*
X4291491Y-17975531D01*
X4291491Y-17975531D02*
X4301015Y-17966008D01*
X4301015Y-17966008D02*
X4320063Y-17956484D01*
X4510539Y-17956484D02*
X4529586Y-17956484D01*
X4529586Y-17956484D02*
X4548634Y-17966008D01*
X4548634Y-17966008D02*
X4558158Y-17975531D01*
X4558158Y-17975531D02*
X4567682Y-17994579D01*
X4567682Y-17994579D02*
X4577205Y-18032674D01*
X4577205Y-18032674D02*
X4577205Y-18080293D01*
X4577205Y-18080293D02*
X4567682Y-18118389D01*
X4567682Y-18118389D02*
X4558158Y-18137436D01*
X4558158Y-18137436D02*
X4548634Y-18146960D01*
X4548634Y-18146960D02*
X4529586Y-18156484D01*
X4529586Y-18156484D02*
X4510539Y-18156484D01*
X4510539Y-18156484D02*
X4491491Y-18146960D01*
X4491491Y-18146960D02*
X4481967Y-18137436D01*
X4481967Y-18137436D02*
X4472444Y-18118389D01*
X4472444Y-18118389D02*
X4462920Y-18080293D01*
X4462920Y-18080293D02*
X4462920Y-18032674D01*
X4462920Y-18032674D02*
X4472444Y-17994579D01*
X4472444Y-17994579D02*
X4481967Y-17975531D01*
X4481967Y-17975531D02*
X4491491Y-17966008D01*
X4491491Y-17966008D02*
X4510539Y-17956484D01*
X4662920Y-18156484D02*
X4662920Y-18023150D01*
X4662920Y-18042198D02*
X4672444Y-18032674D01*
X4672444Y-18032674D02*
X4691491Y-18023150D01*
X4691491Y-18023150D02*
X4720063Y-18023150D01*
X4720063Y-18023150D02*
X4739110Y-18032674D01*
X4739110Y-18032674D02*
X4748634Y-18051722D01*
X4748634Y-18051722D02*
X4748634Y-18156484D01*
X4748634Y-18051722D02*
X4758158Y-18032674D01*
X4758158Y-18032674D02*
X4777205Y-18023150D01*
X4777205Y-18023150D02*
X4805777Y-18023150D01*
X4805777Y-18023150D02*
X4824825Y-18032674D01*
X4824825Y-18032674D02*
X4834348Y-18051722D01*
X4834348Y-18051722D02*
X4834348Y-18156484D01*
X4929586Y-18156484D02*
X4929586Y-18023150D01*
X4929586Y-18042198D02*
X4939110Y-18032674D01*
X4939110Y-18032674D02*
X4958158Y-18023150D01*
X4958158Y-18023150D02*
X4986729Y-18023150D01*
X4986729Y-18023150D02*
X5005777Y-18032674D01*
X5005777Y-18032674D02*
X5015301Y-18051722D01*
X5015301Y-18051722D02*
X5015301Y-18156484D01*
X5015301Y-18051722D02*
X5024825Y-18032674D01*
X5024825Y-18032674D02*
X5043872Y-18023150D01*
X5043872Y-18023150D02*
X5072444Y-18023150D01*
X5072444Y-18023150D02*
X5091491Y-18032674D01*
X5091491Y-18032674D02*
X5101015Y-18051722D01*
X5101015Y-18051722D02*
X5101015Y-18156484D01*
X5491491Y-17946960D02*
X5320063Y-18204103D01*
X5748634Y-17956484D02*
X5767682Y-17956484D01*
X5767682Y-17956484D02*
X5786729Y-17966008D01*
X5786729Y-17966008D02*
X5796253Y-17975531D01*
X5796253Y-17975531D02*
X5805777Y-17994579D01*
X5805777Y-17994579D02*
X5815301Y-18032674D01*
X5815301Y-18032674D02*
X5815301Y-18080293D01*
X5815301Y-18080293D02*
X5805777Y-18118389D01*
X5805777Y-18118389D02*
X5796253Y-18137436D01*
X5796253Y-18137436D02*
X5786729Y-18146960D01*
X5786729Y-18146960D02*
X5767682Y-18156484D01*
X5767682Y-18156484D02*
X5748634Y-18156484D01*
X5748634Y-18156484D02*
X5729586Y-18146960D01*
X5729586Y-18146960D02*
X5720063Y-18137436D01*
X5720063Y-18137436D02*
X5710539Y-18118389D01*
X5710539Y-18118389D02*
X5701015Y-18080293D01*
X5701015Y-18080293D02*
X5701015Y-18032674D01*
X5701015Y-18032674D02*
X5710539Y-17994579D01*
X5710539Y-17994579D02*
X5720063Y-17975531D01*
X5720063Y-17975531D02*
X5729586Y-17966008D01*
X5729586Y-17966008D02*
X5748634Y-17956484D01*
X5901015Y-18137436D02*
X5910539Y-18146960D01*
X5910539Y-18146960D02*
X5901015Y-18156484D01*
X5901015Y-18156484D02*
X5891491Y-18146960D01*
X5891491Y-18146960D02*
X5901015Y-18137436D01*
X5901015Y-18137436D02*
X5901015Y-18156484D01*
X6101015Y-18156484D02*
X5986729Y-18156484D01*
X6043872Y-18156484D02*
X6043872Y-17956484D01*
X6043872Y-17956484D02*
X6024825Y-17985055D01*
X6024825Y-17985055D02*
X6005777Y-18004103D01*
X6005777Y-18004103D02*
X5986729Y-18013627D01*
X6224825Y-17956484D02*
X6243872Y-17956484D01*
X6243872Y-17956484D02*
X6262920Y-17966008D01*
X6262920Y-17966008D02*
X6272444Y-17975531D01*
X6272444Y-17975531D02*
X6281967Y-17994579D01*
X6281967Y-17994579D02*
X6291491Y-18032674D01*
X6291491Y-18032674D02*
X6291491Y-18080293D01*
X6291491Y-18080293D02*
X6281967Y-18118389D01*
X6281967Y-18118389D02*
X6272444Y-18137436D01*
X6272444Y-18137436D02*
X6262920Y-18146960D01*
X6262920Y-18146960D02*
X6243872Y-18156484D01*
X6243872Y-18156484D02*
X6224825Y-18156484D01*
X6224825Y-18156484D02*
X6205777Y-18146960D01*
X6205777Y-18146960D02*
X6196253Y-18137436D01*
X6196253Y-18137436D02*
X6186729Y-18118389D01*
X6186729Y-18118389D02*
X6177206Y-18080293D01*
X6177206Y-18080293D02*
X6177206Y-18032674D01*
X6177206Y-18032674D02*
X6186729Y-17994579D01*
X6186729Y-17994579D02*
X6196253Y-17975531D01*
X6196253Y-17975531D02*
X6205777Y-17966008D01*
X6205777Y-17966008D02*
X6224825Y-17956484D01*
X6367682Y-17975531D02*
X6377206Y-17966008D01*
X6377206Y-17966008D02*
X6396253Y-17956484D01*
X6396253Y-17956484D02*
X6443872Y-17956484D01*
X6443872Y-17956484D02*
X6462920Y-17966008D01*
X6462920Y-17966008D02*
X6472444Y-17975531D01*
X6472444Y-17975531D02*
X6481967Y-17994579D01*
X6481967Y-17994579D02*
X6481967Y-18013627D01*
X6481967Y-18013627D02*
X6472444Y-18042198D01*
X6472444Y-18042198D02*
X6358158Y-18156484D01*
X6358158Y-18156484D02*
X6481967Y-18156484D01*
X6653396Y-18023150D02*
X6653396Y-18156484D01*
X6605777Y-17946960D02*
X6558158Y-18089817D01*
X6558158Y-18089817D02*
X6681967Y-18089817D01*
X6748634Y-17956484D02*
X6748634Y-17994579D01*
X6824825Y-17956484D02*
X6824825Y-17994579D01*
X7120063Y-18232674D02*
X7110539Y-18223150D01*
X7110539Y-18223150D02*
X7091491Y-18194579D01*
X7091491Y-18194579D02*
X7081968Y-18175531D01*
X7081968Y-18175531D02*
X7072444Y-18146960D01*
X7072444Y-18146960D02*
X7062920Y-18099341D01*
X7062920Y-18099341D02*
X7062920Y-18061246D01*
X7062920Y-18061246D02*
X7072444Y-18013627D01*
X7072444Y-18013627D02*
X7081968Y-17985055D01*
X7081968Y-17985055D02*
X7091491Y-17966008D01*
X7091491Y-17966008D02*
X7110539Y-17937436D01*
X7110539Y-17937436D02*
X7120063Y-17927912D01*
X7186729Y-17975531D02*
X7196253Y-17966008D01*
X7196253Y-17966008D02*
X7215301Y-17956484D01*
X7215301Y-17956484D02*
X7262920Y-17956484D01*
X7262920Y-17956484D02*
X7281968Y-17966008D01*
X7281968Y-17966008D02*
X7291491Y-17975531D01*
X7291491Y-17975531D02*
X7301015Y-17994579D01*
X7301015Y-17994579D02*
X7301015Y-18013627D01*
X7301015Y-18013627D02*
X7291491Y-18042198D01*
X7291491Y-18042198D02*
X7177206Y-18156484D01*
X7177206Y-18156484D02*
X7301015Y-18156484D01*
X7539110Y-18156484D02*
X7539110Y-17956484D01*
X7624825Y-18156484D02*
X7624825Y-18051722D01*
X7624825Y-18051722D02*
X7615301Y-18032674D01*
X7615301Y-18032674D02*
X7596253Y-18023150D01*
X7596253Y-18023150D02*
X7567682Y-18023150D01*
X7567682Y-18023150D02*
X7548634Y-18032674D01*
X7548634Y-18032674D02*
X7539110Y-18042198D01*
X7748634Y-18156484D02*
X7729587Y-18146960D01*
X7729587Y-18146960D02*
X7720063Y-18137436D01*
X7720063Y-18137436D02*
X7710539Y-18118389D01*
X7710539Y-18118389D02*
X7710539Y-18061246D01*
X7710539Y-18061246D02*
X7720063Y-18042198D01*
X7720063Y-18042198D02*
X7729587Y-18032674D01*
X7729587Y-18032674D02*
X7748634Y-18023150D01*
X7748634Y-18023150D02*
X7777206Y-18023150D01*
X7777206Y-18023150D02*
X7796253Y-18032674D01*
X7796253Y-18032674D02*
X7805777Y-18042198D01*
X7805777Y-18042198D02*
X7815301Y-18061246D01*
X7815301Y-18061246D02*
X7815301Y-18118389D01*
X7815301Y-18118389D02*
X7805777Y-18137436D01*
X7805777Y-18137436D02*
X7796253Y-18146960D01*
X7796253Y-18146960D02*
X7777206Y-18156484D01*
X7777206Y-18156484D02*
X7748634Y-18156484D01*
X7929587Y-18156484D02*
X7910539Y-18146960D01*
X7910539Y-18146960D02*
X7901015Y-18127912D01*
X7901015Y-18127912D02*
X7901015Y-17956484D01*
X8081968Y-18146960D02*
X8062920Y-18156484D01*
X8062920Y-18156484D02*
X8024825Y-18156484D01*
X8024825Y-18156484D02*
X8005777Y-18146960D01*
X8005777Y-18146960D02*
X7996253Y-18127912D01*
X7996253Y-18127912D02*
X7996253Y-18051722D01*
X7996253Y-18051722D02*
X8005777Y-18032674D01*
X8005777Y-18032674D02*
X8024825Y-18023150D01*
X8024825Y-18023150D02*
X8062920Y-18023150D01*
X8062920Y-18023150D02*
X8081968Y-18032674D01*
X8081968Y-18032674D02*
X8091491Y-18051722D01*
X8091491Y-18051722D02*
X8091491Y-18070770D01*
X8091491Y-18070770D02*
X7996253Y-18089817D01*
X8167682Y-18146960D02*
X8186730Y-18156484D01*
X8186730Y-18156484D02*
X8224825Y-18156484D01*
X8224825Y-18156484D02*
X8243872Y-18146960D01*
X8243872Y-18146960D02*
X8253396Y-18127912D01*
X8253396Y-18127912D02*
X8253396Y-18118389D01*
X8253396Y-18118389D02*
X8243872Y-18099341D01*
X8243872Y-18099341D02*
X8224825Y-18089817D01*
X8224825Y-18089817D02*
X8196253Y-18089817D01*
X8196253Y-18089817D02*
X8177206Y-18080293D01*
X8177206Y-18080293D02*
X8167682Y-18061246D01*
X8167682Y-18061246D02*
X8167682Y-18051722D01*
X8167682Y-18051722D02*
X8177206Y-18032674D01*
X8177206Y-18032674D02*
X8196253Y-18023150D01*
X8196253Y-18023150D02*
X8224825Y-18023150D01*
X8224825Y-18023150D02*
X8243872Y-18032674D01*
X8320063Y-18232674D02*
X8329587Y-18223150D01*
X8329587Y-18223150D02*
X8348634Y-18194579D01*
X8348634Y-18194579D02*
X8358158Y-18175531D01*
X8358158Y-18175531D02*
X8367682Y-18146960D01*
X8367682Y-18146960D02*
X8377206Y-18099341D01*
X8377206Y-18099341D02*
X8377206Y-18061246D01*
X8377206Y-18061246D02*
X8367682Y-18013627D01*
X8367682Y-18013627D02*
X8358158Y-17985055D01*
X8358158Y-17985055D02*
X8348634Y-17966008D01*
X8348634Y-17966008D02*
X8329587Y-17937436D01*
X8329587Y-17937436D02*
X8320063Y-17927912D01*
M02*
