%TF.GenerationSoftware,KiCad,Pcbnew,7.0.9*%
%TF.CreationDate,2024-09-10T22:02:23-04:00*%
%TF.ProjectId,panel,70616e65-6c2e-46b6-9963-61645f706362,0.1*%
%TF.SameCoordinates,Original*%
%TF.FileFunction,Soldermask,Bot*%
%TF.FilePolarity,Negative*%
%FSLAX46Y46*%
G04 Gerber Fmt 4.6, Leading zero omitted, Abs format (unit mm)*
G04 Created by KiCad (PCBNEW 7.0.9) date 2024-09-10 22:02:23*
%MOMM*%
%LPD*%
G01*
G04 APERTURE LIST*
%ADD10C,1.000000*%
%ADD11C,1.750000*%
%ADD12C,3.000000*%
%ADD13C,3.987800*%
%ADD14R,2.550000X2.500000*%
%ADD15C,0.200000*%
%ADD16C,2.200000*%
%ADD17R,1.700000X1.700000*%
%ADD18O,1.700000X1.700000*%
%ADD19C,3.048000*%
%ADD20C,0.650000*%
%ADD21O,1.000000X2.100000*%
%ADD22O,1.000000X1.600000*%
%ADD23R,2.000000X2.000000*%
%ADD24C,2.000000*%
%ADD25C,3.200000*%
G04 APERTURE END LIST*
D10*
%TO.C,TP8*%
X373174000Y-120549000D03*
%TD*%
%TO.C,TP4*%
X370116000Y-118785000D03*
%TD*%
%TO.C,TP7*%
X372471000Y-118547000D03*
%TD*%
%TO.C,TP3*%
X368189000Y-118181000D03*
%TD*%
%TO.C,TP5*%
X362766000Y-134291000D03*
%TD*%
%TO.C,TP2*%
X370710000Y-120331000D03*
%TD*%
%TO.C,TP6*%
X364417000Y-134253000D03*
%TD*%
%TO.C,TP1*%
X367528000Y-121539000D03*
%TD*%
%TO.C,TP9*%
X372083000Y-122537000D03*
%TD*%
D11*
%TO.C,SW69*%
X323160000Y-122932000D03*
D12*
X324430000Y-120392000D03*
D13*
X328240000Y-122932000D03*
D12*
X330780000Y-117852000D03*
D11*
X333320000Y-122932000D03*
D14*
X321155000Y-120392000D03*
X334082000Y-117852000D03*
%TD*%
D11*
%TO.C,SW40*%
X288602500Y-83343000D03*
D12*
X289872500Y-80803000D03*
D13*
X293682500Y-83343000D03*
D12*
X296222500Y-78263000D03*
D11*
X298762500Y-83343000D03*
D14*
X286597500Y-80803000D03*
X299524500Y-78263000D03*
%TD*%
D11*
%TO.C,SW20*%
X164777000Y-64293000D03*
D12*
X166047000Y-61753000D03*
D13*
X169857000Y-64293000D03*
D12*
X172397000Y-59213000D03*
D11*
X174937000Y-64293000D03*
D14*
X162772000Y-61753000D03*
X175699000Y-59213000D03*
%TD*%
D15*
%TO.C,KiKit_MB_3_7*%
X380000000Y-69738096D03*
%TD*%
%TO.C,KiKit_MB_8_4*%
X311785714Y-25000000D03*
%TD*%
%TO.C,KiKit_MB_3_2*%
X380000000Y-67595239D03*
%TD*%
%TO.C,KiKit_MB_2_8*%
X40000000Y-110833333D03*
%TD*%
D11*
%TO.C,SW72*%
X100482500Y-140493000D03*
D12*
X101752500Y-137953000D03*
D13*
X105562500Y-140493000D03*
D12*
X108102500Y-135413000D03*
D11*
X110642500Y-140493000D03*
D14*
X98477500Y-137953000D03*
X111404500Y-135413000D03*
%TD*%
D15*
%TO.C,KiKit_MB_7_6*%
X244642857Y-25000000D03*
%TD*%
%TO.C,KiKit_MB_9_4*%
X108214286Y-156000000D03*
%TD*%
%TO.C,KiKit_MB_3_8*%
X380000000Y-70166667D03*
%TD*%
D16*
%TO.C,*%
X110313000Y-153630000D03*
%TD*%
D11*
%TO.C,SW28*%
X55239500Y-83343000D03*
D12*
X56509500Y-80803000D03*
D13*
X60319500Y-83343000D03*
D12*
X62859500Y-78263000D03*
D11*
X65399500Y-83343000D03*
D14*
X53234500Y-80803000D03*
X66161500Y-78263000D03*
%TD*%
D16*
%TO.C,*%
X252021000Y-52560000D03*
%TD*%
D15*
%TO.C,KiKit_MB_15_4*%
X40000000Y-159750000D03*
%TD*%
%TO.C,KiKit_MB_18_3*%
X36333334Y-156000000D03*
%TD*%
D11*
%TO.C,SW25*%
X260027000Y-64293000D03*
D12*
X261297000Y-61753000D03*
D13*
X265107000Y-64293000D03*
D12*
X267647000Y-59213000D03*
D11*
X270187000Y-64293000D03*
D14*
X258022000Y-61753000D03*
X270949000Y-59213000D03*
%TD*%
D15*
%TO.C,KiKit_MB_11_8*%
X242500000Y-156000000D03*
%TD*%
%TO.C,KiKit_MB_19_5*%
X383666666Y-25000000D03*
%TD*%
%TO.C,KiKit_MB_19_4*%
X383250000Y-25000000D03*
%TD*%
%TO.C,KiKit_MB_16_7*%
X380000000Y-161000000D03*
%TD*%
%TO.C,KiKit_MB_4_3*%
X380000000Y-111690476D03*
%TD*%
D16*
%TO.C,*%
X176639000Y-27355000D03*
%TD*%
D15*
%TO.C,KiKit_MB_12_8*%
X310500000Y-156000000D03*
%TD*%
%TO.C,KiKit_MB_18_5*%
X37166667Y-156000000D03*
%TD*%
D11*
%TO.C,SW6*%
X154038000Y-40501000D03*
D12*
X155308000Y-37961000D03*
D13*
X159118000Y-40501000D03*
D12*
X161658000Y-35421000D03*
D11*
X164198000Y-40501000D03*
D14*
X152033000Y-37961000D03*
X164960000Y-35421000D03*
%TD*%
D11*
%TO.C,SW8*%
X192138000Y-40501000D03*
D12*
X193408000Y-37961000D03*
D13*
X197218000Y-40501000D03*
D12*
X199758000Y-35421000D03*
D11*
X202298000Y-40501000D03*
D14*
X190133000Y-37961000D03*
X203060000Y-35421000D03*
%TD*%
D11*
%TO.C,SW23*%
X221927000Y-64293000D03*
D12*
X223197000Y-61753000D03*
D13*
X227007000Y-64293000D03*
D12*
X229547000Y-59213000D03*
D11*
X232087000Y-64293000D03*
D14*
X219922000Y-61753000D03*
X232849000Y-59213000D03*
%TD*%
D16*
%TO.C,*%
X83961000Y-52473000D03*
%TD*%
D15*
%TO.C,KiKit_MB_16_2*%
X380000000Y-158916666D03*
%TD*%
%TO.C,KiKit_MB_13_4*%
X40000000Y-21250000D03*
%TD*%
D11*
%TO.C,SW68*%
X290983500Y-121443000D03*
D12*
X292253500Y-118903000D03*
D13*
X296063500Y-121443000D03*
D12*
X298603500Y-116363000D03*
D11*
X301143500Y-121443000D03*
D14*
X288978500Y-118903000D03*
X301905500Y-116363000D03*
%TD*%
D15*
%TO.C,KiKit_MB_11_5*%
X243785714Y-156000000D03*
%TD*%
D17*
%TO.C,OLED1*%
X337497000Y-105379000D03*
D18*
X337497000Y-102839000D03*
X337497000Y-100299000D03*
X337497000Y-97759000D03*
%TD*%
D15*
%TO.C,KiKit_MB_15_6*%
X40000000Y-160583333D03*
%TD*%
%TO.C,KiKit_MB_3_6*%
X380000000Y-69309524D03*
%TD*%
%TO.C,KiKit_MB_9_6*%
X107357143Y-156000000D03*
%TD*%
%TO.C,KiKit_MB_15_5*%
X40000000Y-160166666D03*
%TD*%
%TO.C,KiKit_MB_4_4*%
X380000000Y-112119047D03*
%TD*%
D11*
%TO.C,SW35*%
X193352500Y-83343000D03*
D12*
X194622500Y-80803000D03*
D13*
X198432500Y-83343000D03*
D12*
X200972500Y-78263000D03*
D11*
X203512500Y-83343000D03*
D14*
X191347500Y-80803000D03*
X204274500Y-78263000D03*
%TD*%
D16*
%TO.C,*%
X375638000Y-27355000D03*
%TD*%
D15*
%TO.C,KiKit_MB_20_1*%
X382000000Y-156000000D03*
%TD*%
D11*
%TO.C,SW38*%
X250502500Y-83343000D03*
D12*
X251772500Y-80803000D03*
D13*
X255582500Y-83343000D03*
D12*
X258122500Y-78263000D03*
D11*
X260662500Y-83343000D03*
D14*
X248497500Y-80803000D03*
X261424500Y-78263000D03*
%TD*%
D11*
%TO.C,SW46*%
X140964500Y-102393000D03*
D12*
X142234500Y-99853000D03*
D13*
X146044500Y-102393000D03*
D12*
X148584500Y-97313000D03*
D11*
X151124500Y-102393000D03*
D14*
X138959500Y-99853000D03*
X151886500Y-97313000D03*
%TD*%
D15*
%TO.C,KiKit_MB_19_1*%
X382000000Y-25000000D03*
%TD*%
D19*
%TO.C,SW73*%
X127000600Y-133508000D03*
D13*
X127000600Y-148748000D03*
D11*
X171920500Y-140493000D03*
D12*
X173190500Y-137953000D03*
D13*
X177000500Y-140493000D03*
D12*
X179540500Y-135413000D03*
D11*
X182080500Y-140493000D03*
D19*
X227000400Y-133508000D03*
D13*
X227000400Y-148748000D03*
D14*
X169915500Y-137953000D03*
X182842500Y-135413000D03*
%TD*%
D15*
%TO.C,KiKit_MB_17_1*%
X35500000Y-25000000D03*
%TD*%
%TO.C,KiKit_MB_15_7*%
X40000000Y-161000000D03*
%TD*%
%TO.C,KiKit_MB_2_2*%
X40000000Y-113404761D03*
%TD*%
%TO.C,KiKit_MB_14_2*%
X380000000Y-20416667D03*
%TD*%
D11*
%TO.C,SW1*%
X50438000Y-40523000D03*
D12*
X51708000Y-37983000D03*
D13*
X55518000Y-40523000D03*
D12*
X58058000Y-35443000D03*
D11*
X60598000Y-40523000D03*
D14*
X48433000Y-37983000D03*
X61360000Y-35443000D03*
%TD*%
D11*
%TO.C,SW45*%
X121914500Y-102393000D03*
D12*
X123184500Y-99853000D03*
D13*
X126994500Y-102393000D03*
D12*
X129534500Y-97313000D03*
D11*
X132074500Y-102393000D03*
D14*
X119909500Y-99853000D03*
X132836500Y-97313000D03*
%TD*%
D16*
%TO.C,*%
X375645000Y-153630000D03*
%TD*%
D15*
%TO.C,KiKit_MB_17_3*%
X36333334Y-25000000D03*
%TD*%
%TO.C,KiKit_MB_19_3*%
X382833333Y-25000000D03*
%TD*%
D11*
%TO.C,SW59*%
X131439500Y-121443000D03*
D12*
X132709500Y-118903000D03*
D13*
X136519500Y-121443000D03*
D12*
X139059500Y-116363000D03*
D11*
X141599500Y-121443000D03*
D14*
X129434500Y-118903000D03*
X142361500Y-116363000D03*
%TD*%
D11*
%TO.C,SW64*%
X226689500Y-121443000D03*
D12*
X227959500Y-118903000D03*
D13*
X231769500Y-121443000D03*
D12*
X234309500Y-116363000D03*
D11*
X236849500Y-121443000D03*
D14*
X224684500Y-118903000D03*
X237611500Y-116363000D03*
%TD*%
D15*
%TO.C,KiKit_MB_1_6*%
X40000000Y-68023810D03*
%TD*%
D11*
%TO.C,SW31*%
X117152500Y-83343000D03*
D12*
X118422500Y-80803000D03*
D13*
X122232500Y-83343000D03*
D12*
X124772500Y-78263000D03*
D11*
X127312500Y-83343000D03*
D14*
X115147500Y-80803000D03*
X128074500Y-78263000D03*
%TD*%
D15*
%TO.C,KiKit_MB_10_8*%
X174500000Y-156000000D03*
%TD*%
%TO.C,KiKit_MB_6_1*%
X174500000Y-25000000D03*
%TD*%
%TO.C,KiKit_MB_5_5*%
X108214286Y-25000000D03*
%TD*%
%TO.C,KiKit_MB_2_5*%
X40000000Y-112119047D03*
%TD*%
D11*
%TO.C,SW39*%
X269552500Y-83343000D03*
D12*
X270822500Y-80803000D03*
D13*
X274632500Y-83343000D03*
D12*
X277172500Y-78263000D03*
D11*
X279712500Y-83343000D03*
D14*
X267547500Y-80803000D03*
X280474500Y-78263000D03*
%TD*%
D15*
%TO.C,KiKit_MB_7_1*%
X242500000Y-25000000D03*
%TD*%
D11*
%TO.C,SW12*%
X272513000Y-40501000D03*
D12*
X273783000Y-37961000D03*
D13*
X277593000Y-40501000D03*
D12*
X280133000Y-35421000D03*
D11*
X282673000Y-40501000D03*
D14*
X270508000Y-37961000D03*
X283435000Y-35421000D03*
%TD*%
D15*
%TO.C,KiKit_MB_20_3*%
X382833333Y-156000000D03*
%TD*%
%TO.C,KiKit_MB_10_1*%
X177500000Y-156000000D03*
%TD*%
D11*
%TO.C,SW74*%
X240976500Y-140493000D03*
D12*
X242246500Y-137953000D03*
D13*
X246056500Y-140493000D03*
D12*
X248596500Y-135413000D03*
D11*
X251136500Y-140493000D03*
D14*
X238971500Y-137953000D03*
X251898500Y-135413000D03*
%TD*%
D15*
%TO.C,KiKit_MB_10_4*%
X176214286Y-156000000D03*
%TD*%
%TO.C,KiKit_MB_1_4*%
X40000000Y-68880953D03*
%TD*%
%TO.C,KiKit_MB_18_6*%
X37583334Y-156000000D03*
%TD*%
D11*
%TO.C,SW2*%
X73663000Y-40501000D03*
D12*
X74933000Y-37961000D03*
D13*
X78743000Y-40501000D03*
D12*
X81283000Y-35421000D03*
D11*
X83823000Y-40501000D03*
D14*
X71658000Y-37961000D03*
X84585000Y-35421000D03*
%TD*%
D15*
%TO.C,KiKit_MB_12_4*%
X312214285Y-156000000D03*
%TD*%
%TO.C,KiKit_MB_5_3*%
X107357143Y-25000000D03*
%TD*%
D11*
%TO.C,SW15*%
X69527000Y-64293000D03*
D12*
X70797000Y-61753000D03*
D13*
X74607000Y-64293000D03*
D12*
X77147000Y-59213000D03*
D11*
X79687000Y-64293000D03*
D14*
X67522000Y-61753000D03*
X80449000Y-59213000D03*
%TD*%
D11*
%TO.C,SW82*%
X359721000Y-64284000D03*
D12*
X360991000Y-61744000D03*
D13*
X364801000Y-64284000D03*
D12*
X367341000Y-59204000D03*
D11*
X369881000Y-64284000D03*
D14*
X357716000Y-61744000D03*
X370643000Y-59204000D03*
%TD*%
D15*
%TO.C,KiKit_MB_13_3*%
X40000000Y-20833334D03*
%TD*%
D11*
%TO.C,SW14*%
X50477000Y-64293000D03*
D12*
X51747000Y-61753000D03*
D13*
X55557000Y-64293000D03*
D12*
X58097000Y-59213000D03*
D11*
X60637000Y-64293000D03*
D14*
X48472000Y-61753000D03*
X61399000Y-59213000D03*
%TD*%
D16*
%TO.C,*%
X110306000Y-27355000D03*
%TD*%
D11*
%TO.C,SW37*%
X231452500Y-83343000D03*
D12*
X232722500Y-80803000D03*
D13*
X236532500Y-83343000D03*
D12*
X239072500Y-78263000D03*
D11*
X241612500Y-83343000D03*
D14*
X229447500Y-80803000D03*
X242374500Y-78263000D03*
%TD*%
D11*
%TO.C,SW80*%
X340671000Y-64284000D03*
D12*
X341941000Y-61744000D03*
D13*
X345751000Y-64284000D03*
D12*
X348291000Y-59204000D03*
D11*
X350831000Y-64284000D03*
D14*
X338666000Y-61744000D03*
X351593000Y-59204000D03*
%TD*%
D11*
%TO.C,SW61*%
X169539500Y-121443000D03*
D12*
X170809500Y-118903000D03*
D13*
X174619500Y-121443000D03*
D12*
X177159500Y-116363000D03*
D11*
X179699500Y-121443000D03*
D14*
X167534500Y-118903000D03*
X180461500Y-116363000D03*
%TD*%
D15*
%TO.C,KiKit_MB_3_4*%
X380000000Y-68452381D03*
%TD*%
D11*
%TO.C,SW77*%
X304110000Y-141982000D03*
D12*
X305380000Y-139442000D03*
D13*
X309190000Y-141982000D03*
D12*
X311730000Y-136902000D03*
D11*
X314270000Y-141982000D03*
D14*
X302105000Y-139442000D03*
X315032000Y-136902000D03*
%TD*%
D20*
%TO.C,USB1*%
X212873000Y-30703500D03*
X207093000Y-30703500D03*
D21*
X214303000Y-31233500D03*
D22*
X214303000Y-27053500D03*
D21*
X205663000Y-31233500D03*
D22*
X205663000Y-27053500D03*
%TD*%
D15*
%TO.C,KiKit_MB_7_4*%
X243785714Y-25000000D03*
%TD*%
D11*
%TO.C,SW24*%
X240977000Y-64293000D03*
D12*
X242247000Y-61753000D03*
D13*
X246057000Y-64293000D03*
D12*
X248597000Y-59213000D03*
D11*
X251137000Y-64293000D03*
D14*
X238972000Y-61753000D03*
X251899000Y-59213000D03*
%TD*%
D15*
%TO.C,KiKit_MB_11_1*%
X245500000Y-156000000D03*
%TD*%
%TO.C,KiKit_MB_19_7*%
X384500000Y-25000000D03*
%TD*%
%TO.C,KiKit_MB_5_2*%
X106928572Y-25000000D03*
%TD*%
%TO.C,KiKit_MB_8_5*%
X312214285Y-25000000D03*
%TD*%
D11*
%TO.C,SW62*%
X188589500Y-121443000D03*
D12*
X189859500Y-118903000D03*
D13*
X193669500Y-121443000D03*
D12*
X196209500Y-116363000D03*
D11*
X198749500Y-121443000D03*
D14*
X186584500Y-118903000D03*
X199511500Y-116363000D03*
%TD*%
D15*
%TO.C,KiKit_MB_8_7*%
X313071428Y-25000000D03*
%TD*%
%TO.C,KiKit_MB_8_6*%
X312642857Y-25000000D03*
%TD*%
%TO.C,KiKit_MB_13_7*%
X40000000Y-22500000D03*
%TD*%
%TO.C,KiKit_MB_5_4*%
X107785715Y-25000000D03*
%TD*%
D11*
%TO.C,SW81*%
X340671000Y-83334000D03*
D12*
X341941000Y-80794000D03*
D13*
X345751000Y-83334000D03*
D12*
X348291000Y-78254000D03*
D11*
X350831000Y-83334000D03*
D14*
X338666000Y-80794000D03*
X351593000Y-78254000D03*
%TD*%
D15*
%TO.C,KiKit_MB_20_2*%
X382416666Y-156000000D03*
%TD*%
D11*
%TO.C,SW49*%
X198114500Y-102393000D03*
D12*
X199384500Y-99853000D03*
D13*
X203194500Y-102393000D03*
D12*
X205734500Y-97313000D03*
D11*
X208274500Y-102393000D03*
D14*
X196109500Y-99853000D03*
X209036500Y-97313000D03*
%TD*%
D15*
%TO.C,KiKit_MB_6_5*%
X176214286Y-25000000D03*
%TD*%
%TO.C,KiKit_MB_16_3*%
X380000000Y-159333333D03*
%TD*%
%TO.C,KiKit_MB_12_5*%
X311785714Y-156000000D03*
%TD*%
D11*
%TO.C,SW47*%
X160014500Y-102393000D03*
D12*
X161284500Y-99853000D03*
D13*
X165094500Y-102393000D03*
D12*
X167634500Y-97313000D03*
D11*
X170174500Y-102393000D03*
D14*
X158009500Y-99853000D03*
X170936500Y-97313000D03*
%TD*%
D11*
%TO.C,SW26*%
X279077000Y-64293000D03*
D12*
X280347000Y-61753000D03*
D13*
X284157000Y-64293000D03*
D12*
X286697000Y-59213000D03*
D11*
X289237000Y-64293000D03*
D14*
X277072000Y-61753000D03*
X289999000Y-59213000D03*
%TD*%
D15*
%TO.C,KiKit_MB_11_2*%
X245071428Y-156000000D03*
%TD*%
%TO.C,KiKit_MB_6_2*%
X174928572Y-25000000D03*
%TD*%
D11*
%TO.C,SW4*%
X111763000Y-40501000D03*
D12*
X113033000Y-37961000D03*
D13*
X116843000Y-40501000D03*
D12*
X119383000Y-35421000D03*
D11*
X121923000Y-40501000D03*
D14*
X109758000Y-37961000D03*
X122685000Y-35421000D03*
%TD*%
D11*
%TO.C,SW33*%
X155252500Y-83343000D03*
D12*
X156522500Y-80803000D03*
D13*
X160332500Y-83343000D03*
D12*
X162872500Y-78263000D03*
D11*
X165412500Y-83343000D03*
D14*
X153247500Y-80803000D03*
X166174500Y-78263000D03*
%TD*%
D11*
%TO.C,SW32*%
X136202500Y-83343000D03*
D12*
X137472500Y-80803000D03*
D13*
X141282500Y-83343000D03*
D12*
X143822500Y-78263000D03*
D11*
X146362500Y-83343000D03*
D14*
X134197500Y-80803000D03*
X147124500Y-78263000D03*
%TD*%
D15*
%TO.C,KiKit_MB_13_6*%
X40000000Y-22083334D03*
%TD*%
%TO.C,KiKit_MB_9_5*%
X107785715Y-156000000D03*
%TD*%
D11*
%TO.C,SW19*%
X145727000Y-64293000D03*
D12*
X146997000Y-61753000D03*
D13*
X150807000Y-64293000D03*
D12*
X153347000Y-59213000D03*
D11*
X155887000Y-64293000D03*
D14*
X143722000Y-61753000D03*
X156649000Y-59213000D03*
%TD*%
D11*
%TO.C,SW66*%
X264789500Y-121443000D03*
D12*
X266059500Y-118903000D03*
D13*
X269869500Y-121443000D03*
D12*
X272409500Y-116363000D03*
D11*
X274949500Y-121443000D03*
D14*
X262784500Y-118903000D03*
X275711500Y-116363000D03*
%TD*%
D15*
%TO.C,KiKit_MB_16_4*%
X380000000Y-159750000D03*
%TD*%
%TO.C,KiKit_MB_8_3*%
X311357142Y-25000000D03*
%TD*%
D11*
%TO.C,SW44*%
X102864500Y-102393000D03*
D12*
X104134500Y-99853000D03*
D13*
X107944500Y-102393000D03*
D12*
X110484500Y-97313000D03*
D11*
X113024500Y-102393000D03*
D14*
X100859500Y-99853000D03*
X113786500Y-97313000D03*
%TD*%
D15*
%TO.C,KiKit_MB_9_8*%
X106500000Y-156000000D03*
%TD*%
%TO.C,KiKit_MB_10_3*%
X176642858Y-156000000D03*
%TD*%
%TO.C,KiKit_MB_7_7*%
X245071428Y-25000000D03*
%TD*%
D16*
%TO.C,*%
X242972000Y-27355000D03*
%TD*%
D15*
%TO.C,KiKit_MB_13_5*%
X40000000Y-21666667D03*
%TD*%
%TO.C,KiKit_MB_16_1*%
X380000000Y-158500000D03*
%TD*%
%TO.C,KiKit_MB_20_4*%
X383250000Y-156000000D03*
%TD*%
D11*
%TO.C,SW71*%
X76669500Y-140493000D03*
D12*
X77939500Y-137953000D03*
D13*
X81749500Y-140493000D03*
D12*
X84289500Y-135413000D03*
D11*
X86829500Y-140493000D03*
D14*
X74664500Y-137953000D03*
X87591500Y-135413000D03*
%TD*%
D15*
%TO.C,KiKit_MB_17_5*%
X37166667Y-25000000D03*
%TD*%
D11*
%TO.C,SW5*%
X130813000Y-40501000D03*
D12*
X132083000Y-37961000D03*
D13*
X135893000Y-40501000D03*
D12*
X138433000Y-35421000D03*
D11*
X140973000Y-40501000D03*
D14*
X128808000Y-37961000D03*
X141735000Y-35421000D03*
%TD*%
D15*
%TO.C,KiKit_MB_10_6*%
X175357143Y-156000000D03*
%TD*%
%TO.C,KiKit_MB_17_4*%
X36750000Y-25000000D03*
%TD*%
D23*
%TO.C,ROTARY1*%
X347202000Y-38583000D03*
D24*
X347202000Y-43583000D03*
X347202000Y-41083000D03*
D25*
X354702000Y-35483000D03*
X354702000Y-46683000D03*
D24*
X361702000Y-43583000D03*
X361702000Y-38583000D03*
%TD*%
D15*
%TO.C,KiKit_MB_5_6*%
X108642858Y-25000000D03*
%TD*%
D11*
%TO.C,SW60*%
X150489500Y-121443000D03*
D12*
X151759500Y-118903000D03*
D13*
X155569500Y-121443000D03*
D12*
X158109500Y-116363000D03*
D11*
X160649500Y-121443000D03*
D14*
X148484500Y-118903000D03*
X161411500Y-116363000D03*
%TD*%
D15*
%TO.C,KiKit_MB_8_8*%
X313500000Y-25000000D03*
%TD*%
D19*
%TO.C,SW55*%
X298412500Y-95408000D03*
D13*
X298412500Y-110648000D03*
D11*
X305270500Y-102393000D03*
D12*
X306540500Y-99853000D03*
D13*
X310350500Y-102393000D03*
D12*
X312890500Y-97313000D03*
D11*
X315430500Y-102393000D03*
D19*
X322288500Y-95408000D03*
D13*
X322288500Y-110648000D03*
D14*
X303265500Y-99853000D03*
X316192500Y-97313000D03*
%TD*%
D11*
%TO.C,SW53*%
X274314500Y-102393000D03*
D12*
X275584500Y-99853000D03*
D13*
X279394500Y-102393000D03*
D12*
X281934500Y-97313000D03*
D11*
X284474500Y-102393000D03*
D14*
X272309500Y-99853000D03*
X285236500Y-97313000D03*
%TD*%
D16*
%TO.C,*%
X309312000Y-153630000D03*
%TD*%
%TO.C,*%
X309305000Y-27355000D03*
%TD*%
D15*
%TO.C,KiKit_MB_9_3*%
X108642858Y-156000000D03*
%TD*%
%TO.C,KiKit_MB_4_8*%
X380000000Y-113833333D03*
%TD*%
D16*
%TO.C,*%
X242979000Y-153630000D03*
%TD*%
D15*
%TO.C,KiKit_MB_13_2*%
X40000000Y-20416667D03*
%TD*%
D11*
%TO.C,SW36*%
X212402500Y-83343000D03*
D12*
X213672500Y-80803000D03*
D13*
X217482500Y-83343000D03*
D12*
X220022500Y-78263000D03*
D11*
X222562500Y-83343000D03*
D14*
X210397500Y-80803000D03*
X223324500Y-78263000D03*
%TD*%
D15*
%TO.C,KiKit_MB_2_3*%
X40000000Y-112976190D03*
%TD*%
D11*
%TO.C,SW9*%
X211188000Y-40501000D03*
D12*
X212458000Y-37961000D03*
D13*
X216268000Y-40501000D03*
D12*
X218808000Y-35421000D03*
D11*
X221348000Y-40501000D03*
D14*
X209183000Y-37961000D03*
X222110000Y-35421000D03*
%TD*%
D15*
%TO.C,KiKit_MB_1_3*%
X40000000Y-69309524D03*
%TD*%
%TO.C,KiKit_MB_20_6*%
X384083333Y-156000000D03*
%TD*%
%TO.C,KiKit_MB_1_8*%
X40000000Y-67166667D03*
%TD*%
%TO.C,KiKit_MB_4_6*%
X380000000Y-112976190D03*
%TD*%
%TO.C,KiKit_MB_12_3*%
X312642857Y-156000000D03*
%TD*%
%TO.C,KiKit_MB_12_7*%
X310928571Y-156000000D03*
%TD*%
D11*
%TO.C,SW30*%
X98102500Y-83343000D03*
D12*
X99372500Y-80803000D03*
D13*
X103182500Y-83343000D03*
D12*
X105722500Y-78263000D03*
D11*
X108262500Y-83343000D03*
D14*
X96097500Y-80803000D03*
X109024500Y-78263000D03*
%TD*%
D15*
%TO.C,KiKit_MB_1_5*%
X40000000Y-68452381D03*
%TD*%
D16*
%TO.C,*%
X336021000Y-52560000D03*
%TD*%
D15*
%TO.C,KiKit_MB_6_3*%
X175357143Y-25000000D03*
%TD*%
D11*
%TO.C,SW50*%
X217164500Y-102393000D03*
D12*
X218434500Y-99853000D03*
D13*
X222244500Y-102393000D03*
D12*
X224784500Y-97313000D03*
D11*
X227324500Y-102393000D03*
D14*
X215159500Y-99853000D03*
X228086500Y-97313000D03*
%TD*%
D15*
%TO.C,KiKit_MB_10_2*%
X177071429Y-156000000D03*
%TD*%
D11*
%TO.C,SW51*%
X236214500Y-102393000D03*
D12*
X237484500Y-99853000D03*
D13*
X241294500Y-102393000D03*
D12*
X243834500Y-97313000D03*
D11*
X246374500Y-102393000D03*
D14*
X234209500Y-99853000D03*
X247136500Y-97313000D03*
%TD*%
D11*
%TO.C,SW58*%
X112389500Y-121443000D03*
D12*
X113659500Y-118903000D03*
D13*
X117469500Y-121443000D03*
D12*
X120009500Y-116363000D03*
D11*
X122549500Y-121443000D03*
D14*
X110384500Y-118903000D03*
X123311500Y-116363000D03*
%TD*%
D11*
%TO.C,SW65*%
X245739500Y-121443000D03*
D12*
X247009500Y-118903000D03*
D13*
X250819500Y-121443000D03*
D12*
X253359500Y-116363000D03*
D11*
X255899500Y-121443000D03*
D14*
X243734500Y-118903000D03*
X256661500Y-116363000D03*
%TD*%
D11*
%TO.C,SW84*%
X342210000Y-141982000D03*
D12*
X343480000Y-139442000D03*
D13*
X347290000Y-141982000D03*
D12*
X349830000Y-136902000D03*
D11*
X352370000Y-141982000D03*
D14*
X340205000Y-139442000D03*
X353132000Y-136902000D03*
%TD*%
D15*
%TO.C,KiKit_MB_4_5*%
X380000000Y-112547619D03*
%TD*%
%TO.C,KiKit_MB_18_1*%
X35500000Y-156000000D03*
%TD*%
%TO.C,KiKit_MB_15_2*%
X40000000Y-158916666D03*
%TD*%
D11*
%TO.C,SW70*%
X52856500Y-140493000D03*
D12*
X54126500Y-137953000D03*
D13*
X57936500Y-140493000D03*
D12*
X60476500Y-135413000D03*
D11*
X63016500Y-140493000D03*
D14*
X50851500Y-137953000D03*
X63778500Y-135413000D03*
%TD*%
D16*
%TO.C,*%
X43973000Y-27355000D03*
%TD*%
D11*
%TO.C,SW29*%
X79052500Y-83343000D03*
D12*
X80322500Y-80803000D03*
D13*
X84132500Y-83343000D03*
D12*
X86672500Y-78263000D03*
D11*
X89212500Y-83343000D03*
D14*
X77047500Y-80803000D03*
X89974500Y-78263000D03*
%TD*%
D11*
%TO.C,SW10*%
X234413000Y-40501000D03*
D12*
X235683000Y-37961000D03*
D13*
X239493000Y-40501000D03*
D12*
X242033000Y-35421000D03*
D11*
X244573000Y-40501000D03*
D14*
X232408000Y-37961000D03*
X245335000Y-35421000D03*
%TD*%
D15*
%TO.C,KiKit_MB_14_1*%
X380000000Y-20000000D03*
%TD*%
%TO.C,KiKit_MB_14_6*%
X380000000Y-22083334D03*
%TD*%
%TO.C,KiKit_MB_9_2*%
X109071429Y-156000000D03*
%TD*%
%TO.C,KiKit_MB_6_7*%
X177071429Y-25000000D03*
%TD*%
%TO.C,KiKit_MB_14_7*%
X380000000Y-22500000D03*
%TD*%
%TO.C,KiKit_MB_7_8*%
X245500000Y-25000000D03*
%TD*%
D11*
%TO.C,SW34*%
X174302500Y-83343000D03*
D12*
X175572500Y-80803000D03*
D13*
X179382500Y-83343000D03*
D12*
X181922500Y-78263000D03*
D11*
X184462500Y-83343000D03*
D14*
X172297500Y-80803000D03*
X185224500Y-78263000D03*
%TD*%
D11*
%TO.C,SW16*%
X88577000Y-64293000D03*
D12*
X89847000Y-61753000D03*
D13*
X93657000Y-64293000D03*
D12*
X96197000Y-59213000D03*
D11*
X98737000Y-64293000D03*
D14*
X86572000Y-61753000D03*
X99499000Y-59213000D03*
%TD*%
D11*
%TO.C,SW17*%
X107627000Y-64293000D03*
D12*
X108897000Y-61753000D03*
D13*
X112707000Y-64293000D03*
D12*
X115247000Y-59213000D03*
D11*
X117787000Y-64293000D03*
D14*
X105622000Y-61753000D03*
X118549000Y-59213000D03*
%TD*%
D15*
%TO.C,KiKit_MB_8_1*%
X310500000Y-25000000D03*
%TD*%
%TO.C,KiKit_MB_11_3*%
X244642857Y-156000000D03*
%TD*%
%TO.C,KiKit_MB_1_7*%
X40000000Y-67595239D03*
%TD*%
D11*
%TO.C,SW52*%
X255264500Y-102393000D03*
D12*
X256534500Y-99853000D03*
D13*
X260344500Y-102393000D03*
D12*
X262884500Y-97313000D03*
D11*
X265424500Y-102393000D03*
D14*
X253259500Y-99853000D03*
X266186500Y-97313000D03*
%TD*%
D15*
%TO.C,KiKit_MB_10_7*%
X174928572Y-156000000D03*
%TD*%
%TO.C,KiKit_MB_6_8*%
X177500000Y-25000000D03*
%TD*%
%TO.C,KiKit_MB_11_4*%
X244214285Y-156000000D03*
%TD*%
D11*
%TO.C,SW7*%
X173088000Y-40501000D03*
D12*
X174358000Y-37961000D03*
D13*
X178168000Y-40501000D03*
D12*
X180708000Y-35421000D03*
D11*
X183248000Y-40501000D03*
D14*
X171083000Y-37961000D03*
X184010000Y-35421000D03*
%TD*%
D15*
%TO.C,KiKit_MB_19_2*%
X382416666Y-25000000D03*
%TD*%
D11*
%TO.C,SW3*%
X92713000Y-40501000D03*
D12*
X93983000Y-37961000D03*
D13*
X97793000Y-40501000D03*
D12*
X100333000Y-35421000D03*
D11*
X102873000Y-40501000D03*
D14*
X90708000Y-37961000D03*
X103635000Y-35421000D03*
%TD*%
D15*
%TO.C,KiKit_MB_12_1*%
X313500000Y-156000000D03*
%TD*%
%TO.C,KiKit_MB_1_2*%
X40000000Y-69738096D03*
%TD*%
%TO.C,KiKit_MB_6_6*%
X176642858Y-25000000D03*
%TD*%
%TO.C,KiKit_MB_13_1*%
X40000000Y-20000000D03*
%TD*%
%TO.C,KiKit_MB_4_1*%
X380000000Y-110833333D03*
%TD*%
%TO.C,KiKit_MB_1_1*%
X40000000Y-70166667D03*
%TD*%
%TO.C,KiKit_MB_5_7*%
X109071429Y-25000000D03*
%TD*%
%TO.C,KiKit_MB_12_6*%
X311357142Y-156000000D03*
%TD*%
%TO.C,KiKit_MB_12_2*%
X313071428Y-156000000D03*
%TD*%
%TO.C,KiKit_MB_20_5*%
X383666666Y-156000000D03*
%TD*%
%TO.C,KiKit_MB_17_2*%
X35916667Y-25000000D03*
%TD*%
%TO.C,KiKit_MB_7_5*%
X244214285Y-25000000D03*
%TD*%
D11*
%TO.C,SW76*%
X279076500Y-140493000D03*
D12*
X280346500Y-137953000D03*
D13*
X284156500Y-140493000D03*
D12*
X286696500Y-135413000D03*
D11*
X289236500Y-140493000D03*
D14*
X277071500Y-137953000D03*
X289998500Y-135413000D03*
%TD*%
D15*
%TO.C,KiKit_MB_3_5*%
X380000000Y-68880953D03*
%TD*%
%TO.C,KiKit_MB_11_6*%
X243357142Y-156000000D03*
%TD*%
D11*
%TO.C,SW41*%
X312415500Y-83343000D03*
D12*
X313685500Y-80803000D03*
D13*
X317495500Y-83343000D03*
D12*
X320035500Y-78263000D03*
D11*
X322575500Y-83343000D03*
D14*
X310410500Y-80803000D03*
X323337500Y-78263000D03*
%TD*%
D15*
%TO.C,KiKit_MB_15_1*%
X40000000Y-158500000D03*
%TD*%
%TO.C,KiKit_MB_16_6*%
X380000000Y-160583333D03*
%TD*%
D11*
%TO.C,SW75*%
X260026500Y-140493000D03*
D12*
X261296500Y-137953000D03*
D13*
X265106500Y-140493000D03*
D12*
X267646500Y-135413000D03*
D11*
X270186500Y-140493000D03*
D14*
X258021500Y-137953000D03*
X270948500Y-135413000D03*
%TD*%
D15*
%TO.C,KiKit_MB_2_1*%
X40000000Y-113833333D03*
%TD*%
D19*
%TO.C,SW27*%
X300794000Y-57308000D03*
D13*
X300794000Y-72548000D03*
D11*
X307652000Y-64293000D03*
D12*
X308922000Y-61753000D03*
D13*
X312732000Y-64293000D03*
D12*
X315272000Y-59213000D03*
D11*
X317812000Y-64293000D03*
D19*
X324670000Y-57308000D03*
D13*
X324670000Y-72548000D03*
D14*
X305647000Y-61753000D03*
X318574000Y-59213000D03*
%TD*%
D15*
%TO.C,KiKit_MB_17_7*%
X38000000Y-25000000D03*
%TD*%
%TO.C,KiKit_MB_14_3*%
X380000000Y-20833334D03*
%TD*%
D11*
%TO.C,SW11*%
X253463000Y-40501000D03*
D12*
X254733000Y-37961000D03*
D13*
X258543000Y-40501000D03*
D12*
X261083000Y-35421000D03*
D11*
X263623000Y-40501000D03*
D14*
X251458000Y-37961000D03*
X264385000Y-35421000D03*
%TD*%
D11*
%TO.C,SW21*%
X183827000Y-64293000D03*
D12*
X185097000Y-61753000D03*
D13*
X188907000Y-64293000D03*
D12*
X191447000Y-59213000D03*
D11*
X193987000Y-64293000D03*
D14*
X181822000Y-61753000D03*
X194749000Y-59213000D03*
%TD*%
D15*
%TO.C,KiKit_MB_17_6*%
X37583334Y-25000000D03*
%TD*%
%TO.C,KiKit_MB_2_4*%
X40000000Y-112547619D03*
%TD*%
%TO.C,KiKit_MB_4_7*%
X380000000Y-113404761D03*
%TD*%
D11*
%TO.C,SW78*%
X323160000Y-141982000D03*
D12*
X324430000Y-139442000D03*
D13*
X328240000Y-141982000D03*
D12*
X330780000Y-136902000D03*
D11*
X333320000Y-141982000D03*
D14*
X321155000Y-139442000D03*
X334082000Y-136902000D03*
%TD*%
D11*
%TO.C,SW22*%
X202877000Y-64293000D03*
D12*
X204147000Y-61753000D03*
D13*
X207957000Y-64293000D03*
D12*
X210497000Y-59213000D03*
D11*
X213037000Y-64293000D03*
D14*
X200872000Y-61753000D03*
X213799000Y-59213000D03*
%TD*%
D15*
%TO.C,KiKit_MB_5_1*%
X106500000Y-25000000D03*
%TD*%
%TO.C,KiKit_MB_19_6*%
X384083333Y-25000000D03*
%TD*%
%TO.C,KiKit_MB_3_1*%
X380000000Y-67166667D03*
%TD*%
%TO.C,KiKit_MB_18_2*%
X35916667Y-156000000D03*
%TD*%
D11*
%TO.C,SW42*%
X57620500Y-102393000D03*
D12*
X58890500Y-99853000D03*
D13*
X62700500Y-102393000D03*
D12*
X65240500Y-97313000D03*
D11*
X67780500Y-102393000D03*
D14*
X55615500Y-99853000D03*
X68542500Y-97313000D03*
%TD*%
D15*
%TO.C,KiKit_MB_20_7*%
X384500000Y-156000000D03*
%TD*%
D11*
%TO.C,SW13*%
X291563000Y-40501000D03*
D12*
X292833000Y-37961000D03*
D13*
X296643000Y-40501000D03*
D12*
X299183000Y-35421000D03*
D11*
X301723000Y-40501000D03*
D14*
X289558000Y-37961000D03*
X302485000Y-35421000D03*
%TD*%
D15*
%TO.C,KiKit_MB_14_5*%
X380000000Y-21666667D03*
%TD*%
D16*
%TO.C,*%
X176646000Y-153630000D03*
%TD*%
D19*
%TO.C,SW56*%
X55525500Y-114458000D03*
D13*
X55525500Y-129698000D03*
D11*
X62383500Y-121443000D03*
D12*
X63653500Y-118903000D03*
D13*
X67463500Y-121443000D03*
D12*
X70003500Y-116363000D03*
D11*
X72543500Y-121443000D03*
D19*
X79401500Y-114458000D03*
D13*
X79401500Y-129698000D03*
D14*
X60378500Y-118903000D03*
X73305500Y-116363000D03*
%TD*%
D15*
%TO.C,KiKit_MB_11_7*%
X242928571Y-156000000D03*
%TD*%
D11*
%TO.C,SW63*%
X207639500Y-121443000D03*
D12*
X208909500Y-118903000D03*
D13*
X212719500Y-121443000D03*
D12*
X215259500Y-116363000D03*
D11*
X217799500Y-121443000D03*
D14*
X205634500Y-118903000D03*
X218561500Y-116363000D03*
%TD*%
D15*
%TO.C,KiKit_MB_8_2*%
X310928571Y-25000000D03*
%TD*%
%TO.C,KiKit_MB_9_7*%
X106928572Y-156000000D03*
%TD*%
D11*
%TO.C,SW83*%
X359721000Y-83334000D03*
D12*
X360991000Y-80794000D03*
D13*
X364801000Y-83334000D03*
D12*
X367341000Y-78254000D03*
D11*
X369881000Y-83334000D03*
D14*
X357716000Y-80794000D03*
X370643000Y-78254000D03*
%TD*%
D15*
%TO.C,KiKit_MB_6_4*%
X175785715Y-25000000D03*
%TD*%
%TO.C,KiKit_MB_4_2*%
X380000000Y-111261904D03*
%TD*%
%TO.C,KiKit_MB_2_7*%
X40000000Y-111261904D03*
%TD*%
%TO.C,KiKit_MB_10_5*%
X175785715Y-156000000D03*
%TD*%
%TO.C,KiKit_MB_18_4*%
X36750000Y-156000000D03*
%TD*%
D11*
%TO.C,SW57*%
X93339500Y-121443000D03*
D12*
X94609500Y-118903000D03*
D13*
X98419500Y-121443000D03*
D12*
X100959500Y-116363000D03*
D11*
X103499500Y-121443000D03*
D14*
X91334500Y-118903000D03*
X104261500Y-116363000D03*
%TD*%
D15*
%TO.C,KiKit_MB_7_3*%
X243357142Y-25000000D03*
%TD*%
%TO.C,KiKit_MB_16_5*%
X380000000Y-160166666D03*
%TD*%
D16*
%TO.C,*%
X167961000Y-52473000D03*
%TD*%
D15*
%TO.C,KiKit_MB_3_3*%
X380000000Y-68023810D03*
%TD*%
%TO.C,KiKit_MB_15_3*%
X40000000Y-159333333D03*
%TD*%
%TO.C,KiKit_MB_7_2*%
X242928571Y-25000000D03*
%TD*%
D11*
%TO.C,SW54*%
X317157000Y-40481000D03*
D12*
X318427000Y-37941000D03*
D13*
X322237000Y-40481000D03*
D12*
X324777000Y-35401000D03*
D11*
X327317000Y-40481000D03*
D14*
X315152000Y-37941000D03*
X328079000Y-35401000D03*
%TD*%
D11*
%TO.C,SW18*%
X126677000Y-64293000D03*
D12*
X127947000Y-61753000D03*
D13*
X131757000Y-64293000D03*
D12*
X134297000Y-59213000D03*
D11*
X136837000Y-64293000D03*
D14*
X124672000Y-61753000D03*
X137599000Y-59213000D03*
%TD*%
D16*
%TO.C,REF\u002A\u002A*%
X43980000Y-153630000D03*
%TD*%
D15*
%TO.C,KiKit_MB_2_6*%
X40000000Y-111690476D03*
%TD*%
D11*
%TO.C,SW48*%
X179064500Y-102393000D03*
D12*
X180334500Y-99853000D03*
D13*
X184144500Y-102393000D03*
D12*
X186684500Y-97313000D03*
D11*
X189224500Y-102393000D03*
D14*
X177059500Y-99853000D03*
X189986500Y-97313000D03*
%TD*%
D15*
%TO.C,KiKit_MB_9_1*%
X109500000Y-156000000D03*
%TD*%
D11*
%TO.C,SW43*%
X83814500Y-102393000D03*
D12*
X85084500Y-99853000D03*
D13*
X88894500Y-102393000D03*
D12*
X91434500Y-97313000D03*
D11*
X93974500Y-102393000D03*
D14*
X81809500Y-99853000D03*
X94736500Y-97313000D03*
%TD*%
D15*
%TO.C,KiKit_MB_5_8*%
X109500000Y-25000000D03*
%TD*%
%TO.C,KiKit_MB_18_7*%
X38000000Y-156000000D03*
%TD*%
%TO.C,KiKit_MB_14_4*%
X380000000Y-21250000D03*
%TD*%
M02*
