%TF.GenerationSoftware,KiCad,Pcbnew,7.0.9*%
%TF.CreationDate,2024-09-10T22:02:23-04:00*%
%TF.ProjectId,panel,70616e65-6c2e-46b6-9963-61645f706362,0.1*%
%TF.SameCoordinates,Original*%
%TF.FileFunction,Legend,Bot*%
%TF.FilePolarity,Positive*%
%FSLAX46Y46*%
G04 Gerber Fmt 4.6, Leading zero omitted, Abs format (unit mm)*
G04 Created by KiCad (PCBNEW 7.0.9) date 2024-09-10 22:02:23*
%MOMM*%
%LPD*%
G01*
G04 APERTURE LIST*
%ADD10C,0.150000*%
G04 APERTURE END LIST*
D10*
X219913220Y-139532819D02*
X219913220Y-138532819D01*
X219913220Y-138532819D02*
X219579887Y-139247104D01*
X219579887Y-139247104D02*
X219246554Y-138532819D01*
X219246554Y-138532819D02*
X219246554Y-139532819D01*
X218579887Y-138532819D02*
X218389411Y-138532819D01*
X218389411Y-138532819D02*
X218294173Y-138580438D01*
X218294173Y-138580438D02*
X218198935Y-138675676D01*
X218198935Y-138675676D02*
X218151316Y-138866152D01*
X218151316Y-138866152D02*
X218151316Y-139199485D01*
X218151316Y-139199485D02*
X218198935Y-139389961D01*
X218198935Y-139389961D02*
X218294173Y-139485200D01*
X218294173Y-139485200D02*
X218389411Y-139532819D01*
X218389411Y-139532819D02*
X218579887Y-139532819D01*
X218579887Y-139532819D02*
X218675125Y-139485200D01*
X218675125Y-139485200D02*
X218770363Y-139389961D01*
X218770363Y-139389961D02*
X218817982Y-139199485D01*
X218817982Y-139199485D02*
X218817982Y-138866152D01*
X218817982Y-138866152D02*
X218770363Y-138675676D01*
X218770363Y-138675676D02*
X218675125Y-138580438D01*
X218675125Y-138580438D02*
X218579887Y-138532819D01*
X217722744Y-139532819D02*
X217722744Y-138532819D01*
X217722744Y-138532819D02*
X217484649Y-138532819D01*
X217484649Y-138532819D02*
X217341792Y-138580438D01*
X217341792Y-138580438D02*
X217246554Y-138675676D01*
X217246554Y-138675676D02*
X217198935Y-138770914D01*
X217198935Y-138770914D02*
X217151316Y-138961390D01*
X217151316Y-138961390D02*
X217151316Y-139104247D01*
X217151316Y-139104247D02*
X217198935Y-139294723D01*
X217198935Y-139294723D02*
X217246554Y-139389961D01*
X217246554Y-139389961D02*
X217341792Y-139485200D01*
X217341792Y-139485200D02*
X217484649Y-139532819D01*
X217484649Y-139532819D02*
X217722744Y-139532819D01*
X216722744Y-139009009D02*
X216389411Y-139009009D01*
X216246554Y-139532819D02*
X216722744Y-139532819D01*
X216722744Y-139532819D02*
X216722744Y-138532819D01*
X216722744Y-138532819D02*
X216246554Y-138532819D01*
X215341792Y-139532819D02*
X215817982Y-139532819D01*
X215817982Y-139532819D02*
X215817982Y-138532819D01*
X213913220Y-139009009D02*
X213770363Y-139056628D01*
X213770363Y-139056628D02*
X213722744Y-139104247D01*
X213722744Y-139104247D02*
X213675125Y-139199485D01*
X213675125Y-139199485D02*
X213675125Y-139342342D01*
X213675125Y-139342342D02*
X213722744Y-139437580D01*
X213722744Y-139437580D02*
X213770363Y-139485200D01*
X213770363Y-139485200D02*
X213865601Y-139532819D01*
X213865601Y-139532819D02*
X214246553Y-139532819D01*
X214246553Y-139532819D02*
X214246553Y-138532819D01*
X214246553Y-138532819D02*
X213913220Y-138532819D01*
X213913220Y-138532819D02*
X213817982Y-138580438D01*
X213817982Y-138580438D02*
X213770363Y-138628057D01*
X213770363Y-138628057D02*
X213722744Y-138723295D01*
X213722744Y-138723295D02*
X213722744Y-138818533D01*
X213722744Y-138818533D02*
X213770363Y-138913771D01*
X213770363Y-138913771D02*
X213817982Y-138961390D01*
X213817982Y-138961390D02*
X213913220Y-139009009D01*
X213913220Y-139009009D02*
X214246553Y-139009009D01*
X212484648Y-139151866D02*
X211722744Y-139151866D01*
X210627505Y-138532819D02*
X210294172Y-139532819D01*
X210294172Y-139532819D02*
X209960839Y-138532819D01*
X209103696Y-139532819D02*
X209675124Y-139532819D01*
X209389410Y-139532819D02*
X209389410Y-138532819D01*
X209389410Y-138532819D02*
X209484648Y-138675676D01*
X209484648Y-138675676D02*
X209579886Y-138770914D01*
X209579886Y-138770914D02*
X209675124Y-138818533D01*
X208675124Y-139437580D02*
X208627505Y-139485200D01*
X208627505Y-139485200D02*
X208675124Y-139532819D01*
X208675124Y-139532819D02*
X208722743Y-139485200D01*
X208722743Y-139485200D02*
X208675124Y-139437580D01*
X208675124Y-139437580D02*
X208675124Y-139532819D01*
X208008458Y-138532819D02*
X207913220Y-138532819D01*
X207913220Y-138532819D02*
X207817982Y-138580438D01*
X207817982Y-138580438D02*
X207770363Y-138628057D01*
X207770363Y-138628057D02*
X207722744Y-138723295D01*
X207722744Y-138723295D02*
X207675125Y-138913771D01*
X207675125Y-138913771D02*
X207675125Y-139151866D01*
X207675125Y-139151866D02*
X207722744Y-139342342D01*
X207722744Y-139342342D02*
X207770363Y-139437580D01*
X207770363Y-139437580D02*
X207817982Y-139485200D01*
X207817982Y-139485200D02*
X207913220Y-139532819D01*
X207913220Y-139532819D02*
X208008458Y-139532819D01*
X208008458Y-139532819D02*
X208103696Y-139485200D01*
X208103696Y-139485200D02*
X208151315Y-139437580D01*
X208151315Y-139437580D02*
X208198934Y-139342342D01*
X208198934Y-139342342D02*
X208246553Y-139151866D01*
X208246553Y-139151866D02*
X208246553Y-138913771D01*
X208246553Y-138913771D02*
X208198934Y-138723295D01*
X208198934Y-138723295D02*
X208151315Y-138628057D01*
X208151315Y-138628057D02*
X208103696Y-138580438D01*
X208103696Y-138580438D02*
X208008458Y-138532819D01*
X219579887Y-140619009D02*
X219437030Y-140666628D01*
X219437030Y-140666628D02*
X219389411Y-140714247D01*
X219389411Y-140714247D02*
X219341792Y-140809485D01*
X219341792Y-140809485D02*
X219341792Y-140952342D01*
X219341792Y-140952342D02*
X219389411Y-141047580D01*
X219389411Y-141047580D02*
X219437030Y-141095200D01*
X219437030Y-141095200D02*
X219532268Y-141142819D01*
X219532268Y-141142819D02*
X219913220Y-141142819D01*
X219913220Y-141142819D02*
X219913220Y-140142819D01*
X219913220Y-140142819D02*
X219579887Y-140142819D01*
X219579887Y-140142819D02*
X219484649Y-140190438D01*
X219484649Y-140190438D02*
X219437030Y-140238057D01*
X219437030Y-140238057D02*
X219389411Y-140333295D01*
X219389411Y-140333295D02*
X219389411Y-140428533D01*
X219389411Y-140428533D02*
X219437030Y-140523771D01*
X219437030Y-140523771D02*
X219484649Y-140571390D01*
X219484649Y-140571390D02*
X219579887Y-140619009D01*
X219579887Y-140619009D02*
X219913220Y-140619009D01*
X218913220Y-141142819D02*
X218913220Y-140476152D01*
X218913220Y-140666628D02*
X218865601Y-140571390D01*
X218865601Y-140571390D02*
X218817982Y-140523771D01*
X218817982Y-140523771D02*
X218722744Y-140476152D01*
X218722744Y-140476152D02*
X218627506Y-140476152D01*
X218294172Y-141142819D02*
X218294172Y-140476152D01*
X218294172Y-140142819D02*
X218341791Y-140190438D01*
X218341791Y-140190438D02*
X218294172Y-140238057D01*
X218294172Y-140238057D02*
X218246553Y-140190438D01*
X218246553Y-140190438D02*
X218294172Y-140142819D01*
X218294172Y-140142819D02*
X218294172Y-140238057D01*
X217389411Y-141142819D02*
X217389411Y-140619009D01*
X217389411Y-140619009D02*
X217437030Y-140523771D01*
X217437030Y-140523771D02*
X217532268Y-140476152D01*
X217532268Y-140476152D02*
X217722744Y-140476152D01*
X217722744Y-140476152D02*
X217817982Y-140523771D01*
X217389411Y-141095200D02*
X217484649Y-141142819D01*
X217484649Y-141142819D02*
X217722744Y-141142819D01*
X217722744Y-141142819D02*
X217817982Y-141095200D01*
X217817982Y-141095200D02*
X217865601Y-140999961D01*
X217865601Y-140999961D02*
X217865601Y-140904723D01*
X217865601Y-140904723D02*
X217817982Y-140809485D01*
X217817982Y-140809485D02*
X217722744Y-140761866D01*
X217722744Y-140761866D02*
X217484649Y-140761866D01*
X217484649Y-140761866D02*
X217389411Y-140714247D01*
X216913220Y-140476152D02*
X216913220Y-141142819D01*
X216913220Y-140571390D02*
X216865601Y-140523771D01*
X216865601Y-140523771D02*
X216770363Y-140476152D01*
X216770363Y-140476152D02*
X216627506Y-140476152D01*
X216627506Y-140476152D02*
X216532268Y-140523771D01*
X216532268Y-140523771D02*
X216484649Y-140619009D01*
X216484649Y-140619009D02*
X216484649Y-141142819D01*
X215246553Y-141142819D02*
X215246553Y-140142819D01*
X215246553Y-140619009D02*
X214675125Y-140619009D01*
X214675125Y-141142819D02*
X214675125Y-140142819D01*
X214198934Y-141142819D02*
X214198934Y-140476152D01*
X214198934Y-140142819D02*
X214246553Y-140190438D01*
X214246553Y-140190438D02*
X214198934Y-140238057D01*
X214198934Y-140238057D02*
X214151315Y-140190438D01*
X214151315Y-140190438D02*
X214198934Y-140142819D01*
X214198934Y-140142819D02*
X214198934Y-140238057D01*
X213579887Y-141142819D02*
X213675125Y-141095200D01*
X213675125Y-141095200D02*
X213722744Y-140999961D01*
X213722744Y-140999961D02*
X213722744Y-140142819D01*
X213056077Y-141142819D02*
X213151315Y-141095200D01*
X213151315Y-141095200D02*
X213198934Y-140999961D01*
X213198934Y-140999961D02*
X213198934Y-140142819D01*
X211960838Y-140238057D02*
X211913219Y-140190438D01*
X211913219Y-140190438D02*
X211817981Y-140142819D01*
X211817981Y-140142819D02*
X211579886Y-140142819D01*
X211579886Y-140142819D02*
X211484648Y-140190438D01*
X211484648Y-140190438D02*
X211437029Y-140238057D01*
X211437029Y-140238057D02*
X211389410Y-140333295D01*
X211389410Y-140333295D02*
X211389410Y-140428533D01*
X211389410Y-140428533D02*
X211437029Y-140571390D01*
X211437029Y-140571390D02*
X212008457Y-141142819D01*
X212008457Y-141142819D02*
X211389410Y-141142819D01*
X210770362Y-140142819D02*
X210675124Y-140142819D01*
X210675124Y-140142819D02*
X210579886Y-140190438D01*
X210579886Y-140190438D02*
X210532267Y-140238057D01*
X210532267Y-140238057D02*
X210484648Y-140333295D01*
X210484648Y-140333295D02*
X210437029Y-140523771D01*
X210437029Y-140523771D02*
X210437029Y-140761866D01*
X210437029Y-140761866D02*
X210484648Y-140952342D01*
X210484648Y-140952342D02*
X210532267Y-141047580D01*
X210532267Y-141047580D02*
X210579886Y-141095200D01*
X210579886Y-141095200D02*
X210675124Y-141142819D01*
X210675124Y-141142819D02*
X210770362Y-141142819D01*
X210770362Y-141142819D02*
X210865600Y-141095200D01*
X210865600Y-141095200D02*
X210913219Y-141047580D01*
X210913219Y-141047580D02*
X210960838Y-140952342D01*
X210960838Y-140952342D02*
X211008457Y-140761866D01*
X211008457Y-140761866D02*
X211008457Y-140523771D01*
X211008457Y-140523771D02*
X210960838Y-140333295D01*
X210960838Y-140333295D02*
X210913219Y-140238057D01*
X210913219Y-140238057D02*
X210865600Y-140190438D01*
X210865600Y-140190438D02*
X210770362Y-140142819D01*
X210056076Y-140238057D02*
X210008457Y-140190438D01*
X210008457Y-140190438D02*
X209913219Y-140142819D01*
X209913219Y-140142819D02*
X209675124Y-140142819D01*
X209675124Y-140142819D02*
X209579886Y-140190438D01*
X209579886Y-140190438D02*
X209532267Y-140238057D01*
X209532267Y-140238057D02*
X209484648Y-140333295D01*
X209484648Y-140333295D02*
X209484648Y-140428533D01*
X209484648Y-140428533D02*
X209532267Y-140571390D01*
X209532267Y-140571390D02*
X210103695Y-141142819D01*
X210103695Y-141142819D02*
X209484648Y-141142819D01*
X208627505Y-140476152D02*
X208627505Y-141142819D01*
X208865600Y-140095200D02*
X209103695Y-140809485D01*
X209103695Y-140809485D02*
X208484648Y-140809485D01*
X219913220Y-142752819D02*
X219913220Y-141752819D01*
X219484649Y-142752819D02*
X219484649Y-142229009D01*
X219484649Y-142229009D02*
X219532268Y-142133771D01*
X219532268Y-142133771D02*
X219627506Y-142086152D01*
X219627506Y-142086152D02*
X219770363Y-142086152D01*
X219770363Y-142086152D02*
X219865601Y-142133771D01*
X219865601Y-142133771D02*
X219913220Y-142181390D01*
X219151315Y-142086152D02*
X218770363Y-142086152D01*
X219008458Y-141752819D02*
X219008458Y-142609961D01*
X219008458Y-142609961D02*
X218960839Y-142705200D01*
X218960839Y-142705200D02*
X218865601Y-142752819D01*
X218865601Y-142752819D02*
X218770363Y-142752819D01*
X218579886Y-142086152D02*
X218198934Y-142086152D01*
X218437029Y-141752819D02*
X218437029Y-142609961D01*
X218437029Y-142609961D02*
X218389410Y-142705200D01*
X218389410Y-142705200D02*
X218294172Y-142752819D01*
X218294172Y-142752819D02*
X218198934Y-142752819D01*
X217865600Y-142086152D02*
X217865600Y-143086152D01*
X217865600Y-142133771D02*
X217770362Y-142086152D01*
X217770362Y-142086152D02*
X217579886Y-142086152D01*
X217579886Y-142086152D02*
X217484648Y-142133771D01*
X217484648Y-142133771D02*
X217437029Y-142181390D01*
X217437029Y-142181390D02*
X217389410Y-142276628D01*
X217389410Y-142276628D02*
X217389410Y-142562342D01*
X217389410Y-142562342D02*
X217437029Y-142657580D01*
X217437029Y-142657580D02*
X217484648Y-142705200D01*
X217484648Y-142705200D02*
X217579886Y-142752819D01*
X217579886Y-142752819D02*
X217770362Y-142752819D01*
X217770362Y-142752819D02*
X217865600Y-142705200D01*
X217008457Y-142705200D02*
X216913219Y-142752819D01*
X216913219Y-142752819D02*
X216722743Y-142752819D01*
X216722743Y-142752819D02*
X216627505Y-142705200D01*
X216627505Y-142705200D02*
X216579886Y-142609961D01*
X216579886Y-142609961D02*
X216579886Y-142562342D01*
X216579886Y-142562342D02*
X216627505Y-142467104D01*
X216627505Y-142467104D02*
X216722743Y-142419485D01*
X216722743Y-142419485D02*
X216865600Y-142419485D01*
X216865600Y-142419485D02*
X216960838Y-142371866D01*
X216960838Y-142371866D02*
X217008457Y-142276628D01*
X217008457Y-142276628D02*
X217008457Y-142229009D01*
X217008457Y-142229009D02*
X216960838Y-142133771D01*
X216960838Y-142133771D02*
X216865600Y-142086152D01*
X216865600Y-142086152D02*
X216722743Y-142086152D01*
X216722743Y-142086152D02*
X216627505Y-142133771D01*
X216151314Y-142657580D02*
X216103695Y-142705200D01*
X216103695Y-142705200D02*
X216151314Y-142752819D01*
X216151314Y-142752819D02*
X216198933Y-142705200D01*
X216198933Y-142705200D02*
X216151314Y-142657580D01*
X216151314Y-142657580D02*
X216151314Y-142752819D01*
X216151314Y-142133771D02*
X216103695Y-142181390D01*
X216103695Y-142181390D02*
X216151314Y-142229009D01*
X216151314Y-142229009D02*
X216198933Y-142181390D01*
X216198933Y-142181390D02*
X216151314Y-142133771D01*
X216151314Y-142133771D02*
X216151314Y-142229009D01*
X214960839Y-141705200D02*
X215817981Y-142990914D01*
X213913220Y-141705200D02*
X214770362Y-142990914D01*
X213151315Y-142086152D02*
X213151315Y-142895676D01*
X213151315Y-142895676D02*
X213198934Y-142990914D01*
X213198934Y-142990914D02*
X213246553Y-143038533D01*
X213246553Y-143038533D02*
X213341791Y-143086152D01*
X213341791Y-143086152D02*
X213484648Y-143086152D01*
X213484648Y-143086152D02*
X213579886Y-143038533D01*
X213151315Y-142705200D02*
X213246553Y-142752819D01*
X213246553Y-142752819D02*
X213437029Y-142752819D01*
X213437029Y-142752819D02*
X213532267Y-142705200D01*
X213532267Y-142705200D02*
X213579886Y-142657580D01*
X213579886Y-142657580D02*
X213627505Y-142562342D01*
X213627505Y-142562342D02*
X213627505Y-142276628D01*
X213627505Y-142276628D02*
X213579886Y-142181390D01*
X213579886Y-142181390D02*
X213532267Y-142133771D01*
X213532267Y-142133771D02*
X213437029Y-142086152D01*
X213437029Y-142086152D02*
X213246553Y-142086152D01*
X213246553Y-142086152D02*
X213151315Y-142133771D01*
X212675124Y-142752819D02*
X212675124Y-142086152D01*
X212675124Y-141752819D02*
X212722743Y-141800438D01*
X212722743Y-141800438D02*
X212675124Y-141848057D01*
X212675124Y-141848057D02*
X212627505Y-141800438D01*
X212627505Y-141800438D02*
X212675124Y-141752819D01*
X212675124Y-141752819D02*
X212675124Y-141848057D01*
X212341791Y-142086152D02*
X211960839Y-142086152D01*
X212198934Y-141752819D02*
X212198934Y-142609961D01*
X212198934Y-142609961D02*
X212151315Y-142705200D01*
X212151315Y-142705200D02*
X212056077Y-142752819D01*
X212056077Y-142752819D02*
X211960839Y-142752819D01*
X211627505Y-142752819D02*
X211627505Y-141752819D01*
X211198934Y-142752819D02*
X211198934Y-142229009D01*
X211198934Y-142229009D02*
X211246553Y-142133771D01*
X211246553Y-142133771D02*
X211341791Y-142086152D01*
X211341791Y-142086152D02*
X211484648Y-142086152D01*
X211484648Y-142086152D02*
X211579886Y-142133771D01*
X211579886Y-142133771D02*
X211627505Y-142181390D01*
X210294172Y-142086152D02*
X210294172Y-142752819D01*
X210722743Y-142086152D02*
X210722743Y-142609961D01*
X210722743Y-142609961D02*
X210675124Y-142705200D01*
X210675124Y-142705200D02*
X210579886Y-142752819D01*
X210579886Y-142752819D02*
X210437029Y-142752819D01*
X210437029Y-142752819D02*
X210341791Y-142705200D01*
X210341791Y-142705200D02*
X210294172Y-142657580D01*
X209817981Y-142752819D02*
X209817981Y-141752819D01*
X209817981Y-142133771D02*
X209722743Y-142086152D01*
X209722743Y-142086152D02*
X209532267Y-142086152D01*
X209532267Y-142086152D02*
X209437029Y-142133771D01*
X209437029Y-142133771D02*
X209389410Y-142181390D01*
X209389410Y-142181390D02*
X209341791Y-142276628D01*
X209341791Y-142276628D02*
X209341791Y-142562342D01*
X209341791Y-142562342D02*
X209389410Y-142657580D01*
X209389410Y-142657580D02*
X209437029Y-142705200D01*
X209437029Y-142705200D02*
X209532267Y-142752819D01*
X209532267Y-142752819D02*
X209722743Y-142752819D01*
X209722743Y-142752819D02*
X209817981Y-142705200D01*
X208913219Y-142657580D02*
X208865600Y-142705200D01*
X208865600Y-142705200D02*
X208913219Y-142752819D01*
X208913219Y-142752819D02*
X208960838Y-142705200D01*
X208960838Y-142705200D02*
X208913219Y-142657580D01*
X208913219Y-142657580D02*
X208913219Y-142752819D01*
X208008458Y-142705200D02*
X208103696Y-142752819D01*
X208103696Y-142752819D02*
X208294172Y-142752819D01*
X208294172Y-142752819D02*
X208389410Y-142705200D01*
X208389410Y-142705200D02*
X208437029Y-142657580D01*
X208437029Y-142657580D02*
X208484648Y-142562342D01*
X208484648Y-142562342D02*
X208484648Y-142276628D01*
X208484648Y-142276628D02*
X208437029Y-142181390D01*
X208437029Y-142181390D02*
X208389410Y-142133771D01*
X208389410Y-142133771D02*
X208294172Y-142086152D01*
X208294172Y-142086152D02*
X208103696Y-142086152D01*
X208103696Y-142086152D02*
X208008458Y-142133771D01*
X207437029Y-142752819D02*
X207532267Y-142705200D01*
X207532267Y-142705200D02*
X207579886Y-142657580D01*
X207579886Y-142657580D02*
X207627505Y-142562342D01*
X207627505Y-142562342D02*
X207627505Y-142276628D01*
X207627505Y-142276628D02*
X207579886Y-142181390D01*
X207579886Y-142181390D02*
X207532267Y-142133771D01*
X207532267Y-142133771D02*
X207437029Y-142086152D01*
X207437029Y-142086152D02*
X207294172Y-142086152D01*
X207294172Y-142086152D02*
X207198934Y-142133771D01*
X207198934Y-142133771D02*
X207151315Y-142181390D01*
X207151315Y-142181390D02*
X207103696Y-142276628D01*
X207103696Y-142276628D02*
X207103696Y-142562342D01*
X207103696Y-142562342D02*
X207151315Y-142657580D01*
X207151315Y-142657580D02*
X207198934Y-142705200D01*
X207198934Y-142705200D02*
X207294172Y-142752819D01*
X207294172Y-142752819D02*
X207437029Y-142752819D01*
X206675124Y-142752819D02*
X206675124Y-142086152D01*
X206675124Y-142181390D02*
X206627505Y-142133771D01*
X206627505Y-142133771D02*
X206532267Y-142086152D01*
X206532267Y-142086152D02*
X206389410Y-142086152D01*
X206389410Y-142086152D02*
X206294172Y-142133771D01*
X206294172Y-142133771D02*
X206246553Y-142229009D01*
X206246553Y-142229009D02*
X206246553Y-142752819D01*
X206246553Y-142229009D02*
X206198934Y-142133771D01*
X206198934Y-142133771D02*
X206103696Y-142086152D01*
X206103696Y-142086152D02*
X205960839Y-142086152D01*
X205960839Y-142086152D02*
X205865600Y-142133771D01*
X205865600Y-142133771D02*
X205817981Y-142229009D01*
X205817981Y-142229009D02*
X205817981Y-142752819D01*
X204627506Y-141705200D02*
X205484648Y-142990914D01*
X204437029Y-141752819D02*
X203865601Y-141752819D01*
X204151315Y-142752819D02*
X204151315Y-141752819D01*
X203532267Y-142752819D02*
X203532267Y-142086152D01*
X203532267Y-142276628D02*
X203484648Y-142181390D01*
X203484648Y-142181390D02*
X203437029Y-142133771D01*
X203437029Y-142133771D02*
X203341791Y-142086152D01*
X203341791Y-142086152D02*
X203246553Y-142086152D01*
X202770362Y-142752819D02*
X202865600Y-142705200D01*
X202865600Y-142705200D02*
X202913219Y-142657580D01*
X202913219Y-142657580D02*
X202960838Y-142562342D01*
X202960838Y-142562342D02*
X202960838Y-142276628D01*
X202960838Y-142276628D02*
X202913219Y-142181390D01*
X202913219Y-142181390D02*
X202865600Y-142133771D01*
X202865600Y-142133771D02*
X202770362Y-142086152D01*
X202770362Y-142086152D02*
X202627505Y-142086152D01*
X202627505Y-142086152D02*
X202532267Y-142133771D01*
X202532267Y-142133771D02*
X202484648Y-142181390D01*
X202484648Y-142181390D02*
X202437029Y-142276628D01*
X202437029Y-142276628D02*
X202437029Y-142562342D01*
X202437029Y-142562342D02*
X202484648Y-142657580D01*
X202484648Y-142657580D02*
X202532267Y-142705200D01*
X202532267Y-142705200D02*
X202627505Y-142752819D01*
X202627505Y-142752819D02*
X202770362Y-142752819D01*
X202008457Y-142086152D02*
X202008457Y-142943295D01*
X202008457Y-142943295D02*
X202056076Y-143038533D01*
X202056076Y-143038533D02*
X202151314Y-143086152D01*
X202151314Y-143086152D02*
X202198933Y-143086152D01*
X202008457Y-141752819D02*
X202056076Y-141800438D01*
X202056076Y-141800438D02*
X202008457Y-141848057D01*
X202008457Y-141848057D02*
X201960838Y-141800438D01*
X201960838Y-141800438D02*
X202008457Y-141752819D01*
X202008457Y-141752819D02*
X202008457Y-141848057D01*
X201103696Y-142752819D02*
X201103696Y-142229009D01*
X201103696Y-142229009D02*
X201151315Y-142133771D01*
X201151315Y-142133771D02*
X201246553Y-142086152D01*
X201246553Y-142086152D02*
X201437029Y-142086152D01*
X201437029Y-142086152D02*
X201532267Y-142133771D01*
X201103696Y-142705200D02*
X201198934Y-142752819D01*
X201198934Y-142752819D02*
X201437029Y-142752819D01*
X201437029Y-142752819D02*
X201532267Y-142705200D01*
X201532267Y-142705200D02*
X201579886Y-142609961D01*
X201579886Y-142609961D02*
X201579886Y-142514723D01*
X201579886Y-142514723D02*
X201532267Y-142419485D01*
X201532267Y-142419485D02*
X201437029Y-142371866D01*
X201437029Y-142371866D02*
X201198934Y-142371866D01*
X201198934Y-142371866D02*
X201103696Y-142324247D01*
X200627505Y-142086152D02*
X200627505Y-142752819D01*
X200627505Y-142181390D02*
X200579886Y-142133771D01*
X200579886Y-142133771D02*
X200484648Y-142086152D01*
X200484648Y-142086152D02*
X200341791Y-142086152D01*
X200341791Y-142086152D02*
X200246553Y-142133771D01*
X200246553Y-142133771D02*
X200198934Y-142229009D01*
X200198934Y-142229009D02*
X200198934Y-142752819D01*
X199722743Y-142752819D02*
X199722743Y-141752819D01*
X199722743Y-141752819D02*
X199341791Y-141752819D01*
X199341791Y-141752819D02*
X199246553Y-141800438D01*
X199246553Y-141800438D02*
X199198934Y-141848057D01*
X199198934Y-141848057D02*
X199151315Y-141943295D01*
X199151315Y-141943295D02*
X199151315Y-142086152D01*
X199151315Y-142086152D02*
X199198934Y-142181390D01*
X199198934Y-142181390D02*
X199246553Y-142229009D01*
X199246553Y-142229009D02*
X199341791Y-142276628D01*
X199341791Y-142276628D02*
X199722743Y-142276628D01*
X198722743Y-142752819D02*
X198722743Y-142086152D01*
X198722743Y-141752819D02*
X198770362Y-141800438D01*
X198770362Y-141800438D02*
X198722743Y-141848057D01*
X198722743Y-141848057D02*
X198675124Y-141800438D01*
X198675124Y-141800438D02*
X198722743Y-141752819D01*
X198722743Y-141752819D02*
X198722743Y-141848057D01*
X198246553Y-142086152D02*
X198246553Y-142752819D01*
X198246553Y-142181390D02*
X198198934Y-142133771D01*
X198198934Y-142133771D02*
X198103696Y-142086152D01*
X198103696Y-142086152D02*
X197960839Y-142086152D01*
X197960839Y-142086152D02*
X197865601Y-142133771D01*
X197865601Y-142133771D02*
X197817982Y-142229009D01*
X197817982Y-142229009D02*
X197817982Y-142752819D01*
X196913220Y-142752819D02*
X196913220Y-142229009D01*
X196913220Y-142229009D02*
X196960839Y-142133771D01*
X196960839Y-142133771D02*
X197056077Y-142086152D01*
X197056077Y-142086152D02*
X197246553Y-142086152D01*
X197246553Y-142086152D02*
X197341791Y-142133771D01*
X196913220Y-142705200D02*
X197008458Y-142752819D01*
X197008458Y-142752819D02*
X197246553Y-142752819D01*
X197246553Y-142752819D02*
X197341791Y-142705200D01*
X197341791Y-142705200D02*
X197389410Y-142609961D01*
X197389410Y-142609961D02*
X197389410Y-142514723D01*
X197389410Y-142514723D02*
X197341791Y-142419485D01*
X197341791Y-142419485D02*
X197246553Y-142371866D01*
X197246553Y-142371866D02*
X197008458Y-142371866D01*
X197008458Y-142371866D02*
X196913220Y-142324247D01*
X196579886Y-142086152D02*
X196198934Y-142086152D01*
X196437029Y-141752819D02*
X196437029Y-142609961D01*
X196437029Y-142609961D02*
X196389410Y-142705200D01*
X196389410Y-142705200D02*
X196294172Y-142752819D01*
X196294172Y-142752819D02*
X196198934Y-142752819D01*
X195437029Y-142752819D02*
X195437029Y-142229009D01*
X195437029Y-142229009D02*
X195484648Y-142133771D01*
X195484648Y-142133771D02*
X195579886Y-142086152D01*
X195579886Y-142086152D02*
X195770362Y-142086152D01*
X195770362Y-142086152D02*
X195865600Y-142133771D01*
X195437029Y-142705200D02*
X195532267Y-142752819D01*
X195532267Y-142752819D02*
X195770362Y-142752819D01*
X195770362Y-142752819D02*
X195865600Y-142705200D01*
X195865600Y-142705200D02*
X195913219Y-142609961D01*
X195913219Y-142609961D02*
X195913219Y-142514723D01*
X195913219Y-142514723D02*
X195865600Y-142419485D01*
X195865600Y-142419485D02*
X195770362Y-142371866D01*
X195770362Y-142371866D02*
X195532267Y-142371866D01*
X195532267Y-142371866D02*
X195437029Y-142324247D01*
X194246553Y-141705200D02*
X195103695Y-142990914D01*
X193913219Y-142752819D02*
X193913219Y-141752819D01*
X193913219Y-141752819D02*
X193579886Y-142467104D01*
X193579886Y-142467104D02*
X193246553Y-141752819D01*
X193246553Y-141752819D02*
X193246553Y-142752819D01*
X192627505Y-142752819D02*
X192722743Y-142705200D01*
X192722743Y-142705200D02*
X192770362Y-142657580D01*
X192770362Y-142657580D02*
X192817981Y-142562342D01*
X192817981Y-142562342D02*
X192817981Y-142276628D01*
X192817981Y-142276628D02*
X192770362Y-142181390D01*
X192770362Y-142181390D02*
X192722743Y-142133771D01*
X192722743Y-142133771D02*
X192627505Y-142086152D01*
X192627505Y-142086152D02*
X192484648Y-142086152D01*
X192484648Y-142086152D02*
X192389410Y-142133771D01*
X192389410Y-142133771D02*
X192341791Y-142181390D01*
X192341791Y-142181390D02*
X192294172Y-142276628D01*
X192294172Y-142276628D02*
X192294172Y-142562342D01*
X192294172Y-142562342D02*
X192341791Y-142657580D01*
X192341791Y-142657580D02*
X192389410Y-142705200D01*
X192389410Y-142705200D02*
X192484648Y-142752819D01*
X192484648Y-142752819D02*
X192627505Y-142752819D01*
X191437029Y-142752819D02*
X191437029Y-141752819D01*
X191437029Y-142705200D02*
X191532267Y-142752819D01*
X191532267Y-142752819D02*
X191722743Y-142752819D01*
X191722743Y-142752819D02*
X191817981Y-142705200D01*
X191817981Y-142705200D02*
X191865600Y-142657580D01*
X191865600Y-142657580D02*
X191913219Y-142562342D01*
X191913219Y-142562342D02*
X191913219Y-142276628D01*
X191913219Y-142276628D02*
X191865600Y-142181390D01*
X191865600Y-142181390D02*
X191817981Y-142133771D01*
X191817981Y-142133771D02*
X191722743Y-142086152D01*
X191722743Y-142086152D02*
X191532267Y-142086152D01*
X191532267Y-142086152D02*
X191437029Y-142133771D01*
X190579886Y-142705200D02*
X190675124Y-142752819D01*
X190675124Y-142752819D02*
X190865600Y-142752819D01*
X190865600Y-142752819D02*
X190960838Y-142705200D01*
X190960838Y-142705200D02*
X191008457Y-142609961D01*
X191008457Y-142609961D02*
X191008457Y-142229009D01*
X191008457Y-142229009D02*
X190960838Y-142133771D01*
X190960838Y-142133771D02*
X190865600Y-142086152D01*
X190865600Y-142086152D02*
X190675124Y-142086152D01*
X190675124Y-142086152D02*
X190579886Y-142133771D01*
X190579886Y-142133771D02*
X190532267Y-142229009D01*
X190532267Y-142229009D02*
X190532267Y-142324247D01*
X190532267Y-142324247D02*
X191008457Y-142419485D01*
X189960838Y-142752819D02*
X190056076Y-142705200D01*
X190056076Y-142705200D02*
X190103695Y-142609961D01*
X190103695Y-142609961D02*
X190103695Y-141752819D01*
X189579885Y-142371866D02*
X188817981Y-142371866D01*
X188008457Y-142229009D02*
X187865600Y-142276628D01*
X187865600Y-142276628D02*
X187817981Y-142324247D01*
X187817981Y-142324247D02*
X187770362Y-142419485D01*
X187770362Y-142419485D02*
X187770362Y-142562342D01*
X187770362Y-142562342D02*
X187817981Y-142657580D01*
X187817981Y-142657580D02*
X187865600Y-142705200D01*
X187865600Y-142705200D02*
X187960838Y-142752819D01*
X187960838Y-142752819D02*
X188341790Y-142752819D01*
X188341790Y-142752819D02*
X188341790Y-141752819D01*
X188341790Y-141752819D02*
X188008457Y-141752819D01*
X188008457Y-141752819D02*
X187913219Y-141800438D01*
X187913219Y-141800438D02*
X187865600Y-141848057D01*
X187865600Y-141848057D02*
X187817981Y-141943295D01*
X187817981Y-141943295D02*
X187817981Y-142038533D01*
X187817981Y-142038533D02*
X187865600Y-142133771D01*
X187865600Y-142133771D02*
X187913219Y-142181390D01*
X187913219Y-142181390D02*
X188008457Y-142229009D01*
X188008457Y-142229009D02*
X188341790Y-142229009D01*
%TO.C,G\u002A\u002A\u002A*%
G36*
X347657016Y-106715431D02*
G01*
X347657016Y-106840477D01*
X347531969Y-106840477D01*
X347406923Y-106840477D01*
X347406923Y-106715431D01*
X347406923Y-106590384D01*
X347531969Y-106590384D01*
X347657016Y-106590384D01*
X347657016Y-106715431D01*
G37*
G36*
X347406923Y-106465338D02*
G01*
X347406923Y-106590384D01*
X347281877Y-106590384D01*
X347156831Y-106590384D01*
X347156831Y-106465338D01*
X347156831Y-106340292D01*
X347281877Y-106340292D01*
X347406923Y-106340292D01*
X347406923Y-106465338D01*
G37*
G36*
X347156831Y-106715431D02*
G01*
X347156831Y-106840477D01*
X347031785Y-106840477D01*
X346906739Y-106840477D01*
X346906739Y-106715431D01*
X346906739Y-106590384D01*
X347031785Y-106590384D01*
X347156831Y-106590384D01*
X347156831Y-106715431D01*
G37*
G36*
X347156831Y-103214138D02*
G01*
X347156831Y-103339184D01*
X347031785Y-103339184D01*
X346906739Y-103339184D01*
X346906739Y-103214138D01*
X346906739Y-103089092D01*
X347031785Y-103089092D01*
X347156831Y-103089092D01*
X347156831Y-103214138D01*
G37*
G36*
X346906739Y-103464231D02*
G01*
X346906739Y-103589277D01*
X346781693Y-103589277D01*
X346656646Y-103589277D01*
X346656646Y-103464231D01*
X346656646Y-103339184D01*
X346781693Y-103339184D01*
X346906739Y-103339184D01*
X346906739Y-103464231D01*
G37*
G36*
X346656646Y-103714323D02*
G01*
X346656646Y-103839369D01*
X346406554Y-103839369D01*
X346156462Y-103839369D01*
X346156462Y-103714323D01*
X346156462Y-103589277D01*
X346406554Y-103589277D01*
X346656646Y-103589277D01*
X346656646Y-103714323D01*
G37*
G36*
X346406554Y-102964046D02*
G01*
X346406554Y-103089092D01*
X346281508Y-103089092D01*
X346156462Y-103089092D01*
X346156462Y-102964046D01*
X346156462Y-102839000D01*
X346281508Y-102839000D01*
X346406554Y-102839000D01*
X346406554Y-102964046D01*
G37*
G36*
X345406185Y-106840477D02*
G01*
X345406185Y-107090569D01*
X345281139Y-107090569D01*
X345156093Y-107090569D01*
X345156093Y-106840477D01*
X345156093Y-106590384D01*
X345281139Y-106590384D01*
X345406185Y-106590384D01*
X345406185Y-106840477D01*
G37*
G36*
X345656277Y-105965154D02*
G01*
X345656277Y-106090200D01*
X345281139Y-106090200D01*
X344906000Y-106090200D01*
X344906000Y-105965154D01*
X344906000Y-105840107D01*
X345281139Y-105840107D01*
X345656277Y-105840107D01*
X345656277Y-105965154D01*
G37*
G36*
X344906000Y-106215246D02*
G01*
X344906000Y-106340292D01*
X344780954Y-106340292D01*
X344655908Y-106340292D01*
X344655908Y-106215246D01*
X344655908Y-106090200D01*
X344780954Y-106090200D01*
X344906000Y-106090200D01*
X344906000Y-106215246D01*
G37*
G36*
X342905262Y-104714692D02*
G01*
X342905262Y-104839738D01*
X342530123Y-104839738D01*
X342154985Y-104839738D01*
X342154985Y-104714692D01*
X342154985Y-104589646D01*
X342530123Y-104589646D01*
X342905262Y-104589646D01*
X342905262Y-104714692D01*
G37*
G36*
X347406923Y-101463492D02*
G01*
X347406923Y-101588538D01*
X347531969Y-101588538D01*
X347657016Y-101588538D01*
X347657016Y-102088723D01*
X347657016Y-102588907D01*
X347531969Y-102588907D01*
X347406923Y-102588907D01*
X347406923Y-102839000D01*
X347406923Y-103089092D01*
X347281877Y-103089092D01*
X347156831Y-103089092D01*
X347156831Y-102964046D01*
X347156831Y-102839000D01*
X346906739Y-102839000D01*
X346656646Y-102839000D01*
X346656646Y-102463861D01*
X346656646Y-102088723D01*
X346781693Y-102088723D01*
X346906739Y-102088723D01*
X346906739Y-102213769D01*
X346906739Y-102338815D01*
X347031785Y-102338815D01*
X347156831Y-102338815D01*
X347156831Y-102213769D01*
X347156831Y-102088723D01*
X347031785Y-102088723D01*
X346906739Y-102088723D01*
X346906739Y-101963677D01*
X346906739Y-101838631D01*
X347031785Y-101838631D01*
X347156831Y-101838631D01*
X347156831Y-101588538D01*
X347156831Y-101338446D01*
X347281877Y-101338446D01*
X347406923Y-101338446D01*
X347406923Y-101463492D01*
G37*
G36*
X343155354Y-100588169D02*
G01*
X343405446Y-100588169D01*
X343405446Y-100713215D01*
X343405446Y-100838261D01*
X343155354Y-100838261D01*
X342905262Y-100838261D01*
X342905262Y-100713215D01*
X342905262Y-100588169D01*
X343155354Y-100588169D01*
G37*
G36*
X342655169Y-100338077D02*
G01*
X342905262Y-100338077D01*
X342905262Y-100463123D01*
X342905262Y-100588169D01*
X342655169Y-100588169D01*
X342405077Y-100588169D01*
X342405077Y-100463123D01*
X342405077Y-100338077D01*
X342655169Y-100338077D01*
G37*
G36*
X342280031Y-100087984D02*
G01*
X342405077Y-100087984D01*
X342405077Y-100213031D01*
X342405077Y-100338077D01*
X342280031Y-100338077D01*
X342154985Y-100338077D01*
X342154985Y-100213031D01*
X342154985Y-100087984D01*
X342280031Y-100087984D01*
G37*
G36*
X342029939Y-99837892D02*
G01*
X342154985Y-99837892D01*
X342154985Y-99962938D01*
X342154985Y-100087984D01*
X342029939Y-100087984D01*
X341904893Y-100087984D01*
X341904893Y-99962938D01*
X341904893Y-99837892D01*
X342029939Y-99837892D01*
G37*
G36*
X341904893Y-99712846D02*
G01*
X341904893Y-99837892D01*
X341779846Y-99837892D01*
X341654800Y-99837892D01*
X341654800Y-99712846D01*
X341654800Y-99587800D01*
X341779846Y-99587800D01*
X341904893Y-99587800D01*
X341904893Y-99712846D01*
G37*
G36*
X346781693Y-106840477D02*
G01*
X346906739Y-106840477D01*
X346906739Y-106965523D01*
X346906739Y-107090569D01*
X347031785Y-107090569D01*
X347156831Y-107090569D01*
X347156831Y-106965523D01*
X347156831Y-106840477D01*
X347281877Y-106840477D01*
X347406923Y-106840477D01*
X347406923Y-106965523D01*
X347406923Y-107090569D01*
X347281877Y-107090569D01*
X347156831Y-107090569D01*
X347156831Y-107215615D01*
X347156831Y-107340661D01*
X346906739Y-107340661D01*
X346656646Y-107340661D01*
X346656646Y-107090569D01*
X346656646Y-106840477D01*
X346781693Y-106840477D01*
G37*
G36*
X345906369Y-106215246D02*
G01*
X345906369Y-106340292D01*
X346156462Y-106340292D01*
X346406554Y-106340292D01*
X346406554Y-106465338D01*
X346406554Y-106590384D01*
X346531600Y-106590384D01*
X346656646Y-106590384D01*
X346656646Y-106715431D01*
X346656646Y-106840477D01*
X346406554Y-106840477D01*
X346156462Y-106840477D01*
X346156462Y-106715431D01*
X346156462Y-106590384D01*
X346031416Y-106590384D01*
X345906369Y-106590384D01*
X345906369Y-106840477D01*
X345906369Y-107090569D01*
X345781323Y-107090569D01*
X345656277Y-107090569D01*
X345656277Y-106590384D01*
X345656277Y-106090200D01*
X345781323Y-106090200D01*
X345906369Y-106090200D01*
X345906369Y-106215246D01*
G37*
G36*
X340904523Y-105339923D02*
G01*
X341154616Y-105339923D01*
X341154616Y-105464969D01*
X341154616Y-105590015D01*
X341029569Y-105590015D01*
X340904523Y-105590015D01*
X340904523Y-105715061D01*
X340904523Y-105840107D01*
X341154616Y-105840107D01*
X341404708Y-105840107D01*
X341404708Y-105715061D01*
X341404708Y-105590015D01*
X341779846Y-105590015D01*
X342154985Y-105590015D01*
X342154985Y-105715061D01*
X342154985Y-105840107D01*
X342655169Y-105840107D01*
X343155354Y-105840107D01*
X343155354Y-105715061D01*
X343155354Y-105590015D01*
X343405446Y-105590015D01*
X343655539Y-105590015D01*
X343655539Y-105715061D01*
X343655539Y-105840107D01*
X343405446Y-105840107D01*
X343155354Y-105840107D01*
X343155354Y-105965154D01*
X343155354Y-106090200D01*
X342655169Y-106090200D01*
X342154985Y-106090200D01*
X342154985Y-105965154D01*
X342154985Y-105840107D01*
X341779846Y-105840107D01*
X341404708Y-105840107D01*
X341404708Y-105965154D01*
X341404708Y-106090200D01*
X341029569Y-106090200D01*
X340654431Y-106090200D01*
X340654431Y-105715061D01*
X340654431Y-105339923D01*
X340904523Y-105339923D01*
G37*
G36*
X342154985Y-104964784D02*
G01*
X342154985Y-105089831D01*
X341404708Y-105089831D01*
X340654431Y-105089831D01*
X340654431Y-105214877D01*
X340654431Y-105339923D01*
X340529385Y-105339923D01*
X340404339Y-105339923D01*
X340404339Y-105089831D01*
X340404339Y-104839738D01*
X341279662Y-104839738D01*
X342154985Y-104839738D01*
X342154985Y-104964784D01*
G37*
G36*
X344530862Y-106590384D02*
G01*
X344655908Y-106590384D01*
X344655908Y-106715431D01*
X344655908Y-106840477D01*
X344780954Y-106840477D01*
X344906000Y-106840477D01*
X344906000Y-107090569D01*
X344906000Y-107340661D01*
X345156093Y-107340661D01*
X345406185Y-107340661D01*
X345406185Y-107215615D01*
X345406185Y-107090569D01*
X345531231Y-107090569D01*
X345656277Y-107090569D01*
X345656277Y-107215615D01*
X345656277Y-107340661D01*
X345531231Y-107340661D01*
X345406185Y-107340661D01*
X345406185Y-107465707D01*
X345406185Y-107590754D01*
X345156093Y-107590754D01*
X344906000Y-107590754D01*
X344906000Y-107465707D01*
X344906000Y-107340661D01*
X344780954Y-107340661D01*
X344655908Y-107340661D01*
X344655908Y-107215615D01*
X344655908Y-107090569D01*
X344530862Y-107090569D01*
X344405816Y-107090569D01*
X344405816Y-106840477D01*
X344405816Y-106590384D01*
X344530862Y-106590384D01*
G37*
G36*
X344280769Y-106090200D02*
G01*
X344405816Y-106090200D01*
X344405816Y-106340292D01*
X344405816Y-106590384D01*
X344280769Y-106590384D01*
X344155723Y-106590384D01*
X344155723Y-106340292D01*
X344155723Y-106090200D01*
X344280769Y-106090200D01*
G37*
G36*
X347657016Y-105840107D02*
G01*
X347907108Y-105840107D01*
X347907108Y-106215246D01*
X347907108Y-106590384D01*
X347782062Y-106590384D01*
X347657016Y-106590384D01*
X347657016Y-106340292D01*
X347657016Y-106090200D01*
X347531969Y-106090200D01*
X347406923Y-106090200D01*
X347406923Y-105965154D01*
X347406923Y-105840107D01*
X347657016Y-105840107D01*
G37*
G36*
X349157569Y-105590015D02*
G01*
X349157569Y-105840107D01*
X348907477Y-105840107D01*
X348657385Y-105840107D01*
X348657385Y-105715061D01*
X348657385Y-105590015D01*
X348782431Y-105590015D01*
X348907477Y-105590015D01*
X348907477Y-105464969D01*
X348907477Y-105339923D01*
X348782431Y-105339923D01*
X348657385Y-105339923D01*
X348657385Y-105464969D01*
X348657385Y-105590015D01*
X348407293Y-105590015D01*
X348157200Y-105590015D01*
X348157200Y-105464969D01*
X348157200Y-105339923D01*
X347907108Y-105339923D01*
X347657016Y-105339923D01*
X347657016Y-105464969D01*
X347657016Y-105590015D01*
X347531969Y-105590015D01*
X347406923Y-105590015D01*
X347406923Y-105715061D01*
X347406923Y-105840107D01*
X347156831Y-105840107D01*
X346906739Y-105840107D01*
X346906739Y-106090200D01*
X346906739Y-106340292D01*
X346781693Y-106340292D01*
X346656646Y-106340292D01*
X346656646Y-106215246D01*
X346656646Y-106090200D01*
X346406554Y-106090200D01*
X346156462Y-106090200D01*
X346156462Y-105965154D01*
X346156462Y-105840107D01*
X346281508Y-105840107D01*
X346406554Y-105840107D01*
X346406554Y-105590015D01*
X346656646Y-105590015D01*
X346656646Y-105715061D01*
X346656646Y-105840107D01*
X346781693Y-105840107D01*
X346906739Y-105840107D01*
X346906739Y-105715061D01*
X346906739Y-105590015D01*
X346781693Y-105590015D01*
X346656646Y-105590015D01*
X346406554Y-105590015D01*
X346406554Y-105339923D01*
X346281508Y-105339923D01*
X346156462Y-105339923D01*
X346156462Y-105089831D01*
X346156462Y-104839738D01*
X346281508Y-104839738D01*
X346406554Y-104839738D01*
X346406554Y-104964784D01*
X346406554Y-105089831D01*
X346531600Y-105089831D01*
X346656646Y-105089831D01*
X346656646Y-105214877D01*
X346656646Y-105339923D01*
X347156831Y-105339923D01*
X347657016Y-105339923D01*
X347657016Y-105214877D01*
X347657016Y-105089831D01*
X347907108Y-105089831D01*
X348157200Y-105089831D01*
X348157200Y-105214877D01*
X348157200Y-105339923D01*
X348407293Y-105339923D01*
X348657385Y-105339923D01*
X348657385Y-105214877D01*
X348657385Y-105089831D01*
X348907477Y-105089831D01*
X349157569Y-105089831D01*
X349157569Y-104964784D01*
X349157569Y-104839738D01*
X348282246Y-104839738D01*
X347406923Y-104839738D01*
X347406923Y-104714692D01*
X347406923Y-104589646D01*
X348407293Y-104589646D01*
X349407662Y-104589646D01*
X349407662Y-104964784D01*
X349407662Y-105339923D01*
X349282616Y-105339923D01*
X349157569Y-105339923D01*
X349157569Y-105590015D01*
G37*
G36*
X344906000Y-104464600D02*
G01*
X344906000Y-104589646D01*
X345031046Y-104589646D01*
X345156093Y-104589646D01*
X345156093Y-104714692D01*
X345156093Y-104839738D01*
X345281139Y-104839738D01*
X345406185Y-104839738D01*
X345406185Y-104964784D01*
X345406185Y-105089831D01*
X345531231Y-105089831D01*
X345656277Y-105089831D01*
X345656277Y-104839738D01*
X345656277Y-104589646D01*
X345906369Y-104589646D01*
X346156462Y-104589646D01*
X346156462Y-104714692D01*
X346156462Y-104839738D01*
X346031416Y-104839738D01*
X345906369Y-104839738D01*
X345906369Y-105089831D01*
X345906369Y-105339923D01*
X345531231Y-105339923D01*
X345156093Y-105339923D01*
X345156093Y-105214877D01*
X345156093Y-105089831D01*
X345031046Y-105089831D01*
X344906000Y-105089831D01*
X344906000Y-104964784D01*
X344906000Y-104839738D01*
X344780954Y-104839738D01*
X344655908Y-104839738D01*
X344655908Y-104964784D01*
X344655908Y-105089831D01*
X344530862Y-105089831D01*
X344405816Y-105089831D01*
X344405816Y-105214877D01*
X344405816Y-105339923D01*
X344280769Y-105339923D01*
X344155723Y-105339923D01*
X344155723Y-105715061D01*
X344155723Y-106090200D01*
X344030677Y-106090200D01*
X343905631Y-106090200D01*
X343905631Y-105840107D01*
X343905631Y-105590015D01*
X343780585Y-105590015D01*
X343655539Y-105590015D01*
X343655539Y-105464969D01*
X343655539Y-105339923D01*
X343780585Y-105339923D01*
X343905631Y-105339923D01*
X343905631Y-105214877D01*
X343905631Y-105089831D01*
X344030677Y-105089831D01*
X344155723Y-105089831D01*
X344155723Y-104964784D01*
X344155723Y-104839738D01*
X344280769Y-104839738D01*
X344405816Y-104839738D01*
X344405816Y-104589646D01*
X344405816Y-104339554D01*
X344655908Y-104339554D01*
X344906000Y-104339554D01*
X344906000Y-104464600D01*
G37*
G36*
X347031785Y-104339554D02*
G01*
X347406923Y-104339554D01*
X347406923Y-104464600D01*
X347406923Y-104589646D01*
X347031785Y-104589646D01*
X346656646Y-104589646D01*
X346656646Y-104464600D01*
X346656646Y-104339554D01*
X347031785Y-104339554D01*
G37*
G36*
X346406554Y-104089461D02*
G01*
X346656646Y-104089461D01*
X346656646Y-104214507D01*
X346656646Y-104339554D01*
X346406554Y-104339554D01*
X346156462Y-104339554D01*
X346156462Y-104214507D01*
X346156462Y-104089461D01*
X346406554Y-104089461D01*
G37*
G36*
X346156462Y-103964415D02*
G01*
X346156462Y-104089461D01*
X346031416Y-104089461D01*
X345906369Y-104089461D01*
X345906369Y-103964415D01*
X345906369Y-103839369D01*
X346031416Y-103839369D01*
X346156462Y-103839369D01*
X346156462Y-103964415D01*
G37*
G36*
X344280769Y-103589277D02*
G01*
X344655908Y-103589277D01*
X344655908Y-103714323D01*
X344655908Y-103839369D01*
X344405816Y-103839369D01*
X344155723Y-103839369D01*
X344155723Y-103964415D01*
X344155723Y-104089461D01*
X344030677Y-104089461D01*
X343905631Y-104089461D01*
X343905631Y-104214507D01*
X343905631Y-104339554D01*
X343655539Y-104339554D01*
X343405446Y-104339554D01*
X343405446Y-104464600D01*
X343405446Y-104589646D01*
X343155354Y-104589646D01*
X342905262Y-104589646D01*
X342905262Y-104464600D01*
X342905262Y-104339554D01*
X342780216Y-104339554D01*
X342655169Y-104339554D01*
X342655169Y-104214507D01*
X342655169Y-104089461D01*
X342780216Y-104089461D01*
X342905262Y-104089461D01*
X342905262Y-104214507D01*
X342905262Y-104339554D01*
X343155354Y-104339554D01*
X343405446Y-104339554D01*
X343405446Y-104089461D01*
X343405446Y-103839369D01*
X343655539Y-103839369D01*
X343905631Y-103839369D01*
X343905631Y-103714323D01*
X343905631Y-103589277D01*
X344280769Y-103589277D01*
G37*
G36*
X343405446Y-103714323D02*
G01*
X343405446Y-103839369D01*
X343030308Y-103839369D01*
X342655169Y-103839369D01*
X342655169Y-103964415D01*
X342655169Y-104089461D01*
X342530123Y-104089461D01*
X342405077Y-104089461D01*
X342405077Y-103839369D01*
X342405077Y-103589277D01*
X342905262Y-103589277D01*
X343405446Y-103589277D01*
X343405446Y-103714323D01*
G37*
G36*
X345156093Y-102338815D02*
G01*
X345281139Y-102338815D01*
X345406185Y-102338815D01*
X345406185Y-102713954D01*
X345406185Y-103089092D01*
X345281139Y-103089092D01*
X345156093Y-103089092D01*
X345156093Y-103214138D01*
X345156093Y-103339184D01*
X344530862Y-103339184D01*
X343905631Y-103339184D01*
X343905631Y-103214138D01*
X343905631Y-103089092D01*
X344155723Y-103089092D01*
X344405816Y-103089092D01*
X344655908Y-103089092D01*
X344655908Y-102964046D01*
X344655908Y-102839000D01*
X344405816Y-102839000D01*
X344155723Y-102839000D01*
X344155723Y-102964046D01*
X344155723Y-103089092D01*
X343905631Y-103089092D01*
X343780585Y-103089092D01*
X343655539Y-103089092D01*
X343655539Y-103214138D01*
X343655539Y-103339184D01*
X343780585Y-103339184D01*
X343905631Y-103339184D01*
X343905631Y-103464231D01*
X343905631Y-103589277D01*
X343655539Y-103589277D01*
X343405446Y-103589277D01*
X343405446Y-103339184D01*
X343405446Y-103089092D01*
X343530493Y-103089092D01*
X343655539Y-103089092D01*
X343655539Y-102964046D01*
X343655539Y-102839000D01*
X343530493Y-102839000D01*
X343405446Y-102839000D01*
X343405446Y-102964046D01*
X343405446Y-103089092D01*
X343155354Y-103089092D01*
X342905262Y-103089092D01*
X342905262Y-102964046D01*
X342905262Y-102839000D01*
X342780216Y-102839000D01*
X342655169Y-102839000D01*
X342655169Y-102713954D01*
X342655169Y-102588907D01*
X342530123Y-102588907D01*
X342405077Y-102588907D01*
X342405077Y-102463861D01*
X342405077Y-102338815D01*
X342530123Y-102338815D01*
X342655169Y-102338815D01*
X342655169Y-102463861D01*
X342655169Y-102588907D01*
X342780216Y-102588907D01*
X342905262Y-102588907D01*
X342905262Y-102463861D01*
X342905262Y-102338815D01*
X343030308Y-102338815D01*
X343155354Y-102338815D01*
X343155354Y-102588907D01*
X343155354Y-102839000D01*
X343280400Y-102839000D01*
X343405446Y-102839000D01*
X343405446Y-102338815D01*
X343905631Y-102338815D01*
X343905631Y-102588907D01*
X343905631Y-102839000D01*
X344030677Y-102839000D01*
X344155723Y-102839000D01*
X344155723Y-102588907D01*
X344655908Y-102588907D01*
X344780954Y-102588907D01*
X344906000Y-102588907D01*
X344906000Y-102463861D01*
X344906000Y-102338815D01*
X344780954Y-102338815D01*
X344655908Y-102338815D01*
X344655908Y-102463861D01*
X344655908Y-102588907D01*
X344155723Y-102588907D01*
X344155723Y-102338815D01*
X344280769Y-102338815D01*
X344405816Y-102338815D01*
X344405816Y-102213769D01*
X344405816Y-102088723D01*
X344280769Y-102088723D01*
X344155723Y-102088723D01*
X344155723Y-102213769D01*
X344155723Y-102338815D01*
X344030677Y-102338815D01*
X343905631Y-102338815D01*
X343405446Y-102338815D01*
X343405446Y-101838631D01*
X343530493Y-101838631D01*
X343655539Y-101838631D01*
X343655539Y-101713584D01*
X343655539Y-101588538D01*
X344155723Y-101588538D01*
X344655908Y-101588538D01*
X344655908Y-101713584D01*
X344655908Y-101838631D01*
X344906000Y-101838631D01*
X345156093Y-101838631D01*
X345156093Y-102088723D01*
X345156093Y-102338815D01*
G37*
G36*
X342280031Y-101838631D02*
G01*
X342405077Y-101838631D01*
X342405077Y-102088723D01*
X342405077Y-102338815D01*
X342280031Y-102338815D01*
X342154985Y-102338815D01*
X342154985Y-102088723D01*
X342154985Y-101838631D01*
X342280031Y-101838631D01*
G37*
G36*
X341529754Y-100087984D02*
G01*
X341654800Y-100087984D01*
X341654800Y-100338077D01*
X341654800Y-100588169D01*
X341779846Y-100588169D01*
X341904893Y-100588169D01*
X341904893Y-100713215D01*
X341904893Y-100838261D01*
X342029939Y-100838261D01*
X342154985Y-100838261D01*
X342154985Y-100963307D01*
X342154985Y-101088354D01*
X342029939Y-101088354D01*
X341904893Y-101088354D01*
X341904893Y-101213400D01*
X341904893Y-101338446D01*
X342029939Y-101338446D01*
X342154985Y-101338446D01*
X342154985Y-101213400D01*
X342154985Y-101088354D01*
X342405077Y-101088354D01*
X342655169Y-101088354D01*
X342655169Y-101213400D01*
X342655169Y-101338446D01*
X342405077Y-101338446D01*
X342154985Y-101338446D01*
X342154985Y-101588538D01*
X342154985Y-101838631D01*
X342029939Y-101838631D01*
X341904893Y-101838631D01*
X341904893Y-101588538D01*
X341904893Y-101338446D01*
X341779846Y-101338446D01*
X341654800Y-101338446D01*
X341654800Y-101088354D01*
X341654800Y-100838261D01*
X341529754Y-100838261D01*
X341404708Y-100838261D01*
X341404708Y-100463123D01*
X341404708Y-100087984D01*
X341529754Y-100087984D01*
G37*
G36*
X342905262Y-101338446D02*
G01*
X343155354Y-101338446D01*
X343155354Y-101463492D01*
X343155354Y-101588538D01*
X342905262Y-101588538D01*
X342655169Y-101588538D01*
X342655169Y-101463492D01*
X342655169Y-101338446D01*
X342905262Y-101338446D01*
G37*
G36*
X347031785Y-100588169D02*
G01*
X347156831Y-100588169D01*
X347156831Y-100838261D01*
X347156831Y-101088354D01*
X347031785Y-101088354D01*
X346906739Y-101088354D01*
X346906739Y-100838261D01*
X346906739Y-100588169D01*
X347031785Y-100588169D01*
G37*
G36*
X346406554Y-98337338D02*
G01*
X346406554Y-98587431D01*
X346281508Y-98587431D01*
X346156462Y-98587431D01*
X346156462Y-98712477D01*
X346156462Y-98837523D01*
X345781323Y-98837523D01*
X345406185Y-98837523D01*
X345406185Y-98962569D01*
X345406185Y-99087615D01*
X345281139Y-99087615D01*
X345156093Y-99087615D01*
X345156093Y-99212661D01*
X345156093Y-99337707D01*
X345031046Y-99337707D01*
X344906000Y-99337707D01*
X344906000Y-99587800D01*
X344906000Y-99837892D01*
X345406185Y-99837892D01*
X345906369Y-99837892D01*
X345906369Y-99962938D01*
X345906369Y-100087984D01*
X346156462Y-100087984D01*
X346406554Y-100087984D01*
X346406554Y-99962938D01*
X346406554Y-99837892D01*
X346531600Y-99837892D01*
X346656646Y-99837892D01*
X346656646Y-99962938D01*
X346656646Y-100087984D01*
X346781693Y-100087984D01*
X346906739Y-100087984D01*
X346906739Y-99962938D01*
X346906739Y-99837892D01*
X346781693Y-99837892D01*
X346656646Y-99837892D01*
X346656646Y-99712846D01*
X346656646Y-99587800D01*
X346781693Y-99587800D01*
X346906739Y-99587800D01*
X346906739Y-99712846D01*
X346906739Y-99837892D01*
X347156831Y-99837892D01*
X347406923Y-99837892D01*
X347406923Y-99712846D01*
X347406923Y-99587800D01*
X347156831Y-99587800D01*
X346906739Y-99587800D01*
X346906739Y-99462754D01*
X346906739Y-99337707D01*
X347156831Y-99337707D01*
X347406923Y-99337707D01*
X347406923Y-99462754D01*
X347406923Y-99587800D01*
X347782062Y-99587800D01*
X348157200Y-99587800D01*
X348157200Y-99462754D01*
X348157200Y-99337707D01*
X347782062Y-99337707D01*
X347406923Y-99337707D01*
X347406923Y-99212661D01*
X347406923Y-99087615D01*
X347907108Y-99087615D01*
X348407293Y-99087615D01*
X348407293Y-99212661D01*
X348407293Y-99337707D01*
X348657385Y-99337707D01*
X348907477Y-99337707D01*
X348907477Y-99587800D01*
X348907477Y-99837892D01*
X349032523Y-99837892D01*
X349157569Y-99837892D01*
X349157569Y-100213031D01*
X349157569Y-100588169D01*
X348907477Y-100588169D01*
X348657385Y-100588169D01*
X348657385Y-100463123D01*
X348657385Y-100338077D01*
X348532339Y-100338077D01*
X348407293Y-100338077D01*
X348407293Y-100087984D01*
X348407293Y-99837892D01*
X347907108Y-99837892D01*
X347406923Y-99837892D01*
X347406923Y-99962938D01*
X347406923Y-100087984D01*
X347281877Y-100087984D01*
X347156831Y-100087984D01*
X347156831Y-100213031D01*
X347156831Y-100338077D01*
X347031785Y-100338077D01*
X346906739Y-100338077D01*
X346906739Y-100463123D01*
X346906739Y-100588169D01*
X346781693Y-100588169D01*
X346656646Y-100588169D01*
X346656646Y-100338077D01*
X346656646Y-100087984D01*
X346531600Y-100087984D01*
X346406554Y-100087984D01*
X346406554Y-100213031D01*
X346406554Y-100338077D01*
X346156462Y-100338077D01*
X345906369Y-100338077D01*
X345906369Y-100213031D01*
X345906369Y-100087984D01*
X345281139Y-100087984D01*
X344655908Y-100087984D01*
X344655908Y-100463123D01*
X344655908Y-100838261D01*
X344530862Y-100838261D01*
X344405816Y-100838261D01*
X344405816Y-100463123D01*
X344405816Y-100087984D01*
X344280769Y-100087984D01*
X344155723Y-100087984D01*
X344155723Y-100463123D01*
X344155723Y-100838261D01*
X344030677Y-100838261D01*
X343905631Y-100838261D01*
X343905631Y-100463123D01*
X343905631Y-100087984D01*
X343780585Y-100087984D01*
X343655539Y-100087984D01*
X343655539Y-99962938D01*
X343655539Y-99837892D01*
X343280400Y-99837892D01*
X342905262Y-99837892D01*
X342905262Y-99712846D01*
X342905262Y-99587800D01*
X343280400Y-99587800D01*
X343655539Y-99587800D01*
X343655539Y-99712846D01*
X343655539Y-99837892D01*
X343905631Y-99837892D01*
X344155723Y-99837892D01*
X344155723Y-99587800D01*
X344155723Y-99337707D01*
X344280769Y-99337707D01*
X344405816Y-99337707D01*
X344405816Y-99712846D01*
X344405816Y-100087984D01*
X344530862Y-100087984D01*
X344655908Y-100087984D01*
X344655908Y-99712846D01*
X344655908Y-99337707D01*
X344530862Y-99337707D01*
X344405816Y-99337707D01*
X344405816Y-99087615D01*
X344405816Y-98837523D01*
X344530862Y-98837523D01*
X344655908Y-98837523D01*
X344655908Y-99087615D01*
X344655908Y-99337707D01*
X344780954Y-99337707D01*
X344906000Y-99337707D01*
X344906000Y-99087615D01*
X344906000Y-98837523D01*
X344780954Y-98837523D01*
X344655908Y-98837523D01*
X344655908Y-98712477D01*
X344655908Y-98587431D01*
X344780954Y-98587431D01*
X344906000Y-98587431D01*
X344906000Y-98712477D01*
X344906000Y-98837523D01*
X345031046Y-98837523D01*
X345156093Y-98837523D01*
X345156093Y-98712477D01*
X345156093Y-98587431D01*
X345031046Y-98587431D01*
X344906000Y-98587431D01*
X344906000Y-98462384D01*
X344906000Y-98337338D01*
X345156093Y-98337338D01*
X345406185Y-98337338D01*
X345406185Y-98212292D01*
X345406185Y-98087246D01*
X345906369Y-98087246D01*
X346406554Y-98087246D01*
X346406554Y-98337338D01*
G37*
G36*
X341279662Y-99337707D02*
G01*
X341404708Y-99337707D01*
X341404708Y-99712846D01*
X341404708Y-100087984D01*
X341279662Y-100087984D01*
X341154616Y-100087984D01*
X341154616Y-99712846D01*
X341154616Y-99337707D01*
X341279662Y-99337707D01*
G37*
G36*
X342655169Y-99337707D02*
G01*
X342905262Y-99337707D01*
X342905262Y-99462754D01*
X342905262Y-99587800D01*
X342655169Y-99587800D01*
X342405077Y-99587800D01*
X342405077Y-99462754D01*
X342405077Y-99337707D01*
X342655169Y-99337707D01*
G37*
G36*
X342154985Y-99087615D02*
G01*
X342405077Y-99087615D01*
X342405077Y-99212661D01*
X342405077Y-99337707D01*
X342154985Y-99337707D01*
X341904893Y-99337707D01*
X341904893Y-99212661D01*
X341904893Y-99087615D01*
X342154985Y-99087615D01*
G37*
G36*
X341154616Y-98212292D02*
G01*
X341154616Y-98337338D01*
X341279662Y-98337338D01*
X341404708Y-98337338D01*
X341404708Y-98462384D01*
X341404708Y-98587431D01*
X341279662Y-98587431D01*
X341154616Y-98587431D01*
X341154616Y-98962569D01*
X341154616Y-99337707D01*
X341029569Y-99337707D01*
X340904523Y-99337707D01*
X340904523Y-98712477D01*
X340904523Y-98087246D01*
X341029569Y-98087246D01*
X341154616Y-98087246D01*
X341154616Y-98212292D01*
G37*
G36*
X341779846Y-98837523D02*
G01*
X341904893Y-98837523D01*
X341904893Y-98962569D01*
X341904893Y-99087615D01*
X341779846Y-99087615D01*
X341654800Y-99087615D01*
X341654800Y-98962569D01*
X341654800Y-98837523D01*
X341779846Y-98837523D01*
G37*
G36*
X341529754Y-98587431D02*
G01*
X341654800Y-98587431D01*
X341654800Y-98712477D01*
X341654800Y-98837523D01*
X341529754Y-98837523D01*
X341404708Y-98837523D01*
X341404708Y-98712477D01*
X341404708Y-98587431D01*
X341529754Y-98587431D01*
G37*
G36*
X346205769Y-131040154D02*
G01*
X346205769Y-131157384D01*
X346088539Y-131157384D01*
X345971308Y-131157384D01*
X345971308Y-131040154D01*
X345971308Y-130922923D01*
X346088539Y-130922923D01*
X346205769Y-130922923D01*
X346205769Y-131040154D01*
G37*
G36*
X344799000Y-127640461D02*
G01*
X344799000Y-127874923D01*
X344681769Y-127874923D01*
X344564539Y-127874923D01*
X344564539Y-127640461D01*
X344564539Y-127406000D01*
X344681769Y-127406000D01*
X344799000Y-127406000D01*
X344799000Y-127640461D01*
G37*
G36*
X344564539Y-127992154D02*
G01*
X344564539Y-128109384D01*
X344447308Y-128109384D01*
X344330077Y-128109384D01*
X344330077Y-127992154D01*
X344330077Y-127874923D01*
X344447308Y-127874923D01*
X344564539Y-127874923D01*
X344564539Y-127992154D01*
G37*
G36*
X344330077Y-127757692D02*
G01*
X344330077Y-127874923D01*
X344212846Y-127874923D01*
X344095616Y-127874923D01*
X344095616Y-127757692D01*
X344095616Y-127640461D01*
X344212846Y-127640461D01*
X344330077Y-127640461D01*
X344330077Y-127757692D01*
G37*
G36*
X344330077Y-128226615D02*
G01*
X344330077Y-128343846D01*
X344095616Y-128343846D01*
X343861154Y-128343846D01*
X343861154Y-128226615D01*
X343861154Y-128109384D01*
X344095616Y-128109384D01*
X344330077Y-128109384D01*
X344330077Y-128226615D01*
G37*
G36*
X343392231Y-128930000D02*
G01*
X343392231Y-129047231D01*
X343275000Y-129047231D01*
X343157769Y-129047231D01*
X343157769Y-128930000D01*
X343157769Y-128812769D01*
X343275000Y-128812769D01*
X343392231Y-128812769D01*
X343392231Y-128930000D01*
G37*
G36*
X342454385Y-125999231D02*
G01*
X342454385Y-126233692D01*
X342337154Y-126233692D01*
X342219923Y-126233692D01*
X342219923Y-125999231D01*
X342219923Y-125764769D01*
X342337154Y-125764769D01*
X342454385Y-125764769D01*
X342454385Y-125999231D01*
G37*
G36*
X342219923Y-130805692D02*
G01*
X342219923Y-130922923D01*
X341985462Y-130922923D01*
X341751000Y-130922923D01*
X341751000Y-130805692D01*
X341751000Y-130688461D01*
X341985462Y-130688461D01*
X342219923Y-130688461D01*
X342219923Y-130805692D01*
G37*
G36*
X341985462Y-129398923D02*
G01*
X341985462Y-129516154D01*
X341868231Y-129516154D01*
X341751000Y-129516154D01*
X341751000Y-129398923D01*
X341751000Y-129281692D01*
X341868231Y-129281692D01*
X341985462Y-129281692D01*
X341985462Y-129398923D01*
G37*
G36*
X341985462Y-125999231D02*
G01*
X341985462Y-126233692D01*
X341868231Y-126233692D01*
X341751000Y-126233692D01*
X341751000Y-125999231D01*
X341751000Y-125764769D01*
X341868231Y-125764769D01*
X341985462Y-125764769D01*
X341985462Y-125999231D01*
G37*
G36*
X341751000Y-129633384D02*
G01*
X341751000Y-129750615D01*
X341633769Y-129750615D01*
X341516539Y-129750615D01*
X341516539Y-129633384D01*
X341516539Y-129516154D01*
X341633769Y-129516154D01*
X341751000Y-129516154D01*
X341751000Y-129633384D01*
G37*
G36*
X341047616Y-127054307D02*
G01*
X341047616Y-127171538D01*
X340930385Y-127171538D01*
X340813154Y-127171538D01*
X340813154Y-127054307D01*
X340813154Y-126937077D01*
X340930385Y-126937077D01*
X341047616Y-126937077D01*
X341047616Y-127054307D01*
G37*
G36*
X341047616Y-129398923D02*
G01*
X341047616Y-129516154D01*
X340813154Y-129516154D01*
X340578693Y-129516154D01*
X340578693Y-129398923D01*
X340578693Y-129281692D01*
X340813154Y-129281692D01*
X341047616Y-129281692D01*
X341047616Y-129398923D01*
G37*
G36*
X341047616Y-127992154D02*
G01*
X341047616Y-128109384D01*
X340813154Y-128109384D01*
X340578693Y-128109384D01*
X340578693Y-127992154D01*
X340578693Y-127874923D01*
X340813154Y-127874923D01*
X341047616Y-127874923D01*
X341047616Y-127992154D01*
G37*
G36*
X340813154Y-127288769D02*
G01*
X340813154Y-127406000D01*
X340695923Y-127406000D01*
X340578693Y-127406000D01*
X340578693Y-127288769D01*
X340578693Y-127171538D01*
X340695923Y-127171538D01*
X340813154Y-127171538D01*
X340813154Y-127288769D01*
G37*
G36*
X340813154Y-126585384D02*
G01*
X340813154Y-126702615D01*
X340695923Y-126702615D01*
X340578693Y-126702615D01*
X340578693Y-126585384D01*
X340578693Y-126468154D01*
X340695923Y-126468154D01*
X340813154Y-126468154D01*
X340813154Y-126585384D01*
G37*
G36*
X340578693Y-127523231D02*
G01*
X340578693Y-127640461D01*
X340344231Y-127640461D01*
X340109769Y-127640461D01*
X340109769Y-127523231D01*
X340109769Y-127406000D01*
X340344231Y-127406000D01*
X340578693Y-127406000D01*
X340578693Y-127523231D01*
G37*
G36*
X340344231Y-126819846D02*
G01*
X340344231Y-126937077D01*
X340109769Y-126937077D01*
X339875308Y-126937077D01*
X339875308Y-126819846D01*
X339875308Y-126702615D01*
X340109769Y-126702615D01*
X340344231Y-126702615D01*
X340344231Y-126819846D01*
G37*
G36*
X340344231Y-126116461D02*
G01*
X340344231Y-126233692D01*
X340109769Y-126233692D01*
X339875308Y-126233692D01*
X339875308Y-126116461D01*
X339875308Y-125999231D01*
X340109769Y-125999231D01*
X340344231Y-125999231D01*
X340344231Y-126116461D01*
G37*
G36*
X339640846Y-127054307D02*
G01*
X339640846Y-127171538D01*
X339054693Y-127171538D01*
X338468539Y-127171538D01*
X338468539Y-127054307D01*
X338468539Y-126937077D01*
X339054693Y-126937077D01*
X339640846Y-126937077D01*
X339640846Y-127054307D01*
G37*
G36*
X341399308Y-127874923D02*
G01*
X341516539Y-127874923D01*
X341516539Y-127992154D01*
X341516539Y-128109384D01*
X341399308Y-128109384D01*
X341282077Y-128109384D01*
X341282077Y-127992154D01*
X341282077Y-127874923D01*
X341399308Y-127874923D01*
G37*
G36*
X341282077Y-127757692D02*
G01*
X341282077Y-127874923D01*
X341164846Y-127874923D01*
X341047616Y-127874923D01*
X341047616Y-127757692D01*
X341047616Y-127640461D01*
X341164846Y-127640461D01*
X341282077Y-127640461D01*
X341282077Y-127757692D01*
G37*
G36*
X342688846Y-128695538D02*
G01*
X342688846Y-128812769D01*
X342571616Y-128812769D01*
X342454385Y-128812769D01*
X342454385Y-128930000D01*
X342454385Y-129047231D01*
X342337154Y-129047231D01*
X342219923Y-129047231D01*
X342219923Y-129164461D01*
X342219923Y-129281692D01*
X342102693Y-129281692D01*
X341985462Y-129281692D01*
X341985462Y-129164461D01*
X341985462Y-129047231D01*
X341751000Y-129047231D01*
X341516539Y-129047231D01*
X341516539Y-128930000D01*
X341516539Y-128812769D01*
X341868231Y-128812769D01*
X342219923Y-128812769D01*
X342219923Y-128695538D01*
X342219923Y-128578307D01*
X342454385Y-128578307D01*
X342688846Y-128578307D01*
X342688846Y-128695538D01*
G37*
G36*
X341047616Y-129750615D02*
G01*
X341516539Y-129750615D01*
X341516539Y-129867846D01*
X341516539Y-129985077D01*
X341399308Y-129985077D01*
X341282077Y-129985077D01*
X341282077Y-130102307D01*
X341282077Y-130219538D01*
X341047616Y-130219538D01*
X340813154Y-130219538D01*
X340813154Y-130102307D01*
X340813154Y-129985077D01*
X340695923Y-129985077D01*
X340578693Y-129985077D01*
X340578693Y-129867846D01*
X340578693Y-129750615D01*
X341047616Y-129750615D01*
G37*
G36*
X340578693Y-129633384D02*
G01*
X340578693Y-129750615D01*
X340461462Y-129750615D01*
X340344231Y-129750615D01*
X340344231Y-129633384D01*
X340344231Y-129516154D01*
X340461462Y-129516154D01*
X340578693Y-129516154D01*
X340578693Y-129633384D01*
G37*
G36*
X344799000Y-130922923D02*
G01*
X344799000Y-131157384D01*
X344916231Y-131157384D01*
X345033462Y-131157384D01*
X345033462Y-131274615D01*
X345033462Y-131391846D01*
X345385154Y-131391846D01*
X345736846Y-131391846D01*
X345736846Y-131274615D01*
X345736846Y-131157384D01*
X345854077Y-131157384D01*
X345971308Y-131157384D01*
X345971308Y-131274615D01*
X345971308Y-131391846D01*
X345854077Y-131391846D01*
X345736846Y-131391846D01*
X345736846Y-131509077D01*
X345736846Y-131626307D01*
X345385154Y-131626307D01*
X345033462Y-131626307D01*
X345033462Y-131509077D01*
X345033462Y-131391846D01*
X344799000Y-131391846D01*
X344564539Y-131391846D01*
X344564539Y-131157384D01*
X344564539Y-130922923D01*
X344330077Y-130922923D01*
X344095616Y-130922923D01*
X344095616Y-130805692D01*
X344095616Y-130688461D01*
X344447308Y-130688461D01*
X344799000Y-130688461D01*
X344799000Y-130922923D01*
G37*
G36*
X340813154Y-130336769D02*
G01*
X340813154Y-130454000D01*
X340461462Y-130454000D01*
X340109769Y-130454000D01*
X340109769Y-130571231D01*
X340109769Y-130688461D01*
X339992539Y-130688461D01*
X339875308Y-130688461D01*
X339875308Y-130805692D01*
X339875308Y-130922923D01*
X339992539Y-130922923D01*
X340109769Y-130922923D01*
X340109769Y-130805692D01*
X340109769Y-130688461D01*
X340344231Y-130688461D01*
X340578693Y-130688461D01*
X340578693Y-130805692D01*
X340578693Y-130922923D01*
X340461462Y-130922923D01*
X340344231Y-130922923D01*
X340344231Y-131040154D01*
X340344231Y-131157384D01*
X340578693Y-131157384D01*
X340813154Y-131157384D01*
X340813154Y-131040154D01*
X340813154Y-130922923D01*
X341282077Y-130922923D01*
X341751000Y-130922923D01*
X341751000Y-131040154D01*
X341751000Y-131157384D01*
X341282077Y-131157384D01*
X340813154Y-131157384D01*
X340813154Y-131274615D01*
X340813154Y-131391846D01*
X340461462Y-131391846D01*
X340109769Y-131391846D01*
X340109769Y-131274615D01*
X340109769Y-131157384D01*
X339992539Y-131157384D01*
X339875308Y-131157384D01*
X339875308Y-131040154D01*
X339875308Y-130922923D01*
X339758077Y-130922923D01*
X339640846Y-130922923D01*
X339640846Y-130688461D01*
X339640846Y-130454000D01*
X339758077Y-130454000D01*
X339875308Y-130454000D01*
X339875308Y-130336769D01*
X339875308Y-130219538D01*
X340344231Y-130219538D01*
X340813154Y-130219538D01*
X340813154Y-130336769D01*
G37*
G36*
X340344231Y-124944154D02*
G01*
X340344231Y-125061384D01*
X340813154Y-125061384D01*
X341282077Y-125061384D01*
X341282077Y-125178615D01*
X341282077Y-125295846D01*
X341516539Y-125295846D01*
X341751000Y-125295846D01*
X341751000Y-125530307D01*
X341751000Y-125764769D01*
X341633769Y-125764769D01*
X341516539Y-125764769D01*
X341516539Y-125647538D01*
X341516539Y-125530307D01*
X341282077Y-125530307D01*
X341047616Y-125530307D01*
X341047616Y-125647538D01*
X341047616Y-125764769D01*
X340930385Y-125764769D01*
X340813154Y-125764769D01*
X340813154Y-125882000D01*
X340813154Y-125999231D01*
X340578693Y-125999231D01*
X340344231Y-125999231D01*
X340344231Y-125882000D01*
X340344231Y-125764769D01*
X340461462Y-125764769D01*
X340578693Y-125764769D01*
X340578693Y-125647538D01*
X340578693Y-125530307D01*
X340695923Y-125530307D01*
X340813154Y-125530307D01*
X340813154Y-125413077D01*
X340813154Y-125295846D01*
X340578693Y-125295846D01*
X340344231Y-125295846D01*
X340344231Y-125413077D01*
X340344231Y-125530307D01*
X339992539Y-125530307D01*
X339640846Y-125530307D01*
X339640846Y-125413077D01*
X339640846Y-125295846D01*
X339523616Y-125295846D01*
X339406385Y-125295846D01*
X339406385Y-125178615D01*
X339406385Y-125061384D01*
X339523616Y-125061384D01*
X339640846Y-125061384D01*
X339640846Y-124944154D01*
X339640846Y-124826923D01*
X339992539Y-124826923D01*
X340344231Y-124826923D01*
X340344231Y-124944154D01*
G37*
G36*
X342806077Y-130922923D02*
G01*
X342923308Y-130922923D01*
X342923308Y-131040154D01*
X342923308Y-131157384D01*
X343275000Y-131157384D01*
X343626693Y-131157384D01*
X343626693Y-131040154D01*
X343626693Y-130922923D01*
X343861154Y-130922923D01*
X344095616Y-130922923D01*
X344095616Y-131040154D01*
X344095616Y-131157384D01*
X343861154Y-131157384D01*
X343626693Y-131157384D01*
X343626693Y-131274615D01*
X343626693Y-131391846D01*
X343275000Y-131391846D01*
X342923308Y-131391846D01*
X342923308Y-131274615D01*
X342923308Y-131157384D01*
X342806077Y-131157384D01*
X342688846Y-131157384D01*
X342688846Y-131040154D01*
X342688846Y-130922923D01*
X342806077Y-130922923D01*
G37*
G36*
X343157769Y-129398923D02*
G01*
X343157769Y-129750615D01*
X343040539Y-129750615D01*
X342923308Y-129750615D01*
X342923308Y-130102307D01*
X342923308Y-130454000D01*
X342806077Y-130454000D01*
X342688846Y-130454000D01*
X342688846Y-130688461D01*
X342688846Y-130922923D01*
X342571616Y-130922923D01*
X342454385Y-130922923D01*
X342454385Y-130805692D01*
X342454385Y-130688461D01*
X342337154Y-130688461D01*
X342219923Y-130688461D01*
X342219923Y-130571231D01*
X342219923Y-130454000D01*
X342337154Y-130454000D01*
X342454385Y-130454000D01*
X342454385Y-130219538D01*
X342454385Y-129985077D01*
X342571616Y-129985077D01*
X342688846Y-129985077D01*
X342688846Y-129750615D01*
X342688846Y-129516154D01*
X342806077Y-129516154D01*
X342923308Y-129516154D01*
X342923308Y-129281692D01*
X342923308Y-129047231D01*
X343040539Y-129047231D01*
X343157769Y-129047231D01*
X343157769Y-129398923D01*
G37*
G36*
X341516539Y-124826923D02*
G01*
X341751000Y-124826923D01*
X341751000Y-124944154D01*
X341751000Y-125061384D01*
X342102693Y-125061384D01*
X342454385Y-125061384D01*
X342454385Y-124944154D01*
X342454385Y-124826923D01*
X342923308Y-124826923D01*
X343392231Y-124826923D01*
X343392231Y-124944154D01*
X343392231Y-125061384D01*
X343509462Y-125061384D01*
X343626693Y-125061384D01*
X343626693Y-124944154D01*
X343626693Y-124826923D01*
X343743923Y-124826923D01*
X343861154Y-124826923D01*
X343861154Y-124944154D01*
X343861154Y-125061384D01*
X343743923Y-125061384D01*
X343626693Y-125061384D01*
X343626693Y-125178615D01*
X343626693Y-125295846D01*
X343509462Y-125295846D01*
X343392231Y-125295846D01*
X343392231Y-125178615D01*
X343392231Y-125061384D01*
X342923308Y-125061384D01*
X342454385Y-125061384D01*
X342454385Y-125178615D01*
X342454385Y-125295846D01*
X342337154Y-125295846D01*
X342219923Y-125295846D01*
X342219923Y-125530307D01*
X342219923Y-125764769D01*
X342102693Y-125764769D01*
X341985462Y-125764769D01*
X341985462Y-125530307D01*
X341985462Y-125295846D01*
X341868231Y-125295846D01*
X341751000Y-125295846D01*
X341751000Y-125178615D01*
X341751000Y-125061384D01*
X341516539Y-125061384D01*
X341282077Y-125061384D01*
X341282077Y-124944154D01*
X341282077Y-124826923D01*
X341516539Y-124826923D01*
G37*
G36*
X341282077Y-124709692D02*
G01*
X341282077Y-124826923D01*
X340813154Y-124826923D01*
X340344231Y-124826923D01*
X340344231Y-124709692D01*
X340344231Y-124592461D01*
X340813154Y-124592461D01*
X341282077Y-124592461D01*
X341282077Y-124709692D01*
G37*
G36*
X345619616Y-129750615D02*
G01*
X345736846Y-129750615D01*
X345736846Y-129985077D01*
X345736846Y-130219538D01*
X345971308Y-130219538D01*
X346205769Y-130219538D01*
X346205769Y-130336769D01*
X346205769Y-130454000D01*
X345854077Y-130454000D01*
X345502385Y-130454000D01*
X345502385Y-130571231D01*
X345502385Y-130688461D01*
X345385154Y-130688461D01*
X345267923Y-130688461D01*
X345267923Y-130805692D01*
X345267923Y-130922923D01*
X345150693Y-130922923D01*
X345033462Y-130922923D01*
X345033462Y-130688461D01*
X345033462Y-130454000D01*
X345150693Y-130454000D01*
X345267923Y-130454000D01*
X345267923Y-130336769D01*
X345267923Y-130219538D01*
X345385154Y-130219538D01*
X345502385Y-130219538D01*
X345502385Y-129985077D01*
X345502385Y-129750615D01*
X345619616Y-129750615D01*
G37*
G36*
X346323000Y-130454000D02*
G01*
X346440231Y-130454000D01*
X346440231Y-130688461D01*
X346440231Y-130922923D01*
X346323000Y-130922923D01*
X346205769Y-130922923D01*
X346205769Y-130688461D01*
X346205769Y-130454000D01*
X346323000Y-130454000D01*
G37*
G36*
X343861154Y-129164461D02*
G01*
X343861154Y-129281692D01*
X344095616Y-129281692D01*
X344330077Y-129281692D01*
X344330077Y-129164461D01*
X344330077Y-129047231D01*
X344447308Y-129047231D01*
X344564539Y-129047231D01*
X344564539Y-129281692D01*
X344564539Y-129516154D01*
X344681769Y-129516154D01*
X344799000Y-129516154D01*
X344799000Y-129633384D01*
X344799000Y-129750615D01*
X344916231Y-129750615D01*
X345033462Y-129750615D01*
X345033462Y-129633384D01*
X345033462Y-129516154D01*
X345267923Y-129516154D01*
X345502385Y-129516154D01*
X345502385Y-129633384D01*
X345502385Y-129750615D01*
X345267923Y-129750615D01*
X345033462Y-129750615D01*
X345033462Y-129867846D01*
X345033462Y-129985077D01*
X344916231Y-129985077D01*
X344799000Y-129985077D01*
X344799000Y-130102307D01*
X344799000Y-130219538D01*
X344916231Y-130219538D01*
X345033462Y-130219538D01*
X345033462Y-130336769D01*
X345033462Y-130454000D01*
X344681769Y-130454000D01*
X344330077Y-130454000D01*
X344330077Y-130336769D01*
X344330077Y-130219538D01*
X344447308Y-130219538D01*
X344564539Y-130219538D01*
X344564539Y-129985077D01*
X344564539Y-129750615D01*
X344447308Y-129750615D01*
X344330077Y-129750615D01*
X344330077Y-129633384D01*
X344330077Y-129516154D01*
X343978385Y-129516154D01*
X343626693Y-129516154D01*
X343626693Y-129398923D01*
X343626693Y-129281692D01*
X343509462Y-129281692D01*
X343392231Y-129281692D01*
X343392231Y-129164461D01*
X343392231Y-129047231D01*
X343626693Y-129047231D01*
X343861154Y-129047231D01*
X343861154Y-129164461D01*
G37*
G36*
X344212846Y-128812769D02*
G01*
X344330077Y-128812769D01*
X344330077Y-128930000D01*
X344330077Y-129047231D01*
X344212846Y-129047231D01*
X344095616Y-129047231D01*
X344095616Y-128930000D01*
X344095616Y-128812769D01*
X344212846Y-128812769D01*
G37*
G36*
X343978385Y-128578307D02*
G01*
X344095616Y-128578307D01*
X344095616Y-128695538D01*
X344095616Y-128812769D01*
X343978385Y-128812769D01*
X343861154Y-128812769D01*
X343861154Y-128695538D01*
X343861154Y-128578307D01*
X343978385Y-128578307D01*
G37*
G36*
X343861154Y-128461077D02*
G01*
X343861154Y-128578307D01*
X343626693Y-128578307D01*
X343392231Y-128578307D01*
X343392231Y-128461077D01*
X343392231Y-128343846D01*
X343626693Y-128343846D01*
X343861154Y-128343846D01*
X343861154Y-128461077D01*
G37*
G36*
X344212846Y-124826923D02*
G01*
X344330077Y-124826923D01*
X344330077Y-125178615D01*
X344330077Y-125530307D01*
X344447308Y-125530307D01*
X344564539Y-125530307D01*
X344564539Y-125764769D01*
X344564539Y-125999231D01*
X344681769Y-125999231D01*
X344799000Y-125999231D01*
X344799000Y-126233692D01*
X344799000Y-126468154D01*
X344916231Y-126468154D01*
X345033462Y-126468154D01*
X345033462Y-126937077D01*
X345033462Y-127406000D01*
X344916231Y-127406000D01*
X344799000Y-127406000D01*
X344799000Y-127171538D01*
X344799000Y-126937077D01*
X344681769Y-126937077D01*
X344564539Y-126937077D01*
X344564539Y-126819846D01*
X344564539Y-126702615D01*
X344447308Y-126702615D01*
X344330077Y-126702615D01*
X344330077Y-126233692D01*
X344330077Y-125764769D01*
X344212846Y-125764769D01*
X344095616Y-125764769D01*
X344095616Y-125647538D01*
X344095616Y-125530307D01*
X343978385Y-125530307D01*
X343861154Y-125530307D01*
X343861154Y-125413077D01*
X343861154Y-125295846D01*
X343978385Y-125295846D01*
X344095616Y-125295846D01*
X344095616Y-125061384D01*
X344095616Y-124826923D01*
X344212846Y-124826923D01*
G37*
G36*
X343978385Y-123654615D02*
G01*
X344095616Y-123654615D01*
X344095616Y-123771846D01*
X344095616Y-123889077D01*
X343978385Y-123889077D01*
X343861154Y-123889077D01*
X343861154Y-124006307D01*
X343861154Y-124123538D01*
X343978385Y-124123538D01*
X344095616Y-124123538D01*
X344095616Y-124006307D01*
X344095616Y-123889077D01*
X344212846Y-123889077D01*
X344330077Y-123889077D01*
X344330077Y-124006307D01*
X344330077Y-124123538D01*
X344212846Y-124123538D01*
X344095616Y-124123538D01*
X344095616Y-124475231D01*
X344095616Y-124826923D01*
X343978385Y-124826923D01*
X343861154Y-124826923D01*
X343861154Y-124592461D01*
X343861154Y-124358000D01*
X343743923Y-124358000D01*
X343626693Y-124358000D01*
X343626693Y-124240769D01*
X343626693Y-124123538D01*
X343509462Y-124123538D01*
X343392231Y-124123538D01*
X343392231Y-124006307D01*
X343392231Y-123889077D01*
X343626693Y-123889077D01*
X343861154Y-123889077D01*
X343861154Y-123771846D01*
X343861154Y-123654615D01*
X343978385Y-123654615D01*
G37*
G36*
X344447308Y-124123538D02*
G01*
X344564539Y-124123538D01*
X344564539Y-124475231D01*
X344564539Y-124826923D01*
X344447308Y-124826923D01*
X344330077Y-124826923D01*
X344330077Y-124475231D01*
X344330077Y-124123538D01*
X344447308Y-124123538D01*
G37*
G36*
X343392231Y-123302923D02*
G01*
X343392231Y-123420154D01*
X343040539Y-123420154D01*
X342688846Y-123420154D01*
X342688846Y-123537384D01*
X342688846Y-123654615D01*
X343040539Y-123654615D01*
X343392231Y-123654615D01*
X343392231Y-123537384D01*
X343392231Y-123420154D01*
X343626693Y-123420154D01*
X343861154Y-123420154D01*
X343861154Y-123537384D01*
X343861154Y-123654615D01*
X343626693Y-123654615D01*
X343392231Y-123654615D01*
X343392231Y-123771846D01*
X343392231Y-123889077D01*
X342923308Y-123889077D01*
X342454385Y-123889077D01*
X342454385Y-124006307D01*
X342454385Y-124123538D01*
X342219923Y-124123538D01*
X341985462Y-124123538D01*
X341985462Y-124240769D01*
X341985462Y-124358000D01*
X341751000Y-124358000D01*
X341516539Y-124358000D01*
X341516539Y-124123538D01*
X341516539Y-123889077D01*
X341633769Y-123889077D01*
X341751000Y-123889077D01*
X341751000Y-123771846D01*
X341751000Y-123654615D01*
X341868231Y-123654615D01*
X341985462Y-123654615D01*
X341985462Y-123537384D01*
X341985462Y-123420154D01*
X342219923Y-123420154D01*
X342454385Y-123420154D01*
X342454385Y-123302923D01*
X342454385Y-123185692D01*
X342923308Y-123185692D01*
X343392231Y-123185692D01*
X343392231Y-123302923D01*
G37*
G36*
X341282077Y-129047231D02*
G01*
X341516539Y-129047231D01*
X341516539Y-129164461D01*
X341516539Y-129281692D01*
X341282077Y-129281692D01*
X341047616Y-129281692D01*
X341047616Y-129164461D01*
X341047616Y-129047231D01*
X341282077Y-129047231D01*
G37*
G36*
X340930385Y-128812769D02*
G01*
X341047616Y-128812769D01*
X341047616Y-128930000D01*
X341047616Y-129047231D01*
X340930385Y-129047231D01*
X340813154Y-129047231D01*
X340813154Y-128930000D01*
X340813154Y-128812769D01*
X340930385Y-128812769D01*
G37*
G36*
X343392231Y-127992154D02*
G01*
X343392231Y-128109384D01*
X343275000Y-128109384D01*
X343157769Y-128109384D01*
X343157769Y-128226615D01*
X343157769Y-128343846D01*
X342688846Y-128343846D01*
X342219923Y-128343846D01*
X342219923Y-128461077D01*
X342219923Y-128578307D01*
X341516539Y-128578307D01*
X340813154Y-128578307D01*
X340813154Y-128695538D01*
X340813154Y-128812769D01*
X340695923Y-128812769D01*
X340578693Y-128812769D01*
X340578693Y-128578307D01*
X340578693Y-128343846D01*
X340109769Y-128343846D01*
X339640846Y-128343846D01*
X339640846Y-128226615D01*
X339640846Y-128109384D01*
X340109769Y-128109384D01*
X340578693Y-128109384D01*
X340578693Y-128226615D01*
X340578693Y-128343846D01*
X341047616Y-128343846D01*
X341516539Y-128343846D01*
X341516539Y-128226615D01*
X341516539Y-128109384D01*
X341633769Y-128109384D01*
X341751000Y-128109384D01*
X341751000Y-128226615D01*
X341751000Y-128343846D01*
X341868231Y-128343846D01*
X341985462Y-128343846D01*
X341985462Y-128226615D01*
X341985462Y-128109384D01*
X342454385Y-128109384D01*
X342688846Y-128109384D01*
X342923308Y-128109384D01*
X342923308Y-127992154D01*
X342923308Y-127874923D01*
X343040539Y-127874923D01*
X343157769Y-127874923D01*
X343157769Y-127640461D01*
X343157769Y-127406000D01*
X343040539Y-127406000D01*
X342923308Y-127406000D01*
X342923308Y-127288769D01*
X342923308Y-127171538D01*
X342806077Y-127171538D01*
X342688846Y-127171538D01*
X342688846Y-127288769D01*
X342688846Y-127406000D01*
X342806077Y-127406000D01*
X342923308Y-127406000D01*
X342923308Y-127640461D01*
X342923308Y-127874923D01*
X342688846Y-127874923D01*
X342454385Y-127874923D01*
X342454385Y-127992154D01*
X342454385Y-128109384D01*
X341985462Y-128109384D01*
X341868231Y-128109384D01*
X341751000Y-128109384D01*
X341751000Y-127874923D01*
X341751000Y-127640461D01*
X342219923Y-127640461D01*
X342337154Y-127640461D01*
X342454385Y-127640461D01*
X342454385Y-127523231D01*
X342454385Y-127406000D01*
X342337154Y-127406000D01*
X342219923Y-127406000D01*
X342219923Y-127523231D01*
X342219923Y-127640461D01*
X341751000Y-127640461D01*
X341633769Y-127640461D01*
X341516539Y-127640461D01*
X341516539Y-127523231D01*
X341516539Y-127406000D01*
X341633769Y-127406000D01*
X341751000Y-127406000D01*
X341751000Y-127288769D01*
X341751000Y-127171538D01*
X341868231Y-127171538D01*
X341985462Y-127171538D01*
X341985462Y-127054307D01*
X341985462Y-126937077D01*
X342571616Y-126937077D01*
X343157769Y-126937077D01*
X343157769Y-127054307D01*
X343157769Y-127171538D01*
X343275000Y-127171538D01*
X343392231Y-127171538D01*
X343392231Y-127288769D01*
X343392231Y-127406000D01*
X343509462Y-127406000D01*
X343626693Y-127406000D01*
X343626693Y-127640461D01*
X343626693Y-127874923D01*
X343509462Y-127874923D01*
X343392231Y-127874923D01*
X343392231Y-127992154D01*
G37*
G36*
X338468539Y-127406000D02*
G01*
X338703000Y-127406000D01*
X338703000Y-127523231D01*
X338703000Y-127640461D01*
X339406385Y-127640461D01*
X340109769Y-127640461D01*
X340109769Y-127757692D01*
X340109769Y-127874923D01*
X339875308Y-127874923D01*
X339640846Y-127874923D01*
X339640846Y-127992154D01*
X339640846Y-128109384D01*
X339289154Y-128109384D01*
X338937462Y-128109384D01*
X338937462Y-127992154D01*
X338937462Y-127874923D01*
X338703000Y-127874923D01*
X338468539Y-127874923D01*
X338468539Y-127757692D01*
X338468539Y-127640461D01*
X338351308Y-127640461D01*
X338234077Y-127640461D01*
X338234077Y-127523231D01*
X338234077Y-127406000D01*
X338468539Y-127406000D01*
G37*
G36*
X338116846Y-127171538D02*
G01*
X338234077Y-127171538D01*
X338234077Y-127288769D01*
X338234077Y-127406000D01*
X338116846Y-127406000D01*
X337999616Y-127406000D01*
X337999616Y-127288769D01*
X337999616Y-127171538D01*
X338116846Y-127171538D01*
G37*
G36*
X337882385Y-126937077D02*
G01*
X337999616Y-126937077D01*
X337999616Y-127054307D01*
X337999616Y-127171538D01*
X337882385Y-127171538D01*
X337765154Y-127171538D01*
X337765154Y-127054307D01*
X337765154Y-126937077D01*
X337882385Y-126937077D01*
G37*
G36*
X337647923Y-126702615D02*
G01*
X337765154Y-126702615D01*
X337765154Y-126819846D01*
X337765154Y-126937077D01*
X337647923Y-126937077D01*
X337530693Y-126937077D01*
X337530693Y-126819846D01*
X337530693Y-126702615D01*
X337647923Y-126702615D01*
G37*
G36*
X337999616Y-126350923D02*
G01*
X337999616Y-126468154D01*
X338585769Y-126468154D01*
X339171923Y-126468154D01*
X339171923Y-126350923D01*
X339171923Y-126233692D01*
X339523616Y-126233692D01*
X339875308Y-126233692D01*
X339875308Y-126350923D01*
X339875308Y-126468154D01*
X339523616Y-126468154D01*
X339171923Y-126468154D01*
X339171923Y-126585384D01*
X339171923Y-126702615D01*
X338585769Y-126702615D01*
X337999616Y-126702615D01*
X337999616Y-126585384D01*
X337999616Y-126468154D01*
X337765154Y-126468154D01*
X337530693Y-126468154D01*
X337530693Y-126585384D01*
X337530693Y-126702615D01*
X337413462Y-126702615D01*
X337296231Y-126702615D01*
X337296231Y-126468154D01*
X337296231Y-126233692D01*
X337647923Y-126233692D01*
X337999616Y-126233692D01*
X337999616Y-126350923D01*
G37*
G36*
X366610245Y-145170814D02*
G01*
X366670801Y-145180477D01*
X366719373Y-145206028D01*
X366758386Y-145248658D01*
X366773586Y-145278400D01*
X366779654Y-145324559D01*
X366766353Y-145371194D01*
X366734317Y-145416514D01*
X366684177Y-145458727D01*
X366674672Y-145465062D01*
X366652680Y-145477423D01*
X366630820Y-145483826D01*
X366602164Y-145485709D01*
X366559784Y-145484507D01*
X366530530Y-145483055D01*
X366499490Y-145479895D01*
X366478767Y-145473568D01*
X366462104Y-145461811D01*
X366443246Y-145442361D01*
X366439272Y-145437979D01*
X366419110Y-145411683D01*
X366410015Y-145386118D01*
X366407894Y-145350659D01*
X366415897Y-145292496D01*
X366440718Y-145241678D01*
X366480712Y-145203386D01*
X366534207Y-145179191D01*
X366599534Y-145170662D01*
X366610245Y-145170814D01*
G37*
G36*
X362116497Y-145893473D02*
G01*
X362203935Y-145907138D01*
X362307604Y-145930814D01*
X362343107Y-145940042D01*
X362474988Y-145976898D01*
X362617543Y-146020226D01*
X362766351Y-146068482D01*
X362916995Y-146120123D01*
X363065055Y-146173605D01*
X363206113Y-146227385D01*
X363335748Y-146279920D01*
X363449543Y-146329666D01*
X363488458Y-146347125D01*
X363516768Y-146357748D01*
X363539172Y-146361862D01*
X363562216Y-146360637D01*
X363592448Y-146355245D01*
X363617168Y-146351713D01*
X363656643Y-146350408D01*
X363704873Y-146353414D01*
X363764082Y-146361034D01*
X363836497Y-146373569D01*
X363924344Y-146391323D01*
X364029848Y-146414596D01*
X364059701Y-146421372D01*
X364109222Y-146432596D01*
X364148967Y-146441582D01*
X364175462Y-146447546D01*
X364185231Y-146449702D01*
X364185572Y-146440448D01*
X364185818Y-146415807D01*
X364185912Y-146381174D01*
X364185954Y-146364708D01*
X364187431Y-146333569D01*
X364193321Y-146312854D01*
X364206687Y-146295147D01*
X364230596Y-146273030D01*
X364246383Y-146260459D01*
X364302674Y-146230697D01*
X364366027Y-146214775D01*
X364428435Y-146215042D01*
X364446250Y-146220654D01*
X364480243Y-146234500D01*
X364527099Y-146255217D01*
X364583955Y-146281507D01*
X364647947Y-146312072D01*
X364716213Y-146345611D01*
X364716993Y-146346000D01*
X364783730Y-146379000D01*
X364844736Y-146408714D01*
X364897456Y-146433934D01*
X364939336Y-146453451D01*
X364967824Y-146466059D01*
X364980365Y-146470548D01*
X364998816Y-146474257D01*
X365031829Y-146487923D01*
X365068615Y-146508029D01*
X365102297Y-146530721D01*
X365125993Y-146552143D01*
X365147998Y-146586594D01*
X365160584Y-146635617D01*
X365154905Y-146684808D01*
X365131609Y-146730131D01*
X365091347Y-146767545D01*
X365063811Y-146791456D01*
X365035596Y-146838961D01*
X365017348Y-146873305D01*
X364977506Y-146915796D01*
X364926263Y-146945789D01*
X364920672Y-146947512D01*
X364893132Y-146951972D01*
X364853724Y-146955223D01*
X364809009Y-146956658D01*
X364798155Y-146956710D01*
X364770757Y-146956319D01*
X364745414Y-146954552D01*
X364719026Y-146950659D01*
X364688496Y-146943895D01*
X364650726Y-146933510D01*
X364602615Y-146918758D01*
X364541067Y-146898890D01*
X364462983Y-146873159D01*
X364348370Y-146836175D01*
X364201725Y-146791821D01*
X364066601Y-146754483D01*
X363945383Y-146724813D01*
X363840457Y-146703460D01*
X363815660Y-146699171D01*
X363784976Y-146695116D01*
X363764438Y-146695927D01*
X363747563Y-146702251D01*
X363727871Y-146714739D01*
X363715706Y-146722526D01*
X363649207Y-146750891D01*
X363577264Y-146759827D01*
X363502225Y-146748977D01*
X363490390Y-146744931D01*
X363456915Y-146729977D01*
X363415587Y-146708516D01*
X363372739Y-146683740D01*
X363333495Y-146660351D01*
X363208680Y-146592403D01*
X363070957Y-146525672D01*
X362924047Y-146461508D01*
X362771673Y-146401264D01*
X362617557Y-146346292D01*
X362465419Y-146297944D01*
X362318982Y-146257572D01*
X362181968Y-146226528D01*
X362058097Y-146206164D01*
X362029213Y-146202265D01*
X361966396Y-146190666D01*
X361919791Y-146175725D01*
X361886152Y-146155734D01*
X361862234Y-146128982D01*
X361844791Y-146093758D01*
X361839265Y-146076967D01*
X361835071Y-146028650D01*
X361850702Y-145984587D01*
X361886588Y-145943226D01*
X361890281Y-145940059D01*
X361932183Y-145913111D01*
X361982560Y-145896402D01*
X362043352Y-145889876D01*
X362116497Y-145893473D01*
G37*
G36*
X369071654Y-144644837D02*
G01*
X369150070Y-144725182D01*
X369230690Y-144807845D01*
X369307518Y-144886577D01*
X369381588Y-144962343D01*
X369450249Y-145032437D01*
X369512212Y-145095548D01*
X369566184Y-145150364D01*
X369610874Y-145195575D01*
X369644992Y-145229869D01*
X369667246Y-145251935D01*
X369676346Y-145260462D01*
X369677092Y-145260990D01*
X369682324Y-145265585D01*
X369692092Y-145274988D01*
X369707215Y-145290043D01*
X369728513Y-145311594D01*
X369756805Y-145340485D01*
X369792908Y-145377558D01*
X369837642Y-145423658D01*
X369891826Y-145479628D01*
X369956279Y-145546312D01*
X370031819Y-145624552D01*
X370119265Y-145715193D01*
X370219437Y-145819078D01*
X370333152Y-145937050D01*
X370349537Y-145954120D01*
X370399638Y-146007008D01*
X370450674Y-146061746D01*
X370469273Y-146082021D01*
X370497498Y-146112789D01*
X370534964Y-146154587D01*
X370616887Y-146247731D01*
X370773218Y-146301400D01*
X370838169Y-146323938D01*
X370973032Y-146372646D01*
X371089017Y-146417582D01*
X371187068Y-146459217D01*
X371268129Y-146498021D01*
X371333146Y-146534466D01*
X371383063Y-146569021D01*
X371418824Y-146602157D01*
X371441374Y-146634345D01*
X371442143Y-146635860D01*
X371463568Y-146692286D01*
X371466262Y-146742038D01*
X371449818Y-146788054D01*
X371413828Y-146833271D01*
X371402926Y-146843920D01*
X371372444Y-146869309D01*
X371342477Y-146884617D01*
X371304031Y-146894893D01*
X371289325Y-146897555D01*
X371212317Y-146902215D01*
X371119721Y-146894640D01*
X371012421Y-146874891D01*
X371010954Y-146874559D01*
X370952334Y-146861405D01*
X370909861Y-146852722D01*
X370879523Y-146848591D01*
X370857305Y-146849093D01*
X370839195Y-146854311D01*
X370821178Y-146864325D01*
X370799241Y-146879217D01*
X370775657Y-146894408D01*
X370746028Y-146908562D01*
X370714043Y-146916117D01*
X370673646Y-146918324D01*
X370618783Y-146916430D01*
X370579139Y-146910940D01*
X370526233Y-146891421D01*
X370484739Y-146860601D01*
X370457636Y-146820945D01*
X370447900Y-146774920D01*
X370447735Y-146765360D01*
X370445271Y-146753679D01*
X370436989Y-146744792D01*
X370419333Y-146736685D01*
X370388750Y-146727345D01*
X370341683Y-146714757D01*
X370314621Y-146707545D01*
X370260911Y-146692829D01*
X370211132Y-146678731D01*
X370173351Y-146667515D01*
X370146990Y-146659563D01*
X370100409Y-146645985D01*
X370046402Y-146630604D01*
X369992070Y-146615461D01*
X369910338Y-146592273D01*
X369799124Y-146559160D01*
X369675359Y-146520932D01*
X369542738Y-146478782D01*
X369404957Y-146433901D01*
X369265713Y-146387480D01*
X369128701Y-146340713D01*
X368997617Y-146294789D01*
X368982360Y-146289396D01*
X368932162Y-146272554D01*
X368891221Y-146261333D01*
X368852043Y-146254293D01*
X368807135Y-146249992D01*
X368749003Y-146246992D01*
X368691829Y-146243608D01*
X368618335Y-146237511D01*
X368542781Y-146229784D01*
X368474776Y-146221327D01*
X368455612Y-146218655D01*
X368405862Y-146211752D01*
X368365368Y-146206186D01*
X368337883Y-146202469D01*
X368327162Y-146201116D01*
X368326007Y-146202303D01*
X368324289Y-146215100D01*
X368322171Y-146227301D01*
X368305822Y-146257068D01*
X368276651Y-146289566D01*
X368238657Y-146320707D01*
X368195841Y-146346402D01*
X368190612Y-146348971D01*
X368159583Y-146363418D01*
X368134303Y-146372136D01*
X368108164Y-146376250D01*
X368074558Y-146376883D01*
X368026879Y-146375161D01*
X368014124Y-146374412D01*
X367967216Y-146370083D01*
X367906261Y-146362895D01*
X367835897Y-146353457D01*
X367760764Y-146342379D01*
X367685499Y-146330271D01*
X367445527Y-146289880D01*
X367392641Y-146339348D01*
X367363460Y-146365178D01*
X367323012Y-146393543D01*
X367281448Y-146411023D01*
X367232343Y-146420022D01*
X367169273Y-146422945D01*
X367151369Y-146423021D01*
X367120390Y-146422505D01*
X367089117Y-146420824D01*
X367055051Y-146417601D01*
X367015692Y-146412457D01*
X366968541Y-146405014D01*
X366911097Y-146394895D01*
X366840862Y-146381721D01*
X366755337Y-146365114D01*
X366652021Y-146344695D01*
X366593430Y-146333225D01*
X366527109Y-146320667D01*
X366469349Y-146310198D01*
X366423084Y-146302332D01*
X366391249Y-146297582D01*
X366376778Y-146296464D01*
X366375929Y-146299355D01*
X366386606Y-146314954D01*
X366412439Y-146343735D01*
X366453148Y-146385409D01*
X366508456Y-146439685D01*
X366578084Y-146506273D01*
X366626826Y-146552534D01*
X366728393Y-146649445D01*
X366835077Y-146751860D01*
X366945766Y-146858674D01*
X367059345Y-146968785D01*
X367174701Y-147081087D01*
X367290721Y-147194478D01*
X367406290Y-147307853D01*
X367520294Y-147420108D01*
X367631621Y-147530139D01*
X367739157Y-147636844D01*
X367841788Y-147739116D01*
X367938401Y-147835854D01*
X368027881Y-147925952D01*
X368109115Y-148008308D01*
X368180990Y-148081816D01*
X368242392Y-148145374D01*
X368292207Y-148197876D01*
X368329322Y-148238221D01*
X368352622Y-148265302D01*
X368373290Y-148292300D01*
X368411760Y-148353158D01*
X368432265Y-148406890D01*
X368435040Y-148455342D01*
X368420323Y-148500357D01*
X368388350Y-148543783D01*
X368374664Y-148556994D01*
X368340829Y-148582734D01*
X368308751Y-148599805D01*
X368262696Y-148610281D01*
X368200239Y-148611389D01*
X368135365Y-148601226D01*
X368075676Y-148580421D01*
X368059568Y-148571208D01*
X368023978Y-148545993D01*
X367978137Y-148509736D01*
X367924608Y-148464767D01*
X367865954Y-148413420D01*
X367804737Y-148358025D01*
X367743520Y-148300916D01*
X367684866Y-148244424D01*
X367631338Y-148190881D01*
X367585497Y-148142620D01*
X367549908Y-148101972D01*
X367544662Y-148095580D01*
X367499608Y-148040318D01*
X367466079Y-147998074D01*
X367442400Y-147966294D01*
X367426898Y-147942427D01*
X367417898Y-147923919D01*
X367413725Y-147908217D01*
X367412707Y-147892769D01*
X367418077Y-147866730D01*
X367433389Y-147837966D01*
X367453795Y-147815690D01*
X367474389Y-147806744D01*
X367479042Y-147805322D01*
X367485219Y-147792173D01*
X367485216Y-147792060D01*
X367477544Y-147778570D01*
X367455644Y-147751807D01*
X367420396Y-147712646D01*
X367372679Y-147661963D01*
X367313369Y-147600631D01*
X367243346Y-147529527D01*
X367163488Y-147449526D01*
X367074673Y-147361502D01*
X366977779Y-147266330D01*
X366873686Y-147164885D01*
X366763270Y-147058043D01*
X366647411Y-146946678D01*
X366526986Y-146831666D01*
X366402875Y-146713881D01*
X366379254Y-146691532D01*
X366318973Y-146634478D01*
X366258348Y-146577074D01*
X366201228Y-146522964D01*
X366151463Y-146475796D01*
X366112902Y-146439215D01*
X366097340Y-146424435D01*
X366031737Y-146362040D01*
X365978963Y-146311958D01*
X365937076Y-146272715D01*
X365904128Y-146242836D01*
X365878177Y-146220848D01*
X365857276Y-146205276D01*
X365839481Y-146194646D01*
X365822847Y-146187485D01*
X365805429Y-146182316D01*
X365785283Y-146177667D01*
X365760463Y-146172064D01*
X365722208Y-146163245D01*
X365662865Y-146150043D01*
X365598542Y-146136129D01*
X365537747Y-146123364D01*
X365494530Y-146114275D01*
X365421860Y-146098421D01*
X365348098Y-146081780D01*
X365283955Y-146066741D01*
X365222640Y-146052043D01*
X365171041Y-146039983D01*
X365134932Y-146032114D01*
X365111878Y-146028014D01*
X365099443Y-146027255D01*
X365095191Y-146029414D01*
X365096686Y-146034066D01*
X365104007Y-146041990D01*
X365124797Y-146061965D01*
X365156229Y-146091113D01*
X365195652Y-146126982D01*
X365240417Y-146167118D01*
X365269793Y-146193321D01*
X365322167Y-146240223D01*
X365372816Y-146285789D01*
X365417148Y-146325883D01*
X365450569Y-146356368D01*
X365474583Y-146378203D01*
X365516252Y-146415556D01*
X365565986Y-146459726D01*
X365619502Y-146506913D01*
X365672519Y-146553318D01*
X365714789Y-146590168D01*
X365776250Y-146643837D01*
X365827654Y-146688943D01*
X365872139Y-146728335D01*
X365912847Y-146764860D01*
X365952918Y-146801367D01*
X365995493Y-146840704D01*
X366043711Y-146885719D01*
X366100713Y-146939259D01*
X366169640Y-147004174D01*
X366215037Y-147047046D01*
X366348296Y-147174145D01*
X366466729Y-147289138D01*
X366570151Y-147391837D01*
X366658376Y-147482052D01*
X366731219Y-147559597D01*
X366788495Y-147624281D01*
X366830019Y-147675917D01*
X366845401Y-147703396D01*
X366854802Y-147750957D01*
X366846813Y-147799155D01*
X366821732Y-147842007D01*
X366795339Y-147866867D01*
X366756144Y-147887779D01*
X366706736Y-147897776D01*
X366642695Y-147898245D01*
X366617241Y-147896658D01*
X366589601Y-147893356D01*
X366564960Y-147887050D01*
X366541339Y-147876083D01*
X366516760Y-147858795D01*
X366489245Y-147833530D01*
X366456816Y-147798627D01*
X366417495Y-147752429D01*
X366369305Y-147693278D01*
X366310267Y-147619514D01*
X366274814Y-147576212D01*
X366198223Y-147488030D01*
X366109629Y-147391683D01*
X366011876Y-147290100D01*
X365907808Y-147186209D01*
X365800271Y-147082937D01*
X365692106Y-146983212D01*
X365678743Y-146971092D01*
X365646775Y-146941890D01*
X365604363Y-146902989D01*
X365554438Y-146857084D01*
X365499932Y-146806867D01*
X365443777Y-146755032D01*
X365414470Y-146728004D01*
X365354642Y-146673104D01*
X365295665Y-146619314D01*
X365241121Y-146569883D01*
X365194589Y-146528062D01*
X365159648Y-146497101D01*
X365144341Y-146483672D01*
X365102642Y-146446701D01*
X365056292Y-146405037D01*
X365003555Y-146357092D01*
X364942698Y-146301276D01*
X364871984Y-146236000D01*
X364789679Y-146159677D01*
X364694048Y-146070716D01*
X364685969Y-146063190D01*
X364623740Y-146005183D01*
X364574241Y-145959322D01*
X364535175Y-145923963D01*
X364504243Y-145897466D01*
X364479146Y-145878187D01*
X364457588Y-145864486D01*
X364437268Y-145854720D01*
X364415889Y-145847248D01*
X364391153Y-145840426D01*
X364360760Y-145832614D01*
X364319092Y-145821791D01*
X364230228Y-145798923D01*
X364144882Y-145777233D01*
X364065414Y-145757303D01*
X363994187Y-145739713D01*
X363933559Y-145725042D01*
X363885894Y-145713871D01*
X363853550Y-145706781D01*
X363838889Y-145704351D01*
X363833253Y-145706463D01*
X363818050Y-145722207D01*
X363802633Y-145748221D01*
X363801105Y-145751315D01*
X363773837Y-145789910D01*
X363737017Y-145822947D01*
X363726978Y-145829741D01*
X363703836Y-145842832D01*
X363679743Y-145850633D01*
X363648111Y-145854814D01*
X363602352Y-145857042D01*
X363591095Y-145857385D01*
X363548258Y-145857641D01*
X363518308Y-145854871D01*
X363494842Y-145848053D01*
X363471455Y-145836167D01*
X363447207Y-145819720D01*
X363409178Y-145778990D01*
X363387529Y-145731622D01*
X363383555Y-145681257D01*
X363398555Y-145631534D01*
X363398919Y-145630834D01*
X363405641Y-145618216D01*
X363408540Y-145609081D01*
X363404880Y-145602107D01*
X363391927Y-145595973D01*
X363366944Y-145589355D01*
X363327197Y-145580933D01*
X363269950Y-145569385D01*
X363235174Y-145562202D01*
X363195838Y-145553683D01*
X363167807Y-145547132D01*
X363155594Y-145543568D01*
X363154420Y-145543118D01*
X363137580Y-145538756D01*
X363102207Y-145530446D01*
X363049671Y-145518492D01*
X362981344Y-145503198D01*
X362898595Y-145484867D01*
X362802795Y-145463805D01*
X362695316Y-145440314D01*
X362577526Y-145414700D01*
X362450798Y-145387264D01*
X362323674Y-145359746D01*
X362201915Y-145333235D01*
X362094726Y-145309692D01*
X361999134Y-145288446D01*
X361912164Y-145268824D01*
X361830841Y-145250156D01*
X361752191Y-145231768D01*
X361673239Y-145212991D01*
X361591010Y-145193152D01*
X361548510Y-145182879D01*
X361455078Y-145160517D01*
X361356599Y-145137199D01*
X361259362Y-145114402D01*
X361169660Y-145093605D01*
X361093783Y-145076287D01*
X361032311Y-145062271D01*
X360971758Y-145047888D01*
X360926485Y-145036129D01*
X360893712Y-145026130D01*
X360870657Y-145017023D01*
X360854540Y-145007942D01*
X360842580Y-144998020D01*
X360831670Y-144986013D01*
X360815739Y-144953632D01*
X360820503Y-144922192D01*
X360845965Y-144891637D01*
X360859230Y-144881633D01*
X360876878Y-144872683D01*
X360898534Y-144867510D01*
X360926909Y-144866197D01*
X360964714Y-144868827D01*
X361014660Y-144875480D01*
X361079457Y-144886238D01*
X361161817Y-144901185D01*
X361180246Y-144904595D01*
X361246636Y-144916813D01*
X361327423Y-144931603D01*
X361418127Y-144948148D01*
X361514270Y-144965632D01*
X361611373Y-144983239D01*
X361704958Y-145000154D01*
X361762385Y-145010545D01*
X361843941Y-145025411D01*
X361918992Y-145039216D01*
X361984761Y-145051444D01*
X362038470Y-145061576D01*
X362077341Y-145069095D01*
X362098596Y-145073484D01*
X362112706Y-145076644D01*
X362149014Y-145084534D01*
X362198104Y-145095030D01*
X362255351Y-145107145D01*
X362316132Y-145119894D01*
X362392117Y-145135760D01*
X362497952Y-145157877D01*
X362586873Y-145176490D01*
X362660948Y-145192040D01*
X362722248Y-145204967D01*
X362772842Y-145215710D01*
X362814801Y-145224711D01*
X362850192Y-145232409D01*
X362881087Y-145239245D01*
X362909555Y-145245659D01*
X362937666Y-145252090D01*
X362959545Y-145257085D01*
X363024099Y-145271506D01*
X363091412Y-145286184D01*
X363150023Y-145298610D01*
X363157933Y-145300261D01*
X363213377Y-145312164D01*
X363285727Y-145328122D01*
X363372229Y-145347506D01*
X363470126Y-145369687D01*
X363576664Y-145394035D01*
X363689085Y-145419921D01*
X363804636Y-145446716D01*
X363920559Y-145473790D01*
X364034100Y-145500514D01*
X364099824Y-145516049D01*
X364080715Y-145494473D01*
X364078896Y-145492502D01*
X364063610Y-145476783D01*
X364035776Y-145448678D01*
X363997094Y-145409884D01*
X363949264Y-145362101D01*
X363893985Y-145307028D01*
X363832958Y-145246363D01*
X363767883Y-145181806D01*
X363760255Y-145174244D01*
X363692255Y-145106518D01*
X363626086Y-145040106D01*
X363563905Y-144977208D01*
X363507870Y-144920025D01*
X363460140Y-144870758D01*
X363422873Y-144831608D01*
X363398226Y-144804777D01*
X363354153Y-144750716D01*
X363315880Y-144689956D01*
X363296184Y-144635884D01*
X363294894Y-144587485D01*
X363311834Y-144543747D01*
X363346834Y-144503654D01*
X363350898Y-144500184D01*
X363404347Y-144468171D01*
X363465271Y-144451879D01*
X363528541Y-144451403D01*
X363589027Y-144466836D01*
X363641599Y-144498271D01*
X363652657Y-144508794D01*
X363677698Y-144536351D01*
X363707858Y-144572549D01*
X363738831Y-144612337D01*
X363769083Y-144651739D01*
X363834036Y-144732278D01*
X363910597Y-144823061D01*
X363996515Y-144921562D01*
X364089542Y-145025255D01*
X364187427Y-145131611D01*
X364287919Y-145238104D01*
X364388769Y-145342208D01*
X364425043Y-145379242D01*
X364479467Y-145435080D01*
X364534705Y-145492008D01*
X364583104Y-145542149D01*
X364679888Y-145642799D01*
X364795461Y-145669192D01*
X364836691Y-145678453D01*
X364912661Y-145695034D01*
X365003314Y-145714375D01*
X365105269Y-145735764D01*
X365215149Y-145758489D01*
X365329575Y-145781837D01*
X365336624Y-145783244D01*
X365372682Y-145789712D01*
X365399086Y-145793248D01*
X365410541Y-145793113D01*
X365405131Y-145786129D01*
X365386280Y-145766979D01*
X365355851Y-145737580D01*
X365315805Y-145699800D01*
X365268106Y-145655509D01*
X365214716Y-145606576D01*
X365174844Y-145570245D01*
X365009895Y-145419689D01*
X364857769Y-145280408D01*
X364718798Y-145152711D01*
X364593317Y-145036909D01*
X364481661Y-144933310D01*
X364384163Y-144842225D01*
X364301158Y-144763964D01*
X364232979Y-144698835D01*
X364179960Y-144647150D01*
X364161169Y-144628434D01*
X364103043Y-144568205D01*
X364059577Y-144518090D01*
X364029608Y-144475838D01*
X364011974Y-144439200D01*
X364005511Y-144405925D01*
X364009056Y-144373764D01*
X364021447Y-144340467D01*
X364050033Y-144300150D01*
X364094378Y-144269210D01*
X364156199Y-144246802D01*
X364176586Y-144241779D01*
X364207041Y-144237247D01*
X364235282Y-144239573D01*
X364272120Y-144248959D01*
X364278808Y-144250958D01*
X364304430Y-144260387D01*
X364328325Y-144273427D01*
X364354463Y-144292959D01*
X364386814Y-144321862D01*
X364429346Y-144363016D01*
X364470810Y-144402703D01*
X364518040Y-144445728D01*
X364562497Y-144484241D01*
X364598352Y-144513065D01*
X364636335Y-144543604D01*
X364677589Y-144585410D01*
X364701350Y-144624169D01*
X364708997Y-144661733D01*
X364710300Y-144668883D01*
X364715520Y-144679718D01*
X364725761Y-144694611D01*
X364742110Y-144714719D01*
X364765656Y-144741203D01*
X364797484Y-144775221D01*
X364838682Y-144817934D01*
X364890338Y-144870501D01*
X364953538Y-144934082D01*
X365029369Y-145009835D01*
X365118919Y-145098921D01*
X365135769Y-145115655D01*
X365220595Y-145199749D01*
X365306973Y-145285154D01*
X365392586Y-145369592D01*
X365475117Y-145450786D01*
X365552248Y-145526459D01*
X365621662Y-145594333D01*
X365681041Y-145652131D01*
X365728069Y-145697576D01*
X365751234Y-145719904D01*
X365805294Y-145772283D01*
X365848583Y-145813396D01*
X365884553Y-145844954D01*
X365916656Y-145868668D01*
X365948346Y-145886247D01*
X365983075Y-145899402D01*
X366024296Y-145909845D01*
X366075461Y-145919284D01*
X366140023Y-145929432D01*
X366221434Y-145941997D01*
X366284933Y-145952091D01*
X366353409Y-145963144D01*
X366416477Y-145973487D01*
X366469116Y-145982296D01*
X366506304Y-145988747D01*
X366526054Y-145992198D01*
X366574282Y-146000236D01*
X366634057Y-146009862D01*
X366699637Y-146020157D01*
X366765276Y-146030202D01*
X366805933Y-146036397D01*
X366867309Y-146045986D01*
X366922675Y-146054902D01*
X366967202Y-146062365D01*
X366996061Y-146067592D01*
X367025058Y-146072768D01*
X367046987Y-146072902D01*
X367064717Y-146064883D01*
X367086841Y-146046736D01*
X367112863Y-146025796D01*
X367184906Y-145984784D01*
X367267011Y-145960649D01*
X367360912Y-145952795D01*
X367392795Y-145953478D01*
X367438680Y-145956627D01*
X367491760Y-145962745D01*
X367555276Y-145972281D01*
X367632472Y-145985683D01*
X367726589Y-146003401D01*
X367758975Y-146009606D01*
X367809678Y-146018677D01*
X367845085Y-146023252D01*
X367868519Y-146023121D01*
X367883305Y-146018073D01*
X367892764Y-146007897D01*
X367900219Y-145992382D01*
X367904294Y-145983882D01*
X367923848Y-145953833D01*
X367948460Y-145925025D01*
X367983184Y-145890301D01*
X367752329Y-145776892D01*
X367661436Y-145731939D01*
X367545713Y-145673497D01*
X367444925Y-145620817D01*
X367356653Y-145572479D01*
X367278482Y-145527067D01*
X367207992Y-145483161D01*
X367142768Y-145439344D01*
X367080391Y-145394196D01*
X367018444Y-145346300D01*
X366956910Y-145295199D01*
X366892186Y-145233925D01*
X366844148Y-145177225D01*
X366811428Y-145123145D01*
X366792656Y-145069729D01*
X366787712Y-145026038D01*
X367205626Y-145026038D01*
X367215459Y-145043387D01*
X367234148Y-145067612D01*
X367252717Y-145089976D01*
X367283356Y-145123653D01*
X367310088Y-145149688D01*
X367319429Y-145157660D01*
X367364214Y-145193053D01*
X367421707Y-145235335D01*
X367487828Y-145281689D01*
X367558500Y-145329298D01*
X367629642Y-145375345D01*
X367697177Y-145417013D01*
X367709146Y-145424126D01*
X367777028Y-145462932D01*
X367854617Y-145505136D01*
X367939755Y-145549734D01*
X368030286Y-145595721D01*
X368124054Y-145642093D01*
X368218902Y-145687845D01*
X368312673Y-145731973D01*
X368403212Y-145773473D01*
X368488362Y-145811339D01*
X368565965Y-145844569D01*
X368633867Y-145872156D01*
X368689909Y-145893097D01*
X368731937Y-145906388D01*
X368757793Y-145911023D01*
X368770201Y-145909482D01*
X368801082Y-145900377D01*
X368834840Y-145885825D01*
X368870397Y-145870341D01*
X368933838Y-145854983D01*
X369004920Y-145853055D01*
X369088013Y-145864185D01*
X369148392Y-145876389D01*
X369242232Y-145896686D01*
X369350975Y-145921407D01*
X369471776Y-145949880D01*
X369601788Y-145981431D01*
X369738168Y-146015387D01*
X369878070Y-146051076D01*
X369912025Y-146059826D01*
X369968563Y-146074010D01*
X370007843Y-146082610D01*
X370031753Y-146085366D01*
X370042178Y-146082021D01*
X370041006Y-146072314D01*
X370030126Y-146055988D01*
X370011422Y-146032784D01*
X369984527Y-146001000D01*
X369945175Y-145955881D01*
X369897199Y-145901776D01*
X369843437Y-145841820D01*
X369786728Y-145779149D01*
X369729910Y-145716900D01*
X369675822Y-145658208D01*
X369627302Y-145606211D01*
X369587188Y-145564044D01*
X369552410Y-145527738D01*
X369513733Y-145486748D01*
X369480175Y-145450567D01*
X369456417Y-145424199D01*
X369453129Y-145420487D01*
X369430561Y-145395995D01*
X369396979Y-145360494D01*
X369355281Y-145317014D01*
X369308371Y-145268583D01*
X369259148Y-145218231D01*
X369252027Y-145210988D01*
X369199476Y-145158098D01*
X369159048Y-145118733D01*
X369129003Y-145091388D01*
X369107604Y-145074556D01*
X369093111Y-145066732D01*
X369083785Y-145066411D01*
X369062425Y-145073387D01*
X369000948Y-145082950D01*
X368922341Y-145083790D01*
X368827778Y-145075864D01*
X368779550Y-145069775D01*
X368738795Y-145064115D01*
X368710050Y-145059547D01*
X368697601Y-145056701D01*
X368697312Y-145056562D01*
X368683576Y-145053694D01*
X368652923Y-145048755D01*
X368608696Y-145042197D01*
X368554241Y-145034475D01*
X368492901Y-145026044D01*
X368428021Y-145017356D01*
X368362945Y-145008867D01*
X368301017Y-145001030D01*
X368245581Y-144994299D01*
X368199982Y-144989130D01*
X368141782Y-144983169D01*
X367995596Y-144970632D01*
X367855216Y-144962012D01*
X367723059Y-144957339D01*
X367601542Y-144956642D01*
X367493082Y-144959950D01*
X367400097Y-144967291D01*
X367325005Y-144978695D01*
X367296567Y-144984560D01*
X367250119Y-144994825D01*
X367220870Y-145003798D01*
X367206734Y-145013522D01*
X367205626Y-145026038D01*
X366787712Y-145026038D01*
X366786465Y-145015023D01*
X366794512Y-144952171D01*
X366821802Y-144889804D01*
X366867638Y-144834024D01*
X366931232Y-144785569D01*
X367011796Y-144745177D01*
X367108543Y-144713585D01*
X367142697Y-144705349D01*
X367183784Y-144697322D01*
X367228331Y-144691049D01*
X367280653Y-144686046D01*
X367345063Y-144681827D01*
X367425875Y-144677907D01*
X367434157Y-144677552D01*
X367503552Y-144674954D01*
X367569769Y-144673090D01*
X367628428Y-144672040D01*
X367675153Y-144671886D01*
X367705565Y-144672710D01*
X367739991Y-144674748D01*
X367789653Y-144677431D01*
X367846816Y-144680342D01*
X367904754Y-144683129D01*
X367906219Y-144683197D01*
X367961814Y-144686081D01*
X368014203Y-144689302D01*
X368057554Y-144692472D01*
X368086034Y-144695203D01*
X368104304Y-144697327D01*
X368120879Y-144698197D01*
X368123468Y-144695401D01*
X368110762Y-144687921D01*
X368081456Y-144674736D01*
X368034240Y-144654829D01*
X367982997Y-144633425D01*
X367910505Y-144603064D01*
X367833871Y-144570893D01*
X367756417Y-144538312D01*
X367681464Y-144506722D01*
X367612337Y-144477523D01*
X367552356Y-144452116D01*
X367504844Y-144431902D01*
X367473124Y-144418281D01*
X367469271Y-144416613D01*
X367435285Y-144402290D01*
X367409662Y-144392155D01*
X367397692Y-144388310D01*
X367396573Y-144388066D01*
X367381356Y-144382150D01*
X367351872Y-144369522D01*
X367311785Y-144351774D01*
X367264762Y-144330502D01*
X367210383Y-144306199D01*
X367154385Y-144282098D01*
X367103956Y-144261255D01*
X367065684Y-144246451D01*
X367040036Y-144236639D01*
X366991300Y-144216488D01*
X366936857Y-144192675D01*
X366884403Y-144168509D01*
X366877688Y-144165324D01*
X366824014Y-144140181D01*
X366759973Y-144110591D01*
X366693021Y-144079983D01*
X366630610Y-144051785D01*
X366616193Y-144045305D01*
X366457875Y-143971986D01*
X366311640Y-143900223D01*
X366178447Y-143830600D01*
X366059257Y-143763699D01*
X365955030Y-143700105D01*
X365866724Y-143640400D01*
X365795300Y-143585168D01*
X365741718Y-143534992D01*
X365706938Y-143490455D01*
X365705646Y-143488289D01*
X365680917Y-143428015D01*
X365679518Y-143412728D01*
X366129441Y-143412728D01*
X366129514Y-143412914D01*
X366139636Y-143423449D01*
X366163206Y-143442986D01*
X366196795Y-143468798D01*
X366236972Y-143498162D01*
X366256293Y-143511832D01*
X366320481Y-143555356D01*
X366388438Y-143598365D01*
X366462714Y-143642291D01*
X366545861Y-143688567D01*
X366640430Y-143738625D01*
X366748974Y-143793897D01*
X366874044Y-143855817D01*
X366919555Y-143878102D01*
X367013680Y-143924140D01*
X367092267Y-143962463D01*
X367157452Y-143994078D01*
X367211370Y-144019991D01*
X367256158Y-144041209D01*
X367293950Y-144058738D01*
X367326884Y-144073586D01*
X367357093Y-144086757D01*
X367386716Y-144099259D01*
X367417886Y-144112098D01*
X367457024Y-144128222D01*
X367510215Y-144150490D01*
X367558206Y-144170947D01*
X367593987Y-144186627D01*
X367613657Y-144195256D01*
X367660594Y-144215055D01*
X367722100Y-144240358D01*
X367795168Y-144269971D01*
X367876794Y-144302703D01*
X367963971Y-144337360D01*
X368053694Y-144372749D01*
X368142958Y-144407678D01*
X368228756Y-144440953D01*
X368308083Y-144471381D01*
X368377933Y-144497770D01*
X368398239Y-144505339D01*
X368458354Y-144527463D01*
X368511285Y-144546528D01*
X368553987Y-144561463D01*
X368583411Y-144571196D01*
X368596511Y-144574655D01*
X368598643Y-144573132D01*
X368591789Y-144562884D01*
X368572902Y-144546190D01*
X368566033Y-144540610D01*
X368538373Y-144516201D01*
X368504186Y-144484128D01*
X368469313Y-144449825D01*
X368467855Y-144448356D01*
X368443771Y-144424582D01*
X368406959Y-144388811D01*
X368359554Y-144343095D01*
X368303694Y-144289484D01*
X368241515Y-144230031D01*
X368175156Y-144166787D01*
X368106752Y-144101803D01*
X368096592Y-144092163D01*
X368029662Y-144028475D01*
X367966077Y-143967666D01*
X367907790Y-143911625D01*
X367856755Y-143862242D01*
X367814927Y-143821408D01*
X367784261Y-143791011D01*
X367766709Y-143772942D01*
X367758787Y-143764067D01*
X367723645Y-143717176D01*
X367700641Y-143672617D01*
X367692283Y-143635033D01*
X367692259Y-143634252D01*
X367687465Y-143624416D01*
X367672082Y-143615260D01*
X367642838Y-143605358D01*
X367596463Y-143593285D01*
X367542001Y-143580314D01*
X367341034Y-143536665D01*
X367130317Y-143496870D01*
X366918312Y-143462446D01*
X366713481Y-143434912D01*
X366682261Y-143431391D01*
X366613045Y-143424665D01*
X366539537Y-143418738D01*
X366464508Y-143413715D01*
X366390728Y-143409703D01*
X366320968Y-143406805D01*
X366257998Y-143405128D01*
X366204590Y-143404777D01*
X366163514Y-143405856D01*
X366137541Y-143408471D01*
X366129441Y-143412728D01*
X365679518Y-143412728D01*
X365675330Y-143366973D01*
X365687744Y-143308280D01*
X365717016Y-143255057D01*
X365762003Y-143210424D01*
X365821564Y-143177498D01*
X365837323Y-143171549D01*
X365887878Y-143155745D01*
X365942169Y-143144318D01*
X366004413Y-143136699D01*
X366078831Y-143132319D01*
X366169640Y-143130611D01*
X366291603Y-143132303D01*
X366481672Y-143142907D01*
X366687638Y-143162996D01*
X366908102Y-143192402D01*
X367141665Y-143230954D01*
X367386929Y-143278482D01*
X367501305Y-143303079D01*
X367657092Y-143339203D01*
X367815277Y-143378660D01*
X367974353Y-143420926D01*
X368132811Y-143465479D01*
X368289144Y-143511798D01*
X368441843Y-143559359D01*
X368589400Y-143607641D01*
X368730308Y-143656122D01*
X368863057Y-143704279D01*
X368986140Y-143751590D01*
X369098049Y-143797532D01*
X369197276Y-143841585D01*
X369282312Y-143883224D01*
X369351650Y-143921929D01*
X369403781Y-143957177D01*
X369437198Y-143988445D01*
X369455855Y-144018282D01*
X369469411Y-144066312D01*
X369466671Y-144114583D01*
X369447276Y-144157065D01*
X369433933Y-144173031D01*
X369399639Y-144203241D01*
X369362767Y-144224899D01*
X369330159Y-144233536D01*
X369322220Y-144233860D01*
X369311448Y-144236795D01*
X369318742Y-144244043D01*
X369325528Y-144248355D01*
X369375014Y-144279394D01*
X369434116Y-144315940D01*
X369497405Y-144354684D01*
X369559453Y-144392314D01*
X369614830Y-144425521D01*
X369658108Y-144450993D01*
X369681018Y-144464320D01*
X369726351Y-144491038D01*
X369778262Y-144522078D01*
X369838951Y-144558773D01*
X369910615Y-144602453D01*
X369995452Y-144654451D01*
X370095659Y-144716098D01*
X370161288Y-144756601D01*
X370244248Y-144808105D01*
X370311332Y-144850198D01*
X370363677Y-144883609D01*
X370402420Y-144909065D01*
X370428698Y-144927296D01*
X370443649Y-144939030D01*
X370446364Y-144941255D01*
X370469462Y-144955257D01*
X370504347Y-144972279D01*
X370544592Y-144989131D01*
X370574822Y-145001079D01*
X370621962Y-145022031D01*
X370654694Y-145041144D01*
X370676740Y-145060799D01*
X370691825Y-145083379D01*
X370698185Y-145097667D01*
X370706446Y-145145907D01*
X370696609Y-145192630D01*
X370670298Y-145233192D01*
X370629134Y-145262945D01*
X370602291Y-145272762D01*
X370565837Y-145277938D01*
X370516553Y-145277399D01*
X370495301Y-145275958D01*
X370466396Y-145272114D01*
X370437900Y-145264905D01*
X370405127Y-145252758D01*
X370363394Y-145234100D01*
X370308017Y-145207357D01*
X370275530Y-145191030D01*
X370229532Y-145166518D01*
X370180616Y-145138669D01*
X370126454Y-145106036D01*
X370064718Y-145067175D01*
X369993080Y-145020643D01*
X369909213Y-144964994D01*
X369810790Y-144898784D01*
X369807704Y-144896705D01*
X369773229Y-144873937D01*
X369727439Y-144844254D01*
X369675939Y-144811270D01*
X369624330Y-144778595D01*
X369623585Y-144778127D01*
X369568485Y-144743430D01*
X369510255Y-144706691D01*
X369455786Y-144672262D01*
X369411972Y-144644495D01*
X369410462Y-144643536D01*
X369366177Y-144615736D01*
X369311247Y-144581689D01*
X369252514Y-144545619D01*
X369196824Y-144511748D01*
X369161258Y-144490250D01*
X369098186Y-144452118D01*
X369049390Y-144422597D01*
X369012526Y-144400260D01*
X368985248Y-144383680D01*
X368965211Y-144371430D01*
X368950072Y-144362083D01*
X368937484Y-144354213D01*
X368925105Y-144346392D01*
X368905044Y-144334127D01*
X368869890Y-144313284D01*
X368826502Y-144287977D01*
X368780080Y-144261256D01*
X368738875Y-144237669D01*
X368694914Y-144212428D01*
X368658579Y-144191487D01*
X368635056Y-144177827D01*
X368598800Y-144156565D01*
X368619517Y-144181177D01*
X368628887Y-144191684D01*
X368652390Y-144216658D01*
X368683601Y-144248919D01*
X368718328Y-144284101D01*
X368735132Y-144301066D01*
X368767441Y-144333894D01*
X368811349Y-144378643D01*
X368865290Y-144433713D01*
X368927698Y-144497502D01*
X368997008Y-144568410D01*
X369001620Y-144573132D01*
X369071654Y-144644837D01*
G37*
%TD*%
M02*
