%TF.GenerationSoftware,KiCad,Pcbnew,7.0.9*%
%TF.CreationDate,2024-07-27T11:54:38-04:00*%
%TF.ProjectId,panel,70616e65-6c2e-46b6-9963-61645f706362,0.1*%
%TF.SameCoordinates,Original*%
%TF.FileFunction,Legend,Bot*%
%TF.FilePolarity,Positive*%
%FSLAX46Y46*%
G04 Gerber Fmt 4.6, Leading zero omitted, Abs format (unit mm)*
G04 Created by KiCad (PCBNEW 7.0.9) date 2024-07-27 11:54:38*
%MOMM*%
%LPD*%
G01*
G04 APERTURE LIST*
%ADD10C,0.150000*%
G04 APERTURE END LIST*
D10*
X219913220Y-139532819D02*
X219913220Y-138532819D01*
X219913220Y-138532819D02*
X219579887Y-139247104D01*
X219579887Y-139247104D02*
X219246554Y-138532819D01*
X219246554Y-138532819D02*
X219246554Y-139532819D01*
X218579887Y-138532819D02*
X218389411Y-138532819D01*
X218389411Y-138532819D02*
X218294173Y-138580438D01*
X218294173Y-138580438D02*
X218198935Y-138675676D01*
X218198935Y-138675676D02*
X218151316Y-138866152D01*
X218151316Y-138866152D02*
X218151316Y-139199485D01*
X218151316Y-139199485D02*
X218198935Y-139389961D01*
X218198935Y-139389961D02*
X218294173Y-139485200D01*
X218294173Y-139485200D02*
X218389411Y-139532819D01*
X218389411Y-139532819D02*
X218579887Y-139532819D01*
X218579887Y-139532819D02*
X218675125Y-139485200D01*
X218675125Y-139485200D02*
X218770363Y-139389961D01*
X218770363Y-139389961D02*
X218817982Y-139199485D01*
X218817982Y-139199485D02*
X218817982Y-138866152D01*
X218817982Y-138866152D02*
X218770363Y-138675676D01*
X218770363Y-138675676D02*
X218675125Y-138580438D01*
X218675125Y-138580438D02*
X218579887Y-138532819D01*
X217722744Y-139532819D02*
X217722744Y-138532819D01*
X217722744Y-138532819D02*
X217484649Y-138532819D01*
X217484649Y-138532819D02*
X217341792Y-138580438D01*
X217341792Y-138580438D02*
X217246554Y-138675676D01*
X217246554Y-138675676D02*
X217198935Y-138770914D01*
X217198935Y-138770914D02*
X217151316Y-138961390D01*
X217151316Y-138961390D02*
X217151316Y-139104247D01*
X217151316Y-139104247D02*
X217198935Y-139294723D01*
X217198935Y-139294723D02*
X217246554Y-139389961D01*
X217246554Y-139389961D02*
X217341792Y-139485200D01*
X217341792Y-139485200D02*
X217484649Y-139532819D01*
X217484649Y-139532819D02*
X217722744Y-139532819D01*
X216722744Y-139009009D02*
X216389411Y-139009009D01*
X216246554Y-139532819D02*
X216722744Y-139532819D01*
X216722744Y-139532819D02*
X216722744Y-138532819D01*
X216722744Y-138532819D02*
X216246554Y-138532819D01*
X215341792Y-139532819D02*
X215817982Y-139532819D01*
X215817982Y-139532819D02*
X215817982Y-138532819D01*
X213913220Y-139009009D02*
X213770363Y-139056628D01*
X213770363Y-139056628D02*
X213722744Y-139104247D01*
X213722744Y-139104247D02*
X213675125Y-139199485D01*
X213675125Y-139199485D02*
X213675125Y-139342342D01*
X213675125Y-139342342D02*
X213722744Y-139437580D01*
X213722744Y-139437580D02*
X213770363Y-139485200D01*
X213770363Y-139485200D02*
X213865601Y-139532819D01*
X213865601Y-139532819D02*
X214246553Y-139532819D01*
X214246553Y-139532819D02*
X214246553Y-138532819D01*
X214246553Y-138532819D02*
X213913220Y-138532819D01*
X213913220Y-138532819D02*
X213817982Y-138580438D01*
X213817982Y-138580438D02*
X213770363Y-138628057D01*
X213770363Y-138628057D02*
X213722744Y-138723295D01*
X213722744Y-138723295D02*
X213722744Y-138818533D01*
X213722744Y-138818533D02*
X213770363Y-138913771D01*
X213770363Y-138913771D02*
X213817982Y-138961390D01*
X213817982Y-138961390D02*
X213913220Y-139009009D01*
X213913220Y-139009009D02*
X214246553Y-139009009D01*
X212484648Y-139151866D02*
X211722744Y-139151866D01*
X210627505Y-138532819D02*
X210294172Y-139532819D01*
X210294172Y-139532819D02*
X209960839Y-138532819D01*
X209437029Y-138532819D02*
X209341791Y-138532819D01*
X209341791Y-138532819D02*
X209246553Y-138580438D01*
X209246553Y-138580438D02*
X209198934Y-138628057D01*
X209198934Y-138628057D02*
X209151315Y-138723295D01*
X209151315Y-138723295D02*
X209103696Y-138913771D01*
X209103696Y-138913771D02*
X209103696Y-139151866D01*
X209103696Y-139151866D02*
X209151315Y-139342342D01*
X209151315Y-139342342D02*
X209198934Y-139437580D01*
X209198934Y-139437580D02*
X209246553Y-139485200D01*
X209246553Y-139485200D02*
X209341791Y-139532819D01*
X209341791Y-139532819D02*
X209437029Y-139532819D01*
X209437029Y-139532819D02*
X209532267Y-139485200D01*
X209532267Y-139485200D02*
X209579886Y-139437580D01*
X209579886Y-139437580D02*
X209627505Y-139342342D01*
X209627505Y-139342342D02*
X209675124Y-139151866D01*
X209675124Y-139151866D02*
X209675124Y-138913771D01*
X209675124Y-138913771D02*
X209627505Y-138723295D01*
X209627505Y-138723295D02*
X209579886Y-138628057D01*
X209579886Y-138628057D02*
X209532267Y-138580438D01*
X209532267Y-138580438D02*
X209437029Y-138532819D01*
X208675124Y-139437580D02*
X208627505Y-139485200D01*
X208627505Y-139485200D02*
X208675124Y-139532819D01*
X208675124Y-139532819D02*
X208722743Y-139485200D01*
X208722743Y-139485200D02*
X208675124Y-139437580D01*
X208675124Y-139437580D02*
X208675124Y-139532819D01*
X207675125Y-139532819D02*
X208246553Y-139532819D01*
X207960839Y-139532819D02*
X207960839Y-138532819D01*
X207960839Y-138532819D02*
X208056077Y-138675676D01*
X208056077Y-138675676D02*
X208151315Y-138770914D01*
X208151315Y-138770914D02*
X208246553Y-138818533D01*
X219579887Y-140619009D02*
X219437030Y-140666628D01*
X219437030Y-140666628D02*
X219389411Y-140714247D01*
X219389411Y-140714247D02*
X219341792Y-140809485D01*
X219341792Y-140809485D02*
X219341792Y-140952342D01*
X219341792Y-140952342D02*
X219389411Y-141047580D01*
X219389411Y-141047580D02*
X219437030Y-141095200D01*
X219437030Y-141095200D02*
X219532268Y-141142819D01*
X219532268Y-141142819D02*
X219913220Y-141142819D01*
X219913220Y-141142819D02*
X219913220Y-140142819D01*
X219913220Y-140142819D02*
X219579887Y-140142819D01*
X219579887Y-140142819D02*
X219484649Y-140190438D01*
X219484649Y-140190438D02*
X219437030Y-140238057D01*
X219437030Y-140238057D02*
X219389411Y-140333295D01*
X219389411Y-140333295D02*
X219389411Y-140428533D01*
X219389411Y-140428533D02*
X219437030Y-140523771D01*
X219437030Y-140523771D02*
X219484649Y-140571390D01*
X219484649Y-140571390D02*
X219579887Y-140619009D01*
X219579887Y-140619009D02*
X219913220Y-140619009D01*
X218913220Y-141142819D02*
X218913220Y-140476152D01*
X218913220Y-140666628D02*
X218865601Y-140571390D01*
X218865601Y-140571390D02*
X218817982Y-140523771D01*
X218817982Y-140523771D02*
X218722744Y-140476152D01*
X218722744Y-140476152D02*
X218627506Y-140476152D01*
X218294172Y-141142819D02*
X218294172Y-140476152D01*
X218294172Y-140142819D02*
X218341791Y-140190438D01*
X218341791Y-140190438D02*
X218294172Y-140238057D01*
X218294172Y-140238057D02*
X218246553Y-140190438D01*
X218246553Y-140190438D02*
X218294172Y-140142819D01*
X218294172Y-140142819D02*
X218294172Y-140238057D01*
X217389411Y-141142819D02*
X217389411Y-140619009D01*
X217389411Y-140619009D02*
X217437030Y-140523771D01*
X217437030Y-140523771D02*
X217532268Y-140476152D01*
X217532268Y-140476152D02*
X217722744Y-140476152D01*
X217722744Y-140476152D02*
X217817982Y-140523771D01*
X217389411Y-141095200D02*
X217484649Y-141142819D01*
X217484649Y-141142819D02*
X217722744Y-141142819D01*
X217722744Y-141142819D02*
X217817982Y-141095200D01*
X217817982Y-141095200D02*
X217865601Y-140999961D01*
X217865601Y-140999961D02*
X217865601Y-140904723D01*
X217865601Y-140904723D02*
X217817982Y-140809485D01*
X217817982Y-140809485D02*
X217722744Y-140761866D01*
X217722744Y-140761866D02*
X217484649Y-140761866D01*
X217484649Y-140761866D02*
X217389411Y-140714247D01*
X216913220Y-140476152D02*
X216913220Y-141142819D01*
X216913220Y-140571390D02*
X216865601Y-140523771D01*
X216865601Y-140523771D02*
X216770363Y-140476152D01*
X216770363Y-140476152D02*
X216627506Y-140476152D01*
X216627506Y-140476152D02*
X216532268Y-140523771D01*
X216532268Y-140523771D02*
X216484649Y-140619009D01*
X216484649Y-140619009D02*
X216484649Y-141142819D01*
X215246553Y-141142819D02*
X215246553Y-140142819D01*
X215246553Y-140619009D02*
X214675125Y-140619009D01*
X214675125Y-141142819D02*
X214675125Y-140142819D01*
X214198934Y-141142819D02*
X214198934Y-140476152D01*
X214198934Y-140142819D02*
X214246553Y-140190438D01*
X214246553Y-140190438D02*
X214198934Y-140238057D01*
X214198934Y-140238057D02*
X214151315Y-140190438D01*
X214151315Y-140190438D02*
X214198934Y-140142819D01*
X214198934Y-140142819D02*
X214198934Y-140238057D01*
X213579887Y-141142819D02*
X213675125Y-141095200D01*
X213675125Y-141095200D02*
X213722744Y-140999961D01*
X213722744Y-140999961D02*
X213722744Y-140142819D01*
X213056077Y-141142819D02*
X213151315Y-141095200D01*
X213151315Y-141095200D02*
X213198934Y-140999961D01*
X213198934Y-140999961D02*
X213198934Y-140142819D01*
X211960838Y-140238057D02*
X211913219Y-140190438D01*
X211913219Y-140190438D02*
X211817981Y-140142819D01*
X211817981Y-140142819D02*
X211579886Y-140142819D01*
X211579886Y-140142819D02*
X211484648Y-140190438D01*
X211484648Y-140190438D02*
X211437029Y-140238057D01*
X211437029Y-140238057D02*
X211389410Y-140333295D01*
X211389410Y-140333295D02*
X211389410Y-140428533D01*
X211389410Y-140428533D02*
X211437029Y-140571390D01*
X211437029Y-140571390D02*
X212008457Y-141142819D01*
X212008457Y-141142819D02*
X211389410Y-141142819D01*
X210770362Y-140142819D02*
X210675124Y-140142819D01*
X210675124Y-140142819D02*
X210579886Y-140190438D01*
X210579886Y-140190438D02*
X210532267Y-140238057D01*
X210532267Y-140238057D02*
X210484648Y-140333295D01*
X210484648Y-140333295D02*
X210437029Y-140523771D01*
X210437029Y-140523771D02*
X210437029Y-140761866D01*
X210437029Y-140761866D02*
X210484648Y-140952342D01*
X210484648Y-140952342D02*
X210532267Y-141047580D01*
X210532267Y-141047580D02*
X210579886Y-141095200D01*
X210579886Y-141095200D02*
X210675124Y-141142819D01*
X210675124Y-141142819D02*
X210770362Y-141142819D01*
X210770362Y-141142819D02*
X210865600Y-141095200D01*
X210865600Y-141095200D02*
X210913219Y-141047580D01*
X210913219Y-141047580D02*
X210960838Y-140952342D01*
X210960838Y-140952342D02*
X211008457Y-140761866D01*
X211008457Y-140761866D02*
X211008457Y-140523771D01*
X211008457Y-140523771D02*
X210960838Y-140333295D01*
X210960838Y-140333295D02*
X210913219Y-140238057D01*
X210913219Y-140238057D02*
X210865600Y-140190438D01*
X210865600Y-140190438D02*
X210770362Y-140142819D01*
X210056076Y-140238057D02*
X210008457Y-140190438D01*
X210008457Y-140190438D02*
X209913219Y-140142819D01*
X209913219Y-140142819D02*
X209675124Y-140142819D01*
X209675124Y-140142819D02*
X209579886Y-140190438D01*
X209579886Y-140190438D02*
X209532267Y-140238057D01*
X209532267Y-140238057D02*
X209484648Y-140333295D01*
X209484648Y-140333295D02*
X209484648Y-140428533D01*
X209484648Y-140428533D02*
X209532267Y-140571390D01*
X209532267Y-140571390D02*
X210103695Y-141142819D01*
X210103695Y-141142819D02*
X209484648Y-141142819D01*
X208627505Y-140476152D02*
X208627505Y-141142819D01*
X208865600Y-140095200D02*
X209103695Y-140809485D01*
X209103695Y-140809485D02*
X208484648Y-140809485D01*
X219913220Y-142752819D02*
X219913220Y-141752819D01*
X219484649Y-142752819D02*
X219484649Y-142229009D01*
X219484649Y-142229009D02*
X219532268Y-142133771D01*
X219532268Y-142133771D02*
X219627506Y-142086152D01*
X219627506Y-142086152D02*
X219770363Y-142086152D01*
X219770363Y-142086152D02*
X219865601Y-142133771D01*
X219865601Y-142133771D02*
X219913220Y-142181390D01*
X219151315Y-142086152D02*
X218770363Y-142086152D01*
X219008458Y-141752819D02*
X219008458Y-142609961D01*
X219008458Y-142609961D02*
X218960839Y-142705200D01*
X218960839Y-142705200D02*
X218865601Y-142752819D01*
X218865601Y-142752819D02*
X218770363Y-142752819D01*
X218579886Y-142086152D02*
X218198934Y-142086152D01*
X218437029Y-141752819D02*
X218437029Y-142609961D01*
X218437029Y-142609961D02*
X218389410Y-142705200D01*
X218389410Y-142705200D02*
X218294172Y-142752819D01*
X218294172Y-142752819D02*
X218198934Y-142752819D01*
X217865600Y-142086152D02*
X217865600Y-143086152D01*
X217865600Y-142133771D02*
X217770362Y-142086152D01*
X217770362Y-142086152D02*
X217579886Y-142086152D01*
X217579886Y-142086152D02*
X217484648Y-142133771D01*
X217484648Y-142133771D02*
X217437029Y-142181390D01*
X217437029Y-142181390D02*
X217389410Y-142276628D01*
X217389410Y-142276628D02*
X217389410Y-142562342D01*
X217389410Y-142562342D02*
X217437029Y-142657580D01*
X217437029Y-142657580D02*
X217484648Y-142705200D01*
X217484648Y-142705200D02*
X217579886Y-142752819D01*
X217579886Y-142752819D02*
X217770362Y-142752819D01*
X217770362Y-142752819D02*
X217865600Y-142705200D01*
X217008457Y-142705200D02*
X216913219Y-142752819D01*
X216913219Y-142752819D02*
X216722743Y-142752819D01*
X216722743Y-142752819D02*
X216627505Y-142705200D01*
X216627505Y-142705200D02*
X216579886Y-142609961D01*
X216579886Y-142609961D02*
X216579886Y-142562342D01*
X216579886Y-142562342D02*
X216627505Y-142467104D01*
X216627505Y-142467104D02*
X216722743Y-142419485D01*
X216722743Y-142419485D02*
X216865600Y-142419485D01*
X216865600Y-142419485D02*
X216960838Y-142371866D01*
X216960838Y-142371866D02*
X217008457Y-142276628D01*
X217008457Y-142276628D02*
X217008457Y-142229009D01*
X217008457Y-142229009D02*
X216960838Y-142133771D01*
X216960838Y-142133771D02*
X216865600Y-142086152D01*
X216865600Y-142086152D02*
X216722743Y-142086152D01*
X216722743Y-142086152D02*
X216627505Y-142133771D01*
X216151314Y-142657580D02*
X216103695Y-142705200D01*
X216103695Y-142705200D02*
X216151314Y-142752819D01*
X216151314Y-142752819D02*
X216198933Y-142705200D01*
X216198933Y-142705200D02*
X216151314Y-142657580D01*
X216151314Y-142657580D02*
X216151314Y-142752819D01*
X216151314Y-142133771D02*
X216103695Y-142181390D01*
X216103695Y-142181390D02*
X216151314Y-142229009D01*
X216151314Y-142229009D02*
X216198933Y-142181390D01*
X216198933Y-142181390D02*
X216151314Y-142133771D01*
X216151314Y-142133771D02*
X216151314Y-142229009D01*
X214960839Y-141705200D02*
X215817981Y-142990914D01*
X213913220Y-141705200D02*
X214770362Y-142990914D01*
X213151315Y-142086152D02*
X213151315Y-142895676D01*
X213151315Y-142895676D02*
X213198934Y-142990914D01*
X213198934Y-142990914D02*
X213246553Y-143038533D01*
X213246553Y-143038533D02*
X213341791Y-143086152D01*
X213341791Y-143086152D02*
X213484648Y-143086152D01*
X213484648Y-143086152D02*
X213579886Y-143038533D01*
X213151315Y-142705200D02*
X213246553Y-142752819D01*
X213246553Y-142752819D02*
X213437029Y-142752819D01*
X213437029Y-142752819D02*
X213532267Y-142705200D01*
X213532267Y-142705200D02*
X213579886Y-142657580D01*
X213579886Y-142657580D02*
X213627505Y-142562342D01*
X213627505Y-142562342D02*
X213627505Y-142276628D01*
X213627505Y-142276628D02*
X213579886Y-142181390D01*
X213579886Y-142181390D02*
X213532267Y-142133771D01*
X213532267Y-142133771D02*
X213437029Y-142086152D01*
X213437029Y-142086152D02*
X213246553Y-142086152D01*
X213246553Y-142086152D02*
X213151315Y-142133771D01*
X212675124Y-142752819D02*
X212675124Y-142086152D01*
X212675124Y-141752819D02*
X212722743Y-141800438D01*
X212722743Y-141800438D02*
X212675124Y-141848057D01*
X212675124Y-141848057D02*
X212627505Y-141800438D01*
X212627505Y-141800438D02*
X212675124Y-141752819D01*
X212675124Y-141752819D02*
X212675124Y-141848057D01*
X212341791Y-142086152D02*
X211960839Y-142086152D01*
X212198934Y-141752819D02*
X212198934Y-142609961D01*
X212198934Y-142609961D02*
X212151315Y-142705200D01*
X212151315Y-142705200D02*
X212056077Y-142752819D01*
X212056077Y-142752819D02*
X211960839Y-142752819D01*
X211627505Y-142752819D02*
X211627505Y-141752819D01*
X211198934Y-142752819D02*
X211198934Y-142229009D01*
X211198934Y-142229009D02*
X211246553Y-142133771D01*
X211246553Y-142133771D02*
X211341791Y-142086152D01*
X211341791Y-142086152D02*
X211484648Y-142086152D01*
X211484648Y-142086152D02*
X211579886Y-142133771D01*
X211579886Y-142133771D02*
X211627505Y-142181390D01*
X210294172Y-142086152D02*
X210294172Y-142752819D01*
X210722743Y-142086152D02*
X210722743Y-142609961D01*
X210722743Y-142609961D02*
X210675124Y-142705200D01*
X210675124Y-142705200D02*
X210579886Y-142752819D01*
X210579886Y-142752819D02*
X210437029Y-142752819D01*
X210437029Y-142752819D02*
X210341791Y-142705200D01*
X210341791Y-142705200D02*
X210294172Y-142657580D01*
X209817981Y-142752819D02*
X209817981Y-141752819D01*
X209817981Y-142133771D02*
X209722743Y-142086152D01*
X209722743Y-142086152D02*
X209532267Y-142086152D01*
X209532267Y-142086152D02*
X209437029Y-142133771D01*
X209437029Y-142133771D02*
X209389410Y-142181390D01*
X209389410Y-142181390D02*
X209341791Y-142276628D01*
X209341791Y-142276628D02*
X209341791Y-142562342D01*
X209341791Y-142562342D02*
X209389410Y-142657580D01*
X209389410Y-142657580D02*
X209437029Y-142705200D01*
X209437029Y-142705200D02*
X209532267Y-142752819D01*
X209532267Y-142752819D02*
X209722743Y-142752819D01*
X209722743Y-142752819D02*
X209817981Y-142705200D01*
X208913219Y-142657580D02*
X208865600Y-142705200D01*
X208865600Y-142705200D02*
X208913219Y-142752819D01*
X208913219Y-142752819D02*
X208960838Y-142705200D01*
X208960838Y-142705200D02*
X208913219Y-142657580D01*
X208913219Y-142657580D02*
X208913219Y-142752819D01*
X208008458Y-142705200D02*
X208103696Y-142752819D01*
X208103696Y-142752819D02*
X208294172Y-142752819D01*
X208294172Y-142752819D02*
X208389410Y-142705200D01*
X208389410Y-142705200D02*
X208437029Y-142657580D01*
X208437029Y-142657580D02*
X208484648Y-142562342D01*
X208484648Y-142562342D02*
X208484648Y-142276628D01*
X208484648Y-142276628D02*
X208437029Y-142181390D01*
X208437029Y-142181390D02*
X208389410Y-142133771D01*
X208389410Y-142133771D02*
X208294172Y-142086152D01*
X208294172Y-142086152D02*
X208103696Y-142086152D01*
X208103696Y-142086152D02*
X208008458Y-142133771D01*
X207437029Y-142752819D02*
X207532267Y-142705200D01*
X207532267Y-142705200D02*
X207579886Y-142657580D01*
X207579886Y-142657580D02*
X207627505Y-142562342D01*
X207627505Y-142562342D02*
X207627505Y-142276628D01*
X207627505Y-142276628D02*
X207579886Y-142181390D01*
X207579886Y-142181390D02*
X207532267Y-142133771D01*
X207532267Y-142133771D02*
X207437029Y-142086152D01*
X207437029Y-142086152D02*
X207294172Y-142086152D01*
X207294172Y-142086152D02*
X207198934Y-142133771D01*
X207198934Y-142133771D02*
X207151315Y-142181390D01*
X207151315Y-142181390D02*
X207103696Y-142276628D01*
X207103696Y-142276628D02*
X207103696Y-142562342D01*
X207103696Y-142562342D02*
X207151315Y-142657580D01*
X207151315Y-142657580D02*
X207198934Y-142705200D01*
X207198934Y-142705200D02*
X207294172Y-142752819D01*
X207294172Y-142752819D02*
X207437029Y-142752819D01*
X206675124Y-142752819D02*
X206675124Y-142086152D01*
X206675124Y-142181390D02*
X206627505Y-142133771D01*
X206627505Y-142133771D02*
X206532267Y-142086152D01*
X206532267Y-142086152D02*
X206389410Y-142086152D01*
X206389410Y-142086152D02*
X206294172Y-142133771D01*
X206294172Y-142133771D02*
X206246553Y-142229009D01*
X206246553Y-142229009D02*
X206246553Y-142752819D01*
X206246553Y-142229009D02*
X206198934Y-142133771D01*
X206198934Y-142133771D02*
X206103696Y-142086152D01*
X206103696Y-142086152D02*
X205960839Y-142086152D01*
X205960839Y-142086152D02*
X205865600Y-142133771D01*
X205865600Y-142133771D02*
X205817981Y-142229009D01*
X205817981Y-142229009D02*
X205817981Y-142752819D01*
X204627506Y-141705200D02*
X205484648Y-142990914D01*
X204437029Y-141752819D02*
X203865601Y-141752819D01*
X204151315Y-142752819D02*
X204151315Y-141752819D01*
X203532267Y-142752819D02*
X203532267Y-142086152D01*
X203532267Y-142276628D02*
X203484648Y-142181390D01*
X203484648Y-142181390D02*
X203437029Y-142133771D01*
X203437029Y-142133771D02*
X203341791Y-142086152D01*
X203341791Y-142086152D02*
X203246553Y-142086152D01*
X202770362Y-142752819D02*
X202865600Y-142705200D01*
X202865600Y-142705200D02*
X202913219Y-142657580D01*
X202913219Y-142657580D02*
X202960838Y-142562342D01*
X202960838Y-142562342D02*
X202960838Y-142276628D01*
X202960838Y-142276628D02*
X202913219Y-142181390D01*
X202913219Y-142181390D02*
X202865600Y-142133771D01*
X202865600Y-142133771D02*
X202770362Y-142086152D01*
X202770362Y-142086152D02*
X202627505Y-142086152D01*
X202627505Y-142086152D02*
X202532267Y-142133771D01*
X202532267Y-142133771D02*
X202484648Y-142181390D01*
X202484648Y-142181390D02*
X202437029Y-142276628D01*
X202437029Y-142276628D02*
X202437029Y-142562342D01*
X202437029Y-142562342D02*
X202484648Y-142657580D01*
X202484648Y-142657580D02*
X202532267Y-142705200D01*
X202532267Y-142705200D02*
X202627505Y-142752819D01*
X202627505Y-142752819D02*
X202770362Y-142752819D01*
X202008457Y-142086152D02*
X202008457Y-142943295D01*
X202008457Y-142943295D02*
X202056076Y-143038533D01*
X202056076Y-143038533D02*
X202151314Y-143086152D01*
X202151314Y-143086152D02*
X202198933Y-143086152D01*
X202008457Y-141752819D02*
X202056076Y-141800438D01*
X202056076Y-141800438D02*
X202008457Y-141848057D01*
X202008457Y-141848057D02*
X201960838Y-141800438D01*
X201960838Y-141800438D02*
X202008457Y-141752819D01*
X202008457Y-141752819D02*
X202008457Y-141848057D01*
X201103696Y-142752819D02*
X201103696Y-142229009D01*
X201103696Y-142229009D02*
X201151315Y-142133771D01*
X201151315Y-142133771D02*
X201246553Y-142086152D01*
X201246553Y-142086152D02*
X201437029Y-142086152D01*
X201437029Y-142086152D02*
X201532267Y-142133771D01*
X201103696Y-142705200D02*
X201198934Y-142752819D01*
X201198934Y-142752819D02*
X201437029Y-142752819D01*
X201437029Y-142752819D02*
X201532267Y-142705200D01*
X201532267Y-142705200D02*
X201579886Y-142609961D01*
X201579886Y-142609961D02*
X201579886Y-142514723D01*
X201579886Y-142514723D02*
X201532267Y-142419485D01*
X201532267Y-142419485D02*
X201437029Y-142371866D01*
X201437029Y-142371866D02*
X201198934Y-142371866D01*
X201198934Y-142371866D02*
X201103696Y-142324247D01*
X200627505Y-142086152D02*
X200627505Y-142752819D01*
X200627505Y-142181390D02*
X200579886Y-142133771D01*
X200579886Y-142133771D02*
X200484648Y-142086152D01*
X200484648Y-142086152D02*
X200341791Y-142086152D01*
X200341791Y-142086152D02*
X200246553Y-142133771D01*
X200246553Y-142133771D02*
X200198934Y-142229009D01*
X200198934Y-142229009D02*
X200198934Y-142752819D01*
X199722743Y-142752819D02*
X199722743Y-141752819D01*
X199722743Y-141752819D02*
X199341791Y-141752819D01*
X199341791Y-141752819D02*
X199246553Y-141800438D01*
X199246553Y-141800438D02*
X199198934Y-141848057D01*
X199198934Y-141848057D02*
X199151315Y-141943295D01*
X199151315Y-141943295D02*
X199151315Y-142086152D01*
X199151315Y-142086152D02*
X199198934Y-142181390D01*
X199198934Y-142181390D02*
X199246553Y-142229009D01*
X199246553Y-142229009D02*
X199341791Y-142276628D01*
X199341791Y-142276628D02*
X199722743Y-142276628D01*
X198722743Y-142752819D02*
X198722743Y-142086152D01*
X198722743Y-141752819D02*
X198770362Y-141800438D01*
X198770362Y-141800438D02*
X198722743Y-141848057D01*
X198722743Y-141848057D02*
X198675124Y-141800438D01*
X198675124Y-141800438D02*
X198722743Y-141752819D01*
X198722743Y-141752819D02*
X198722743Y-141848057D01*
X198246553Y-142086152D02*
X198246553Y-142752819D01*
X198246553Y-142181390D02*
X198198934Y-142133771D01*
X198198934Y-142133771D02*
X198103696Y-142086152D01*
X198103696Y-142086152D02*
X197960839Y-142086152D01*
X197960839Y-142086152D02*
X197865601Y-142133771D01*
X197865601Y-142133771D02*
X197817982Y-142229009D01*
X197817982Y-142229009D02*
X197817982Y-142752819D01*
X196913220Y-142752819D02*
X196913220Y-142229009D01*
X196913220Y-142229009D02*
X196960839Y-142133771D01*
X196960839Y-142133771D02*
X197056077Y-142086152D01*
X197056077Y-142086152D02*
X197246553Y-142086152D01*
X197246553Y-142086152D02*
X197341791Y-142133771D01*
X196913220Y-142705200D02*
X197008458Y-142752819D01*
X197008458Y-142752819D02*
X197246553Y-142752819D01*
X197246553Y-142752819D02*
X197341791Y-142705200D01*
X197341791Y-142705200D02*
X197389410Y-142609961D01*
X197389410Y-142609961D02*
X197389410Y-142514723D01*
X197389410Y-142514723D02*
X197341791Y-142419485D01*
X197341791Y-142419485D02*
X197246553Y-142371866D01*
X197246553Y-142371866D02*
X197008458Y-142371866D01*
X197008458Y-142371866D02*
X196913220Y-142324247D01*
X196579886Y-142086152D02*
X196198934Y-142086152D01*
X196437029Y-141752819D02*
X196437029Y-142609961D01*
X196437029Y-142609961D02*
X196389410Y-142705200D01*
X196389410Y-142705200D02*
X196294172Y-142752819D01*
X196294172Y-142752819D02*
X196198934Y-142752819D01*
X195437029Y-142752819D02*
X195437029Y-142229009D01*
X195437029Y-142229009D02*
X195484648Y-142133771D01*
X195484648Y-142133771D02*
X195579886Y-142086152D01*
X195579886Y-142086152D02*
X195770362Y-142086152D01*
X195770362Y-142086152D02*
X195865600Y-142133771D01*
X195437029Y-142705200D02*
X195532267Y-142752819D01*
X195532267Y-142752819D02*
X195770362Y-142752819D01*
X195770362Y-142752819D02*
X195865600Y-142705200D01*
X195865600Y-142705200D02*
X195913219Y-142609961D01*
X195913219Y-142609961D02*
X195913219Y-142514723D01*
X195913219Y-142514723D02*
X195865600Y-142419485D01*
X195865600Y-142419485D02*
X195770362Y-142371866D01*
X195770362Y-142371866D02*
X195532267Y-142371866D01*
X195532267Y-142371866D02*
X195437029Y-142324247D01*
X194246553Y-141705200D02*
X195103695Y-142990914D01*
X193913219Y-142752819D02*
X193913219Y-141752819D01*
X193913219Y-141752819D02*
X193579886Y-142467104D01*
X193579886Y-142467104D02*
X193246553Y-141752819D01*
X193246553Y-141752819D02*
X193246553Y-142752819D01*
X192627505Y-142752819D02*
X192722743Y-142705200D01*
X192722743Y-142705200D02*
X192770362Y-142657580D01*
X192770362Y-142657580D02*
X192817981Y-142562342D01*
X192817981Y-142562342D02*
X192817981Y-142276628D01*
X192817981Y-142276628D02*
X192770362Y-142181390D01*
X192770362Y-142181390D02*
X192722743Y-142133771D01*
X192722743Y-142133771D02*
X192627505Y-142086152D01*
X192627505Y-142086152D02*
X192484648Y-142086152D01*
X192484648Y-142086152D02*
X192389410Y-142133771D01*
X192389410Y-142133771D02*
X192341791Y-142181390D01*
X192341791Y-142181390D02*
X192294172Y-142276628D01*
X192294172Y-142276628D02*
X192294172Y-142562342D01*
X192294172Y-142562342D02*
X192341791Y-142657580D01*
X192341791Y-142657580D02*
X192389410Y-142705200D01*
X192389410Y-142705200D02*
X192484648Y-142752819D01*
X192484648Y-142752819D02*
X192627505Y-142752819D01*
X191437029Y-142752819D02*
X191437029Y-141752819D01*
X191437029Y-142705200D02*
X191532267Y-142752819D01*
X191532267Y-142752819D02*
X191722743Y-142752819D01*
X191722743Y-142752819D02*
X191817981Y-142705200D01*
X191817981Y-142705200D02*
X191865600Y-142657580D01*
X191865600Y-142657580D02*
X191913219Y-142562342D01*
X191913219Y-142562342D02*
X191913219Y-142276628D01*
X191913219Y-142276628D02*
X191865600Y-142181390D01*
X191865600Y-142181390D02*
X191817981Y-142133771D01*
X191817981Y-142133771D02*
X191722743Y-142086152D01*
X191722743Y-142086152D02*
X191532267Y-142086152D01*
X191532267Y-142086152D02*
X191437029Y-142133771D01*
X190579886Y-142705200D02*
X190675124Y-142752819D01*
X190675124Y-142752819D02*
X190865600Y-142752819D01*
X190865600Y-142752819D02*
X190960838Y-142705200D01*
X190960838Y-142705200D02*
X191008457Y-142609961D01*
X191008457Y-142609961D02*
X191008457Y-142229009D01*
X191008457Y-142229009D02*
X190960838Y-142133771D01*
X190960838Y-142133771D02*
X190865600Y-142086152D01*
X190865600Y-142086152D02*
X190675124Y-142086152D01*
X190675124Y-142086152D02*
X190579886Y-142133771D01*
X190579886Y-142133771D02*
X190532267Y-142229009D01*
X190532267Y-142229009D02*
X190532267Y-142324247D01*
X190532267Y-142324247D02*
X191008457Y-142419485D01*
X189960838Y-142752819D02*
X190056076Y-142705200D01*
X190056076Y-142705200D02*
X190103695Y-142609961D01*
X190103695Y-142609961D02*
X190103695Y-141752819D01*
X189579885Y-142371866D02*
X188817981Y-142371866D01*
X188008457Y-142229009D02*
X187865600Y-142276628D01*
X187865600Y-142276628D02*
X187817981Y-142324247D01*
X187817981Y-142324247D02*
X187770362Y-142419485D01*
X187770362Y-142419485D02*
X187770362Y-142562342D01*
X187770362Y-142562342D02*
X187817981Y-142657580D01*
X187817981Y-142657580D02*
X187865600Y-142705200D01*
X187865600Y-142705200D02*
X187960838Y-142752819D01*
X187960838Y-142752819D02*
X188341790Y-142752819D01*
X188341790Y-142752819D02*
X188341790Y-141752819D01*
X188341790Y-141752819D02*
X188008457Y-141752819D01*
X188008457Y-141752819D02*
X187913219Y-141800438D01*
X187913219Y-141800438D02*
X187865600Y-141848057D01*
X187865600Y-141848057D02*
X187817981Y-141943295D01*
X187817981Y-141943295D02*
X187817981Y-142038533D01*
X187817981Y-142038533D02*
X187865600Y-142133771D01*
X187865600Y-142133771D02*
X187913219Y-142181390D01*
X187913219Y-142181390D02*
X188008457Y-142229009D01*
X188008457Y-142229009D02*
X188341790Y-142229009D01*
M02*
