%TF.GenerationSoftware,KiCad,Pcbnew,7.0.9*%
%TF.CreationDate,2024-07-27T11:54:38-04:00*%
%TF.ProjectId,panel,70616e65-6c2e-46b6-9963-61645f706362,0.1*%
%TF.SameCoordinates,Original*%
%TF.FileFunction,Soldermask,Top*%
%TF.FilePolarity,Negative*%
%FSLAX46Y46*%
G04 Gerber Fmt 4.6, Leading zero omitted, Abs format (unit mm)*
G04 Created by KiCad (PCBNEW 7.0.9) date 2024-07-27 11:54:38*
%MOMM*%
%LPD*%
G01*
G04 APERTURE LIST*
G04 Aperture macros list*
%AMRoundRect*
0 Rectangle with rounded corners*
0 $1 Rounding radius*
0 $2 $3 $4 $5 $6 $7 $8 $9 X,Y pos of 4 corners*
0 Add a 4 corners polygon primitive as box body*
4,1,4,$2,$3,$4,$5,$6,$7,$8,$9,$2,$3,0*
0 Add four circle primitives for the rounded corners*
1,1,$1+$1,$2,$3*
1,1,$1+$1,$4,$5*
1,1,$1+$1,$6,$7*
1,1,$1+$1,$8,$9*
0 Add four rect primitives between the rounded corners*
20,1,$1+$1,$2,$3,$4,$5,0*
20,1,$1+$1,$4,$5,$6,$7,0*
20,1,$1+$1,$6,$7,$8,$9,0*
20,1,$1+$1,$8,$9,$2,$3,0*%
G04 Aperture macros list end*
%ADD10C,0.650000*%
%ADD11R,0.600000X1.450000*%
%ADD12R,0.300000X1.450000*%
%ADD13RoundRect,0.135000X0.135000X0.185000X-0.135000X0.185000X-0.135000X-0.185000X0.135000X-0.185000X0*%
%ADD14C,0.200000*%
%ADD15RoundRect,0.225000X-0.225000X-0.375000X0.225000X-0.375000X0.225000X0.375000X-0.225000X0.375000X0*%
%ADD16C,1.750000*%
%ADD17C,3.000000*%
%ADD18C,3.987800*%
%ADD19RoundRect,0.140000X0.170000X-0.140000X0.170000X0.140000X-0.170000X0.140000X-0.170000X-0.140000X0*%
%ADD20RoundRect,0.140000X-0.170000X0.140000X-0.170000X-0.140000X0.170000X-0.140000X0.170000X0.140000X0*%
%ADD21C,2.200000*%
%ADD22RoundRect,0.135000X0.185000X-0.135000X0.185000X0.135000X-0.185000X0.135000X-0.185000X-0.135000X0*%
%ADD23RoundRect,0.140000X0.140000X0.170000X-0.140000X0.170000X-0.140000X-0.170000X0.140000X-0.170000X0*%
%ADD24R,1.700000X1.700000*%
%ADD25O,1.700000X1.700000*%
%ADD26C,3.048000*%
%ADD27RoundRect,0.243750X-0.456250X0.243750X-0.456250X-0.243750X0.456250X-0.243750X0.456250X0.243750X0*%
%ADD28RoundRect,0.135000X-0.135000X-0.185000X0.135000X-0.185000X0.135000X0.185000X-0.135000X0.185000X0*%
%ADD29RoundRect,0.225000X0.375000X-0.225000X0.375000X0.225000X-0.375000X0.225000X-0.375000X-0.225000X0*%
%ADD30R,1.400000X1.200000*%
%ADD31RoundRect,0.140000X-0.140000X-0.170000X0.140000X-0.170000X0.140000X0.170000X-0.140000X0.170000X0*%
%ADD32RoundRect,0.102000X0.525000X-0.700000X0.525000X0.700000X-0.525000X0.700000X-0.525000X-0.700000X0*%
%ADD33R,2.000000X2.000000*%
%ADD34C,2.000000*%
%ADD35C,3.200000*%
%ADD36RoundRect,0.087500X-0.175000X-0.087500X0.175000X-0.087500X0.175000X0.087500X-0.175000X0.087500X0*%
%ADD37R,1.400000X1.600000*%
%ADD38RoundRect,0.150000X-0.512500X-0.150000X0.512500X-0.150000X0.512500X0.150000X-0.512500X0.150000X0*%
%ADD39RoundRect,0.050000X-0.387500X-0.050000X0.387500X-0.050000X0.387500X0.050000X-0.387500X0.050000X0*%
%ADD40RoundRect,0.050000X-0.050000X-0.387500X0.050000X-0.387500X0.050000X0.387500X-0.050000X0.387500X0*%
%ADD41RoundRect,0.144000X-1.456000X-1.456000X1.456000X-1.456000X1.456000X1.456000X-1.456000X1.456000X0*%
G04 APERTURE END LIST*
D10*
%TO.C,USB1*%
X212878000Y-29736000D03*
X207098000Y-29736000D03*
D11*
X213213000Y-31181000D03*
X212438000Y-31181000D03*
D12*
X211738000Y-31181000D03*
X211238000Y-31181000D03*
X210738000Y-31181000D03*
X210238000Y-31181000D03*
X209738000Y-31181000D03*
X209238000Y-31181000D03*
X208738000Y-31181000D03*
X208238000Y-31181000D03*
D11*
X207538000Y-31181000D03*
X206763000Y-31181000D03*
%TD*%
D13*
%TO.C,R7*%
X368095000Y-120816000D03*
X367075000Y-120816000D03*
%TD*%
D14*
%TO.C,KiKit_MB_11_3*%
X244642857Y-156000000D03*
%TD*%
D15*
%TO.C,D44*%
X106318000Y-110772000D03*
X109618000Y-110772000D03*
%TD*%
%TO.C,D39*%
X272972000Y-91713000D03*
X276272000Y-91713000D03*
%TD*%
%TO.C,D10*%
X237972000Y-48917000D03*
X241272000Y-48917000D03*
%TD*%
%TO.C,D81*%
X344142500Y-91200000D03*
X347442500Y-91200000D03*
%TD*%
D14*
%TO.C,KiKit_MB_20_3*%
X382833333Y-156000000D03*
%TD*%
%TO.C,KiKit_MB_19_5*%
X383666666Y-25000000D03*
%TD*%
%TO.C,KiKit_MB_3_8*%
X380000000Y-70166667D03*
%TD*%
D16*
%TO.C,SW81*%
X340671000Y-83334000D03*
D17*
X341941000Y-80794000D03*
D18*
X345751000Y-83334000D03*
D17*
X348291000Y-78254000D03*
D16*
X350831000Y-83334000D03*
%TD*%
D14*
%TO.C,KiKit_MB_7_2*%
X242928571Y-25000000D03*
%TD*%
D19*
%TO.C,C15*%
X361576000Y-113486000D03*
X361576000Y-112526000D03*
%TD*%
D14*
%TO.C,KiKit_MB_15_6*%
X40000000Y-160583333D03*
%TD*%
D15*
%TO.C,D32*%
X139667000Y-91783000D03*
X142967000Y-91783000D03*
%TD*%
D16*
%TO.C,SW14*%
X50477000Y-64293000D03*
D17*
X51747000Y-61753000D03*
D18*
X55557000Y-64293000D03*
D17*
X58097000Y-59213000D03*
D16*
X60637000Y-64293000D03*
%TD*%
D20*
%TO.C,C16*%
X366986000Y-122951000D03*
X366986000Y-123911000D03*
%TD*%
D16*
%TO.C,SW54*%
X317157000Y-40481000D03*
D17*
X318427000Y-37941000D03*
D18*
X322237000Y-40481000D03*
D17*
X324777000Y-35401000D03*
D16*
X327317000Y-40481000D03*
%TD*%
D14*
%TO.C,KiKit_MB_4_8*%
X380000000Y-113833333D03*
%TD*%
D21*
%TO.C,*%
X176646000Y-153630000D03*
%TD*%
D19*
%TO.C,C17*%
X365995000Y-114769000D03*
X365995000Y-113809000D03*
%TD*%
%TO.C,C9*%
X361529000Y-115699000D03*
X361529000Y-114739000D03*
%TD*%
D16*
%TO.C,SW33*%
X155252500Y-83343000D03*
D17*
X156522500Y-80803000D03*
D18*
X160332500Y-83343000D03*
D17*
X162872500Y-78263000D03*
D16*
X165412500Y-83343000D03*
%TD*%
D22*
%TO.C,R16*%
X363919000Y-114786000D03*
X363919000Y-113766000D03*
%TD*%
D15*
%TO.C,D23*%
X225439000Y-72673000D03*
X228739000Y-72673000D03*
%TD*%
D14*
%TO.C,KiKit_MB_7_7*%
X245071428Y-25000000D03*
%TD*%
D15*
%TO.C,D55*%
X308721000Y-110780000D03*
X312021000Y-110780000D03*
%TD*%
%TO.C,D59*%
X135009000Y-129858000D03*
X138309000Y-129858000D03*
%TD*%
D14*
%TO.C,KiKit_MB_7_3*%
X243357142Y-25000000D03*
%TD*%
D15*
%TO.C,D48*%
X182514000Y-110797000D03*
X185814000Y-110797000D03*
%TD*%
D14*
%TO.C,KiKit_MB_9_6*%
X107357143Y-156000000D03*
%TD*%
D15*
%TO.C,D1*%
X53893000Y-48919000D03*
X57193000Y-48919000D03*
%TD*%
D16*
%TO.C,SW34*%
X174302500Y-83343000D03*
D17*
X175572500Y-80803000D03*
D18*
X179382500Y-83343000D03*
D17*
X181922500Y-78263000D03*
D16*
X184462500Y-83343000D03*
%TD*%
D15*
%TO.C,D80*%
X344178000Y-72661000D03*
X347478000Y-72661000D03*
%TD*%
D14*
%TO.C,KiKit_MB_19_1*%
X382000000Y-25000000D03*
%TD*%
D21*
%TO.C,REF\u002A\u002A*%
X43980000Y-153630000D03*
%TD*%
D16*
%TO.C,SW68*%
X290983500Y-121443000D03*
D17*
X292253500Y-118903000D03*
D18*
X296063500Y-121443000D03*
D17*
X298603500Y-116363000D03*
D16*
X301143500Y-121443000D03*
%TD*%
D15*
%TO.C,D20*%
X168355000Y-72742000D03*
X171655000Y-72742000D03*
%TD*%
D23*
%TO.C,C14*%
X356757000Y-117189000D03*
X355797000Y-117189000D03*
%TD*%
D15*
%TO.C,D4*%
X115370000Y-48961000D03*
X118670000Y-48961000D03*
%TD*%
D14*
%TO.C,KiKit_MB_13_3*%
X40000000Y-20833334D03*
%TD*%
D15*
%TO.C,D26*%
X282574000Y-72691000D03*
X285874000Y-72691000D03*
%TD*%
D24*
%TO.C,OLED1*%
X337497000Y-105379000D03*
D25*
X337497000Y-102839000D03*
X337497000Y-100299000D03*
X337497000Y-97759000D03*
%TD*%
D14*
%TO.C,KiKit_MB_9_5*%
X107785715Y-156000000D03*
%TD*%
%TO.C,KiKit_MB_20_6*%
X384083333Y-156000000D03*
%TD*%
%TO.C,KiKit_MB_5_8*%
X109500000Y-25000000D03*
%TD*%
%TO.C,KiKit_MB_11_4*%
X244214285Y-156000000D03*
%TD*%
D15*
%TO.C,D61*%
X173098000Y-129858000D03*
X176398000Y-129858000D03*
%TD*%
%TO.C,D3*%
X96104000Y-48969000D03*
X99404000Y-48969000D03*
%TD*%
%TO.C,D9*%
X214639000Y-48943000D03*
X217939000Y-48943000D03*
%TD*%
D26*
%TO.C,SW56*%
X55525500Y-114458000D03*
D18*
X55525500Y-129698000D03*
D16*
X62383500Y-121443000D03*
D17*
X63653500Y-118903000D03*
D18*
X67463500Y-121443000D03*
D17*
X70003500Y-116363000D03*
D16*
X72543500Y-121443000D03*
D26*
X79401500Y-114458000D03*
D18*
X79401500Y-129698000D03*
%TD*%
D15*
%TO.C,D22*%
X206346000Y-72649000D03*
X209646000Y-72649000D03*
%TD*%
%TO.C,D8*%
X195747000Y-48906000D03*
X199047000Y-48906000D03*
%TD*%
D14*
%TO.C,KiKit_MB_10_1*%
X177500000Y-156000000D03*
%TD*%
D16*
%TO.C,SW10*%
X234413000Y-40501000D03*
D17*
X235683000Y-37961000D03*
D18*
X239493000Y-40501000D03*
D17*
X242033000Y-35421000D03*
D16*
X244573000Y-40501000D03*
%TD*%
D21*
%TO.C,*%
X110306000Y-27355000D03*
%TD*%
D14*
%TO.C,KiKit_MB_14_7*%
X380000000Y-22500000D03*
%TD*%
D15*
%TO.C,D77*%
X307432500Y-150247000D03*
X310732500Y-150247000D03*
%TD*%
D14*
%TO.C,KiKit_MB_2_5*%
X40000000Y-112119047D03*
%TD*%
D15*
%TO.C,D35*%
X196853000Y-91787000D03*
X200153000Y-91787000D03*
%TD*%
D14*
%TO.C,KiKit_MB_18_5*%
X37166667Y-156000000D03*
%TD*%
D16*
%TO.C,SW22*%
X202877000Y-64293000D03*
D17*
X204147000Y-61753000D03*
D18*
X207957000Y-64293000D03*
D17*
X210497000Y-59213000D03*
D16*
X213037000Y-64293000D03*
%TD*%
D15*
%TO.C,D74*%
X244392000Y-148916000D03*
X247692000Y-148916000D03*
%TD*%
D14*
%TO.C,KiKit_MB_3_3*%
X380000000Y-68023810D03*
%TD*%
%TO.C,KiKit_MB_9_2*%
X109071429Y-156000000D03*
%TD*%
D16*
%TO.C,SW30*%
X98102500Y-83343000D03*
D17*
X99372500Y-80803000D03*
D18*
X103182500Y-83343000D03*
D17*
X105722500Y-78263000D03*
D16*
X108262500Y-83343000D03*
%TD*%
D14*
%TO.C,KiKit_MB_10_7*%
X174928572Y-156000000D03*
%TD*%
D15*
%TO.C,D72*%
X103944000Y-148938000D03*
X107244000Y-148938000D03*
%TD*%
D21*
%TO.C,*%
X167961000Y-52473000D03*
%TD*%
D14*
%TO.C,KiKit_MB_11_7*%
X242928571Y-156000000D03*
%TD*%
%TO.C,KiKit_MB_20_1*%
X382000000Y-156000000D03*
%TD*%
%TO.C,KiKit_MB_8_5*%
X312214285Y-25000000D03*
%TD*%
D16*
%TO.C,SW36*%
X212402500Y-83343000D03*
D17*
X213672500Y-80803000D03*
D18*
X217482500Y-83343000D03*
D17*
X220022500Y-78263000D03*
D16*
X222562500Y-83343000D03*
%TD*%
D14*
%TO.C,KiKit_MB_5_6*%
X108642858Y-25000000D03*
%TD*%
%TO.C,KiKit_MB_1_7*%
X40000000Y-67595239D03*
%TD*%
%TO.C,KiKit_MB_15_2*%
X40000000Y-158916666D03*
%TD*%
D16*
%TO.C,SW59*%
X131439500Y-121443000D03*
D17*
X132709500Y-118903000D03*
D18*
X136519500Y-121443000D03*
D17*
X139059500Y-116363000D03*
D16*
X141599500Y-121443000D03*
%TD*%
%TO.C,SW3*%
X92713000Y-40501000D03*
D17*
X93983000Y-37961000D03*
D18*
X97793000Y-40501000D03*
D17*
X100333000Y-35421000D03*
D16*
X102873000Y-40501000D03*
%TD*%
%TO.C,SW78*%
X323160000Y-141982000D03*
D17*
X324430000Y-139442000D03*
D18*
X328240000Y-141982000D03*
D17*
X330780000Y-136902000D03*
D16*
X333320000Y-141982000D03*
%TD*%
D14*
%TO.C,KiKit_MB_6_3*%
X175357143Y-25000000D03*
%TD*%
D15*
%TO.C,D58*%
X115814000Y-129843000D03*
X119114000Y-129843000D03*
%TD*%
D16*
%TO.C,SW7*%
X173088000Y-40501000D03*
D17*
X174358000Y-37961000D03*
D18*
X178168000Y-40501000D03*
D17*
X180708000Y-35421000D03*
D16*
X183248000Y-40501000D03*
%TD*%
D14*
%TO.C,KiKit_MB_12_6*%
X311357142Y-156000000D03*
%TD*%
D16*
%TO.C,SW62*%
X188589500Y-121443000D03*
D17*
X189859500Y-118903000D03*
D18*
X193669500Y-121443000D03*
D17*
X196209500Y-116363000D03*
D16*
X198749500Y-121443000D03*
%TD*%
D14*
%TO.C,KiKit_MB_12_1*%
X313500000Y-156000000D03*
%TD*%
%TO.C,KiKit_MB_12_4*%
X312214285Y-156000000D03*
%TD*%
%TO.C,KiKit_MB_18_4*%
X36750000Y-156000000D03*
%TD*%
D13*
%TO.C,R5*%
X362977000Y-128016000D03*
X361957000Y-128016000D03*
%TD*%
D23*
%TO.C,C1*%
X360445000Y-112595000D03*
X359485000Y-112595000D03*
%TD*%
D14*
%TO.C,KiKit_MB_8_2*%
X310928571Y-25000000D03*
%TD*%
D16*
%TO.C,SW35*%
X193352500Y-83343000D03*
D17*
X194622500Y-80803000D03*
D18*
X198432500Y-83343000D03*
D17*
X200972500Y-78263000D03*
D16*
X203512500Y-83343000D03*
%TD*%
D15*
%TO.C,D2*%
X77123000Y-48926000D03*
X80423000Y-48926000D03*
%TD*%
D14*
%TO.C,KiKit_MB_2_7*%
X40000000Y-111261904D03*
%TD*%
D15*
%TO.C,D57*%
X96822000Y-129865000D03*
X100122000Y-129865000D03*
%TD*%
D14*
%TO.C,KiKit_MB_4_7*%
X380000000Y-113404761D03*
%TD*%
%TO.C,KiKit_MB_4_2*%
X380000000Y-111261904D03*
%TD*%
D15*
%TO.C,D56*%
X66075000Y-129744000D03*
X69375000Y-129744000D03*
%TD*%
%TO.C,D42*%
X61210000Y-110800000D03*
X64510000Y-110800000D03*
%TD*%
%TO.C,D70*%
X56267000Y-148797000D03*
X59567000Y-148797000D03*
%TD*%
D21*
%TO.C,*%
X252021000Y-52560000D03*
%TD*%
D16*
%TO.C,SW19*%
X145727000Y-64293000D03*
D17*
X146997000Y-61753000D03*
D18*
X150807000Y-64293000D03*
D17*
X153347000Y-59213000D03*
D16*
X155887000Y-64293000D03*
%TD*%
D14*
%TO.C,KiKit_MB_7_6*%
X244642857Y-25000000D03*
%TD*%
D15*
%TO.C,D17*%
X111133000Y-72664000D03*
X114433000Y-72664000D03*
%TD*%
D14*
%TO.C,KiKit_MB_11_5*%
X243785714Y-156000000D03*
%TD*%
D16*
%TO.C,SW76*%
X279076500Y-140493000D03*
D17*
X280346500Y-137953000D03*
D18*
X284156500Y-140493000D03*
D17*
X286696500Y-135413000D03*
D16*
X289236500Y-140493000D03*
%TD*%
D22*
%TO.C,R15*%
X362859000Y-114759000D03*
X362859000Y-113739000D03*
%TD*%
D16*
%TO.C,SW15*%
X69527000Y-64293000D03*
D17*
X70797000Y-61753000D03*
D18*
X74607000Y-64293000D03*
D17*
X77147000Y-59213000D03*
D16*
X79687000Y-64293000D03*
%TD*%
D14*
%TO.C,KiKit_MB_19_4*%
X383250000Y-25000000D03*
%TD*%
D16*
%TO.C,SW53*%
X274314500Y-102393000D03*
D17*
X275584500Y-99853000D03*
D18*
X279394500Y-102393000D03*
D17*
X281934500Y-97313000D03*
D16*
X284474500Y-102393000D03*
%TD*%
D27*
%TO.C,F1*%
X334090000Y-103575000D03*
X334090000Y-105450000D03*
%TD*%
D15*
%TO.C,D68*%
X294561000Y-130312000D03*
X297861000Y-130312000D03*
%TD*%
D14*
%TO.C,KiKit_MB_8_7*%
X313071428Y-25000000D03*
%TD*%
D15*
%TO.C,D67*%
X320769500Y-48687000D03*
X324069500Y-48687000D03*
%TD*%
D21*
%TO.C,*%
X375645000Y-153630000D03*
%TD*%
D16*
%TO.C,SW25*%
X260027000Y-64293000D03*
D17*
X261297000Y-61753000D03*
D18*
X265107000Y-64293000D03*
D17*
X267647000Y-59213000D03*
D16*
X270187000Y-64293000D03*
%TD*%
D14*
%TO.C,KiKit_MB_13_4*%
X40000000Y-21250000D03*
%TD*%
%TO.C,KiKit_MB_10_3*%
X176642858Y-156000000D03*
%TD*%
D28*
%TO.C,R14*%
X367054000Y-112824000D03*
X368074000Y-112824000D03*
%TD*%
D14*
%TO.C,KiKit_MB_9_3*%
X108642858Y-156000000D03*
%TD*%
%TO.C,KiKit_MB_3_2*%
X380000000Y-67595239D03*
%TD*%
%TO.C,KiKit_MB_7_8*%
X245500000Y-25000000D03*
%TD*%
D15*
%TO.C,D43*%
X87363000Y-110794000D03*
X90663000Y-110794000D03*
%TD*%
D16*
%TO.C,SW5*%
X130813000Y-40501000D03*
D17*
X132083000Y-37961000D03*
D18*
X135893000Y-40501000D03*
D17*
X138433000Y-35421000D03*
D16*
X140973000Y-40501000D03*
%TD*%
D15*
%TO.C,D14*%
X53920000Y-72679000D03*
X57220000Y-72679000D03*
%TD*%
D14*
%TO.C,KiKit_MB_6_6*%
X176642858Y-25000000D03*
%TD*%
D20*
%TO.C,C10*%
X361938000Y-125986000D03*
X361938000Y-126946000D03*
%TD*%
D14*
%TO.C,KiKit_MB_9_4*%
X108214286Y-156000000D03*
%TD*%
D19*
%TO.C,C11*%
X368332000Y-114776000D03*
X368332000Y-113816000D03*
%TD*%
D16*
%TO.C,SW57*%
X93339500Y-121443000D03*
D17*
X94609500Y-118903000D03*
D18*
X98419500Y-121443000D03*
D17*
X100959500Y-116363000D03*
D16*
X103499500Y-121443000D03*
%TD*%
D15*
%TO.C,D64*%
X230131500Y-129741000D03*
X233431500Y-129741000D03*
%TD*%
D14*
%TO.C,KiKit_MB_6_8*%
X177500000Y-25000000D03*
%TD*%
%TO.C,KiKit_MB_13_6*%
X40000000Y-22083334D03*
%TD*%
%TO.C,KiKit_MB_16_3*%
X380000000Y-159333333D03*
%TD*%
%TO.C,KiKit_MB_7_4*%
X243785714Y-25000000D03*
%TD*%
D15*
%TO.C,D29*%
X82509000Y-91806000D03*
X85809000Y-91806000D03*
%TD*%
D16*
%TO.C,SW38*%
X250502500Y-83343000D03*
D17*
X251772500Y-80803000D03*
D18*
X255582500Y-83343000D03*
D17*
X258122500Y-78263000D03*
D16*
X260662500Y-83343000D03*
%TD*%
D14*
%TO.C,KiKit_MB_6_5*%
X176214286Y-25000000D03*
%TD*%
D15*
%TO.C,D78*%
X326532500Y-150149000D03*
X329832500Y-150149000D03*
%TD*%
D16*
%TO.C,SW20*%
X164777000Y-64293000D03*
D17*
X166047000Y-61753000D03*
D18*
X169857000Y-64293000D03*
D17*
X172397000Y-59213000D03*
D16*
X174937000Y-64293000D03*
%TD*%
D14*
%TO.C,KiKit_MB_11_6*%
X243357142Y-156000000D03*
%TD*%
D13*
%TO.C,R2*%
X345078000Y-43482000D03*
X344058000Y-43482000D03*
%TD*%
D16*
%TO.C,SW11*%
X253463000Y-40501000D03*
D17*
X254733000Y-37961000D03*
D18*
X258543000Y-40501000D03*
D17*
X261083000Y-35421000D03*
D16*
X263623000Y-40501000D03*
%TD*%
D21*
%TO.C,*%
X43973000Y-27355000D03*
%TD*%
D15*
%TO.C,D5*%
X134266000Y-49038000D03*
X137566000Y-49038000D03*
%TD*%
D26*
%TO.C,SW73*%
X127000600Y-133508000D03*
D18*
X127000600Y-148748000D03*
D16*
X171920500Y-140493000D03*
D17*
X173190500Y-137953000D03*
D18*
X177000500Y-140493000D03*
D17*
X179540500Y-135413000D03*
D16*
X182080500Y-140493000D03*
D26*
X227000400Y-133508000D03*
D18*
X227000400Y-148748000D03*
%TD*%
D29*
%TO.C,D79*%
X344459000Y-36788500D03*
X344459000Y-33488500D03*
%TD*%
D14*
%TO.C,KiKit_MB_2_8*%
X40000000Y-110833333D03*
%TD*%
%TO.C,KiKit_MB_2_2*%
X40000000Y-113404761D03*
%TD*%
D15*
%TO.C,D28*%
X58760000Y-91660000D03*
X62060000Y-91660000D03*
%TD*%
D14*
%TO.C,KiKit_MB_15_3*%
X40000000Y-159333333D03*
%TD*%
%TO.C,KiKit_MB_6_1*%
X174500000Y-25000000D03*
%TD*%
%TO.C,KiKit_MB_4_3*%
X380000000Y-111690476D03*
%TD*%
D13*
%TO.C,R1*%
X345041000Y-38524000D03*
X344021000Y-38524000D03*
%TD*%
D14*
%TO.C,KiKit_MB_7_1*%
X242500000Y-25000000D03*
%TD*%
D15*
%TO.C,D49*%
X201667000Y-110886000D03*
X204967000Y-110886000D03*
%TD*%
D14*
%TO.C,KiKit_MB_14_4*%
X380000000Y-21250000D03*
%TD*%
%TO.C,KiKit_MB_1_1*%
X40000000Y-70166667D03*
%TD*%
D16*
%TO.C,SW74*%
X240976500Y-140493000D03*
D17*
X242246500Y-137953000D03*
D18*
X246056500Y-140493000D03*
D17*
X248596500Y-135413000D03*
D16*
X251136500Y-140493000D03*
%TD*%
D21*
%TO.C,*%
X309312000Y-153630000D03*
%TD*%
D14*
%TO.C,KiKit_MB_13_2*%
X40000000Y-20416667D03*
%TD*%
D15*
%TO.C,D38*%
X254030000Y-91688000D03*
X257330000Y-91688000D03*
%TD*%
D19*
%TO.C,C7*%
X364965000Y-114754000D03*
X364965000Y-113794000D03*
%TD*%
D16*
%TO.C,SW61*%
X169539500Y-121443000D03*
D17*
X170809500Y-118903000D03*
D18*
X174619500Y-121443000D03*
D17*
X177159500Y-116363000D03*
D16*
X179699500Y-121443000D03*
%TD*%
D15*
%TO.C,D83*%
X363031000Y-91821000D03*
X366331000Y-91821000D03*
%TD*%
%TO.C,D76*%
X282467000Y-148916000D03*
X285767000Y-148916000D03*
%TD*%
D16*
%TO.C,SW80*%
X340671000Y-64284000D03*
D17*
X341941000Y-61744000D03*
D18*
X345751000Y-64284000D03*
D17*
X348291000Y-59204000D03*
D16*
X350831000Y-64284000D03*
%TD*%
D15*
%TO.C,D65*%
X249177000Y-129897000D03*
X252477000Y-129897000D03*
%TD*%
D14*
%TO.C,KiKit_MB_19_6*%
X384083333Y-25000000D03*
%TD*%
%TO.C,KiKit_MB_4_1*%
X380000000Y-110833333D03*
%TD*%
%TO.C,KiKit_MB_9_8*%
X106500000Y-156000000D03*
%TD*%
%TO.C,KiKit_MB_7_5*%
X244214285Y-25000000D03*
%TD*%
D16*
%TO.C,SW32*%
X136202500Y-83343000D03*
D17*
X137472500Y-80803000D03*
D18*
X141282500Y-83343000D03*
D17*
X143822500Y-78263000D03*
D16*
X146362500Y-83343000D03*
%TD*%
%TO.C,SW42*%
X57620500Y-102393000D03*
D17*
X58890500Y-99853000D03*
D18*
X62700500Y-102393000D03*
D17*
X65240500Y-97313000D03*
D16*
X67780500Y-102393000D03*
%TD*%
D21*
%TO.C,*%
X375638000Y-27355000D03*
%TD*%
D14*
%TO.C,KiKit_MB_14_1*%
X380000000Y-20000000D03*
%TD*%
D21*
%TO.C,*%
X242972000Y-27355000D03*
%TD*%
D16*
%TO.C,SW84*%
X342210000Y-141982000D03*
D17*
X343480000Y-139442000D03*
D18*
X347290000Y-141982000D03*
D17*
X349830000Y-136902000D03*
D16*
X352370000Y-141982000D03*
%TD*%
D14*
%TO.C,KiKit_MB_14_5*%
X380000000Y-21666667D03*
%TD*%
%TO.C,KiKit_MB_10_4*%
X176214286Y-156000000D03*
%TD*%
%TO.C,KiKit_MB_1_3*%
X40000000Y-69309524D03*
%TD*%
%TO.C,KiKit_MB_17_4*%
X36750000Y-25000000D03*
%TD*%
D16*
%TO.C,SW50*%
X217164500Y-102393000D03*
D17*
X218434500Y-99853000D03*
D18*
X222244500Y-102393000D03*
D17*
X224784500Y-97313000D03*
D16*
X227324500Y-102393000D03*
%TD*%
%TO.C,SW49*%
X198114500Y-102393000D03*
D17*
X199384500Y-99853000D03*
D18*
X203194500Y-102393000D03*
D17*
X205734500Y-97313000D03*
D16*
X208274500Y-102393000D03*
%TD*%
D30*
%TO.C,Y1*%
X360388000Y-128280000D03*
X358188000Y-128280000D03*
X358188000Y-129980000D03*
X360388000Y-129980000D03*
%TD*%
D14*
%TO.C,KiKit_MB_17_5*%
X37166667Y-25000000D03*
%TD*%
D16*
%TO.C,SW48*%
X179064500Y-102393000D03*
D17*
X180334500Y-99853000D03*
D18*
X184144500Y-102393000D03*
D17*
X186684500Y-97313000D03*
D16*
X189224500Y-102393000D03*
%TD*%
D14*
%TO.C,KiKit_MB_17_2*%
X35916667Y-25000000D03*
%TD*%
%TO.C,KiKit_MB_18_1*%
X35500000Y-156000000D03*
%TD*%
D16*
%TO.C,SW51*%
X236214500Y-102393000D03*
D17*
X237484500Y-99853000D03*
D18*
X241294500Y-102393000D03*
D17*
X243834500Y-97313000D03*
D16*
X246374500Y-102393000D03*
%TD*%
D14*
%TO.C,KiKit_MB_18_2*%
X35916667Y-156000000D03*
%TD*%
D26*
%TO.C,SW27*%
X300794000Y-57308000D03*
D18*
X300794000Y-72548000D03*
D16*
X307652000Y-64293000D03*
D17*
X308922000Y-61753000D03*
D18*
X312732000Y-64293000D03*
D17*
X315272000Y-59213000D03*
D16*
X317812000Y-64293000D03*
D26*
X324670000Y-57308000D03*
D18*
X324670000Y-72548000D03*
%TD*%
D14*
%TO.C,KiKit_MB_12_8*%
X310500000Y-156000000D03*
%TD*%
%TO.C,KiKit_MB_15_7*%
X40000000Y-161000000D03*
%TD*%
%TO.C,KiKit_MB_14_2*%
X380000000Y-20416667D03*
%TD*%
%TO.C,KiKit_MB_8_8*%
X313500000Y-25000000D03*
%TD*%
%TO.C,KiKit_MB_16_7*%
X380000000Y-161000000D03*
%TD*%
D21*
%TO.C,*%
X83961000Y-52473000D03*
%TD*%
D16*
%TO.C,SW40*%
X288602500Y-83343000D03*
D17*
X289872500Y-80803000D03*
D18*
X293682500Y-83343000D03*
D17*
X296222500Y-78263000D03*
D16*
X298762500Y-83343000D03*
%TD*%
D20*
%TO.C,C8*%
X362986000Y-126009000D03*
X362986000Y-126969000D03*
%TD*%
D16*
%TO.C,SW39*%
X269552500Y-83343000D03*
D17*
X270822500Y-80803000D03*
D18*
X274632500Y-83343000D03*
D17*
X277172500Y-78263000D03*
D16*
X279712500Y-83343000D03*
%TD*%
D14*
%TO.C,KiKit_MB_8_1*%
X310500000Y-25000000D03*
%TD*%
D16*
%TO.C,SW23*%
X221927000Y-64293000D03*
D17*
X223197000Y-61753000D03*
D18*
X227007000Y-64293000D03*
D17*
X229547000Y-59213000D03*
D16*
X232087000Y-64293000D03*
%TD*%
D15*
%TO.C,D52*%
X258674000Y-110818000D03*
X261974000Y-110818000D03*
%TD*%
D16*
%TO.C,SW2*%
X73663000Y-40501000D03*
D17*
X74933000Y-37961000D03*
D18*
X78743000Y-40501000D03*
D17*
X81283000Y-35421000D03*
D16*
X83823000Y-40501000D03*
%TD*%
D14*
%TO.C,KiKit_MB_17_7*%
X38000000Y-25000000D03*
%TD*%
D15*
%TO.C,D6*%
X157584000Y-48941000D03*
X160884000Y-48941000D03*
%TD*%
%TO.C,D53*%
X277759000Y-110837000D03*
X281059000Y-110837000D03*
%TD*%
D13*
%TO.C,R10*%
X205909000Y-33057000D03*
X204889000Y-33057000D03*
%TD*%
D15*
%TO.C,D19*%
X149297000Y-72691000D03*
X152597000Y-72691000D03*
%TD*%
D21*
%TO.C,*%
X309305000Y-27355000D03*
%TD*%
D14*
%TO.C,KiKit_MB_12_3*%
X312642857Y-156000000D03*
%TD*%
D28*
%TO.C,R4*%
X357456000Y-112604000D03*
X358476000Y-112604000D03*
%TD*%
D16*
%TO.C,SW70*%
X52856500Y-140493000D03*
D17*
X54126500Y-137953000D03*
D18*
X57936500Y-140493000D03*
D17*
X60476500Y-135413000D03*
D16*
X63016500Y-140493000D03*
%TD*%
D14*
%TO.C,KiKit_MB_1_8*%
X40000000Y-67166667D03*
%TD*%
D15*
%TO.C,D84*%
X345718000Y-150240000D03*
X349018000Y-150240000D03*
%TD*%
D16*
%TO.C,SW47*%
X160014500Y-102393000D03*
D17*
X161284500Y-99853000D03*
D18*
X165094500Y-102393000D03*
D17*
X167634500Y-97313000D03*
D16*
X170174500Y-102393000D03*
%TD*%
%TO.C,SW71*%
X76669500Y-140493000D03*
D17*
X77939500Y-137953000D03*
D18*
X81749500Y-140493000D03*
D17*
X84289500Y-135413000D03*
D16*
X86829500Y-140493000D03*
%TD*%
D15*
%TO.C,D13*%
X295076000Y-48917000D03*
X298376000Y-48917000D03*
%TD*%
D14*
%TO.C,KiKit_MB_10_6*%
X175357143Y-156000000D03*
%TD*%
%TO.C,KiKit_MB_3_5*%
X380000000Y-68880953D03*
%TD*%
D31*
%TO.C,C6*%
X339660000Y-110143000D03*
X340620000Y-110143000D03*
%TD*%
D16*
%TO.C,SW72*%
X100482500Y-140493000D03*
D17*
X101752500Y-137953000D03*
D18*
X105562500Y-140493000D03*
D17*
X108102500Y-135413000D03*
D16*
X110642500Y-140493000D03*
%TD*%
%TO.C,SW69*%
X323160000Y-122932000D03*
D17*
X324430000Y-120392000D03*
D18*
X328240000Y-122932000D03*
D17*
X330780000Y-117852000D03*
D16*
X333320000Y-122932000D03*
%TD*%
D14*
%TO.C,KiKit_MB_17_6*%
X37583334Y-25000000D03*
%TD*%
D13*
%TO.C,R3*%
X358378000Y-111381000D03*
X357358000Y-111381000D03*
%TD*%
D14*
%TO.C,KiKit_MB_20_2*%
X382416666Y-156000000D03*
%TD*%
%TO.C,KiKit_MB_13_5*%
X40000000Y-21666667D03*
%TD*%
%TO.C,KiKit_MB_9_1*%
X109500000Y-156000000D03*
%TD*%
%TO.C,KiKit_MB_5_4*%
X107785715Y-25000000D03*
%TD*%
%TO.C,KiKit_MB_13_1*%
X40000000Y-20000000D03*
%TD*%
D15*
%TO.C,D37*%
X235087000Y-91760000D03*
X238387000Y-91760000D03*
%TD*%
D14*
%TO.C,KiKit_MB_2_3*%
X40000000Y-112976190D03*
%TD*%
%TO.C,KiKit_MB_6_2*%
X174928572Y-25000000D03*
%TD*%
D16*
%TO.C,SW13*%
X291563000Y-40501000D03*
D17*
X292833000Y-37961000D03*
D18*
X296643000Y-40501000D03*
D17*
X299183000Y-35421000D03*
D16*
X301723000Y-40501000D03*
%TD*%
D20*
%TO.C,C4*%
X202579000Y-31605000D03*
X202579000Y-32565000D03*
%TD*%
D31*
%TO.C,C13*%
X366512000Y-117280000D03*
X367472000Y-117280000D03*
%TD*%
D14*
%TO.C,KiKit_MB_11_1*%
X245500000Y-156000000D03*
%TD*%
%TO.C,KiKit_MB_12_5*%
X311785714Y-156000000D03*
%TD*%
D28*
%TO.C,R11*%
X332932000Y-111675000D03*
X333952000Y-111675000D03*
%TD*%
D14*
%TO.C,KiKit_MB_19_7*%
X384500000Y-25000000D03*
%TD*%
D32*
%TO.C,S2*%
X376789000Y-124920000D03*
X376789000Y-121320000D03*
X378239000Y-124920000D03*
X378239000Y-121320000D03*
%TD*%
D16*
%TO.C,SW65*%
X245739500Y-121443000D03*
D17*
X247009500Y-118903000D03*
D18*
X250819500Y-121443000D03*
D17*
X253359500Y-116363000D03*
D16*
X255899500Y-121443000D03*
%TD*%
%TO.C,SW12*%
X272513000Y-40501000D03*
D17*
X273783000Y-37961000D03*
D18*
X277593000Y-40501000D03*
D17*
X280133000Y-35421000D03*
D16*
X282673000Y-40501000D03*
%TD*%
%TO.C,SW44*%
X102864500Y-102393000D03*
D17*
X104134500Y-99853000D03*
D18*
X107944500Y-102393000D03*
D17*
X110484500Y-97313000D03*
D16*
X113024500Y-102393000D03*
%TD*%
D14*
%TO.C,KiKit_MB_15_1*%
X40000000Y-158500000D03*
%TD*%
D16*
%TO.C,SW75*%
X260026500Y-140493000D03*
D17*
X261296500Y-137953000D03*
D18*
X265106500Y-140493000D03*
D17*
X267646500Y-135413000D03*
D16*
X270186500Y-140493000D03*
%TD*%
D15*
%TO.C,D34*%
X177793000Y-91733000D03*
X181093000Y-91733000D03*
%TD*%
D14*
%TO.C,KiKit_MB_9_7*%
X106928572Y-156000000D03*
%TD*%
D21*
%TO.C,*%
X336021000Y-52560000D03*
%TD*%
D14*
%TO.C,KiKit_MB_12_2*%
X313071428Y-156000000D03*
%TD*%
D33*
%TO.C,ROTARY1*%
X347202000Y-38583000D03*
D34*
X347202000Y-43583000D03*
X347202000Y-41083000D03*
D35*
X354702000Y-35483000D03*
X354702000Y-46683000D03*
D34*
X361702000Y-43583000D03*
X361702000Y-38583000D03*
%TD*%
D15*
%TO.C,D66*%
X268234000Y-129921000D03*
X271534000Y-129921000D03*
%TD*%
D36*
%TO.C,U1*%
X357352500Y-113702000D03*
X357352500Y-114202000D03*
X357352500Y-114702000D03*
X357352500Y-115202000D03*
X359927500Y-115202000D03*
X359927500Y-114702000D03*
X359927500Y-114202000D03*
X359927500Y-113702000D03*
D37*
X358640000Y-114452000D03*
%TD*%
D14*
%TO.C,KiKit_MB_3_7*%
X380000000Y-69738096D03*
%TD*%
D16*
%TO.C,SW58*%
X112389500Y-121443000D03*
D17*
X113659500Y-118903000D03*
D18*
X117469500Y-121443000D03*
D17*
X120009500Y-116363000D03*
D16*
X122549500Y-121443000D03*
%TD*%
D14*
%TO.C,KiKit_MB_20_4*%
X383250000Y-156000000D03*
%TD*%
%TO.C,KiKit_MB_16_5*%
X380000000Y-160166666D03*
%TD*%
%TO.C,KiKit_MB_19_3*%
X382833333Y-25000000D03*
%TD*%
D16*
%TO.C,SW45*%
X121914500Y-102393000D03*
D17*
X123184500Y-99853000D03*
D18*
X126994500Y-102393000D03*
D17*
X129534500Y-97313000D03*
D16*
X132074500Y-102393000D03*
%TD*%
D26*
%TO.C,SW55*%
X298412500Y-95408000D03*
D18*
X298412500Y-110648000D03*
D16*
X305270500Y-102393000D03*
D17*
X306540500Y-99853000D03*
D18*
X310350500Y-102393000D03*
D17*
X312890500Y-97313000D03*
D16*
X315430500Y-102393000D03*
D26*
X322288500Y-95408000D03*
D18*
X322288500Y-110648000D03*
%TD*%
D21*
%TO.C,*%
X110313000Y-153630000D03*
%TD*%
D15*
%TO.C,D41*%
X313925500Y-91589000D03*
X317225500Y-91589000D03*
%TD*%
%TO.C,D15*%
X72936000Y-72823000D03*
X76236000Y-72823000D03*
%TD*%
D14*
%TO.C,KiKit_MB_14_6*%
X380000000Y-22083334D03*
%TD*%
D15*
%TO.C,D60*%
X153986000Y-129858000D03*
X157286000Y-129858000D03*
%TD*%
D16*
%TO.C,SW63*%
X207639500Y-121443000D03*
D17*
X208909500Y-118903000D03*
D18*
X212719500Y-121443000D03*
D17*
X215259500Y-116363000D03*
D16*
X217799500Y-121443000D03*
%TD*%
D14*
%TO.C,KiKit_MB_8_3*%
X311357142Y-25000000D03*
%TD*%
D32*
%TO.C,S1*%
X376840000Y-118743500D03*
X376840000Y-115143500D03*
X378290000Y-118743500D03*
X378290000Y-115143500D03*
%TD*%
D14*
%TO.C,KiKit_MB_1_2*%
X40000000Y-69738096D03*
%TD*%
%TO.C,KiKit_MB_16_6*%
X380000000Y-160583333D03*
%TD*%
D29*
%TO.C,D54*%
X333930000Y-95984000D03*
X333930000Y-92684000D03*
%TD*%
D14*
%TO.C,KiKit_MB_17_3*%
X36333334Y-25000000D03*
%TD*%
D15*
%TO.C,D18*%
X130164000Y-72702000D03*
X133464000Y-72702000D03*
%TD*%
D14*
%TO.C,KiKit_MB_2_6*%
X40000000Y-111690476D03*
%TD*%
D38*
%TO.C,U2*%
X335934500Y-109648000D03*
X335934500Y-110598000D03*
X335934500Y-111548000D03*
X338209500Y-111548000D03*
X338209500Y-109648000D03*
%TD*%
D16*
%TO.C,SW52*%
X255264500Y-102393000D03*
D17*
X256534500Y-99853000D03*
D18*
X260344500Y-102393000D03*
D17*
X262884500Y-97313000D03*
D16*
X265424500Y-102393000D03*
%TD*%
D14*
%TO.C,KiKit_MB_8_4*%
X311785714Y-25000000D03*
%TD*%
D15*
%TO.C,D12*%
X276006000Y-48903000D03*
X279306000Y-48903000D03*
%TD*%
D22*
%TO.C,R13*%
X367068000Y-114818000D03*
X367068000Y-113798000D03*
%TD*%
D15*
%TO.C,D40*%
X292107000Y-91758000D03*
X295407000Y-91758000D03*
%TD*%
D14*
%TO.C,KiKit_MB_5_5*%
X108214286Y-25000000D03*
%TD*%
D15*
%TO.C,D30*%
X101509000Y-91757000D03*
X104809000Y-91757000D03*
%TD*%
%TO.C,D33*%
X158773000Y-91788000D03*
X162073000Y-91788000D03*
%TD*%
D22*
%TO.C,FB1*%
X333955000Y-109097500D03*
X333955000Y-108077500D03*
%TD*%
D15*
%TO.C,D73*%
X175379000Y-148892000D03*
X178679000Y-148892000D03*
%TD*%
%TO.C,D50*%
X220650000Y-110789000D03*
X223950000Y-110789000D03*
%TD*%
D16*
%TO.C,SW31*%
X117152500Y-83343000D03*
D17*
X118422500Y-80803000D03*
D18*
X122232500Y-83343000D03*
D17*
X124772500Y-78263000D03*
D16*
X127312500Y-83343000D03*
%TD*%
D14*
%TO.C,KiKit_MB_4_5*%
X380000000Y-112547619D03*
%TD*%
D15*
%TO.C,D63*%
X211073000Y-129882000D03*
X214373000Y-129882000D03*
%TD*%
D16*
%TO.C,SW21*%
X183827000Y-64293000D03*
D17*
X185097000Y-61753000D03*
D18*
X188907000Y-64293000D03*
D17*
X191447000Y-59213000D03*
D16*
X193987000Y-64293000D03*
%TD*%
D14*
%TO.C,KiKit_MB_3_4*%
X380000000Y-68452381D03*
%TD*%
%TO.C,KiKit_MB_15_4*%
X40000000Y-159750000D03*
%TD*%
D15*
%TO.C,D62*%
X191961000Y-129852000D03*
X195261000Y-129852000D03*
%TD*%
D31*
%TO.C,C2*%
X358451000Y-126783000D03*
X359411000Y-126783000D03*
%TD*%
D14*
%TO.C,KiKit_MB_16_4*%
X380000000Y-159750000D03*
%TD*%
D16*
%TO.C,SW43*%
X83814500Y-102393000D03*
D17*
X85084500Y-99853000D03*
D18*
X88894500Y-102393000D03*
D17*
X91434500Y-97313000D03*
D16*
X93974500Y-102393000D03*
%TD*%
%TO.C,SW8*%
X192138000Y-40501000D03*
D17*
X193408000Y-37961000D03*
D18*
X197218000Y-40501000D03*
D17*
X199758000Y-35421000D03*
D16*
X202298000Y-40501000D03*
%TD*%
%TO.C,SW82*%
X359721000Y-64284000D03*
D17*
X360991000Y-61744000D03*
D18*
X364801000Y-64284000D03*
D17*
X367341000Y-59204000D03*
D16*
X369881000Y-64284000D03*
%TD*%
D14*
%TO.C,KiKit_MB_11_2*%
X245071428Y-156000000D03*
%TD*%
D16*
%TO.C,SW77*%
X304110000Y-141982000D03*
D17*
X305380000Y-139442000D03*
D18*
X309190000Y-141982000D03*
D17*
X311730000Y-136902000D03*
D16*
X314270000Y-141982000D03*
%TD*%
D14*
%TO.C,KiKit_MB_6_4*%
X175785715Y-25000000D03*
%TD*%
D16*
%TO.C,SW29*%
X79052500Y-83343000D03*
D17*
X80322500Y-80803000D03*
D18*
X84132500Y-83343000D03*
D17*
X86672500Y-78263000D03*
D16*
X89212500Y-83343000D03*
%TD*%
%TO.C,SW41*%
X312415500Y-83343000D03*
D17*
X313685500Y-80803000D03*
D18*
X317495500Y-83343000D03*
D17*
X320035500Y-78263000D03*
D16*
X322575500Y-83343000D03*
%TD*%
D15*
%TO.C,D36*%
X215924000Y-91768000D03*
X219224000Y-91768000D03*
%TD*%
D16*
%TO.C,SW83*%
X359721000Y-83334000D03*
D17*
X360991000Y-80794000D03*
D18*
X364801000Y-83334000D03*
D17*
X367341000Y-78254000D03*
D16*
X369881000Y-83334000D03*
%TD*%
D20*
%TO.C,C5*%
X339838000Y-111211000D03*
X339838000Y-112171000D03*
%TD*%
D14*
%TO.C,KiKit_MB_4_6*%
X380000000Y-112976190D03*
%TD*%
%TO.C,KiKit_MB_10_2*%
X177071429Y-156000000D03*
%TD*%
%TO.C,KiKit_MB_8_6*%
X312642857Y-25000000D03*
%TD*%
D15*
%TO.C,D69*%
X326603500Y-131152000D03*
X329903500Y-131152000D03*
%TD*%
D14*
%TO.C,KiKit_MB_20_7*%
X384500000Y-156000000D03*
%TD*%
%TO.C,KiKit_MB_18_6*%
X37583334Y-156000000D03*
%TD*%
D15*
%TO.C,D21*%
X187385000Y-72697000D03*
X190685000Y-72697000D03*
%TD*%
D14*
%TO.C,KiKit_MB_11_8*%
X242500000Y-156000000D03*
%TD*%
D15*
%TO.C,D24*%
X244488000Y-72685000D03*
X247788000Y-72685000D03*
%TD*%
%TO.C,D27*%
X311230000Y-72676000D03*
X314530000Y-72676000D03*
%TD*%
%TO.C,D45*%
X125376000Y-110781000D03*
X128676000Y-110781000D03*
%TD*%
D14*
%TO.C,KiKit_MB_4_4*%
X380000000Y-112119047D03*
%TD*%
D31*
%TO.C,C12*%
X366513000Y-116262000D03*
X367473000Y-116262000D03*
%TD*%
D14*
%TO.C,KiKit_MB_10_5*%
X175785715Y-156000000D03*
%TD*%
%TO.C,KiKit_MB_3_1*%
X380000000Y-67166667D03*
%TD*%
D23*
%TO.C,C18*%
X351775000Y-121480000D03*
X350815000Y-121480000D03*
%TD*%
D14*
%TO.C,KiKit_MB_2_4*%
X40000000Y-112547619D03*
%TD*%
D16*
%TO.C,SW64*%
X226689500Y-121443000D03*
D17*
X227959500Y-118903000D03*
D18*
X231769500Y-121443000D03*
D17*
X234309500Y-116363000D03*
D16*
X236849500Y-121443000D03*
%TD*%
%TO.C,SW4*%
X111763000Y-40501000D03*
D17*
X113033000Y-37961000D03*
D18*
X116843000Y-40501000D03*
D17*
X119383000Y-35421000D03*
D16*
X121923000Y-40501000D03*
%TD*%
D15*
%TO.C,D71*%
X79972000Y-148893000D03*
X83272000Y-148893000D03*
%TD*%
D20*
%TO.C,C3*%
X362024000Y-129050000D03*
X362024000Y-130010000D03*
%TD*%
D16*
%TO.C,SW26*%
X279077000Y-64293000D03*
D17*
X280347000Y-61753000D03*
D18*
X284157000Y-64293000D03*
D17*
X286697000Y-59213000D03*
D16*
X289237000Y-64293000D03*
%TD*%
D14*
%TO.C,KiKit_MB_14_3*%
X380000000Y-20833334D03*
%TD*%
D21*
%TO.C,*%
X242979000Y-153630000D03*
%TD*%
D14*
%TO.C,KiKit_MB_1_4*%
X40000000Y-68880953D03*
%TD*%
%TO.C,KiKit_MB_18_3*%
X36333334Y-156000000D03*
%TD*%
D16*
%TO.C,SW1*%
X50438000Y-40523000D03*
D17*
X51708000Y-37983000D03*
D18*
X55518000Y-40523000D03*
D17*
X58058000Y-35443000D03*
D16*
X60598000Y-40523000D03*
%TD*%
D15*
%TO.C,D11*%
X256892000Y-48888000D03*
X260192000Y-48888000D03*
%TD*%
D16*
%TO.C,SW6*%
X154038000Y-40501000D03*
D17*
X155308000Y-37961000D03*
D18*
X159118000Y-40501000D03*
D17*
X161658000Y-35421000D03*
D16*
X164198000Y-40501000D03*
%TD*%
D15*
%TO.C,D51*%
X239716000Y-110819000D03*
X243016000Y-110819000D03*
%TD*%
%TO.C,D25*%
X263481000Y-72646000D03*
X266781000Y-72646000D03*
%TD*%
D14*
%TO.C,KiKit_MB_5_7*%
X109071429Y-25000000D03*
%TD*%
%TO.C,KiKit_MB_1_6*%
X40000000Y-68023810D03*
%TD*%
%TO.C,KiKit_MB_1_5*%
X40000000Y-68452381D03*
%TD*%
D22*
%TO.C,R6*%
X203730000Y-32640000D03*
X203730000Y-31620000D03*
%TD*%
D14*
%TO.C,KiKit_MB_10_8*%
X174500000Y-156000000D03*
%TD*%
D39*
%TO.C,U3*%
X358024500Y-118092000D03*
X358024500Y-118492000D03*
X358024500Y-118892000D03*
X358024500Y-119292000D03*
X358024500Y-119692000D03*
X358024500Y-120092000D03*
X358024500Y-120492000D03*
X358024500Y-120892000D03*
X358024500Y-121292000D03*
X358024500Y-121692000D03*
X358024500Y-122092000D03*
X358024500Y-122492000D03*
X358024500Y-122892000D03*
X358024500Y-123292000D03*
D40*
X358862000Y-124129500D03*
X359262000Y-124129500D03*
X359662000Y-124129500D03*
X360062000Y-124129500D03*
X360462000Y-124129500D03*
X360862000Y-124129500D03*
X361262000Y-124129500D03*
X361662000Y-124129500D03*
X362062000Y-124129500D03*
X362462000Y-124129500D03*
X362862000Y-124129500D03*
X363262000Y-124129500D03*
X363662000Y-124129500D03*
X364062000Y-124129500D03*
D39*
X364899500Y-123292000D03*
X364899500Y-122892000D03*
X364899500Y-122492000D03*
X364899500Y-122092000D03*
X364899500Y-121692000D03*
X364899500Y-121292000D03*
X364899500Y-120892000D03*
X364899500Y-120492000D03*
X364899500Y-120092000D03*
X364899500Y-119692000D03*
X364899500Y-119292000D03*
X364899500Y-118892000D03*
X364899500Y-118492000D03*
X364899500Y-118092000D03*
D40*
X364062000Y-117254500D03*
X363662000Y-117254500D03*
X363262000Y-117254500D03*
X362862000Y-117254500D03*
X362462000Y-117254500D03*
X362062000Y-117254500D03*
X361662000Y-117254500D03*
X361262000Y-117254500D03*
X360862000Y-117254500D03*
X360462000Y-117254500D03*
X360062000Y-117254500D03*
X359662000Y-117254500D03*
X359262000Y-117254500D03*
X358862000Y-117254500D03*
D41*
X361462000Y-120692000D03*
%TD*%
D15*
%TO.C,D75*%
X263399000Y-148916000D03*
X266699000Y-148916000D03*
%TD*%
%TO.C,D82*%
X363257000Y-72662000D03*
X366557000Y-72662000D03*
%TD*%
D14*
%TO.C,KiKit_MB_13_7*%
X40000000Y-22500000D03*
%TD*%
%TO.C,KiKit_MB_3_6*%
X380000000Y-69309524D03*
%TD*%
D16*
%TO.C,SW66*%
X264789500Y-121443000D03*
D17*
X266059500Y-118903000D03*
D18*
X269869500Y-121443000D03*
D17*
X272409500Y-116363000D03*
D16*
X274949500Y-121443000D03*
%TD*%
D14*
%TO.C,KiKit_MB_6_7*%
X177071429Y-25000000D03*
%TD*%
%TO.C,KiKit_MB_19_2*%
X382416666Y-25000000D03*
%TD*%
%TO.C,KiKit_MB_20_5*%
X383666666Y-156000000D03*
%TD*%
%TO.C,KiKit_MB_5_1*%
X106500000Y-25000000D03*
%TD*%
D16*
%TO.C,SW9*%
X211188000Y-40501000D03*
D17*
X212458000Y-37961000D03*
D18*
X216268000Y-40501000D03*
D17*
X218808000Y-35421000D03*
D16*
X221348000Y-40501000D03*
%TD*%
D15*
%TO.C,D46*%
X144494000Y-110737000D03*
X147794000Y-110737000D03*
%TD*%
D14*
%TO.C,KiKit_MB_17_1*%
X35500000Y-25000000D03*
%TD*%
%TO.C,KiKit_MB_15_5*%
X40000000Y-160166666D03*
%TD*%
%TO.C,KiKit_MB_5_2*%
X106928572Y-25000000D03*
%TD*%
D16*
%TO.C,SW28*%
X55239500Y-83343000D03*
D17*
X56509500Y-80803000D03*
D18*
X60319500Y-83343000D03*
D17*
X62859500Y-78263000D03*
D16*
X65399500Y-83343000D03*
%TD*%
D13*
%TO.C,R8*%
X358419000Y-92580000D03*
X357399000Y-92580000D03*
%TD*%
D15*
%TO.C,D16*%
X92080000Y-72664000D03*
X95380000Y-72664000D03*
%TD*%
D14*
%TO.C,KiKit_MB_2_1*%
X40000000Y-113833333D03*
%TD*%
D16*
%TO.C,SW17*%
X107627000Y-64293000D03*
D17*
X108897000Y-61753000D03*
D18*
X112707000Y-64293000D03*
D17*
X115247000Y-59213000D03*
D16*
X117787000Y-64293000D03*
%TD*%
D14*
%TO.C,KiKit_MB_5_3*%
X107357143Y-25000000D03*
%TD*%
D15*
%TO.C,D31*%
X120562000Y-91787000D03*
X123862000Y-91787000D03*
%TD*%
D16*
%TO.C,SW60*%
X150489500Y-121443000D03*
D17*
X151759500Y-118903000D03*
D18*
X155569500Y-121443000D03*
D17*
X158109500Y-116363000D03*
D16*
X160649500Y-121443000D03*
%TD*%
%TO.C,SW24*%
X240977000Y-64293000D03*
D17*
X242247000Y-61753000D03*
D18*
X246057000Y-64293000D03*
D17*
X248597000Y-59213000D03*
D16*
X251137000Y-64293000D03*
%TD*%
%TO.C,SW46*%
X140964500Y-102393000D03*
D17*
X142234500Y-99853000D03*
D18*
X146044500Y-102393000D03*
D17*
X148584500Y-97313000D03*
D16*
X151124500Y-102393000D03*
%TD*%
D14*
%TO.C,KiKit_MB_18_7*%
X38000000Y-156000000D03*
%TD*%
%TO.C,KiKit_MB_12_7*%
X310928571Y-156000000D03*
%TD*%
%TO.C,KiKit_MB_16_1*%
X380000000Y-158500000D03*
%TD*%
%TO.C,KiKit_MB_16_2*%
X380000000Y-158916666D03*
%TD*%
D15*
%TO.C,D47*%
X163427000Y-110812000D03*
X166727000Y-110812000D03*
%TD*%
%TO.C,D7*%
X176655000Y-48889000D03*
X179955000Y-48889000D03*
%TD*%
D16*
%TO.C,SW37*%
X231452500Y-83343000D03*
D17*
X232722500Y-80803000D03*
D18*
X236532500Y-83343000D03*
D17*
X239072500Y-78263000D03*
D16*
X241612500Y-83343000D03*
%TD*%
%TO.C,SW18*%
X126677000Y-64293000D03*
D17*
X127947000Y-61753000D03*
D18*
X131757000Y-64293000D03*
D17*
X134297000Y-59213000D03*
D16*
X136837000Y-64293000D03*
%TD*%
D21*
%TO.C,*%
X176639000Y-27355000D03*
%TD*%
D16*
%TO.C,SW16*%
X88577000Y-64293000D03*
D17*
X89847000Y-61753000D03*
D18*
X93657000Y-64293000D03*
D17*
X96197000Y-59213000D03*
D16*
X98737000Y-64293000D03*
%TD*%
D28*
%TO.C,R9*%
X206803000Y-34044000D03*
X207823000Y-34044000D03*
%TD*%
M02*
