%TF.GenerationSoftware,KiCad,Pcbnew,7.0.9*%
%TF.CreationDate,2024-09-10T22:02:23-04:00*%
%TF.ProjectId,panel,70616e65-6c2e-46b6-9963-61645f706362,0.1*%
%TF.SameCoordinates,Original*%
%TF.FileFunction,Paste,Top*%
%TF.FilePolarity,Positive*%
%FSLAX46Y46*%
G04 Gerber Fmt 4.6, Leading zero omitted, Abs format (unit mm)*
G04 Created by KiCad (PCBNEW 7.0.9) date 2024-09-10 22:02:23*
%MOMM*%
%LPD*%
G01*
G04 APERTURE LIST*
G04 Aperture macros list*
%AMRoundRect*
0 Rectangle with rounded corners*
0 $1 Rounding radius*
0 $2 $3 $4 $5 $6 $7 $8 $9 X,Y pos of 4 corners*
0 Add a 4 corners polygon primitive as box body*
4,1,4,$2,$3,$4,$5,$6,$7,$8,$9,$2,$3,0*
0 Add four circle primitives for the rounded corners*
1,1,$1+$1,$2,$3*
1,1,$1+$1,$4,$5*
1,1,$1+$1,$6,$7*
1,1,$1+$1,$8,$9*
0 Add four rect primitives between the rounded corners*
20,1,$1+$1,$2,$3,$4,$5,0*
20,1,$1+$1,$4,$5,$6,$7,0*
20,1,$1+$1,$6,$7,$8,$9,0*
20,1,$1+$1,$8,$9,$2,$3,0*%
G04 Aperture macros list end*
%ADD10RoundRect,0.225000X-0.225000X-0.375000X0.225000X-0.375000X0.225000X0.375000X-0.225000X0.375000X0*%
%ADD11RoundRect,0.135000X0.185000X-0.135000X0.185000X0.135000X-0.185000X0.135000X-0.185000X-0.135000X0*%
%ADD12RoundRect,0.250000X-0.292217X-0.292217X0.292217X-0.292217X0.292217X0.292217X-0.292217X0.292217X0*%
%ADD13RoundRect,0.050000X-0.387500X-0.050000X0.387500X-0.050000X0.387500X0.050000X-0.387500X0.050000X0*%
%ADD14RoundRect,0.050000X-0.050000X-0.387500X0.050000X-0.387500X0.050000X0.387500X-0.050000X0.387500X0*%
%ADD15RoundRect,0.225000X0.375000X-0.225000X0.375000X0.225000X-0.375000X0.225000X-0.375000X-0.225000X0*%
%ADD16RoundRect,0.140000X-0.140000X-0.170000X0.140000X-0.170000X0.140000X0.170000X-0.140000X0.170000X0*%
%ADD17RoundRect,0.140000X-0.170000X0.140000X-0.170000X-0.140000X0.170000X-0.140000X0.170000X0.140000X0*%
%ADD18RoundRect,0.135000X0.135000X0.185000X-0.135000X0.185000X-0.135000X-0.185000X0.135000X-0.185000X0*%
%ADD19R,1.050000X1.400000*%
%ADD20RoundRect,0.140000X0.140000X0.170000X-0.140000X0.170000X-0.140000X-0.170000X0.140000X-0.170000X0*%
%ADD21RoundRect,0.140000X0.170000X-0.140000X0.170000X0.140000X-0.170000X0.140000X-0.170000X-0.140000X0*%
%ADD22RoundRect,0.140000X-0.140000X-0.180000X0.140000X-0.180000X0.140000X0.180000X-0.140000X0.180000X0*%
%ADD23RoundRect,0.087500X-0.175000X-0.087500X0.175000X-0.087500X0.175000X0.087500X-0.175000X0.087500X0*%
%ADD24RoundRect,0.135000X-0.185000X0.135000X-0.185000X-0.135000X0.185000X-0.135000X0.185000X0.135000X0*%
%ADD25RoundRect,0.150000X-0.512500X-0.150000X0.512500X-0.150000X0.512500X0.150000X-0.512500X0.150000X0*%
%ADD26R,0.600000X1.450000*%
%ADD27R,0.300000X1.450000*%
%ADD28RoundRect,0.243750X-0.456250X0.243750X-0.456250X-0.243750X0.456250X-0.243750X0.456250X0.243750X0*%
%ADD29RoundRect,0.135000X-0.135000X-0.185000X0.135000X-0.185000X0.135000X0.185000X-0.135000X0.185000X0*%
%ADD30R,1.400000X1.200000*%
G04 APERTURE END LIST*
D10*
%TO.C,D60*%
X153986000Y-129858000D03*
X157286000Y-129858000D03*
%TD*%
%TO.C,D33*%
X158773000Y-91788000D03*
X162073000Y-91788000D03*
%TD*%
D11*
%TO.C,R16*%
X363919000Y-114786000D03*
X363919000Y-113766000D03*
%TD*%
D10*
%TO.C,D58*%
X115814000Y-129843000D03*
X119114000Y-129843000D03*
%TD*%
%TO.C,D6*%
X157584000Y-48941000D03*
X160884000Y-48941000D03*
%TD*%
%TO.C,D21*%
X187385000Y-72697000D03*
X190685000Y-72697000D03*
%TD*%
%TO.C,D69*%
X326603500Y-131152000D03*
X329903500Y-131152000D03*
%TD*%
D12*
%TO.C,U3*%
X360824500Y-120054500D03*
X360824500Y-121329500D03*
X362099500Y-120054500D03*
X362099500Y-121329500D03*
D13*
X358024500Y-118092000D03*
X358024500Y-118492000D03*
X358024500Y-118892000D03*
X358024500Y-119292000D03*
X358024500Y-119692000D03*
X358024500Y-120092000D03*
X358024500Y-120492000D03*
X358024500Y-120892000D03*
X358024500Y-121292000D03*
X358024500Y-121692000D03*
X358024500Y-122092000D03*
X358024500Y-122492000D03*
X358024500Y-122892000D03*
X358024500Y-123292000D03*
D14*
X358862000Y-124129500D03*
X359262000Y-124129500D03*
X359662000Y-124129500D03*
X360062000Y-124129500D03*
X360462000Y-124129500D03*
X360862000Y-124129500D03*
X361262000Y-124129500D03*
X361662000Y-124129500D03*
X362062000Y-124129500D03*
X362462000Y-124129500D03*
X362862000Y-124129500D03*
X363262000Y-124129500D03*
X363662000Y-124129500D03*
X364062000Y-124129500D03*
D13*
X364899500Y-123292000D03*
X364899500Y-122892000D03*
X364899500Y-122492000D03*
X364899500Y-122092000D03*
X364899500Y-121692000D03*
X364899500Y-121292000D03*
X364899500Y-120892000D03*
X364899500Y-120492000D03*
X364899500Y-120092000D03*
X364899500Y-119692000D03*
X364899500Y-119292000D03*
X364899500Y-118892000D03*
X364899500Y-118492000D03*
X364899500Y-118092000D03*
D14*
X364062000Y-117254500D03*
X363662000Y-117254500D03*
X363262000Y-117254500D03*
X362862000Y-117254500D03*
X362462000Y-117254500D03*
X362062000Y-117254500D03*
X361662000Y-117254500D03*
X361262000Y-117254500D03*
X360862000Y-117254500D03*
X360462000Y-117254500D03*
X360062000Y-117254500D03*
X359662000Y-117254500D03*
X359262000Y-117254500D03*
X358862000Y-117254500D03*
%TD*%
D15*
%TO.C,D73*%
X189037000Y-142837000D03*
X189037000Y-139537000D03*
%TD*%
D10*
%TO.C,D46*%
X144494000Y-110737000D03*
X147794000Y-110737000D03*
%TD*%
%TO.C,D29*%
X82509000Y-91806000D03*
X85809000Y-91806000D03*
%TD*%
D16*
%TO.C,C12*%
X366513000Y-116262000D03*
X367473000Y-116262000D03*
%TD*%
D10*
%TO.C,D49*%
X201667000Y-110886000D03*
X204967000Y-110886000D03*
%TD*%
D17*
%TO.C,C5*%
X339838000Y-111211000D03*
X339838000Y-112171000D03*
%TD*%
D10*
%TO.C,D26*%
X282574000Y-72691000D03*
X285874000Y-72691000D03*
%TD*%
D18*
%TO.C,R3*%
X358378000Y-111381000D03*
X357358000Y-111381000D03*
%TD*%
D17*
%TO.C,C3*%
X362024000Y-129050000D03*
X362024000Y-130010000D03*
%TD*%
D10*
%TO.C,D45*%
X125376000Y-110781000D03*
X128676000Y-110781000D03*
%TD*%
%TO.C,D66*%
X268234000Y-129921000D03*
X271534000Y-129921000D03*
%TD*%
D19*
%TO.C,S1*%
X376840000Y-118743500D03*
X376840000Y-115143500D03*
X378290000Y-118743500D03*
X378290000Y-115143500D03*
%TD*%
D20*
%TO.C,C18*%
X351775000Y-121480000D03*
X350815000Y-121480000D03*
%TD*%
D10*
%TO.C,D81*%
X344290500Y-91620000D03*
X347590500Y-91620000D03*
%TD*%
%TO.C,D42*%
X61210000Y-110800000D03*
X64510000Y-110800000D03*
%TD*%
%TO.C,D35*%
X196853000Y-91787000D03*
X200153000Y-91787000D03*
%TD*%
D21*
%TO.C,C11*%
X368332000Y-114776000D03*
X368332000Y-113816000D03*
%TD*%
D11*
%TO.C,R13*%
X367068000Y-114818000D03*
X367068000Y-113798000D03*
%TD*%
D10*
%TO.C,D68*%
X294561000Y-130312000D03*
X297861000Y-130312000D03*
%TD*%
%TO.C,D31*%
X120562000Y-91787000D03*
X123862000Y-91787000D03*
%TD*%
%TO.C,D48*%
X182514000Y-110797000D03*
X185814000Y-110797000D03*
%TD*%
D22*
%TO.C,U1*%
X358290000Y-114052000D03*
X358290000Y-114852000D03*
X358990000Y-114052000D03*
X358990000Y-114852000D03*
D23*
X357352500Y-113702000D03*
X357352500Y-114202000D03*
X357352500Y-114702000D03*
X357352500Y-115202000D03*
X359927500Y-115202000D03*
X359927500Y-114702000D03*
X359927500Y-114202000D03*
X359927500Y-113702000D03*
%TD*%
D18*
%TO.C,R5*%
X362977000Y-128016000D03*
X361957000Y-128016000D03*
%TD*%
D10*
%TO.C,D36*%
X215924000Y-91768000D03*
X219224000Y-91768000D03*
%TD*%
D24*
%TO.C,R9*%
X206730000Y-36058000D03*
X206730000Y-37078000D03*
%TD*%
D25*
%TO.C,U2*%
X335934500Y-109648000D03*
X335934500Y-110598000D03*
X335934500Y-111548000D03*
X338209500Y-111548000D03*
X338209500Y-109648000D03*
%TD*%
D10*
%TO.C,D40*%
X292107000Y-91758000D03*
X295407000Y-91758000D03*
%TD*%
%TO.C,D28*%
X58760000Y-91660000D03*
X62060000Y-91660000D03*
%TD*%
%TO.C,D57*%
X96822000Y-129865000D03*
X100122000Y-129865000D03*
%TD*%
D19*
%TO.C,S2*%
X376789000Y-124920000D03*
X376789000Y-121320000D03*
X378239000Y-124920000D03*
X378239000Y-121320000D03*
%TD*%
D10*
%TO.C,D41*%
X313925500Y-91589000D03*
X317225500Y-91589000D03*
%TD*%
D16*
%TO.C,C6*%
X339660000Y-110143000D03*
X340620000Y-110143000D03*
%TD*%
D10*
%TO.C,D74*%
X244392000Y-148916000D03*
X247692000Y-148916000D03*
%TD*%
%TO.C,D72*%
X103944000Y-148938000D03*
X107244000Y-148938000D03*
%TD*%
%TO.C,D20*%
X168355000Y-72742000D03*
X171655000Y-72742000D03*
%TD*%
%TO.C,D24*%
X244488000Y-72685000D03*
X247788000Y-72685000D03*
%TD*%
%TO.C,D43*%
X87363000Y-110794000D03*
X90663000Y-110794000D03*
%TD*%
%TO.C,D78*%
X326532500Y-150149000D03*
X329832500Y-150149000D03*
%TD*%
%TO.C,D61*%
X173098000Y-129858000D03*
X176398000Y-129858000D03*
%TD*%
%TO.C,D51*%
X239716000Y-110819000D03*
X243016000Y-110819000D03*
%TD*%
%TO.C,D3*%
X96104000Y-48969000D03*
X99404000Y-48969000D03*
%TD*%
%TO.C,D17*%
X111133000Y-72664000D03*
X114433000Y-72664000D03*
%TD*%
D26*
%TO.C,USB1*%
X213208000Y-32148500D03*
X212433000Y-32148500D03*
D27*
X211733000Y-32148500D03*
X211233000Y-32148500D03*
X210733000Y-32148500D03*
X210233000Y-32148500D03*
X209733000Y-32148500D03*
X209233000Y-32148500D03*
X208733000Y-32148500D03*
X208233000Y-32148500D03*
D26*
X207533000Y-32148500D03*
X206758000Y-32148500D03*
%TD*%
D10*
%TO.C,D32*%
X139667000Y-91783000D03*
X142967000Y-91783000D03*
%TD*%
D15*
%TO.C,D54*%
X333930000Y-95984000D03*
X333930000Y-92684000D03*
%TD*%
D10*
%TO.C,D39*%
X272972000Y-91713000D03*
X276272000Y-91713000D03*
%TD*%
%TO.C,D67*%
X320769500Y-48687000D03*
X324069500Y-48687000D03*
%TD*%
D28*
%TO.C,F1*%
X333941000Y-97607500D03*
X333941000Y-99482500D03*
%TD*%
D29*
%TO.C,R4*%
X357456000Y-112604000D03*
X358476000Y-112604000D03*
%TD*%
D10*
%TO.C,D13*%
X295076000Y-48917000D03*
X298376000Y-48917000D03*
%TD*%
D21*
%TO.C,C15*%
X361576000Y-113486000D03*
X361576000Y-112526000D03*
%TD*%
D10*
%TO.C,D16*%
X92080000Y-72664000D03*
X95380000Y-72664000D03*
%TD*%
D11*
%TO.C,FB1*%
X333955000Y-109097500D03*
X333955000Y-108077500D03*
%TD*%
D10*
%TO.C,D47*%
X163427000Y-110812000D03*
X166727000Y-110812000D03*
%TD*%
%TO.C,D50*%
X220650000Y-110789000D03*
X223950000Y-110789000D03*
%TD*%
D16*
%TO.C,C13*%
X366512000Y-117280000D03*
X367472000Y-117280000D03*
%TD*%
D10*
%TO.C,D12*%
X276006000Y-48903000D03*
X279306000Y-48903000D03*
%TD*%
D17*
%TO.C,C16*%
X367546000Y-122953000D03*
X367546000Y-123913000D03*
%TD*%
D10*
%TO.C,D5*%
X134266000Y-49038000D03*
X137566000Y-49038000D03*
%TD*%
%TO.C,D59*%
X135009000Y-129858000D03*
X138309000Y-129858000D03*
%TD*%
D18*
%TO.C,R2*%
X345078000Y-43482000D03*
X344058000Y-43482000D03*
%TD*%
D17*
%TO.C,C8*%
X363057000Y-129034000D03*
X363057000Y-129994000D03*
%TD*%
D10*
%TO.C,D25*%
X263481000Y-72646000D03*
X266781000Y-72646000D03*
%TD*%
D15*
%TO.C,D56*%
X87819000Y-129904000D03*
X87819000Y-126604000D03*
%TD*%
D20*
%TO.C,C14*%
X356757000Y-117189000D03*
X355797000Y-117189000D03*
%TD*%
D10*
%TO.C,D2*%
X77123000Y-48926000D03*
X80423000Y-48926000D03*
%TD*%
D11*
%TO.C,R15*%
X362859000Y-114759000D03*
X362859000Y-113739000D03*
%TD*%
D10*
%TO.C,D70*%
X56267000Y-148797000D03*
X59567000Y-148797000D03*
%TD*%
%TO.C,D76*%
X282467000Y-148916000D03*
X285767000Y-148916000D03*
%TD*%
%TO.C,D82*%
X363257000Y-72662000D03*
X366557000Y-72662000D03*
%TD*%
D29*
%TO.C,R11*%
X332932000Y-111675000D03*
X333952000Y-111675000D03*
%TD*%
D10*
%TO.C,D14*%
X53920000Y-72679000D03*
X57220000Y-72679000D03*
%TD*%
%TO.C,D62*%
X191961000Y-129852000D03*
X195261000Y-129852000D03*
%TD*%
%TO.C,D84*%
X345718000Y-150240000D03*
X349018000Y-150240000D03*
%TD*%
%TO.C,D9*%
X214639000Y-48943000D03*
X217939000Y-48943000D03*
%TD*%
%TO.C,D83*%
X363031000Y-91821000D03*
X366331000Y-91821000D03*
%TD*%
%TO.C,D15*%
X72936000Y-72823000D03*
X76236000Y-72823000D03*
%TD*%
D17*
%TO.C,C10*%
X361728000Y-125844000D03*
X361728000Y-126804000D03*
%TD*%
D10*
%TO.C,D7*%
X176655000Y-48889000D03*
X179955000Y-48889000D03*
%TD*%
D15*
%TO.C,D27*%
X294987000Y-69827500D03*
X294987000Y-66527500D03*
%TD*%
D11*
%TO.C,R7*%
X369559000Y-121655000D03*
X369559000Y-120635000D03*
%TD*%
D10*
%TO.C,D23*%
X225439000Y-72673000D03*
X228739000Y-72673000D03*
%TD*%
D16*
%TO.C,C2*%
X358451000Y-126783000D03*
X359411000Y-126783000D03*
%TD*%
D15*
%TO.C,D55*%
X290246000Y-110439500D03*
X290246000Y-107139500D03*
%TD*%
D10*
%TO.C,D34*%
X177793000Y-91733000D03*
X181093000Y-91733000D03*
%TD*%
D11*
%TO.C,R6*%
X203730000Y-32640000D03*
X203730000Y-31620000D03*
%TD*%
D21*
%TO.C,C9*%
X361498000Y-115698000D03*
X361498000Y-114738000D03*
%TD*%
D10*
%TO.C,D65*%
X249177000Y-129897000D03*
X252477000Y-129897000D03*
%TD*%
%TO.C,D80*%
X344178000Y-72661000D03*
X347478000Y-72661000D03*
%TD*%
%TO.C,D75*%
X263399000Y-148916000D03*
X266699000Y-148916000D03*
%TD*%
D21*
%TO.C,C17*%
X365995000Y-114769000D03*
X365995000Y-113809000D03*
%TD*%
D30*
%TO.C,Y1*%
X360388000Y-128280000D03*
X358188000Y-128280000D03*
X358188000Y-129980000D03*
X360388000Y-129980000D03*
%TD*%
D10*
%TO.C,D37*%
X235087000Y-91760000D03*
X238387000Y-91760000D03*
%TD*%
%TO.C,D44*%
X106318000Y-110772000D03*
X109618000Y-110772000D03*
%TD*%
%TO.C,D10*%
X237972000Y-48917000D03*
X241272000Y-48917000D03*
%TD*%
%TO.C,D4*%
X115370000Y-48961000D03*
X118670000Y-48961000D03*
%TD*%
%TO.C,D53*%
X277759000Y-110837000D03*
X281059000Y-110837000D03*
%TD*%
%TO.C,D63*%
X211073000Y-129882000D03*
X214373000Y-129882000D03*
%TD*%
D18*
%TO.C,R10*%
X206930000Y-34780000D03*
X205910000Y-34780000D03*
%TD*%
D10*
%TO.C,D22*%
X206346000Y-72649000D03*
X209646000Y-72649000D03*
%TD*%
%TO.C,D18*%
X130164000Y-72702000D03*
X133464000Y-72702000D03*
%TD*%
D11*
%TO.C,R8*%
X331646000Y-93955000D03*
X331646000Y-92935000D03*
%TD*%
D10*
%TO.C,D30*%
X101509000Y-91757000D03*
X104809000Y-91757000D03*
%TD*%
D29*
%TO.C,R14*%
X367054000Y-112824000D03*
X368074000Y-112824000D03*
%TD*%
D10*
%TO.C,D8*%
X195747000Y-48906000D03*
X199047000Y-48906000D03*
%TD*%
%TO.C,D11*%
X256892000Y-48888000D03*
X260192000Y-48888000D03*
%TD*%
%TO.C,D77*%
X307432500Y-150247000D03*
X310732500Y-150247000D03*
%TD*%
D15*
%TO.C,D79*%
X344459000Y-36788500D03*
X344459000Y-33488500D03*
%TD*%
D10*
%TO.C,D1*%
X53893000Y-48919000D03*
X57193000Y-48919000D03*
%TD*%
D17*
%TO.C,C4*%
X202579000Y-31605000D03*
X202579000Y-32565000D03*
%TD*%
D10*
%TO.C,D52*%
X258674000Y-110818000D03*
X261974000Y-110818000D03*
%TD*%
D18*
%TO.C,R1*%
X345041000Y-38524000D03*
X344021000Y-38524000D03*
%TD*%
D10*
%TO.C,D71*%
X79972000Y-148893000D03*
X83272000Y-148893000D03*
%TD*%
D20*
%TO.C,C1*%
X360445000Y-112595000D03*
X359485000Y-112595000D03*
%TD*%
D10*
%TO.C,D19*%
X149297000Y-72691000D03*
X152597000Y-72691000D03*
%TD*%
%TO.C,D64*%
X230131500Y-129741000D03*
X233431500Y-129741000D03*
%TD*%
D21*
%TO.C,C7*%
X364965000Y-114754000D03*
X364965000Y-113794000D03*
%TD*%
D10*
%TO.C,D38*%
X254030000Y-91688000D03*
X257330000Y-91688000D03*
%TD*%
M02*
