%TF.GenerationSoftware,KiCad,Pcbnew,7.0.9*%
%TF.CreationDate,2024-07-27T11:54:38-04:00*%
%TF.ProjectId,panel,70616e65-6c2e-46b6-9963-61645f706362,0.1*%
%TF.SameCoordinates,Original*%
%TF.FileFunction,Profile,NP*%
%FSLAX46Y46*%
G04 Gerber Fmt 4.6, Leading zero omitted, Abs format (unit mm)*
G04 Created by KiCad (PCBNEW 7.0.9) date 2024-07-27 11:54:38*
%MOMM*%
%LPD*%
G01*
G04 APERTURE LIST*
%TA.AperFunction,Profile*%
%ADD10C,0.100000*%
%TD*%
G04 APERTURE END LIST*
D10*
X314304908Y-24980785D02*
X314257019Y-24970031D01*
X242470031Y-157742980D02*
X242456940Y-157790285D01*
X314401981Y-24995184D02*
X314353268Y-24989176D01*
X39514103Y-110691062D02*
X39471397Y-110715254D01*
X379214000Y-25410950D02*
X379152747Y-25365971D01*
X381881921Y-114361936D02*
X381903989Y-114405777D01*
X177726989Y-22865606D02*
X177759048Y-22828440D01*
X378800223Y-25167373D02*
X378776947Y-25157385D01*
X174495184Y-23401981D02*
X174498795Y-23450931D01*
X38043059Y-66456952D02*
X38029968Y-66409647D01*
X105971397Y-22618078D02*
X106014103Y-22642271D01*
X384500000Y-160987727D02*
X384500000Y-20012272D01*
X40025298Y-26684674D02*
X40021462Y-26709711D01*
X379870804Y-154706375D02*
X379879601Y-154682623D01*
X41130723Y-155800898D02*
X41199776Y-155832626D01*
X381290285Y-67123607D02*
X381242980Y-67136697D01*
X381857728Y-110347436D02*
X381831469Y-110388904D01*
X39427555Y-110737322D02*
X39382684Y-110757212D01*
X173598018Y-24995184D02*
X173549068Y-24998795D01*
X39903989Y-114405777D02*
X39923879Y-114450649D01*
X314304908Y-158480785D02*
X314257019Y-158470031D01*
X245828440Y-156259048D02*
X245865606Y-156226989D01*
X35500294Y-20000295D02*
X35500000Y-20012272D01*
X39980785Y-66361757D02*
X39970031Y-66409647D01*
X245576120Y-156617315D02*
X245596010Y-156572444D01*
X40000000Y-114833332D02*
X40000000Y-153993666D01*
X380901981Y-110828518D02*
X380853268Y-110822509D01*
X105971397Y-158381921D02*
X105927555Y-158403989D01*
X381707107Y-158207107D02*
X381671559Y-158240951D01*
X41199776Y-155832626D02*
X41223052Y-155842614D01*
X38485896Y-113975604D02*
X38528602Y-113951411D01*
X173790285Y-158456940D02*
X173742980Y-158470031D01*
X378006331Y-155999839D02*
X378088634Y-155997753D01*
X314163109Y-158441544D02*
X314117315Y-158423879D01*
X309646731Y-22510823D02*
X309695091Y-22519214D01*
X381773010Y-158134393D02*
X381740951Y-158171559D01*
X39427555Y-113929343D02*
X39471397Y-113951411D01*
X106403989Y-156572444D02*
X106423879Y-156617315D01*
X313865606Y-22726989D02*
X313904300Y-22696792D01*
X38572444Y-158403989D02*
X38528602Y-158381921D01*
X39923879Y-70783982D02*
X39941544Y-70829776D01*
X380226989Y-114198939D02*
X380259048Y-114161774D01*
X242171559Y-22759048D02*
X242207107Y-22792892D01*
X40296284Y-25952989D02*
X40257733Y-26018478D01*
X380142271Y-110347436D02*
X380118078Y-110304730D01*
X40765969Y-155573545D02*
X40785999Y-155589049D01*
X245792892Y-156292892D02*
X245828440Y-156259048D01*
X105790285Y-22543059D02*
X105836890Y-22558455D01*
X380853268Y-67155843D02*
X380804908Y-67147451D01*
X378315325Y-155974701D02*
X378390127Y-155961294D01*
X39555570Y-70335196D02*
X39595699Y-70363458D01*
X109944429Y-24831469D02*
X109904300Y-24803207D01*
X242495184Y-23401981D02*
X242498795Y-23450931D01*
X38292892Y-70459559D02*
X38328440Y-70425715D01*
X40245441Y-26040624D02*
X40210256Y-26107982D01*
X110450931Y-158498795D02*
X110401981Y-158495184D01*
X38196792Y-66762366D02*
X38168530Y-66722237D01*
X178163109Y-156058455D02*
X178209714Y-156043059D01*
X38804908Y-67147451D02*
X38757019Y-67136697D01*
X38000000Y-66166667D02*
X38000000Y-23499999D01*
X39382684Y-67090546D02*
X39336890Y-67108210D01*
X110209714Y-158456940D02*
X110163109Y-158441544D01*
X174273010Y-24634393D02*
X174240951Y-24671559D01*
X379956196Y-154414937D02*
X379961294Y-154390127D01*
X310303207Y-156404300D02*
X310331469Y-156444429D01*
X245504815Y-24098018D02*
X245501204Y-24049068D01*
X38259048Y-114161774D02*
X38292892Y-114126226D01*
X381923879Y-23117315D02*
X381941544Y-23163109D01*
X39634393Y-70393655D02*
X39671559Y-70425715D01*
X105927555Y-24903989D02*
X105882684Y-24923879D01*
X174014103Y-156142271D02*
X174055570Y-156168530D01*
X40631466Y-25541921D02*
X40613108Y-25559372D01*
X173742980Y-158470031D02*
X173695091Y-158480785D01*
X106357728Y-24514103D02*
X106331469Y-24555570D01*
X106500000Y-156999999D02*
X106500000Y-157500000D01*
X381382684Y-22576120D02*
X381427555Y-22596010D01*
X379131958Y-25351501D02*
X379068505Y-25309682D01*
X246304908Y-156019214D02*
X246353268Y-156010823D01*
X105742980Y-24970031D02*
X105695091Y-24980785D01*
X106423879Y-156617315D02*
X106441544Y-156663109D01*
X241836890Y-24941544D02*
X241790285Y-24956940D01*
X242381921Y-24471397D02*
X242357728Y-24514103D01*
X378113930Y-25003528D02*
X378088634Y-25002246D01*
X381881921Y-66638063D02*
X381857728Y-66680769D01*
X381290285Y-113876392D02*
X381336890Y-113891789D01*
X40365971Y-25847252D02*
X40351501Y-25868041D01*
X39989176Y-114686602D02*
X39995184Y-114735315D01*
X380292892Y-70459559D02*
X380328440Y-70425715D01*
X242095699Y-24803207D02*
X242055570Y-24831469D01*
X109543059Y-24290285D02*
X109529968Y-24242980D01*
X380118078Y-70695269D02*
X380142271Y-70652563D01*
X39146731Y-110822509D02*
X39098018Y-110828518D01*
X242357728Y-24514103D02*
X242331469Y-24555570D01*
X41040624Y-25245441D02*
X41018478Y-25257733D01*
X310480785Y-24195091D02*
X310470031Y-24242980D01*
X110072444Y-158403989D02*
X110028602Y-158381921D01*
X246209714Y-24956940D02*
X246163109Y-24941544D01*
X40038705Y-26609872D02*
X40025298Y-26684674D01*
X382000000Y-109833334D02*
X381998795Y-109882401D01*
X39707107Y-66873773D02*
X39671559Y-66907618D01*
X310095699Y-156196792D02*
X310134393Y-156226989D01*
X381000000Y-158500000D02*
X314499999Y-158500000D01*
X380142271Y-114319230D02*
X380168530Y-114277762D01*
X174470031Y-156757019D02*
X174480785Y-156804908D01*
X174095699Y-156196792D02*
X174134393Y-156226989D01*
X381555570Y-114001863D02*
X381595699Y-114030125D01*
X38259048Y-110504892D02*
X38226989Y-110467726D01*
X245642271Y-158014103D02*
X245618078Y-157971397D01*
X38328440Y-22759048D02*
X38365606Y-22726989D01*
X106014103Y-156142271D02*
X106055570Y-156168530D01*
X39242980Y-113863302D02*
X39290285Y-113876392D01*
X381514103Y-22642271D02*
X381555570Y-22668530D01*
X178117315Y-22576120D02*
X178163109Y-22558455D01*
X379589049Y-155214000D02*
X379634028Y-155152747D01*
X40000160Y-154006331D02*
X40002246Y-154088634D01*
X246257019Y-158470031D02*
X246209714Y-158456940D01*
X242456940Y-23209714D02*
X242470031Y-23257019D01*
X381195091Y-22519214D02*
X381242980Y-22529968D01*
X38365606Y-158273010D02*
X38328440Y-158240951D01*
X379648498Y-25868041D02*
X379634028Y-25847252D01*
X110499999Y-158500000D02*
X110450931Y-158498795D01*
X39555570Y-114001863D02*
X39595699Y-114030125D01*
X106240951Y-156328440D02*
X106273010Y-156365606D01*
X110257019Y-22529968D02*
X110304908Y-22519214D01*
X177944429Y-156168530D02*
X177985896Y-156142271D01*
X38853268Y-67155843D02*
X38804908Y-67147451D01*
X40613108Y-155440627D02*
X40631466Y-155458078D01*
X178353268Y-24989176D02*
X178304908Y-24980785D01*
X381336890Y-110774877D02*
X381290285Y-110790273D01*
X245618078Y-157971397D02*
X245596010Y-157927555D01*
X381903989Y-110260888D02*
X381881921Y-110304730D01*
X38010823Y-114686602D02*
X38019214Y-114638242D01*
X39049068Y-113834537D02*
X39098018Y-113838148D01*
X378315325Y-25025298D02*
X378290288Y-25021462D01*
X309927555Y-24903989D02*
X309882684Y-24923879D01*
X246450931Y-22501204D02*
X246499999Y-22500000D01*
X241836890Y-22558455D02*
X241882684Y-22576120D01*
X106055570Y-158331469D02*
X106014103Y-158357728D01*
X380096010Y-66594222D02*
X380076120Y-66549350D01*
X381831469Y-22944429D02*
X381857728Y-22985896D01*
X174134393Y-24773010D02*
X174095699Y-24803207D01*
X39803207Y-110429033D02*
X39773010Y-110467726D01*
X39290285Y-113876392D02*
X39336890Y-113891789D01*
X106489176Y-24146731D02*
X106480785Y-24195091D01*
X245500000Y-156999999D02*
X245501204Y-156950931D01*
X381242980Y-113863302D02*
X381290285Y-113876392D01*
X109792892Y-24707107D02*
X109759048Y-24671559D01*
X178028602Y-24881921D02*
X177985896Y-24857728D01*
X313501204Y-156950931D02*
X313504815Y-156901981D01*
X241549068Y-24998795D02*
X241500000Y-25000000D01*
X381000000Y-70166666D02*
X381049068Y-70167871D01*
X173742980Y-24970031D02*
X173695091Y-24980785D01*
X110117315Y-22576120D02*
X110163109Y-22558455D01*
X242331469Y-158055570D02*
X242303207Y-158095699D01*
X173836890Y-24941544D02*
X173790285Y-24956940D01*
X309646731Y-156010823D02*
X309695091Y-156019214D01*
X178304908Y-22519214D02*
X178353268Y-22510823D01*
X40002246Y-26911365D02*
X40000160Y-26993668D01*
X109504815Y-24098018D02*
X109501204Y-24049068D01*
X378869276Y-155800898D02*
X378892017Y-155789743D01*
X174134393Y-158273010D02*
X174095699Y-158303207D01*
X381290285Y-110790273D02*
X381242980Y-110803364D01*
X174495184Y-24098018D02*
X174489176Y-24146731D01*
X379990700Y-154189704D02*
X379996471Y-154113930D01*
X309646731Y-24989176D02*
X309598018Y-24995184D01*
X38168530Y-66722237D02*
X38142271Y-66680769D01*
X38076120Y-157882684D02*
X38058455Y-157836890D01*
X378189704Y-25009299D02*
X378113930Y-25003528D01*
X38404300Y-70363458D02*
X38444429Y-70335196D01*
X173695091Y-158480785D02*
X173646731Y-158489176D01*
X379525521Y-25707073D02*
X379509023Y-25687854D01*
X38617315Y-110757212D02*
X38572444Y-110737322D01*
X106489176Y-157646731D02*
X106480785Y-157695091D01*
X40120398Y-154682623D02*
X40129195Y-154706375D01*
X109865606Y-22726989D02*
X109904300Y-22696792D01*
X313618078Y-156528602D02*
X313642271Y-156485896D01*
X380365606Y-70393655D02*
X380404300Y-70363458D01*
X105598018Y-156004815D02*
X105646731Y-156010823D01*
X177759048Y-24671559D02*
X177726989Y-24634393D01*
X314028602Y-158381921D02*
X313985896Y-158357728D01*
X310480785Y-156804908D02*
X310489176Y-156853268D01*
X38168530Y-22944429D02*
X38196792Y-22904300D01*
X38004815Y-109931351D02*
X38001204Y-109882401D01*
X39956940Y-114543047D02*
X39970031Y-114590352D01*
X381242980Y-158470031D02*
X381195091Y-158480785D01*
X246028602Y-22618078D02*
X246072444Y-22596010D01*
X381881921Y-70695269D02*
X381903989Y-70739111D01*
X38757019Y-110803364D02*
X38709714Y-110790273D01*
X174456940Y-24290285D02*
X174441544Y-24336890D01*
X38000000Y-71166665D02*
X38001204Y-71117598D01*
X379573545Y-25765969D02*
X379525521Y-25707073D01*
X381471397Y-158381921D02*
X381427555Y-158403989D01*
X177529968Y-23257019D02*
X177543059Y-23209714D01*
X110163109Y-156058455D02*
X110209714Y-156043059D01*
X381857728Y-70652563D02*
X381881921Y-70695269D01*
X39941544Y-66503557D02*
X39923879Y-66549350D01*
X173927555Y-24903989D02*
X173882684Y-24923879D01*
X40847252Y-155634028D02*
X40868041Y-155648498D01*
X242403989Y-156572444D02*
X242423879Y-156617315D01*
X242171559Y-24740951D02*
X242134393Y-24773010D01*
X242498795Y-24049068D02*
X242495184Y-24098018D01*
X38058455Y-157836890D02*
X38043059Y-157790285D01*
X380259048Y-70495107D02*
X380292892Y-70459559D01*
X174470031Y-157742980D02*
X174456940Y-157790285D01*
X313865606Y-24773010D02*
X313828440Y-24740951D01*
X381831469Y-110388904D02*
X381803207Y-110429033D01*
X242357728Y-158014103D02*
X242331469Y-158055570D01*
X309695091Y-158480785D02*
X309646731Y-158489176D01*
X381195091Y-67147451D02*
X381146731Y-67155843D01*
X245944429Y-158331469D02*
X245904300Y-158303207D01*
X38444429Y-158331469D02*
X38404300Y-158303207D01*
X106480785Y-23304908D02*
X106489176Y-23353268D01*
X241971397Y-156118078D02*
X242014103Y-156142271D01*
X310357728Y-22985896D02*
X310381921Y-23028602D01*
X110499999Y-25000000D02*
X110450931Y-24998795D01*
X242273010Y-24634393D02*
X242240951Y-24671559D01*
X313759048Y-158171559D02*
X313726989Y-158134393D01*
X39671559Y-70425715D02*
X39707107Y-70459559D01*
X241836890Y-158441544D02*
X241790285Y-158456940D01*
X177985896Y-22642271D02*
X178028602Y-22618078D01*
X379870804Y-26293624D02*
X379842614Y-26223052D01*
X381903989Y-157927555D02*
X381881921Y-157971397D01*
X313501204Y-23450931D02*
X313504815Y-23401981D01*
X380663109Y-70225122D02*
X380709714Y-70209726D01*
X38076120Y-110216017D02*
X38058455Y-110170223D01*
X309971397Y-158381921D02*
X309927555Y-158403989D01*
X241695091Y-156019214D02*
X241742980Y-156029968D01*
X177865606Y-22726989D02*
X177904300Y-22696792D01*
X381980785Y-66361757D02*
X381970031Y-66409647D01*
X177726989Y-158134393D02*
X177696792Y-158095699D01*
X242381921Y-23028602D02*
X242403989Y-23072444D01*
X314304908Y-22519214D02*
X314353268Y-22510823D01*
X177519214Y-157695091D02*
X177510823Y-157646731D01*
X39831469Y-70611095D02*
X39857728Y-70652563D01*
X178499999Y-158500000D02*
X178450931Y-158498795D01*
X177529968Y-156757019D02*
X177543059Y-156709714D01*
X110401981Y-24995184D02*
X110353268Y-24989176D01*
X106381921Y-23028602D02*
X106403989Y-23072444D01*
X38000000Y-109833334D02*
X38000000Y-71166665D01*
X381098018Y-113838148D02*
X381146731Y-113844156D01*
X38853268Y-158489176D02*
X38804908Y-158480785D01*
X109696792Y-158095699D02*
X109668530Y-158055570D01*
X178072444Y-158403989D02*
X178028602Y-158381921D01*
X106456940Y-23209714D02*
X106470031Y-23257019D01*
X310500000Y-156999999D02*
X310500000Y-157500000D01*
X313519214Y-156804908D02*
X313529968Y-156757019D01*
X39595699Y-66969874D02*
X39555570Y-66998136D01*
X173695091Y-156019214D02*
X173742980Y-156029968D01*
X378390127Y-25038705D02*
X378315325Y-25025298D01*
X38950931Y-70167871D02*
X38999999Y-70166666D01*
X313865606Y-156226989D02*
X313904300Y-156196792D01*
X38617315Y-113909453D02*
X38663109Y-113891789D01*
X381555570Y-158331469D02*
X381514103Y-158357728D01*
X40167373Y-154800223D02*
X40199101Y-154869276D01*
X109596010Y-156572444D02*
X109618078Y-156528602D01*
X381336890Y-158441544D02*
X381290285Y-158456940D01*
X39773010Y-110467726D02*
X39740951Y-110504892D01*
X246257019Y-156029968D02*
X246304908Y-156019214D01*
X38142271Y-22985896D02*
X38168530Y-22944429D01*
X39941544Y-110170223D02*
X39923879Y-110216017D01*
X314117315Y-22576120D02*
X314163109Y-22558455D01*
X39382684Y-110757212D02*
X39336890Y-110774877D01*
X177668530Y-158055570D02*
X177642271Y-158014103D01*
X40003528Y-154113930D02*
X40009299Y-154189704D01*
X381555570Y-66998136D02*
X381514103Y-67024395D01*
X310134393Y-22726989D02*
X310171559Y-22759048D01*
X378006331Y-25000160D02*
X377993666Y-25000000D01*
X110401981Y-156004815D02*
X110450931Y-156001204D01*
X39195091Y-113852548D02*
X39242980Y-113863302D01*
X313985896Y-158357728D02*
X313944429Y-158331469D01*
X174456940Y-156709714D02*
X174470031Y-156757019D01*
X41810295Y-25009299D02*
X41785096Y-25011861D01*
X382000000Y-71166665D02*
X382000000Y-109833334D01*
X381980785Y-70971575D02*
X381989176Y-71019935D01*
X313904300Y-24803207D02*
X313865606Y-24773010D01*
X41018478Y-155742266D02*
X41040624Y-155754558D01*
X381514103Y-113975604D02*
X381555570Y-114001863D01*
X241742980Y-158470031D02*
X241695091Y-158480785D01*
X381857728Y-114319230D02*
X381881921Y-114361936D01*
X109865606Y-156226989D02*
X109904300Y-156196792D01*
X174470031Y-24242980D02*
X174456940Y-24290285D01*
X39195091Y-67147451D02*
X39146731Y-67155843D01*
X39941544Y-70829776D02*
X39956940Y-70876381D01*
X174498795Y-23450931D02*
X174500000Y-23499999D01*
X378290288Y-155978537D02*
X378315325Y-155974701D01*
X310240951Y-24671559D02*
X310207107Y-24707107D01*
X174489176Y-157646731D02*
X174480785Y-157695091D01*
X177759048Y-156328440D02*
X177792892Y-156292892D01*
X38901981Y-110828518D02*
X38853268Y-110822509D01*
X39146731Y-70177490D02*
X39195091Y-70185881D01*
X38043059Y-157790285D02*
X38029968Y-157742980D01*
X38226989Y-66801060D02*
X38196792Y-66762366D01*
X379703715Y-25952989D02*
X379690317Y-25931494D01*
X109529968Y-157742980D02*
X109519214Y-157695091D01*
X38010823Y-71019935D02*
X38019214Y-70971575D01*
X378214903Y-155988138D02*
X378290288Y-155978537D01*
X314257019Y-22529968D02*
X314304908Y-22519214D01*
X309882684Y-22576120D02*
X309927555Y-22596010D01*
X246304908Y-24980785D02*
X246257019Y-24970031D01*
X109596010Y-157927555D02*
X109576120Y-157882684D01*
X380853268Y-70177490D02*
X380901981Y-70171481D01*
X38196792Y-158095699D02*
X38168530Y-158055570D01*
X109944429Y-158331469D02*
X109904300Y-158303207D01*
X106014103Y-22642271D02*
X106055570Y-22668530D01*
X378959375Y-25245441D02*
X378892017Y-25210256D01*
X174055570Y-156168530D02*
X174095699Y-156196792D01*
X39555570Y-110664803D02*
X39514103Y-110691062D01*
X381195091Y-110814118D02*
X381146731Y-110822509D01*
X40199101Y-154869276D02*
X40210256Y-154892017D01*
X177558455Y-23163109D02*
X177576120Y-23117315D01*
X106055570Y-156168530D02*
X106095699Y-156196792D01*
X174303207Y-158095699D02*
X174273010Y-158134393D01*
X105646731Y-22510823D02*
X105695091Y-22519214D01*
X110353268Y-158489176D02*
X110304908Y-158480785D01*
X174273010Y-156365606D02*
X174303207Y-156404300D01*
X38043059Y-114543047D02*
X38058455Y-114496442D01*
X38999999Y-110833333D02*
X38950931Y-110832128D01*
X245696792Y-24595699D02*
X245668530Y-24555570D01*
X242055570Y-156168530D02*
X242095699Y-156196792D01*
X314353268Y-158489176D02*
X314304908Y-158480785D01*
X106240951Y-22828440D02*
X106273010Y-22865606D01*
X242500000Y-23499999D02*
X242500000Y-24000000D01*
X310403989Y-24427555D02*
X310381921Y-24471397D01*
X41911365Y-155997753D02*
X41993668Y-155999839D01*
X39995184Y-114735315D02*
X39998795Y-114784264D01*
X174498795Y-157549068D02*
X174495184Y-157598018D01*
X242489176Y-157646731D02*
X242480785Y-157695091D01*
X380292892Y-114126226D02*
X380328440Y-114092381D01*
X380663109Y-110774877D02*
X380617315Y-110757212D01*
X40868041Y-155648498D02*
X40931494Y-155690317D01*
X381471397Y-22618078D02*
X381514103Y-22642271D01*
X39970031Y-66409647D02*
X39956940Y-66456952D01*
X40707073Y-25474478D02*
X40687854Y-25490976D01*
X105836890Y-22558455D02*
X105882684Y-22576120D01*
X242331469Y-22944429D02*
X242357728Y-22985896D01*
X39000000Y-113833333D02*
X39049068Y-113834537D01*
X38259048Y-158171559D02*
X38226989Y-158134393D01*
X178209714Y-156043059D02*
X178257019Y-156029968D01*
X38019214Y-70971575D02*
X38029968Y-70923685D01*
X313596010Y-23072444D02*
X313618078Y-23028602D01*
X174500000Y-157500000D02*
X174498795Y-157549068D01*
X241742980Y-156029968D02*
X241790285Y-156043059D01*
X380076120Y-110216017D02*
X380058455Y-110170223D01*
X380709714Y-70209726D02*
X380757019Y-70196635D01*
X241971397Y-24881921D02*
X241927555Y-24903989D01*
X378610713Y-25095818D02*
X378586546Y-25088236D01*
X40003528Y-26886069D02*
X40002246Y-26911365D01*
X39471397Y-70284745D02*
X39514103Y-70308937D01*
X381923879Y-66549350D02*
X381903989Y-66594222D01*
X309927555Y-156096010D02*
X309971397Y-156118078D01*
X106495184Y-24098018D02*
X106489176Y-24146731D01*
X381740951Y-158171559D02*
X381707107Y-158207107D01*
X38709714Y-67123607D02*
X38663109Y-67108210D01*
X246499999Y-22500000D02*
X309500000Y-22500000D01*
X381941544Y-110170223D02*
X381923879Y-110216017D01*
X38058455Y-23163109D02*
X38076120Y-23117315D01*
X309836890Y-156058455D02*
X309882684Y-156076120D01*
X40490976Y-25687854D02*
X40474478Y-25707073D01*
X313985896Y-24857728D02*
X313944429Y-24831469D01*
X40009299Y-26810295D02*
X40003528Y-26886069D01*
X39980785Y-114638242D02*
X39989176Y-114686602D01*
X314353268Y-22510823D02*
X314401981Y-22504815D01*
X174303207Y-24595699D02*
X174273010Y-24634393D01*
X381290285Y-158456940D02*
X381242980Y-158470031D01*
X380328440Y-70425715D02*
X380365606Y-70393655D01*
X379978537Y-154290288D02*
X379988138Y-154214903D01*
X38043059Y-23209714D02*
X38058455Y-23163109D01*
X381831469Y-70611095D02*
X381857728Y-70652563D01*
X177501204Y-156950931D02*
X177504815Y-156901981D01*
X174331469Y-158055570D02*
X174303207Y-158095699D01*
X245618078Y-156528602D02*
X245642271Y-156485896D01*
X40365971Y-155152747D02*
X40410950Y-155214000D01*
X40000160Y-26993668D02*
X40000000Y-27006333D01*
X380001204Y-66215735D02*
X380000000Y-66166667D01*
X40011861Y-154214903D02*
X40021462Y-154290288D01*
X174480785Y-157695091D02*
X174470031Y-157742980D01*
X38365606Y-22726989D02*
X38404300Y-22696792D01*
X178257019Y-24970031D02*
X178209714Y-24956940D01*
X310423879Y-157882684D02*
X310403989Y-157927555D01*
X310500000Y-23499999D02*
X310500000Y-24000000D01*
X178072444Y-24903989D02*
X178028602Y-24881921D01*
X379842614Y-26223052D02*
X379832626Y-26199776D01*
X174489176Y-156853268D02*
X174495184Y-156901981D01*
X106303207Y-158095699D02*
X106273010Y-158134393D01*
X38853268Y-113844156D02*
X38901981Y-113838148D01*
X381707107Y-22792892D02*
X381740951Y-22828440D01*
X41293624Y-25129195D02*
X41223052Y-25157385D01*
X173927555Y-158403989D02*
X173882684Y-158423879D01*
X381989176Y-66313397D02*
X381980785Y-66361757D01*
X105549068Y-156001204D02*
X105598018Y-156004815D01*
X177904300Y-156196792D02*
X177944429Y-156168530D01*
X106171559Y-22759048D02*
X106207107Y-22792892D01*
X39857728Y-114319230D02*
X39881921Y-114361936D01*
X177759048Y-22828440D02*
X177792892Y-22792892D01*
X38328440Y-158240951D02*
X38292892Y-158207107D01*
X178353268Y-22510823D02*
X178401981Y-22504815D01*
X106381921Y-24471397D02*
X106357728Y-24514103D01*
X378800223Y-155832626D02*
X378869276Y-155800898D01*
X39382684Y-113909453D02*
X39427555Y-113929343D01*
X381671559Y-22759048D02*
X381707107Y-22792892D01*
X310207107Y-24707107D02*
X310171559Y-24740951D01*
X110353268Y-24989176D02*
X110304908Y-24980785D01*
X381881921Y-157971397D02*
X381857728Y-158014103D01*
X38485896Y-22642271D02*
X38528602Y-22618078D01*
X314163109Y-22558455D02*
X314209714Y-22543059D01*
X380226989Y-66801060D02*
X380196792Y-66762366D01*
X379789743Y-26107982D02*
X379754558Y-26040624D01*
X381740951Y-110504892D02*
X381707107Y-110540440D01*
X309500000Y-158500000D02*
X246499999Y-158500000D01*
X38226989Y-114198939D02*
X38259048Y-114161774D01*
X381773010Y-70532273D02*
X381803207Y-70570966D01*
X174480785Y-23304908D02*
X174489176Y-23353268D01*
X313543059Y-157790285D02*
X313529968Y-157742980D01*
X39995184Y-109931351D02*
X39989176Y-109980064D01*
X242273010Y-156365606D02*
X242303207Y-156404300D01*
X39555570Y-66998136D02*
X39514103Y-67024395D01*
X106498795Y-23450931D02*
X106500000Y-23499999D01*
X106171559Y-158240951D02*
X106134393Y-158273010D01*
X313596010Y-24427555D02*
X313576120Y-24382684D01*
X379690317Y-155068505D02*
X379703715Y-155047010D01*
X106480785Y-156804908D02*
X106489176Y-156853268D01*
X380043059Y-66456952D02*
X380029968Y-66409647D01*
X41223052Y-25157385D02*
X41199776Y-25167373D01*
X381427555Y-70262677D02*
X381471397Y-70284745D01*
X38444429Y-110664803D02*
X38404300Y-110636541D01*
X380485896Y-67024395D02*
X380444429Y-66998136D01*
X105695091Y-158480785D02*
X105646731Y-158489176D01*
X381634393Y-70393655D02*
X381671559Y-70425715D01*
X245759048Y-24671559D02*
X245726989Y-24634393D01*
X380000000Y-114833332D02*
X380001204Y-114784264D01*
X245865606Y-22726989D02*
X245904300Y-22696792D01*
X314257019Y-24970031D02*
X314209714Y-24956940D01*
X41886069Y-155996471D02*
X41911365Y-155997753D01*
X246450931Y-156001204D02*
X246499999Y-156000000D01*
X381970031Y-110076314D02*
X381956940Y-110123618D01*
X178353268Y-158489176D02*
X178304908Y-158480785D01*
X378488964Y-25060982D02*
X378414937Y-25043803D01*
X39514103Y-70308937D02*
X39555570Y-70335196D01*
X177500000Y-157500000D02*
X177500000Y-156999999D01*
X381831469Y-158055570D02*
X381803207Y-158095699D01*
X381000000Y-22500000D02*
X381049068Y-22501204D01*
X242403989Y-157927555D02*
X242381921Y-157971397D01*
X313726989Y-24634393D02*
X313696792Y-24595699D01*
X40157385Y-154776947D02*
X40167373Y-154800223D01*
X41585062Y-155956196D02*
X41609872Y-155961294D01*
X242134393Y-158273010D02*
X242095699Y-158303207D01*
X178209714Y-24956940D02*
X178163109Y-24941544D01*
X105500000Y-25000000D02*
X42006333Y-25000000D01*
X310207107Y-156292892D02*
X310240951Y-156328440D01*
X380444429Y-66998136D02*
X380404300Y-66969874D01*
X380168530Y-110388904D02*
X380142271Y-110347436D01*
X378869276Y-25199101D02*
X378800223Y-25167373D01*
X310055570Y-24831469D02*
X310014103Y-24857728D01*
X241598018Y-22504815D02*
X241646731Y-22510823D01*
X106273010Y-24634393D02*
X106240951Y-24671559D01*
X110450931Y-156001204D02*
X110499999Y-156000000D01*
X378706375Y-25129195D02*
X378682623Y-25120398D01*
X314117315Y-158423879D02*
X314072444Y-158403989D01*
X309971397Y-156118078D02*
X310014103Y-156142271D01*
X38572444Y-110737322D02*
X38528602Y-110715254D01*
X310498795Y-157549068D02*
X310495184Y-157598018D01*
X39707107Y-70459559D02*
X39740951Y-70495107D01*
X109501204Y-157549068D02*
X109500000Y-157500000D01*
X245501204Y-157549068D02*
X245500000Y-157500000D01*
X177543059Y-23209714D02*
X177558455Y-23163109D01*
X38292892Y-114126226D02*
X38328440Y-114092381D01*
X173646731Y-24989176D02*
X173598018Y-24995184D01*
X310357728Y-156485896D02*
X310381921Y-156528602D01*
X310303207Y-24595699D02*
X310273010Y-24634393D01*
X177944429Y-158331469D02*
X177904300Y-158303207D01*
X178209714Y-158456940D02*
X178163109Y-158441544D01*
X40038705Y-154390127D02*
X40043803Y-154414937D01*
X380365606Y-110606344D02*
X380328440Y-110574284D01*
X313500000Y-24000000D02*
X313500000Y-23499999D01*
X38663109Y-67108210D02*
X38617315Y-67090546D01*
X109865606Y-158273010D02*
X109828440Y-158240951D01*
X310498795Y-24049068D02*
X310495184Y-24098018D01*
X174403989Y-156572444D02*
X174423879Y-156617315D01*
X109642271Y-156485896D02*
X109668530Y-156444429D01*
X105790285Y-156043059D02*
X105836890Y-156058455D01*
X105549068Y-24998795D02*
X105500000Y-25000000D01*
X309646731Y-158489176D02*
X309598018Y-158495184D01*
X40000000Y-153993666D02*
X40000160Y-154006331D01*
X379152747Y-25365971D02*
X379131958Y-25351501D01*
X381514103Y-110691062D02*
X381471397Y-110715254D01*
X110072444Y-24903989D02*
X110028602Y-24881921D01*
X379742266Y-154981521D02*
X379754558Y-154959375D01*
X313759048Y-22828440D02*
X313792892Y-22792892D01*
X40043803Y-26585062D02*
X40038705Y-26609872D01*
X381471397Y-70284745D02*
X381514103Y-70308937D01*
X174095699Y-22696792D02*
X174134393Y-22726989D01*
X110028602Y-156118078D02*
X110072444Y-156096010D01*
X242357728Y-22985896D02*
X242381921Y-23028602D01*
X39595699Y-114030125D02*
X39634393Y-114060322D01*
X39471397Y-113951411D02*
X39514103Y-113975604D01*
X110209714Y-22543059D02*
X110257019Y-22529968D01*
X39970031Y-70923685D02*
X39980785Y-70971575D01*
X35500295Y-160999705D02*
X35512272Y-160999999D01*
X246117315Y-22576120D02*
X246163109Y-22558455D01*
X246117315Y-24923879D02*
X246072444Y-24903989D01*
X313500000Y-23499999D02*
X313501204Y-23450931D01*
X39956940Y-110123618D02*
X39941544Y-110170223D01*
X38226989Y-22865606D02*
X38259048Y-22828440D01*
X378981521Y-25257733D02*
X378959375Y-25245441D01*
X38901981Y-67161851D02*
X38853268Y-67155843D01*
X313529968Y-157742980D02*
X313519214Y-157695091D01*
X381595699Y-22696792D02*
X381634393Y-22726989D01*
X310498795Y-23450931D02*
X310500000Y-23499999D01*
X310423879Y-156617315D02*
X310441544Y-156663109D01*
X40167373Y-26199776D02*
X40157385Y-26223052D01*
X246209714Y-22543059D02*
X246257019Y-22529968D01*
X173598018Y-156004815D02*
X173646731Y-156010823D01*
X173646731Y-156010823D02*
X173695091Y-156019214D01*
X40095818Y-26389286D02*
X40088236Y-26413453D01*
X38709714Y-113876392D02*
X38757019Y-113863302D01*
X38804908Y-110814118D02*
X38757019Y-110803364D01*
X313668530Y-158055570D02*
X313642271Y-158014103D01*
X381923879Y-114450649D02*
X381941544Y-114496442D01*
X106470031Y-156757019D02*
X106480785Y-156804908D01*
X38328440Y-70425715D02*
X38365606Y-70393655D01*
X245596010Y-157927555D02*
X245576120Y-157882684D01*
X106207107Y-24707107D02*
X106171559Y-24740951D01*
X309500000Y-22500000D02*
X309549068Y-22501204D01*
X381427555Y-22596010D02*
X381471397Y-22618078D01*
X38226989Y-158134393D02*
X38196792Y-158095699D01*
X381382684Y-67090546D02*
X381336890Y-67108210D01*
X246401981Y-156004815D02*
X246450931Y-156001204D01*
X106495184Y-156901981D02*
X106498795Y-156950931D01*
X177792892Y-24707107D02*
X177759048Y-24671559D01*
X38757019Y-158470031D02*
X38709714Y-158456940D01*
X38617315Y-158423879D02*
X38572444Y-158403989D01*
X381941544Y-157836890D02*
X381923879Y-157882684D01*
X109828440Y-24740951D02*
X109792892Y-24707107D01*
X110072444Y-22596010D02*
X110117315Y-22576120D01*
X241695091Y-158480785D02*
X241646731Y-158489176D01*
X39831469Y-66722237D02*
X39803207Y-66762366D01*
X246401981Y-22504815D02*
X246450931Y-22501204D01*
X106441544Y-24336890D02*
X106423879Y-24382684D01*
X379911763Y-26413453D02*
X379904181Y-26389286D01*
X177501204Y-157549068D02*
X177500000Y-157500000D01*
X105549068Y-158498795D02*
X105500000Y-158500000D01*
X380572444Y-110737322D02*
X380528602Y-110715254D01*
X177642271Y-156485896D02*
X177668530Y-156444429D01*
X38058455Y-70829776D02*
X38076120Y-70783982D01*
X380001204Y-109882401D02*
X380000000Y-109833334D01*
X39671559Y-66907618D02*
X39634393Y-66939677D01*
X106357728Y-156485896D02*
X106381921Y-156528602D01*
X38259048Y-66838225D02*
X38226989Y-66801060D01*
X381336890Y-22558455D02*
X381382684Y-22576120D01*
X379152747Y-155634028D02*
X379214000Y-155589049D01*
X309549068Y-156001204D02*
X309598018Y-156004815D01*
X380528602Y-67048588D02*
X380485896Y-67024395D01*
X106495184Y-157598018D02*
X106489176Y-157646731D01*
X106055570Y-24831469D02*
X106014103Y-24857728D01*
X174331469Y-22944429D02*
X174357728Y-22985896D01*
X39049068Y-110832128D02*
X39000000Y-110833333D01*
X39098018Y-67161851D02*
X39049068Y-67165462D01*
X310456940Y-156709714D02*
X310470031Y-156757019D01*
X40000000Y-27006333D02*
X40000000Y-66166667D01*
X310456940Y-23209714D02*
X310470031Y-23257019D01*
X246450931Y-158498795D02*
X246401981Y-158495184D01*
X38901981Y-113838148D02*
X38950931Y-113834537D01*
X380404300Y-114030125D02*
X380444429Y-114001863D01*
X314028602Y-156118078D02*
X314072444Y-156096010D01*
X379368533Y-25541921D02*
X379312145Y-25490976D01*
X246163109Y-22558455D02*
X246209714Y-22543059D01*
X314072444Y-24903989D02*
X314028602Y-24881921D01*
X380663109Y-67108210D02*
X380617315Y-67090546D01*
X105882684Y-156076120D02*
X105927555Y-156096010D01*
X381382684Y-110757212D02*
X381336890Y-110774877D01*
X314450931Y-158498795D02*
X314401981Y-158495184D01*
X174441544Y-23163109D02*
X174456940Y-23209714D01*
X313501204Y-157549068D02*
X313500000Y-157500000D01*
X241882684Y-24923879D02*
X241836890Y-24941544D01*
X379648498Y-155131958D02*
X379690317Y-155068505D01*
X309927555Y-22596010D02*
X309971397Y-22618078D01*
X242498795Y-23450931D02*
X242500000Y-23499999D01*
X174456940Y-157790285D02*
X174441544Y-157836890D01*
X106498795Y-157549068D02*
X106495184Y-157598018D01*
X177668530Y-22944429D02*
X177696792Y-22904300D01*
X39049068Y-70167871D02*
X39098018Y-70171481D01*
X310134393Y-24773010D02*
X310095699Y-24803207D01*
X242240951Y-158171559D02*
X242207107Y-158207107D01*
X178028602Y-156118078D02*
X178072444Y-156096010D01*
X177726989Y-156365606D02*
X177759048Y-156328440D01*
X378214903Y-25011861D02*
X378189704Y-25009299D01*
X39098018Y-70171481D02*
X39146731Y-70177490D01*
X109726989Y-22865606D02*
X109759048Y-22828440D01*
X310240951Y-158171559D02*
X310207107Y-158207107D01*
X178163109Y-22558455D02*
X178209714Y-22543059D01*
X177510823Y-157646731D02*
X177504815Y-157598018D01*
X381970031Y-23257019D02*
X381980785Y-23304908D01*
X380404300Y-110636541D02*
X380365606Y-110606344D01*
X381336890Y-113891789D02*
X381382684Y-113909453D01*
X380709714Y-113876392D02*
X380757019Y-113863302D01*
X310171559Y-156259048D02*
X310207107Y-156292892D01*
X381514103Y-67024395D02*
X381471397Y-67048588D01*
X105598018Y-24995184D02*
X105549068Y-24998795D01*
X313696792Y-22904300D02*
X313726989Y-22865606D01*
X173500000Y-156000000D02*
X173549068Y-156001204D01*
X310331469Y-24555570D02*
X310303207Y-24595699D01*
X245519214Y-24195091D02*
X245510823Y-24146731D01*
X381989176Y-23353268D02*
X381995184Y-23401981D01*
X310441544Y-157836890D02*
X310423879Y-157882684D01*
X242134393Y-156226989D02*
X242171559Y-156259048D01*
X177904300Y-158303207D02*
X177865606Y-158273010D01*
X378776947Y-25157385D02*
X378706375Y-25129195D01*
X177865606Y-158273010D02*
X177828440Y-158240951D01*
X241646731Y-22510823D02*
X241695091Y-22519214D01*
X310171559Y-24740951D02*
X310134393Y-24773010D01*
X309882684Y-158423879D02*
X309836890Y-158441544D01*
X380010823Y-71019935D02*
X380019214Y-70971575D01*
X106240951Y-158171559D02*
X106207107Y-158207107D01*
X177576120Y-23117315D02*
X177596010Y-23072444D01*
X38663109Y-22558455D02*
X38709714Y-22543059D01*
X245529968Y-23257019D02*
X245543059Y-23209714D01*
X379978537Y-26709711D02*
X379974701Y-26684674D01*
X313519214Y-24195091D02*
X313510823Y-24146731D01*
X313543059Y-23209714D02*
X313558455Y-23163109D01*
X381427555Y-113929343D02*
X381471397Y-113951411D01*
X381857728Y-22985896D02*
X381881921Y-23028602D01*
X379999999Y-27006333D02*
X379999839Y-26993668D01*
X245618078Y-24471397D02*
X245596010Y-24427555D01*
X38043059Y-110123618D02*
X38029968Y-110076314D01*
X310014103Y-22642271D02*
X310055570Y-22668530D01*
X40309682Y-155068505D02*
X40351501Y-155131958D01*
X309549068Y-24998795D02*
X309500000Y-25000000D01*
X177828440Y-24740951D02*
X177792892Y-24707107D01*
X380168530Y-114277762D02*
X380196792Y-114237633D01*
X178072444Y-22596010D02*
X178117315Y-22576120D01*
X309836890Y-22558455D02*
X309882684Y-22576120D01*
X245985896Y-22642271D02*
X246028602Y-22618078D01*
X380404300Y-70363458D02*
X380444429Y-70335196D01*
X174055570Y-24831469D02*
X174014103Y-24857728D01*
X173742980Y-22529968D02*
X173790285Y-22543059D01*
X174480785Y-156804908D02*
X174489176Y-156853268D01*
X245543059Y-24290285D02*
X245529968Y-24242980D01*
X310273010Y-24634393D02*
X310240951Y-24671559D01*
X379292926Y-155525521D02*
X379312145Y-155509023D01*
X313944429Y-158331469D02*
X313904300Y-158303207D01*
X242480785Y-156804908D02*
X242489176Y-156853268D01*
X379974701Y-154315325D02*
X379978537Y-154290288D01*
X109576120Y-157882684D02*
X109558455Y-157836890D01*
X174423879Y-156617315D02*
X174441544Y-156663109D01*
X38168530Y-70611095D02*
X38196792Y-70570966D01*
X39427555Y-70262677D02*
X39471397Y-70284745D01*
X245519214Y-156804908D02*
X245529968Y-156757019D01*
X245985896Y-156142271D02*
X246028602Y-156118078D01*
X381995184Y-157598018D02*
X381989176Y-157646731D01*
X380950931Y-70167871D02*
X380999999Y-70166666D01*
X38485896Y-158357728D02*
X38444429Y-158331469D01*
X174273010Y-158134393D02*
X174240951Y-158171559D01*
X39290285Y-67123607D02*
X39242980Y-67136697D01*
X381995184Y-66264684D02*
X381989176Y-66313397D01*
X245985896Y-24857728D02*
X245944429Y-24831469D01*
X109618078Y-23028602D02*
X109642271Y-22985896D01*
X38572444Y-22596010D02*
X38617315Y-22576120D01*
X38404300Y-66969874D02*
X38365606Y-66939677D01*
X381634393Y-66939677D02*
X381595699Y-66969874D01*
X39980785Y-110028424D02*
X39970031Y-110076314D01*
X39998795Y-66215735D02*
X39995184Y-66264684D01*
X310495184Y-156901981D02*
X310498795Y-156950931D01*
X381707107Y-66873773D02*
X381671559Y-66907618D01*
X38444429Y-66998136D02*
X38404300Y-66969874D01*
X38528602Y-110715254D02*
X38485896Y-110691062D01*
X40002246Y-154088634D02*
X40003528Y-154113930D01*
X309882684Y-24923879D02*
X309836890Y-24941544D01*
X309971397Y-24881921D02*
X309927555Y-24903989D01*
X39989176Y-66313397D02*
X39980785Y-66361757D01*
X381989176Y-71019935D02*
X381995184Y-71068648D01*
X242207107Y-22792892D02*
X242240951Y-22828440D01*
X381242980Y-67136697D02*
X381195091Y-67147451D01*
X245501204Y-156950931D02*
X245504815Y-156901981D01*
X109828440Y-156259048D02*
X109865606Y-156226989D01*
X381195091Y-113852548D02*
X381242980Y-113863302D01*
X178401981Y-158495184D02*
X178353268Y-158489176D01*
X106014103Y-24857728D02*
X105971397Y-24881921D01*
X38757019Y-67136697D02*
X38709714Y-67123607D01*
X39740951Y-70495107D02*
X39773010Y-70532273D01*
X313642271Y-156485896D02*
X313668530Y-156444429D01*
X242498795Y-156950931D02*
X242500000Y-156999999D01*
X109828440Y-22759048D02*
X109865606Y-22726989D01*
X310456940Y-24290285D02*
X310441544Y-24336890D01*
X378981521Y-155742266D02*
X379047010Y-155703715D01*
X174014103Y-158357728D02*
X173971397Y-158381921D01*
X38196792Y-110429033D02*
X38168530Y-110388904D01*
X381634393Y-114060322D02*
X381671559Y-114092381D01*
X309742980Y-24970031D02*
X309695091Y-24980785D01*
X245510823Y-156853268D02*
X245519214Y-156804908D01*
X380226989Y-110467726D02*
X380196792Y-110429033D01*
X310207107Y-158207107D02*
X310171559Y-158240951D01*
X310423879Y-23117315D02*
X310441544Y-23163109D01*
X109642271Y-24514103D02*
X109618078Y-24471397D01*
X38572444Y-67070656D02*
X38528602Y-67048588D01*
X38950931Y-22501204D02*
X38999999Y-22500000D01*
X41389286Y-25095818D02*
X41317376Y-25120398D01*
X38709714Y-110790273D02*
X38663109Y-110774877D01*
X177558455Y-156663109D02*
X177576120Y-156617315D01*
X109792892Y-22792892D02*
X109828440Y-22759048D01*
X38058455Y-114496442D02*
X38076120Y-114450649D01*
X310423879Y-24382684D02*
X310403989Y-24427555D01*
X177726989Y-24634393D02*
X177696792Y-24595699D01*
X313944429Y-22668530D02*
X313985896Y-22642271D01*
X381049068Y-113834537D02*
X381098018Y-113838148D01*
X177642271Y-22985896D02*
X177668530Y-22944429D01*
X177642271Y-158014103D02*
X177618078Y-157971397D01*
X381242980Y-70196635D02*
X381290285Y-70209726D01*
X38076120Y-114450649D02*
X38096010Y-114405777D01*
X105742980Y-156029968D02*
X105790285Y-156043059D01*
X242134393Y-22726989D02*
X242171559Y-22759048D01*
X379990700Y-26810295D02*
X379988138Y-26785096D01*
X38292892Y-110540440D02*
X38259048Y-110504892D01*
X106423879Y-23117315D02*
X106441544Y-23163109D01*
X380528602Y-113951411D02*
X380572444Y-113929343D01*
X381941544Y-114496442D02*
X381956940Y-114543047D01*
X109985896Y-156142271D02*
X110028602Y-156118078D01*
X310381921Y-156528602D02*
X310403989Y-156572444D01*
X314401981Y-158495184D02*
X314353268Y-158489176D01*
X381903989Y-23072444D02*
X381923879Y-23117315D01*
X38029968Y-110076314D02*
X38019214Y-110028424D01*
X381998795Y-157549068D02*
X381995184Y-157598018D01*
X173927555Y-22596010D02*
X173971397Y-22618078D01*
X379754558Y-154959375D02*
X379789743Y-154892017D01*
X245642271Y-22985896D02*
X245668530Y-22944429D01*
X173927555Y-156096010D02*
X173971397Y-156118078D01*
X38259048Y-22828440D02*
X38292892Y-22792892D01*
X177500000Y-156999999D02*
X177501204Y-156950931D01*
X314401981Y-22504815D02*
X314450931Y-22501204D01*
X245500000Y-157500000D02*
X245500000Y-156999999D01*
X381903989Y-114405777D02*
X381923879Y-114450649D01*
X314163109Y-156058455D02*
X314209714Y-156043059D01*
X242456940Y-24290285D02*
X242441544Y-24336890D01*
X242441544Y-24336890D02*
X242423879Y-24382684D01*
X173882684Y-22576120D02*
X173927555Y-22596010D01*
X313985896Y-22642271D02*
X314028602Y-22618078D01*
X109504815Y-23401981D02*
X109510823Y-23353268D01*
X241549068Y-156001204D02*
X241598018Y-156004815D01*
X40060982Y-154488964D02*
X40067330Y-154513484D01*
X245642271Y-24514103D02*
X245618078Y-24471397D01*
X313529968Y-156757019D02*
X313543059Y-156709714D01*
X39195091Y-70185881D02*
X39242980Y-70196635D01*
X41018478Y-25257733D02*
X40952989Y-25296284D01*
X313558455Y-156663109D02*
X313576120Y-156617315D01*
X41486515Y-25067330D02*
X41413453Y-25088236D01*
X379458078Y-155368533D02*
X379509023Y-155312145D01*
X380019214Y-66361757D02*
X380010823Y-66313397D01*
X313904300Y-22696792D02*
X313944429Y-22668530D01*
X109726989Y-24634393D02*
X109696792Y-24595699D01*
X110072444Y-156096010D02*
X110117315Y-156076120D01*
X313759048Y-24671559D02*
X313726989Y-24634393D01*
X246072444Y-156096010D02*
X246117315Y-156076120D01*
X245596010Y-24427555D02*
X245576120Y-24382684D01*
X384499705Y-160999704D02*
X384499999Y-160987727D01*
X242134393Y-24773010D02*
X242095699Y-24803207D01*
X177828440Y-22759048D02*
X177865606Y-22726989D01*
X379234030Y-155573545D02*
X379292926Y-155525521D01*
X380004815Y-66264684D02*
X380001204Y-66215735D01*
X381671559Y-66907618D02*
X381634393Y-66939677D01*
X242489176Y-24146731D02*
X242480785Y-24195091D01*
X41785096Y-25011861D02*
X41709711Y-25021462D01*
X105742980Y-158470031D02*
X105695091Y-158480785D01*
X41389286Y-155904181D02*
X41413453Y-155911763D01*
X379589049Y-25785999D02*
X379573545Y-25765969D01*
X310441544Y-23163109D02*
X310456940Y-23209714D01*
X178117315Y-156076120D02*
X178163109Y-156058455D01*
X380444429Y-110664803D02*
X380404300Y-110636541D01*
X245501204Y-23450931D02*
X245504815Y-23401981D01*
X242171559Y-156259048D02*
X242207107Y-156292892D01*
X380292892Y-110540440D02*
X380259048Y-110504892D01*
X110499999Y-22500000D02*
X173500000Y-22500000D01*
X109596010Y-24427555D02*
X109576120Y-24382684D01*
X310014103Y-158357728D02*
X309971397Y-158381921D01*
X41511035Y-155939017D02*
X41585062Y-155956196D01*
X245519214Y-23304908D02*
X245529968Y-23257019D01*
X381970031Y-66409647D02*
X381956940Y-66456952D01*
X38365606Y-110606344D02*
X38328440Y-110574284D01*
X41886069Y-25003528D02*
X41810295Y-25009299D01*
X105646731Y-158489176D02*
X105598018Y-158495184D01*
X40088236Y-154586546D02*
X40095818Y-154610713D01*
X38404300Y-110636541D02*
X38365606Y-110606344D01*
X178072444Y-156096010D02*
X178117315Y-156076120D01*
X109985896Y-22642271D02*
X110028602Y-22618078D01*
X106441544Y-23163109D02*
X106456940Y-23209714D01*
X313828440Y-156259048D02*
X313865606Y-156226989D01*
X177618078Y-157971397D02*
X177596010Y-157927555D01*
X380804908Y-70185881D02*
X380853268Y-70177490D01*
X242470031Y-23257019D02*
X242480785Y-23304908D01*
X314304908Y-156019214D02*
X314353268Y-156010823D01*
X380328440Y-114092381D02*
X380365606Y-114060322D01*
X40426454Y-155234030D02*
X40474478Y-155292926D01*
X174470031Y-23257019D02*
X174480785Y-23304908D01*
X38004815Y-71068648D02*
X38010823Y-71019935D01*
X313510823Y-23353268D02*
X313519214Y-23304908D01*
X109618078Y-156528602D02*
X109642271Y-156485896D01*
X177519214Y-156804908D02*
X177529968Y-156757019D01*
X173882684Y-158423879D02*
X173836890Y-158441544D01*
X381803207Y-110429033D02*
X381773010Y-110467726D01*
X313596010Y-157927555D02*
X313576120Y-157882684D01*
X106456940Y-24290285D02*
X106441544Y-24336890D01*
X314117315Y-24923879D02*
X314072444Y-24903989D01*
X41609872Y-25038705D02*
X41585062Y-25043803D01*
X310331469Y-158055570D02*
X310303207Y-158095699D01*
X380058455Y-66503557D02*
X380043059Y-66456952D01*
X381803207Y-70570966D02*
X381831469Y-70611095D01*
X41486515Y-155932669D02*
X41511035Y-155939017D01*
X309598018Y-22504815D02*
X309646731Y-22510823D01*
X381595699Y-66969874D02*
X381555570Y-66998136D01*
X173549068Y-158498795D02*
X173500000Y-158500000D01*
X106500000Y-23499999D02*
X106500000Y-24000000D01*
X178450931Y-158498795D02*
X178401981Y-158495184D01*
X381146731Y-113844156D02*
X381195091Y-113852548D01*
X39671559Y-114092381D02*
X39707107Y-114126226D01*
X177500000Y-23499999D02*
X177501204Y-23450931D01*
X178401981Y-24995184D02*
X178353268Y-24989176D01*
X309500000Y-156000000D02*
X309549068Y-156001204D01*
X40474478Y-25707073D02*
X40426454Y-25765969D01*
X241882684Y-158423879D02*
X241836890Y-158441544D01*
X39098018Y-110828518D02*
X39049068Y-110832128D01*
X38292892Y-66873773D02*
X38259048Y-66838225D01*
X381595699Y-70363458D02*
X381634393Y-70393655D01*
X109500000Y-24000000D02*
X109500000Y-23499999D01*
X106403989Y-24427555D02*
X106381921Y-24471397D01*
X38019214Y-110028424D02*
X38010823Y-109980064D01*
X38058455Y-110170223D02*
X38043059Y-110123618D01*
X378488964Y-155939017D02*
X378513484Y-155932669D01*
X381989176Y-109980064D02*
X381980785Y-110028424D01*
X38001204Y-109882401D02*
X38000000Y-109833334D01*
X106403989Y-23072444D02*
X106423879Y-23117315D01*
X109519214Y-24195091D02*
X109510823Y-24146731D01*
X380999999Y-67166666D02*
X380950931Y-67165462D01*
X245558455Y-23163109D02*
X245576120Y-23117315D01*
X106095699Y-22696792D02*
X106134393Y-22726989D01*
X380901981Y-113838148D02*
X380950931Y-113834537D01*
X242357728Y-156485896D02*
X242381921Y-156528602D01*
X381098018Y-110828518D02*
X381049068Y-110832128D01*
X381427555Y-110737322D02*
X381382684Y-110757212D01*
X310381921Y-23028602D02*
X310403989Y-23072444D01*
X109792892Y-156292892D02*
X109828440Y-156259048D01*
X380709714Y-67123607D02*
X380663109Y-67108210D01*
X39773010Y-70532273D02*
X39803207Y-70570966D01*
X39242980Y-67136697D02*
X39195091Y-67147451D01*
X38485896Y-110691062D02*
X38444429Y-110664803D01*
X109500000Y-157500000D02*
X109500000Y-156999999D01*
X313792892Y-22792892D02*
X313828440Y-22759048D01*
X309598018Y-156004815D02*
X309646731Y-156010823D01*
X110028602Y-22618078D02*
X110072444Y-22596010D01*
X245529968Y-157742980D02*
X245519214Y-157695091D01*
X174381921Y-24471397D02*
X174357728Y-24514103D01*
X379842614Y-154776947D02*
X379870804Y-154706375D01*
X379234030Y-25426454D02*
X379214000Y-25410950D01*
X174207107Y-158207107D02*
X174171559Y-158240951D01*
X378189704Y-155990700D02*
X378214903Y-155988138D01*
X173971397Y-156118078D02*
X174014103Y-156142271D01*
X174303207Y-22904300D02*
X174331469Y-22944429D01*
X245668530Y-24555570D02*
X245642271Y-24514103D01*
X246257019Y-24970031D02*
X246209714Y-24956940D01*
X173598018Y-158495184D02*
X173549068Y-158498795D01*
X242489176Y-156853268D02*
X242495184Y-156901981D01*
X106095699Y-156196792D02*
X106134393Y-156226989D01*
X377993666Y-155999999D02*
X378006331Y-155999839D01*
X109792892Y-158207107D02*
X109759048Y-158171559D01*
X38001204Y-114784264D02*
X38004815Y-114735315D01*
X40245441Y-154959375D02*
X40257733Y-154981521D01*
X313668530Y-22944429D02*
X313696792Y-22904300D01*
X106095699Y-158303207D02*
X106055570Y-158331469D01*
X246304908Y-22519214D02*
X246353268Y-22510823D01*
X379312145Y-25490976D02*
X379292926Y-25474478D01*
X41107982Y-25210256D02*
X41040624Y-25245441D01*
X242171559Y-158240951D02*
X242134393Y-158273010D01*
X38196792Y-70570966D02*
X38226989Y-70532273D01*
X313985896Y-156142271D02*
X314028602Y-156118078D01*
X241742980Y-24970031D02*
X241695091Y-24980785D01*
X40687854Y-155509023D02*
X40707073Y-155525521D01*
X106456940Y-157790285D02*
X106441544Y-157836890D01*
X38485896Y-70308937D02*
X38528602Y-70284745D01*
X245596010Y-156572444D02*
X245618078Y-156528602D01*
X314209714Y-156043059D02*
X314257019Y-156029968D01*
X379904181Y-26389286D02*
X379879601Y-26317376D01*
X245759048Y-22828440D02*
X245792892Y-22792892D01*
X379047010Y-25296284D02*
X378981521Y-25257733D01*
X381803207Y-114237633D02*
X381831469Y-114277762D01*
X241549068Y-22501204D02*
X241598018Y-22504815D01*
X38528602Y-158381921D02*
X38485896Y-158357728D01*
X241790285Y-156043059D02*
X241836890Y-156058455D01*
X381881921Y-110304730D02*
X381857728Y-110347436D01*
X313668530Y-156444429D02*
X313696792Y-156404300D01*
X174357728Y-22985896D02*
X174381921Y-23028602D01*
X40095818Y-154610713D02*
X40120398Y-154682623D01*
X110401981Y-22504815D02*
X110450931Y-22501204D01*
X174498795Y-156950931D02*
X174500000Y-156999999D01*
X178450931Y-156001204D02*
X178499999Y-156000000D01*
X241927555Y-24903989D02*
X241882684Y-24923879D01*
X245500000Y-23499999D02*
X245501204Y-23450931D01*
X379988138Y-26785096D02*
X379978537Y-26709711D01*
X241500000Y-158500000D02*
X178499999Y-158500000D01*
X313558455Y-157836890D02*
X313543059Y-157790285D01*
X38029968Y-114590352D02*
X38043059Y-114543047D01*
X174357728Y-156485896D02*
X174381921Y-156528602D01*
X40060982Y-26511035D02*
X40043803Y-26585062D01*
X314450931Y-24998795D02*
X314401981Y-24995184D01*
X379800898Y-26130723D02*
X379789743Y-26107982D01*
X38096010Y-114405777D02*
X38118078Y-114361936D01*
X39382684Y-70242787D02*
X39427555Y-70262677D01*
X378513484Y-155932669D02*
X378586546Y-155911763D01*
X379961294Y-26609872D02*
X379956196Y-26585062D01*
X174134393Y-22726989D02*
X174171559Y-22759048D01*
X110163109Y-158441544D02*
X110117315Y-158423879D01*
X41107982Y-155789743D02*
X41130723Y-155800898D01*
X379996471Y-26886069D02*
X379990700Y-26810295D01*
X310207107Y-22792892D02*
X310240951Y-22828440D01*
X40410950Y-155214000D02*
X40426454Y-155234030D01*
X41130723Y-25199101D02*
X41107982Y-25210256D01*
X314401981Y-156004815D02*
X314450931Y-156001204D01*
X106423879Y-24382684D02*
X106403989Y-24427555D01*
X314028602Y-22618078D02*
X314072444Y-22596010D01*
X381803207Y-66762366D02*
X381773010Y-66801060D01*
X246499999Y-158500000D02*
X246450931Y-158498795D01*
X39831469Y-114277762D02*
X39857728Y-114319230D01*
X310480785Y-157695091D02*
X310470031Y-157742980D01*
X110028602Y-158381921D02*
X109985896Y-158357728D01*
X40952989Y-155703715D02*
X41018478Y-155742266D01*
X110117315Y-24923879D02*
X110072444Y-24903989D01*
X379999839Y-154006331D02*
X379999999Y-153993666D01*
X177510823Y-23353268D02*
X177519214Y-23304908D01*
X106134393Y-22726989D02*
X106171559Y-22759048D01*
X378414937Y-155956196D02*
X378488964Y-155939017D01*
X245696792Y-158095699D02*
X245668530Y-158055570D01*
X106331469Y-158055570D02*
X106303207Y-158095699D01*
X174357728Y-158014103D02*
X174331469Y-158055570D01*
X379068505Y-155690317D02*
X379131958Y-155648498D01*
X246499999Y-25000000D02*
X246450931Y-24998795D01*
X39098018Y-113838148D02*
X39146731Y-113844156D01*
X38118078Y-70695269D02*
X38142271Y-70652563D01*
X310489176Y-156853268D02*
X310495184Y-156901981D01*
X109543059Y-157790285D02*
X109529968Y-157742980D01*
X38000000Y-157500000D02*
X38000000Y-114833332D01*
X378513484Y-25067330D02*
X378488964Y-25060982D01*
X309790285Y-24956940D02*
X309742980Y-24970031D01*
X39857728Y-110347436D02*
X39831469Y-110388904D01*
X40129195Y-26293624D02*
X40120398Y-26317376D01*
X174240951Y-24671559D02*
X174207107Y-24707107D01*
X313529968Y-24242980D02*
X313519214Y-24195091D01*
X38058455Y-66503557D02*
X38043059Y-66456952D01*
X174055570Y-158331469D02*
X174014103Y-158357728D01*
X380043059Y-114543047D02*
X380058455Y-114496442D01*
X242470031Y-24242980D02*
X242456940Y-24290285D01*
X381956940Y-66456952D02*
X381941544Y-66503557D01*
X41911365Y-25002246D02*
X41886069Y-25003528D01*
X381382684Y-70242787D02*
X381427555Y-70262677D01*
X242441544Y-156663109D02*
X242456940Y-156709714D01*
X381995184Y-109931351D02*
X381989176Y-109980064D01*
X174423879Y-24382684D02*
X174403989Y-24427555D01*
X110353268Y-156010823D02*
X110401981Y-156004815D01*
X38076120Y-70783982D02*
X38096010Y-70739111D01*
X309882684Y-156076120D02*
X309927555Y-156096010D01*
X381923879Y-110216017D02*
X381903989Y-110260888D01*
X106273010Y-22865606D02*
X106303207Y-22904300D01*
X38029968Y-23257019D02*
X38043059Y-23209714D01*
X174207107Y-22792892D02*
X174240951Y-22828440D01*
X110163109Y-24941544D02*
X110117315Y-24923879D01*
X310470031Y-23257019D02*
X310480785Y-23304908D01*
X105927555Y-22596010D02*
X105971397Y-22618078D01*
X110257019Y-158470031D02*
X110209714Y-158456940D01*
X178257019Y-22529968D02*
X178304908Y-22519214D01*
X178401981Y-156004815D02*
X178450931Y-156001204D01*
X39903989Y-70739111D02*
X39923879Y-70783982D01*
X41317376Y-155879601D02*
X41389286Y-155904181D01*
X110304908Y-24980785D02*
X110257019Y-24970031D01*
X105646731Y-24989176D02*
X105598018Y-24995184D01*
X177985896Y-156142271D02*
X178028602Y-156118078D01*
X109500000Y-23499999D02*
X109501204Y-23450931D01*
X174423879Y-23117315D02*
X174441544Y-23163109D01*
X39336890Y-70225122D02*
X39382684Y-70242787D01*
X174095699Y-158303207D02*
X174055570Y-158331469D01*
X381098018Y-158495184D02*
X381049068Y-158498795D01*
X310456940Y-157790285D02*
X310441544Y-157836890D01*
X242240951Y-156328440D02*
X242273010Y-156365606D01*
X313726989Y-158134393D02*
X313696792Y-158095699D01*
X241836890Y-156058455D02*
X241882684Y-156076120D01*
X379440627Y-155386891D02*
X379458078Y-155368533D01*
X109510823Y-156853268D02*
X109519214Y-156804908D01*
X40410950Y-25785999D02*
X40365971Y-25847252D01*
X38004815Y-157598018D02*
X38001204Y-157549068D01*
X106303207Y-24595699D02*
X106273010Y-24634393D01*
X381956940Y-114543047D02*
X381970031Y-114590352D01*
X38709714Y-22543059D02*
X38757019Y-22529968D01*
X246028602Y-156118078D02*
X246072444Y-156096010D01*
X110304908Y-158480785D02*
X110257019Y-158470031D01*
X40952989Y-25296284D02*
X40931494Y-25309682D01*
X381382684Y-113909453D02*
X381427555Y-113929343D01*
X242303207Y-24595699D02*
X242273010Y-24634393D01*
X38663109Y-158441544D02*
X38617315Y-158423879D01*
X246072444Y-22596010D02*
X246117315Y-22576120D01*
X38901981Y-158495184D02*
X38853268Y-158489176D01*
X381956940Y-70876381D02*
X381970031Y-70923685D01*
X242441544Y-157836890D02*
X242423879Y-157882684D01*
X41993668Y-25000160D02*
X41911365Y-25002246D01*
X242500000Y-156999999D02*
X242500000Y-157500000D01*
X378088634Y-25002246D02*
X378006331Y-25000160D01*
X38226989Y-110467726D02*
X38196792Y-110429033D01*
X177696792Y-24595699D02*
X177668530Y-24555570D01*
X309971397Y-22618078D02*
X310014103Y-22642271D01*
X242381921Y-156528602D02*
X242403989Y-156572444D01*
X380757019Y-70196635D02*
X380804908Y-70185881D01*
X381740951Y-114161774D02*
X381773010Y-114198939D01*
X313726989Y-22865606D02*
X313759048Y-22828440D01*
X40009299Y-154189704D02*
X40011861Y-154214903D01*
X313696792Y-24595699D02*
X313668530Y-24555570D01*
X242495184Y-156901981D02*
X242498795Y-156950931D01*
X38572444Y-70262677D02*
X38617315Y-70242787D01*
X39923879Y-114450649D02*
X39941544Y-114496442D01*
X39336890Y-67108210D02*
X39290285Y-67123607D01*
X38118078Y-157971397D02*
X38096010Y-157927555D01*
X381000000Y-113833333D02*
X381049068Y-113834537D01*
X177696792Y-158095699D02*
X177668530Y-158055570D01*
X174171559Y-156259048D02*
X174207107Y-156292892D01*
X313510823Y-156853268D02*
X313519214Y-156804908D01*
X39970031Y-110076314D02*
X39956940Y-110123618D01*
X380901981Y-67161851D02*
X380853268Y-67155843D01*
X380000000Y-71166665D02*
X380001204Y-71117598D01*
X313904300Y-156196792D02*
X313944429Y-156168530D01*
X109759048Y-24671559D02*
X109726989Y-24634393D01*
X381146731Y-22510823D02*
X381195091Y-22519214D01*
X380001204Y-114784264D02*
X380004815Y-114735315D01*
X177558455Y-24336890D02*
X177543059Y-24290285D01*
X381989176Y-157646731D02*
X381980785Y-157695091D01*
X41317376Y-25120398D02*
X41293624Y-25129195D01*
X378776947Y-155842614D02*
X378800223Y-155832626D01*
X174441544Y-157836890D02*
X174423879Y-157882684D01*
X178028602Y-22618078D02*
X178072444Y-22596010D01*
X381290285Y-70209726D02*
X381336890Y-70225122D01*
X177904300Y-22696792D02*
X177944429Y-22668530D01*
X105790285Y-158456940D02*
X105742980Y-158470031D01*
X105882684Y-158423879D02*
X105836890Y-158441544D01*
X245726989Y-156365606D02*
X245759048Y-156328440D01*
X381773010Y-66801060D02*
X381740951Y-66838225D01*
X379509023Y-25687854D02*
X379458078Y-25631466D01*
X40067330Y-154513484D02*
X40088236Y-154586546D01*
X381881921Y-23028602D02*
X381903989Y-23072444D01*
X379832626Y-154800223D02*
X379842614Y-154776947D01*
X380950931Y-67165462D02*
X380901981Y-67161851D01*
X177596010Y-157927555D02*
X177576120Y-157882684D01*
X242095699Y-158303207D02*
X242055570Y-158331469D01*
X38757019Y-113863302D02*
X38804908Y-113852548D01*
X242331469Y-156444429D02*
X242357728Y-156485896D01*
X246353268Y-24989176D02*
X246304908Y-24980785D01*
X40296284Y-155047010D02*
X40309682Y-155068505D01*
X106095699Y-24803207D02*
X106055570Y-24831469D01*
X39634393Y-66939677D02*
X39595699Y-66969874D01*
X381995184Y-114735315D02*
X381998795Y-114784264D01*
X173695091Y-22519214D02*
X173742980Y-22529968D01*
X174500000Y-156999999D02*
X174500000Y-157500000D01*
X106441544Y-156663109D02*
X106456940Y-156709714D01*
X110401981Y-158495184D02*
X110353268Y-158489176D01*
X40210256Y-154892017D02*
X40245441Y-154959375D01*
X39998795Y-109882401D02*
X39995184Y-109931351D01*
X381290285Y-22543059D02*
X381336890Y-22558455D01*
X39998795Y-71117598D02*
X40000000Y-71166665D01*
X106456940Y-156709714D02*
X106470031Y-156757019D01*
X381471397Y-67048588D02*
X381427555Y-67070656D01*
X109519214Y-23304908D02*
X109529968Y-23257019D01*
X380572444Y-67070656D02*
X380528602Y-67048588D01*
X381970031Y-114590352D02*
X381980785Y-114638242D01*
X381195091Y-70185881D02*
X381242980Y-70196635D01*
X110117315Y-158423879D02*
X110072444Y-158403989D01*
X241598018Y-158495184D02*
X241549068Y-158498795D01*
X241742980Y-22529968D02*
X241790285Y-22543059D01*
X109642271Y-22985896D02*
X109668530Y-22944429D01*
X177543059Y-156709714D02*
X177558455Y-156663109D01*
X313543059Y-156709714D02*
X313558455Y-156663109D01*
X242500000Y-24000000D02*
X242498795Y-24049068D01*
X380485896Y-113975604D02*
X380528602Y-113951411D01*
X245501204Y-24049068D02*
X245500000Y-24000000D01*
X242303207Y-22904300D02*
X242331469Y-22944429D01*
X177504815Y-157598018D02*
X177501204Y-157549068D01*
X106207107Y-22792892D02*
X106240951Y-22828440D01*
X380709714Y-110790273D02*
X380663109Y-110774877D01*
X177529968Y-157742980D02*
X177519214Y-157695091D01*
X313642271Y-24514103D02*
X313618078Y-24471397D01*
X310495184Y-157598018D02*
X310489176Y-157646731D01*
X381049068Y-110832128D02*
X381000000Y-110833333D01*
X380043059Y-70876381D02*
X380058455Y-70829776D01*
X380617315Y-67090546D02*
X380572444Y-67070656D01*
X246209714Y-156043059D02*
X246257019Y-156029968D01*
X177510823Y-24146731D02*
X177504815Y-24098018D01*
X177792892Y-156292892D02*
X177828440Y-156259048D01*
X309598018Y-158495184D02*
X309549068Y-158498795D01*
X38000000Y-23499999D02*
X38001204Y-23450931D01*
X313642271Y-22985896D02*
X313668530Y-22944429D01*
X381382684Y-158423879D02*
X381336890Y-158441544D01*
X242207107Y-24707107D02*
X242171559Y-24740951D01*
X313792892Y-24707107D02*
X313759048Y-24671559D01*
X174207107Y-156292892D02*
X174240951Y-156328440D01*
X310403989Y-23072444D02*
X310423879Y-23117315D01*
X313504815Y-156901981D02*
X313510823Y-156853268D01*
X309836890Y-158441544D02*
X309790285Y-158456940D01*
X379047010Y-155703715D02*
X379068505Y-155690317D01*
X313618078Y-157971397D02*
X313596010Y-157927555D01*
X38804908Y-158480785D02*
X38757019Y-158470031D01*
X39336890Y-113891789D02*
X39382684Y-113909453D01*
X313576120Y-23117315D02*
X313596010Y-23072444D01*
X39980785Y-70971575D02*
X39989176Y-71019935D01*
X245529968Y-24242980D02*
X245519214Y-24195091D01*
X241598018Y-24995184D02*
X241549068Y-24998795D01*
X38404300Y-158303207D02*
X38365606Y-158273010D01*
X309695091Y-156019214D02*
X309742980Y-156029968D01*
X178117315Y-24923879D02*
X178072444Y-24903989D01*
X174495184Y-156901981D02*
X174498795Y-156950931D01*
X109558455Y-24336890D02*
X109543059Y-24290285D01*
X106480785Y-24195091D02*
X106470031Y-24242980D01*
X174489176Y-23353268D02*
X174495184Y-23401981D01*
X38709714Y-158456940D02*
X38663109Y-158441544D01*
X39595699Y-70363458D02*
X39634393Y-70393655D01*
X382000000Y-157500000D02*
X381998795Y-157549068D01*
X381098018Y-67161851D02*
X381049068Y-67165462D01*
X381336890Y-70225122D02*
X381382684Y-70242787D01*
X381427555Y-158403989D02*
X381382684Y-158423879D01*
X38000000Y-114833332D02*
X38001204Y-114784264D01*
X379754558Y-26040624D02*
X379742266Y-26018478D01*
X38901981Y-70171481D02*
X38950931Y-70167871D01*
X242055570Y-22668530D02*
X242095699Y-22696792D01*
X177501204Y-23450931D02*
X177504815Y-23401981D01*
X177504815Y-23401981D02*
X177510823Y-23353268D01*
X381427555Y-67070656D02*
X381382684Y-67090546D01*
X380000000Y-66166667D02*
X380000000Y-27006333D01*
X245510823Y-23353268D02*
X245519214Y-23304908D01*
X380004815Y-109931351D02*
X380001204Y-109882401D01*
X380572444Y-113929343D02*
X380617315Y-113909453D01*
X380528602Y-70284745D02*
X380572444Y-70262677D01*
X381923879Y-70783982D02*
X381941544Y-70829776D01*
X379939017Y-26511035D02*
X379932669Y-26486515D01*
X106014103Y-158357728D02*
X105971397Y-158381921D01*
X379879601Y-26317376D02*
X379870804Y-26293624D01*
X174240951Y-158171559D02*
X174207107Y-158207107D01*
X177519214Y-24195091D02*
X177510823Y-24146731D01*
X40000000Y-71166665D02*
X40000000Y-109833334D01*
X174423879Y-157882684D02*
X174403989Y-157927555D01*
X381831469Y-66722237D02*
X381803207Y-66762366D01*
X242207107Y-156292892D02*
X242240951Y-156328440D01*
X242381921Y-157971397D02*
X242357728Y-158014103D01*
X245596010Y-23072444D02*
X245618078Y-23028602D01*
X381671559Y-70425715D02*
X381707107Y-70459559D01*
X242480785Y-157695091D02*
X242470031Y-157742980D01*
X109504815Y-156901981D02*
X109510823Y-156853268D01*
X40931494Y-25309682D02*
X40868041Y-25351501D01*
X38004815Y-114735315D02*
X38010823Y-114686602D01*
X381956940Y-157790285D02*
X381941544Y-157836890D01*
X380485896Y-70308937D02*
X380528602Y-70284745D01*
X39427555Y-67070656D02*
X39382684Y-67090546D01*
X174403989Y-24427555D02*
X174381921Y-24471397D01*
X39995184Y-66264684D02*
X39989176Y-66313397D01*
X378088634Y-155997753D02*
X378113930Y-155996471D01*
X380404300Y-66969874D02*
X380365606Y-66939677D01*
X109904300Y-156196792D02*
X109944429Y-156168530D01*
X39989176Y-109980064D02*
X39980785Y-110028424D01*
X177759048Y-158171559D02*
X177726989Y-158134393D01*
X381998795Y-66215735D02*
X381995184Y-66264684D01*
X38004815Y-23401981D02*
X38010823Y-23353268D01*
X310303207Y-158095699D02*
X310273010Y-158134393D01*
X105695091Y-22519214D02*
X105742980Y-22529968D01*
X106480785Y-157695091D02*
X106470031Y-157742980D01*
X38096010Y-23072444D02*
X38118078Y-23028602D01*
X40785999Y-155589049D02*
X40847252Y-155634028D01*
X109501204Y-156950931D02*
X109504815Y-156901981D01*
X38010823Y-23353268D02*
X38019214Y-23304908D01*
X41199776Y-25167373D02*
X41130723Y-25199101D01*
X177504815Y-156901981D02*
X177510823Y-156853268D01*
X39514103Y-113975604D02*
X39555570Y-114001863D01*
X379956196Y-26585062D02*
X379939017Y-26511035D01*
X242014103Y-22642271D02*
X242055570Y-22668530D01*
X380142271Y-70652563D02*
X380168530Y-70611095D01*
X246353268Y-22510823D02*
X246401981Y-22504815D01*
X241646731Y-156010823D02*
X241695091Y-156019214D01*
X381903989Y-66594222D02*
X381881921Y-66638063D01*
X174500000Y-23499999D02*
X174500000Y-24000000D01*
X313558455Y-24336890D02*
X313543059Y-24290285D01*
X378610713Y-155904181D02*
X378682623Y-155879601D01*
X310055570Y-156168530D02*
X310095699Y-156196792D01*
X246450931Y-24998795D02*
X246401981Y-24995184D01*
X242480785Y-23304908D02*
X242489176Y-23353268D01*
X381146731Y-67155843D02*
X381098018Y-67161851D01*
X109501204Y-23450931D02*
X109504815Y-23401981D01*
X381146731Y-70177490D02*
X381195091Y-70185881D01*
X41585062Y-25043803D02*
X41511035Y-25060982D01*
X38142271Y-66680769D02*
X38118078Y-66638063D01*
X380096010Y-110260888D02*
X380076120Y-110216017D01*
X38901981Y-22504815D02*
X38950931Y-22501204D01*
X39514103Y-67024395D02*
X39471397Y-67048588D01*
X40868041Y-25351501D02*
X40847252Y-25365971D01*
X380096010Y-70739111D02*
X380118078Y-70695269D01*
X177596010Y-23072444D02*
X177618078Y-23028602D01*
X177944429Y-22668530D02*
X177985896Y-22642271D01*
X38950931Y-110832128D02*
X38901981Y-110828518D01*
X380000000Y-153993666D02*
X380000000Y-114833332D01*
X309695091Y-24980785D02*
X309646731Y-24989176D01*
X41684674Y-155974701D02*
X41709711Y-155978537D01*
X242500000Y-157500000D02*
X242498795Y-157549068D01*
X38001204Y-66215735D02*
X38000000Y-66166667D01*
X382000000Y-114833332D02*
X382000000Y-157500000D01*
X380617315Y-110757212D02*
X380572444Y-110737322D01*
X245944429Y-156168530D02*
X245985896Y-156142271D01*
X314072444Y-158403989D02*
X314028602Y-158381921D01*
X110209714Y-156043059D02*
X110257019Y-156029968D01*
X173882684Y-156076120D02*
X173927555Y-156096010D01*
X245865606Y-158273010D02*
X245828440Y-158240951D01*
X177792892Y-22792892D02*
X177828440Y-22759048D01*
X380444429Y-114001863D02*
X380485896Y-113975604D01*
X38010823Y-109980064D02*
X38004815Y-109931351D01*
X39773010Y-114198939D02*
X39803207Y-114237633D01*
X106470031Y-24242980D02*
X106456940Y-24290285D01*
X313642271Y-158014103D02*
X313618078Y-157971397D01*
X314257019Y-158470031D02*
X314209714Y-158456940D01*
X38001204Y-157549068D02*
X38000000Y-157500000D01*
X39903989Y-66594222D02*
X39881921Y-66638063D01*
X313696792Y-156404300D02*
X313726989Y-156365606D01*
X245828440Y-158240951D02*
X245792892Y-158207107D01*
X309742980Y-158470031D02*
X309695091Y-158480785D01*
X245759048Y-156328440D02*
X245792892Y-156292892D01*
X245668530Y-22944429D02*
X245696792Y-22904300D01*
X380019214Y-70971575D02*
X380029968Y-70923685D01*
X106357728Y-158014103D02*
X106331469Y-158055570D01*
X40490976Y-155312145D02*
X40541921Y-155368533D01*
X178257019Y-158470031D02*
X178209714Y-158456940D01*
X40199101Y-26130723D02*
X40167373Y-26199776D01*
X310171559Y-158240951D02*
X310134393Y-158273010D01*
X177865606Y-24773010D02*
X177828440Y-24740951D01*
X38168530Y-110388904D02*
X38142271Y-110347436D01*
X105882684Y-22576120D02*
X105927555Y-22596010D01*
X380196792Y-114237633D02*
X380226989Y-114198939D01*
X38444429Y-70335196D02*
X38485896Y-70308937D01*
X38528602Y-22618078D02*
X38572444Y-22596010D01*
X314072444Y-156096010D02*
X314117315Y-156076120D01*
X380058455Y-70829776D02*
X380076120Y-70783982D01*
X38029968Y-157742980D02*
X38019214Y-157695091D01*
X380757019Y-67136697D02*
X380709714Y-67123607D01*
X379911763Y-154586546D02*
X379932669Y-154513484D01*
X109596010Y-23072444D02*
X109618078Y-23028602D01*
X381970031Y-70923685D02*
X381980785Y-70971575D01*
X379440627Y-25613108D02*
X379386891Y-25559372D01*
X381980785Y-157695091D02*
X381970031Y-157742980D01*
X310331469Y-22944429D02*
X310357728Y-22985896D01*
X314163109Y-24941544D02*
X314117315Y-24923879D01*
X38663109Y-113891789D02*
X38709714Y-113876392D01*
X38096010Y-66594222D02*
X38076120Y-66549350D01*
X39740951Y-114161774D02*
X39773010Y-114198939D01*
X40559372Y-25613108D02*
X40541921Y-25631466D01*
X174480785Y-24195091D02*
X174470031Y-24242980D01*
X41511035Y-25060982D02*
X41486515Y-25067330D01*
X380804908Y-110814118D02*
X380757019Y-110803364D01*
X40129195Y-154706375D02*
X40157385Y-154776947D01*
X40613108Y-25559372D02*
X40559372Y-25613108D01*
X379386891Y-25559372D02*
X379368533Y-25541921D01*
X178304908Y-24980785D02*
X178257019Y-24970031D01*
X313726989Y-156365606D02*
X313759048Y-156328440D01*
X178450931Y-22501204D02*
X178499999Y-22500000D01*
X173971397Y-22618078D02*
X174014103Y-22642271D01*
X42006333Y-156000000D02*
X105500000Y-156000000D01*
X38029968Y-70923685D02*
X38043059Y-70876381D01*
X110450931Y-24998795D02*
X110401981Y-24995184D01*
X245904300Y-22696792D02*
X245944429Y-22668530D01*
X379368533Y-155458078D02*
X379386891Y-155440627D01*
X241549068Y-158498795D02*
X241500000Y-158500000D01*
X109529968Y-24242980D02*
X109519214Y-24195091D01*
X174171559Y-158240951D02*
X174134393Y-158273010D01*
X381146731Y-158489176D02*
X381098018Y-158495184D01*
X381336890Y-67108210D02*
X381290285Y-67123607D01*
X381146731Y-110822509D02*
X381098018Y-110828518D01*
X245543059Y-157790285D02*
X245529968Y-157742980D01*
X40541921Y-25631466D02*
X40490976Y-25687854D01*
X380076120Y-70783982D02*
X380096010Y-70739111D01*
X109865606Y-24773010D02*
X109828440Y-24740951D01*
X38365606Y-114060322D02*
X38404300Y-114030125D01*
X38118078Y-66638063D02*
X38096010Y-66594222D01*
X38528602Y-113951411D02*
X38572444Y-113929343D01*
X177576120Y-157882684D02*
X177558455Y-157836890D01*
X309790285Y-156043059D02*
X309836890Y-156058455D01*
X380444429Y-70335196D02*
X380485896Y-70308937D01*
X381956940Y-23209714D02*
X381970031Y-23257019D01*
X173549068Y-156001204D02*
X173598018Y-156004815D01*
X38118078Y-110304730D02*
X38096010Y-110260888D01*
X310495184Y-23401981D02*
X310498795Y-23450931D01*
X106207107Y-158207107D02*
X106171559Y-158240951D01*
X313618078Y-24471397D02*
X313596010Y-24427555D01*
X310240951Y-22828440D02*
X310273010Y-22865606D01*
X41293624Y-155870804D02*
X41317376Y-155879601D01*
X109529968Y-156757019D02*
X109543059Y-156709714D01*
X110450931Y-22501204D02*
X110499999Y-22500000D01*
X380010823Y-66313397D02*
X380004815Y-66264684D01*
X377993666Y-25000000D02*
X314499999Y-25000000D01*
X38528602Y-67048588D02*
X38485896Y-67024395D01*
X106055570Y-22668530D02*
X106095699Y-22696792D01*
X39970031Y-114590352D02*
X39980785Y-114638242D01*
X241646731Y-24989176D02*
X241598018Y-24995184D01*
X380617315Y-113909453D02*
X380663109Y-113891789D01*
X242273010Y-22865606D02*
X242303207Y-22904300D01*
X174095699Y-24803207D02*
X174055570Y-24831469D01*
X310095699Y-158303207D02*
X310055570Y-158331469D01*
X381980785Y-23304908D02*
X381989176Y-23353268D01*
X310171559Y-22759048D02*
X310207107Y-22792892D01*
X313944429Y-24831469D02*
X313904300Y-24803207D01*
X40351501Y-155131958D02*
X40365971Y-155152747D01*
X177543059Y-24290285D02*
X177529968Y-24242980D01*
X39000000Y-70166666D02*
X39049068Y-70167871D01*
X379214000Y-155589049D02*
X379234030Y-155573545D01*
X379800898Y-154869276D02*
X379832626Y-154800223D01*
X313865606Y-158273010D02*
X313828440Y-158240951D01*
X380043059Y-110123618D02*
X380029968Y-110076314D01*
X242240951Y-24671559D02*
X242207107Y-24707107D01*
X309549068Y-158498795D02*
X309500000Y-158500000D01*
X241500000Y-22500000D02*
X241549068Y-22501204D01*
X174357728Y-24514103D02*
X174331469Y-24555570D01*
X173971397Y-158381921D02*
X173927555Y-158403989D01*
X173882684Y-24923879D02*
X173836890Y-24941544D01*
X38999999Y-22500000D02*
X105500000Y-22500000D01*
X40474478Y-155292926D02*
X40490976Y-155312145D01*
X174500000Y-24000000D02*
X174498795Y-24049068D01*
X310273010Y-156365606D02*
X310303207Y-156404300D01*
X313510823Y-24146731D02*
X313504815Y-24098018D01*
X381857728Y-66680769D02*
X381831469Y-66722237D01*
X379525521Y-155292926D02*
X379573545Y-155234030D01*
X246163109Y-156058455D02*
X246209714Y-156043059D01*
X174498795Y-24049068D02*
X174495184Y-24098018D01*
X242403989Y-24427555D02*
X242381921Y-24471397D01*
X109696792Y-24595699D02*
X109668530Y-24555570D01*
X106171559Y-156259048D02*
X106207107Y-156292892D01*
X380076120Y-114450649D02*
X380096010Y-114405777D01*
X313904300Y-158303207D02*
X313865606Y-158273010D01*
X174171559Y-24740951D02*
X174134393Y-24773010D01*
X173598018Y-22504815D02*
X173646731Y-22510823D01*
X314499999Y-22500000D02*
X381000000Y-22500000D01*
X39923879Y-66549350D02*
X39903989Y-66594222D01*
X174331469Y-156444429D02*
X174357728Y-156485896D01*
X381923879Y-157882684D02*
X381903989Y-157927555D01*
X173500000Y-25000000D02*
X110499999Y-25000000D01*
X381998795Y-114784264D02*
X382000000Y-114833332D01*
X310489176Y-23353268D02*
X310495184Y-23401981D01*
X384487727Y-160999999D02*
X384499704Y-160999705D01*
X39634393Y-110606344D02*
X39595699Y-110636541D01*
X110028602Y-24881921D02*
X109985896Y-24857728D01*
X314353268Y-156010823D02*
X314401981Y-156004815D01*
X378892017Y-155789743D02*
X378959375Y-155754558D01*
X173549068Y-22501204D02*
X173598018Y-22504815D01*
X242441544Y-23163109D02*
X242456940Y-23209714D01*
X310381921Y-157971397D02*
X310357728Y-158014103D01*
X310273010Y-22865606D02*
X310303207Y-22904300D01*
X310303207Y-22904300D02*
X310331469Y-22944429D01*
X310403989Y-156572444D02*
X310423879Y-156617315D01*
X310331469Y-156444429D02*
X310357728Y-156485896D01*
X313504815Y-23401981D02*
X313510823Y-23353268D01*
X177668530Y-156444429D02*
X177696792Y-156404300D01*
X105500000Y-22500000D02*
X105549068Y-22501204D01*
X242055570Y-24831469D02*
X242014103Y-24857728D01*
X40025298Y-154315325D02*
X40038705Y-154390127D01*
X381595699Y-158303207D02*
X381555570Y-158331469D01*
X381773010Y-110467726D02*
X381740951Y-110504892D01*
X174381921Y-157971397D02*
X174357728Y-158014103D01*
X106273010Y-158134393D02*
X106240951Y-158171559D01*
X38076120Y-23117315D02*
X38096010Y-23072444D01*
X38168530Y-114277762D02*
X38196792Y-114237633D01*
X106489176Y-156853268D02*
X106495184Y-156901981D01*
X381803207Y-158095699D02*
X381773010Y-158134393D01*
X40541921Y-155368533D02*
X40559372Y-155386891D01*
X381671559Y-158240951D02*
X381634393Y-158273010D01*
X105882684Y-24923879D02*
X105836890Y-24941544D01*
X378682623Y-155879601D02*
X378706375Y-155870804D01*
X39146731Y-113844156D02*
X39195091Y-113852548D01*
X380118078Y-110304730D02*
X380096010Y-110260888D01*
X381941544Y-23163109D02*
X381956940Y-23209714D01*
X380001204Y-71117598D02*
X380004815Y-71068648D01*
X241790285Y-24956940D02*
X241742980Y-24970031D01*
X310240951Y-156328440D02*
X310273010Y-156365606D01*
X174134393Y-156226989D02*
X174171559Y-156259048D01*
X242014103Y-156142271D02*
X242055570Y-156168530D01*
X310495184Y-24098018D02*
X310489176Y-24146731D01*
X245904300Y-158303207D02*
X245865606Y-158273010D01*
X245792892Y-24707107D02*
X245759048Y-24671559D01*
X38999999Y-67166666D02*
X38950931Y-67165462D01*
X177865606Y-156226989D02*
X177904300Y-156196792D01*
X40000000Y-66166667D02*
X39998795Y-66215735D01*
X313576120Y-157882684D02*
X313558455Y-157836890D01*
X380328440Y-66907618D02*
X380292892Y-66873773D01*
X38617315Y-70242787D02*
X38663109Y-70225122D01*
X379573545Y-155234030D02*
X379589049Y-155214000D01*
X384499999Y-20012272D02*
X384499705Y-20000295D01*
X242207107Y-158207107D02*
X242171559Y-158240951D01*
X246257019Y-22529968D02*
X246304908Y-22519214D01*
X173836890Y-158441544D02*
X173790285Y-158456940D01*
X106240951Y-24671559D02*
X106207107Y-24707107D01*
X313792892Y-156292892D02*
X313828440Y-156259048D01*
X38404300Y-114030125D02*
X38444429Y-114001863D01*
X378586546Y-25088236D02*
X378513484Y-25067330D01*
X381998795Y-23450931D02*
X382000000Y-23499999D01*
X178117315Y-158423879D02*
X178072444Y-158403989D01*
X39857728Y-66680769D02*
X39831469Y-66722237D01*
X380528602Y-110715254D02*
X380485896Y-110691062D01*
X109668530Y-158055570D02*
X109642271Y-158014103D01*
X314209714Y-24956940D02*
X314163109Y-24941544D01*
X106134393Y-158273010D02*
X106095699Y-158303207D01*
X309927555Y-158403989D02*
X309882684Y-158423879D01*
X313576120Y-156617315D02*
X313596010Y-156572444D01*
X380076120Y-66549350D02*
X380058455Y-66503557D01*
X242480785Y-24195091D02*
X242470031Y-24242980D01*
X246028602Y-24881921D02*
X245985896Y-24857728D01*
X173790285Y-22543059D02*
X173836890Y-22558455D01*
X109576120Y-23117315D02*
X109596010Y-23072444D01*
X40309682Y-25931494D02*
X40296284Y-25952989D01*
X109904300Y-22696792D02*
X109944429Y-22668530D01*
X381707107Y-114126226D02*
X381740951Y-114161774D01*
X313596010Y-156572444D02*
X313618078Y-156528602D01*
X38617315Y-67090546D02*
X38572444Y-67070656D01*
X245792892Y-22792892D02*
X245828440Y-22759048D01*
X313500000Y-156999999D02*
X313501204Y-156950931D01*
X381773010Y-22865606D02*
X381803207Y-22904300D01*
X381989176Y-114686602D02*
X381995184Y-114735315D01*
X246499999Y-156000000D02*
X309500000Y-156000000D01*
X41223052Y-155842614D02*
X41293624Y-155870804D01*
X310403989Y-157927555D02*
X310381921Y-157971397D01*
X310381921Y-24471397D02*
X310357728Y-24514103D01*
X245696792Y-22904300D02*
X245726989Y-22865606D01*
X39773010Y-66801060D02*
X39740951Y-66838225D01*
X245576120Y-23117315D02*
X245596010Y-23072444D01*
X105549068Y-22501204D02*
X105598018Y-22504815D01*
X173790285Y-156043059D02*
X173836890Y-156058455D01*
X178028602Y-158381921D02*
X177985896Y-158357728D01*
X178499999Y-156000000D02*
X241500000Y-156000000D01*
X177618078Y-156528602D02*
X177642271Y-156485896D01*
X379997753Y-154088634D02*
X379999839Y-154006331D01*
X380196792Y-110429033D02*
X380168530Y-110388904D01*
X38096010Y-70739111D02*
X38118078Y-70695269D01*
X109529968Y-23257019D02*
X109543059Y-23209714D01*
X38804908Y-113852548D02*
X38853268Y-113844156D01*
X174403989Y-157927555D02*
X174381921Y-157971397D01*
X174014103Y-24857728D02*
X173971397Y-24881921D01*
X378290288Y-25021462D02*
X378214903Y-25011861D01*
X109985896Y-158357728D02*
X109944429Y-158331469D01*
X177558455Y-157836890D02*
X177543059Y-157790285D01*
X39903989Y-110260888D02*
X39881921Y-110304730D01*
X109504815Y-157598018D02*
X109501204Y-157549068D01*
X381903989Y-70739111D02*
X381923879Y-70783982D01*
X106470031Y-157742980D02*
X106456940Y-157790285D01*
X106134393Y-24773010D02*
X106095699Y-24803207D01*
X41413453Y-25088236D02*
X41389286Y-25095818D01*
X38950931Y-158498795D02*
X38901981Y-158495184D01*
X380259048Y-66838225D02*
X380226989Y-66801060D01*
X379292926Y-25474478D02*
X379234030Y-25426454D01*
X242423879Y-156617315D02*
X242441544Y-156663109D01*
X177519214Y-23304908D02*
X177529968Y-23257019D01*
X241646731Y-158489176D02*
X241598018Y-158495184D01*
X310489176Y-24146731D02*
X310480785Y-24195091D01*
X380804908Y-113852548D02*
X380853268Y-113844156D01*
X109576120Y-156617315D02*
X109596010Y-156572444D01*
X110304908Y-22519214D02*
X110353268Y-22510823D01*
X109558455Y-157836890D02*
X109543059Y-157790285D01*
X39881921Y-66638063D02*
X39857728Y-66680769D01*
X380010823Y-114686602D02*
X380019214Y-114638242D01*
X309790285Y-22543059D02*
X309836890Y-22558455D01*
X178304908Y-158480785D02*
X178257019Y-158470031D01*
X245828440Y-22759048D02*
X245865606Y-22726989D01*
X380663109Y-113891789D02*
X380709714Y-113876392D01*
X178163109Y-158441544D02*
X178117315Y-158423879D01*
X381049068Y-67165462D02*
X381000000Y-67166666D01*
X245985896Y-158357728D02*
X245944429Y-158331469D01*
X314257019Y-156029968D02*
X314304908Y-156019214D01*
X242495184Y-157598018D02*
X242489176Y-157646731D01*
X110304908Y-156019214D02*
X110353268Y-156010823D01*
X380029968Y-70923685D02*
X380043059Y-70876381D01*
X41709711Y-25021462D02*
X41684674Y-25025298D01*
X39471397Y-110715254D02*
X39427555Y-110737322D01*
X242095699Y-156196792D02*
X242134393Y-156226989D01*
X41609872Y-155961294D02*
X41684674Y-155974701D01*
X38328440Y-110574284D02*
X38292892Y-110540440D01*
X106500000Y-157500000D02*
X106498795Y-157549068D01*
X105695091Y-24980785D02*
X105646731Y-24989176D01*
X246163109Y-24941544D02*
X246117315Y-24923879D01*
X174171559Y-22759048D02*
X174207107Y-22792892D01*
X39740951Y-66838225D02*
X39707107Y-66873773D01*
X245904300Y-156196792D02*
X245944429Y-156168530D01*
X39803207Y-70570966D02*
X39831469Y-70611095D01*
X105836890Y-158441544D02*
X105790285Y-158456940D01*
X177642271Y-24514103D02*
X177618078Y-24471397D01*
X380118078Y-114361936D02*
X380142271Y-114319230D01*
X42006333Y-25000000D02*
X41993668Y-25000160D01*
X241971397Y-158381921D02*
X241927555Y-158403989D01*
X314499999Y-156000000D02*
X377993666Y-156000000D01*
X378959375Y-155754558D02*
X378981521Y-155742266D01*
X381555570Y-22668530D02*
X381595699Y-22696792D01*
X177792892Y-158207107D02*
X177759048Y-158171559D01*
X381956940Y-110123618D02*
X381941544Y-110170223D01*
X310500000Y-24000000D02*
X310498795Y-24049068D01*
X38168530Y-158055570D02*
X38142271Y-158014103D01*
X109510823Y-157646731D02*
X109504815Y-157598018D01*
X109904300Y-158303207D02*
X109865606Y-158273010D01*
X246117315Y-156076120D02*
X246163109Y-156058455D01*
X41993668Y-155999839D02*
X42006333Y-155999999D01*
X38292892Y-158207107D02*
X38259048Y-158171559D01*
X381857728Y-158014103D02*
X381831469Y-158055570D01*
X39923879Y-110216017D02*
X39903989Y-110260888D01*
X382000000Y-23499999D02*
X382000000Y-66166667D01*
X106381921Y-157971397D02*
X106357728Y-158014103D01*
X381998795Y-71117598D02*
X382000000Y-71166665D01*
X106171559Y-24740951D02*
X106134393Y-24773010D01*
X105598018Y-158495184D02*
X105549068Y-158498795D01*
X242014103Y-24857728D02*
X241971397Y-24881921D01*
X38853268Y-22510823D02*
X38901981Y-22504815D01*
X38292892Y-22792892D02*
X38328440Y-22759048D01*
X309742980Y-22529968D02*
X309790285Y-22543059D01*
X38757019Y-22529968D02*
X38804908Y-22519214D01*
X38709714Y-70209726D02*
X38757019Y-70196635D01*
X381740951Y-70495107D02*
X381773010Y-70532273D01*
X177618078Y-24471397D02*
X177596010Y-24427555D01*
X380000000Y-109833334D02*
X380000000Y-71166665D01*
X313759048Y-156328440D02*
X313792892Y-156292892D01*
X379690317Y-25931494D02*
X379648498Y-25868041D01*
X381098018Y-70171481D02*
X381146731Y-70177490D01*
X177618078Y-23028602D02*
X177642271Y-22985896D01*
X173742980Y-156029968D02*
X173790285Y-156043059D01*
X380029968Y-66409647D02*
X380019214Y-66361757D01*
X313696792Y-158095699D02*
X313668530Y-158055570D01*
X109576120Y-24382684D02*
X109558455Y-24336890D01*
X378586546Y-155911763D02*
X378610713Y-155904181D01*
X379996471Y-154113930D02*
X379997753Y-154088634D01*
X40067330Y-26486515D02*
X40060982Y-26511035D01*
X177504815Y-24098018D02*
X177501204Y-24049068D01*
X38196792Y-22904300D02*
X38226989Y-22865606D01*
X310014103Y-156142271D02*
X310055570Y-156168530D01*
X380096010Y-114405777D02*
X380118078Y-114361936D01*
X110257019Y-24970031D02*
X110209714Y-24956940D01*
X38663109Y-70225122D02*
X38709714Y-70209726D01*
X309790285Y-158456940D02*
X309742980Y-158470031D01*
X177596010Y-24427555D02*
X177576120Y-24382684D01*
X40847252Y-25365971D02*
X40785999Y-25410950D01*
X41684674Y-25025298D02*
X41609872Y-25038705D01*
X245865606Y-156226989D02*
X245904300Y-156196792D01*
X242423879Y-23117315D02*
X242441544Y-23163109D01*
X106331469Y-156444429D02*
X106357728Y-156485896D01*
X313519214Y-157695091D02*
X313510823Y-157646731D01*
X39881921Y-70695269D02*
X39903989Y-70739111D01*
X106489176Y-23353268D02*
X106495184Y-23401981D01*
X379509023Y-155312145D02*
X379525521Y-155292926D01*
X40210256Y-26107982D02*
X40199101Y-26130723D01*
X40351501Y-25868041D02*
X40309682Y-25931494D01*
X106303207Y-22904300D02*
X106331469Y-22944429D01*
X245944429Y-24831469D02*
X245904300Y-24803207D01*
X242303207Y-158095699D02*
X242273010Y-158134393D01*
X241695091Y-22519214D02*
X241742980Y-22529968D01*
X109696792Y-22904300D02*
X109726989Y-22865606D01*
X109510823Y-23353268D02*
X109519214Y-23304908D01*
X246304908Y-158480785D02*
X246257019Y-158470031D01*
X245558455Y-157836890D02*
X245543059Y-157790285D01*
X178353268Y-156010823D02*
X178401981Y-156004815D01*
X38226989Y-70532273D02*
X38259048Y-70495107D01*
X381980785Y-114638242D02*
X381989176Y-114686602D01*
X109558455Y-156663109D02*
X109576120Y-156617315D01*
X109501204Y-24049068D02*
X109500000Y-24000000D01*
X245576120Y-157882684D02*
X245558455Y-157836890D01*
X38043059Y-70876381D02*
X38058455Y-70829776D01*
X309742980Y-156029968D02*
X309790285Y-156043059D01*
X41040624Y-155754558D02*
X41107982Y-155789743D01*
X379904181Y-154610713D02*
X379911763Y-154586546D01*
X380029968Y-110076314D02*
X380019214Y-110028424D01*
X39471397Y-67048588D02*
X39427555Y-67070656D01*
X174489176Y-24146731D02*
X174480785Y-24195091D01*
X173836890Y-22558455D02*
X173882684Y-22576120D01*
X245642271Y-156485896D02*
X245668530Y-156444429D01*
X109904300Y-24803207D02*
X109865606Y-24773010D01*
X241927555Y-158403989D02*
X241882684Y-158423879D01*
X38528602Y-70284745D02*
X38572444Y-70262677D01*
X245543059Y-156709714D02*
X245558455Y-156663109D01*
X245543059Y-23209714D02*
X245558455Y-23163109D01*
X39740951Y-110504892D02*
X39707107Y-110540440D01*
X380853268Y-110822509D02*
X380804908Y-110814118D01*
X174303207Y-156404300D02*
X174331469Y-156444429D01*
X245726989Y-158134393D02*
X245696792Y-158095699D01*
X38019214Y-157695091D02*
X38010823Y-157646731D01*
X177985896Y-24857728D02*
X177944429Y-24831469D01*
X40011861Y-26785096D02*
X40009299Y-26810295D01*
X178499999Y-22500000D02*
X241500000Y-22500000D01*
X313792892Y-158207107D02*
X313759048Y-158171559D01*
X245504815Y-157598018D02*
X245501204Y-157549068D01*
X105500000Y-156000000D02*
X105549068Y-156001204D01*
X173790285Y-24956940D02*
X173742980Y-24970031D01*
X314209714Y-22543059D02*
X314257019Y-22529968D01*
X241500000Y-156000000D02*
X241549068Y-156001204D01*
X378706375Y-155870804D02*
X378776947Y-155842614D01*
X40931494Y-155690317D02*
X40952989Y-155703715D01*
X40257733Y-26018478D02*
X40245441Y-26040624D01*
X380950931Y-113834537D02*
X380999999Y-113833333D01*
X313828440Y-24740951D02*
X313792892Y-24707107D01*
X40120398Y-26317376D02*
X40095818Y-26389286D01*
X39941544Y-114496442D02*
X39956940Y-114543047D01*
X313828440Y-22759048D02*
X313865606Y-22726989D01*
X39881921Y-114361936D02*
X39903989Y-114405777D01*
X38142271Y-114319230D02*
X38168530Y-114277762D01*
X379932669Y-154513484D02*
X379939017Y-154488964D01*
X245529968Y-156757019D02*
X245543059Y-156709714D01*
X105927555Y-156096010D02*
X105971397Y-156118078D01*
X314353268Y-24989176D02*
X314304908Y-24980785D01*
X106470031Y-23257019D02*
X106480785Y-23304908D01*
X39803207Y-66762366D02*
X39773010Y-66801060D01*
X380999999Y-110833333D02*
X380950931Y-110832128D01*
X245576120Y-24382684D02*
X245558455Y-24336890D01*
X39998795Y-114784264D02*
X40000000Y-114833332D01*
X310489176Y-157646731D02*
X310480785Y-157695091D01*
X174403989Y-23072444D02*
X174423879Y-23117315D01*
X245759048Y-158171559D02*
X245726989Y-158134393D01*
X109759048Y-22828440D02*
X109792892Y-22792892D01*
X40631466Y-155458078D02*
X40687854Y-155509023D01*
X39831469Y-110388904D02*
X39803207Y-110429033D01*
X38444429Y-22668530D02*
X38485896Y-22642271D01*
X381740951Y-22828440D02*
X381773010Y-22865606D01*
X381970031Y-157742980D02*
X381956940Y-157790285D01*
X109618078Y-157971397D02*
X109596010Y-157927555D01*
X39242980Y-110803364D02*
X39195091Y-110814118D01*
X380118078Y-66638063D02*
X380096010Y-66594222D01*
X38019214Y-23304908D02*
X38029968Y-23257019D01*
X38804908Y-22519214D02*
X38853268Y-22510823D01*
X109543059Y-23209714D02*
X109558455Y-23163109D01*
X174240951Y-22828440D02*
X174273010Y-22865606D01*
X245500000Y-24000000D02*
X245500000Y-23499999D01*
X314072444Y-22596010D02*
X314117315Y-22576120D01*
X380757019Y-110803364D02*
X380709714Y-110790273D01*
X245504815Y-23401981D02*
X245510823Y-23353268D01*
X174014103Y-22642271D02*
X174055570Y-22668530D01*
X313500000Y-157500000D02*
X313500000Y-156999999D01*
X309695091Y-22519214D02*
X309742980Y-22529968D01*
X381049068Y-70167871D02*
X381098018Y-70171481D01*
X242303207Y-156404300D02*
X242331469Y-156444429D01*
X39956940Y-70876381D02*
X39970031Y-70923685D01*
X109519214Y-156804908D02*
X109529968Y-156757019D01*
X38950931Y-113834537D02*
X38999999Y-113833333D01*
X246401981Y-24995184D02*
X246353268Y-24989176D01*
X173549068Y-24998795D02*
X173500000Y-25000000D01*
X384487727Y-20000000D02*
X35512272Y-20000000D01*
X178450931Y-24998795D02*
X178401981Y-24995184D01*
X174273010Y-22865606D02*
X174303207Y-22904300D01*
X310357728Y-24514103D02*
X310331469Y-24555570D01*
X381634393Y-110606344D02*
X381595699Y-110636541D01*
X381995184Y-71068648D02*
X381998795Y-71117598D01*
X38328440Y-66907618D02*
X38292892Y-66873773D01*
X381595699Y-114030125D02*
X381634393Y-114060322D01*
X380259048Y-114161774D02*
X380292892Y-114126226D01*
X242273010Y-158134393D02*
X242240951Y-158171559D01*
X105695091Y-156019214D02*
X105742980Y-156029968D01*
X242423879Y-24382684D02*
X242403989Y-24427555D01*
X109558455Y-23163109D02*
X109576120Y-23117315D01*
X110257019Y-156029968D02*
X110304908Y-156019214D01*
X38617315Y-22576120D02*
X38663109Y-22558455D01*
X38365606Y-66939677D02*
X38328440Y-66907618D01*
X38142271Y-70652563D02*
X38168530Y-70611095D01*
X380617315Y-70242787D02*
X380663109Y-70225122D01*
X109543059Y-156709714D02*
X109558455Y-156663109D01*
X38010823Y-157646731D02*
X38004815Y-157598018D01*
X380485896Y-110691062D02*
X380444429Y-110664803D01*
X310441544Y-24336890D02*
X310423879Y-24382684D01*
X106498795Y-156950931D02*
X106500000Y-156999999D01*
X109985896Y-24857728D02*
X109944429Y-24831469D01*
X106134393Y-156226989D02*
X106171559Y-156259048D01*
X380853268Y-113844156D02*
X380901981Y-113838148D01*
X381098018Y-22504815D02*
X381146731Y-22510823D01*
X242403989Y-23072444D02*
X242423879Y-23117315D01*
X177501204Y-24049068D02*
X177500000Y-24000000D01*
X105971397Y-24881921D02*
X105927555Y-24903989D01*
X173836890Y-156058455D02*
X173882684Y-156076120D01*
X381242980Y-110803364D02*
X381195091Y-110814118D01*
X379634028Y-25847252D02*
X379589049Y-25785999D01*
X245504815Y-156901981D02*
X245510823Y-156853268D01*
X241882684Y-156076120D02*
X241927555Y-156096010D01*
X177985896Y-158357728D02*
X177944429Y-158331469D01*
X314450931Y-22501204D02*
X314499999Y-22500000D01*
X381242980Y-22529968D02*
X381290285Y-22543059D01*
X39146731Y-67155843D02*
X39098018Y-67161851D01*
X379832626Y-26199776D02*
X379800898Y-26130723D01*
X245558455Y-156663109D02*
X245576120Y-156617315D01*
X380029968Y-114590352D02*
X380043059Y-114543047D01*
X178499999Y-25000000D02*
X178450931Y-24998795D01*
X310441544Y-156663109D02*
X310456940Y-156709714D01*
X109510823Y-24146731D02*
X109504815Y-24098018D01*
X106303207Y-156404300D02*
X106331469Y-156444429D01*
X38142271Y-158014103D02*
X38118078Y-157971397D01*
X380168530Y-70611095D02*
X380196792Y-70570966D01*
X173500000Y-158500000D02*
X110499999Y-158500000D01*
X38663109Y-110774877D02*
X38617315Y-110757212D01*
X109759048Y-158171559D02*
X109726989Y-158134393D01*
X38076120Y-66549350D02*
X38058455Y-66503557D01*
X241927555Y-156096010D02*
X241971397Y-156118078D01*
X242423879Y-157882684D02*
X242403989Y-157927555D01*
X379131958Y-155648498D02*
X379152747Y-155634028D01*
X38757019Y-70196635D02*
X38804908Y-70185881D01*
X110117315Y-156076120D02*
X110163109Y-156058455D01*
X40687854Y-25490976D02*
X40631466Y-25541921D01*
X105500000Y-158500000D02*
X38999999Y-158500000D01*
X177828440Y-156259048D02*
X177865606Y-156226989D01*
X109759048Y-156328440D02*
X109792892Y-156292892D01*
X174441544Y-24336890D02*
X174423879Y-24382684D01*
X245696792Y-156404300D02*
X245726989Y-156365606D01*
X381514103Y-70308937D02*
X381555570Y-70335196D01*
X241598018Y-156004815D02*
X241646731Y-156010823D01*
X246209714Y-158456940D02*
X246163109Y-158441544D01*
X241882684Y-22576120D02*
X241927555Y-22596010D01*
X379932669Y-26486515D02*
X379911763Y-26413453D01*
X109726989Y-156365606D02*
X109759048Y-156328440D01*
X177576120Y-156617315D02*
X177596010Y-156572444D01*
X39290285Y-110790273D02*
X39242980Y-110803364D01*
X38950931Y-67165462D02*
X38901981Y-67161851D01*
X177828440Y-158240951D02*
X177792892Y-158207107D01*
X380142271Y-66680769D02*
X380118078Y-66638063D01*
X246353268Y-158489176D02*
X246304908Y-158480785D01*
X40257733Y-154981521D02*
X40296284Y-155047010D01*
X245904300Y-24803207D02*
X245865606Y-24773010D01*
X177668530Y-24555570D02*
X177642271Y-24514103D01*
X313504815Y-157598018D02*
X313501204Y-157549068D01*
X310095699Y-22696792D02*
X310134393Y-22726989D01*
X246072444Y-24903989D02*
X246028602Y-24881921D01*
X246028602Y-158381921D02*
X245985896Y-158357728D01*
X39336890Y-110774877D02*
X39290285Y-110790273D01*
X380058455Y-114496442D02*
X380076120Y-114450649D01*
X178304908Y-156019214D02*
X178353268Y-156010823D01*
X310470031Y-24242980D02*
X310456940Y-24290285D01*
X110209714Y-24956940D02*
X110163109Y-24941544D01*
X245668530Y-156444429D02*
X245696792Y-156404300D01*
X241500000Y-25000000D02*
X178499999Y-25000000D01*
X313944429Y-156168530D02*
X313985896Y-156142271D01*
X39671559Y-110574284D02*
X39634393Y-110606344D01*
X381803207Y-22904300D02*
X381831469Y-22944429D01*
X381998795Y-109882401D02*
X381995184Y-109931351D01*
X310014103Y-24857728D02*
X309971397Y-24881921D01*
X173500000Y-22500000D02*
X173549068Y-22501204D01*
X381707107Y-70459559D02*
X381740951Y-70495107D01*
X379742266Y-26018478D02*
X379703715Y-25952989D01*
X38019214Y-66361757D02*
X38010823Y-66313397D01*
X41709711Y-155978537D02*
X41785096Y-155988138D01*
X106498795Y-24049068D02*
X106495184Y-24098018D01*
X245944429Y-22668530D02*
X245985896Y-22642271D01*
X245558455Y-24336890D02*
X245543059Y-24290285D01*
X173695091Y-24980785D02*
X173646731Y-24989176D01*
X310498795Y-156950931D02*
X310500000Y-156999999D01*
X173971397Y-24881921D02*
X173927555Y-24903989D01*
X313828440Y-158240951D02*
X313792892Y-158207107D01*
X380365606Y-114060322D02*
X380404300Y-114030125D01*
X310500000Y-157500000D02*
X310498795Y-157549068D01*
X41785096Y-155988138D02*
X41810295Y-155990700D01*
X379999839Y-26993668D02*
X379997753Y-26911365D01*
X246401981Y-158495184D02*
X246353268Y-158489176D01*
X245668530Y-158055570D02*
X245642271Y-158014103D01*
X379789743Y-154892017D02*
X379800898Y-154869276D01*
X381671559Y-114092381D02*
X381707107Y-114126226D01*
X109668530Y-24555570D02*
X109642271Y-24514103D01*
X105646731Y-156010823D02*
X105695091Y-156019214D01*
X38004815Y-66264684D02*
X38001204Y-66215735D01*
X106495184Y-23401981D02*
X106498795Y-23450931D01*
X380168530Y-66722237D02*
X380142271Y-66680769D01*
X379386891Y-155440627D02*
X379440627Y-155386891D01*
X379997753Y-26911365D02*
X379996471Y-26886069D01*
X380950931Y-110832128D02*
X380901981Y-110828518D01*
X38853268Y-110822509D02*
X38804908Y-110814118D01*
X177696792Y-156404300D02*
X177726989Y-156365606D01*
X242470031Y-156757019D02*
X242480785Y-156804908D01*
X40021462Y-26709711D02*
X40011861Y-26785096D01*
X242331469Y-24555570D02*
X242303207Y-24595699D01*
X177944429Y-24831469D02*
X177904300Y-24803207D01*
X378414937Y-25043803D02*
X378390127Y-25038705D01*
X38010823Y-66313397D02*
X38004815Y-66264684D01*
X313501204Y-24049068D02*
X313500000Y-24000000D01*
X381471397Y-110715254D02*
X381427555Y-110737322D01*
X381831469Y-114277762D02*
X381857728Y-114319230D01*
X174055570Y-22668530D02*
X174095699Y-22696792D01*
X109668530Y-22944429D02*
X109696792Y-22904300D01*
X313576120Y-24382684D02*
X313558455Y-24336890D01*
X39857728Y-70652563D02*
X39881921Y-70695269D01*
X174331469Y-24555570D02*
X174303207Y-24595699D01*
X177596010Y-156572444D02*
X177618078Y-156528602D01*
X38001204Y-23450931D02*
X38004815Y-23401981D01*
X245726989Y-22865606D02*
X245759048Y-22828440D01*
X380004815Y-71068648D02*
X380010823Y-71019935D01*
X384499704Y-20000294D02*
X384487727Y-20000000D01*
X38096010Y-110260888D02*
X38076120Y-110216017D01*
X109618078Y-24471397D02*
X109596010Y-24427555D01*
X245726989Y-24634393D02*
X245696792Y-24595699D01*
X380019214Y-110028424D02*
X380010823Y-109980064D01*
X314209714Y-158456940D02*
X314163109Y-158441544D01*
X379988138Y-154214903D02*
X379990700Y-154189704D01*
X313529968Y-23257019D02*
X313543059Y-23209714D01*
X245828440Y-24740951D02*
X245792892Y-24707107D01*
X245792892Y-158207107D02*
X245759048Y-158171559D01*
X105836890Y-156058455D02*
X105882684Y-156076120D01*
X380757019Y-113863302D02*
X380804908Y-113852548D01*
X174441544Y-156663109D02*
X174456940Y-156709714D01*
X40785999Y-25410950D02*
X40765969Y-25426454D01*
X174240951Y-156328440D02*
X174273010Y-156365606D01*
X38118078Y-23028602D02*
X38142271Y-22985896D01*
X380572444Y-70262677D02*
X380617315Y-70242787D01*
X313504815Y-24098018D02*
X313501204Y-24049068D01*
X380365606Y-66939677D02*
X380328440Y-66907618D01*
X245510823Y-24146731D02*
X245504815Y-24098018D01*
X241790285Y-22543059D02*
X241836890Y-22558455D01*
X38572444Y-113929343D02*
X38617315Y-113909453D01*
X109668530Y-156444429D02*
X109696792Y-156404300D01*
X174495184Y-157598018D02*
X174489176Y-157646731D01*
X313668530Y-24555570D02*
X313642271Y-24514103D01*
X106273010Y-156365606D02*
X106303207Y-156404300D01*
X313543059Y-24290285D02*
X313529968Y-24242980D01*
X310273010Y-158134393D02*
X310240951Y-158171559D01*
X40088236Y-26413453D02*
X40067330Y-26486515D01*
X106441544Y-157836890D02*
X106423879Y-157882684D01*
X39634393Y-114060322D02*
X39671559Y-114092381D01*
X379939017Y-154488964D02*
X379956196Y-154414937D01*
X38853268Y-70177490D02*
X38901981Y-70171481D01*
X380901981Y-70171481D02*
X380950931Y-70167871D01*
X381634393Y-158273010D02*
X381595699Y-158303207D01*
X40043803Y-154414937D02*
X40060982Y-154488964D01*
X177696792Y-22904300D02*
X177726989Y-22865606D01*
X310055570Y-22668530D02*
X310095699Y-22696792D01*
X106331469Y-22944429D02*
X106357728Y-22985896D01*
X380292892Y-66873773D02*
X380259048Y-66838225D01*
X39707107Y-110540440D02*
X39671559Y-110574284D01*
X178257019Y-156029968D02*
X178304908Y-156019214D01*
X40765969Y-25426454D02*
X40707073Y-25474478D01*
X105742980Y-22529968D02*
X105790285Y-22543059D01*
X381773010Y-114198939D02*
X381803207Y-114237633D01*
X381514103Y-158357728D02*
X381471397Y-158381921D01*
X178209714Y-22543059D02*
X178257019Y-22529968D01*
X245865606Y-24773010D02*
X245828440Y-24740951D01*
X380804908Y-67147451D02*
X380757019Y-67136697D01*
X41810295Y-155990700D02*
X41886069Y-155996471D01*
X380328440Y-110574284D02*
X380292892Y-110540440D01*
X378113930Y-155996471D02*
X378189704Y-155990700D01*
X39995184Y-71068648D02*
X39998795Y-71117598D01*
X382000000Y-66166667D02*
X381998795Y-66215735D01*
X105836890Y-24941544D02*
X105790285Y-24956940D01*
X313519214Y-23304908D02*
X313529968Y-23257019D01*
X106500000Y-24000000D02*
X106498795Y-24049068D01*
X245510823Y-157646731D02*
X245504815Y-157598018D01*
X110163109Y-22558455D02*
X110209714Y-22543059D01*
X38365606Y-70393655D02*
X38404300Y-70363458D01*
X242240951Y-22828440D02*
X242273010Y-22865606D01*
X40559372Y-155386891D02*
X40613108Y-155440627D01*
X109500000Y-156999999D02*
X109501204Y-156950931D01*
X174207107Y-24707107D02*
X174171559Y-24740951D01*
X310470031Y-156757019D02*
X310480785Y-156804908D01*
X174381921Y-156528602D02*
X174403989Y-156572444D01*
X245519214Y-157695091D02*
X245510823Y-157646731D01*
X380259048Y-110504892D02*
X380226989Y-110467726D01*
X380196792Y-70570966D02*
X380226989Y-70532273D01*
X39803207Y-114237633D02*
X39831469Y-114277762D01*
X105971397Y-156118078D02*
X106014103Y-156142271D01*
X39956940Y-66456952D02*
X39941544Y-66503557D01*
X38196792Y-114237633D02*
X38226989Y-114198939D01*
X109642271Y-158014103D02*
X109618078Y-157971397D01*
X106423879Y-157882684D02*
X106403989Y-157927555D01*
X105790285Y-24956940D02*
X105742980Y-24970031D01*
X242498795Y-157549068D02*
X242495184Y-157598018D01*
X379068505Y-25309682D02*
X379047010Y-25296284D01*
X381671559Y-110574284D02*
X381634393Y-110606344D01*
X105927555Y-158403989D02*
X105882684Y-158423879D01*
X35512272Y-161000000D02*
X384487727Y-161000000D01*
X379458078Y-25631466D02*
X379440627Y-25613108D01*
X40000000Y-109833334D02*
X39998795Y-109882401D01*
X178401981Y-22504815D02*
X178450931Y-22501204D01*
X381595699Y-110636541D02*
X381555570Y-110664803D01*
X106403989Y-157927555D02*
X106381921Y-157971397D01*
X106357728Y-22985896D02*
X106381921Y-23028602D01*
X38118078Y-114361936D02*
X38142271Y-114319230D01*
X38444429Y-114001863D02*
X38485896Y-113975604D01*
X381049068Y-158498795D02*
X381000000Y-158500000D01*
X246353268Y-156010823D02*
X246401981Y-156004815D01*
X378892017Y-25210256D02*
X378869276Y-25199101D01*
X39707107Y-114126226D02*
X39740951Y-114161774D01*
X381980785Y-110028424D02*
X381970031Y-110076314D01*
X109726989Y-158134393D02*
X109696792Y-158095699D01*
X40157385Y-26223052D02*
X40129195Y-26293624D01*
X177576120Y-24382684D02*
X177558455Y-24336890D01*
X310134393Y-158273010D02*
X310095699Y-158303207D01*
X309500000Y-25000000D02*
X246499999Y-25000000D01*
X381707107Y-110540440D02*
X381671559Y-110574284D01*
X310095699Y-24803207D02*
X310055570Y-24831469D01*
X309836890Y-24941544D02*
X309790285Y-24956940D01*
X313510823Y-157646731D02*
X313504815Y-157598018D01*
X40021462Y-154290288D02*
X40025298Y-154315325D01*
X379879601Y-154682623D02*
X379904181Y-154610713D01*
X109519214Y-157695091D02*
X109510823Y-157646731D01*
X242095699Y-22696792D02*
X242134393Y-22726989D01*
X38804908Y-70185881D02*
X38853268Y-70177490D01*
X381195091Y-158480785D02*
X381146731Y-158489176D01*
X109696792Y-156404300D02*
X109726989Y-156365606D01*
X40707073Y-155525521D02*
X40765969Y-155573545D01*
X38096010Y-157927555D02*
X38076120Y-157882684D01*
X39595699Y-110636541D02*
X39555570Y-110664803D01*
X241971397Y-22618078D02*
X242014103Y-22642271D01*
X106207107Y-156292892D02*
X106240951Y-156328440D01*
X310134393Y-156226989D02*
X310171559Y-156259048D01*
X109944429Y-156168530D02*
X109985896Y-156142271D01*
X314450931Y-156001204D02*
X314499999Y-156000000D01*
X381555570Y-70335196D02*
X381595699Y-70363458D01*
X38029968Y-66409647D02*
X38019214Y-66361757D01*
X309598018Y-24995184D02*
X309549068Y-24998795D01*
X379634028Y-155152747D02*
X379648498Y-155131958D01*
X35500000Y-20012272D02*
X35500000Y-160987727D01*
X378390127Y-155961294D02*
X378414937Y-155956196D01*
X174381921Y-23028602D02*
X174403989Y-23072444D01*
X313558455Y-23163109D02*
X313576120Y-23117315D01*
X379703715Y-155047010D02*
X379742266Y-154981521D01*
X109828440Y-158240951D02*
X109792892Y-158207107D01*
X110353268Y-22510823D02*
X110401981Y-22504815D01*
X380196792Y-66762366D02*
X380168530Y-66722237D01*
X242456940Y-156709714D02*
X242470031Y-156757019D01*
X314117315Y-156076120D02*
X314163109Y-156058455D01*
X39989176Y-71019935D02*
X39995184Y-71068648D01*
X38485896Y-67024395D02*
X38444429Y-66998136D01*
X380019214Y-114638242D02*
X380029968Y-114590352D01*
X41413453Y-155911763D02*
X41486515Y-155932669D01*
X106381921Y-156528602D02*
X106403989Y-156572444D01*
X380226989Y-70532273D02*
X380259048Y-70495107D01*
X38019214Y-114638242D02*
X38029968Y-114590352D01*
X241695091Y-24980785D02*
X241646731Y-24989176D01*
X177500000Y-24000000D02*
X177500000Y-23499999D01*
X35512272Y-20000000D02*
X35500295Y-20000294D01*
X309549068Y-22501204D02*
X309598018Y-22504815D01*
X310357728Y-158014103D02*
X310331469Y-158055570D01*
X380058455Y-110170223D02*
X380043059Y-110123618D01*
X380004815Y-114735315D02*
X380010823Y-114686602D01*
X241927555Y-22596010D02*
X241971397Y-22618078D01*
X314499999Y-25000000D02*
X314450931Y-24998795D01*
X381941544Y-66503557D02*
X381923879Y-66549350D01*
X178163109Y-24941544D02*
X178117315Y-24923879D01*
X106331469Y-24555570D02*
X106303207Y-24595699D01*
X381555570Y-110664803D02*
X381514103Y-110691062D01*
X109944429Y-22668530D02*
X109985896Y-22642271D01*
X313618078Y-23028602D02*
X313642271Y-22985896D01*
X177543059Y-157790285D02*
X177529968Y-157742980D01*
X173646731Y-158489176D02*
X173598018Y-158495184D01*
X246163109Y-158441544D02*
X246117315Y-158423879D01*
X242014103Y-158357728D02*
X241971397Y-158381921D01*
X105598018Y-22504815D02*
X105646731Y-22510823D01*
X38328440Y-114092381D02*
X38365606Y-114060322D01*
X40426454Y-25765969D02*
X40410950Y-25785999D01*
X314499999Y-158500000D02*
X314450931Y-158498795D01*
X381941544Y-70829776D02*
X381956940Y-70876381D01*
X242489176Y-23353268D02*
X242495184Y-23401981D01*
X38259048Y-70495107D02*
X38292892Y-70459559D01*
X381049068Y-22501204D02*
X381098018Y-22504815D01*
X242055570Y-158331469D02*
X242014103Y-158357728D01*
X39195091Y-110814118D02*
X39146731Y-110822509D01*
X310055570Y-158331469D02*
X310014103Y-158357728D01*
X379974701Y-26684674D02*
X379961294Y-26609872D01*
X242456940Y-157790285D02*
X242441544Y-157836890D01*
X378682623Y-25120398D02*
X378610713Y-25095818D01*
X241790285Y-158456940D02*
X241742980Y-158470031D01*
X177904300Y-24803207D02*
X177865606Y-24773010D01*
X39242980Y-70196635D02*
X39290285Y-70209726D01*
X38999999Y-158500000D02*
X38950931Y-158498795D01*
X381740951Y-66838225D02*
X381707107Y-66873773D01*
X381634393Y-22726989D02*
X381671559Y-22759048D01*
X310480785Y-23304908D02*
X310489176Y-23353268D01*
X38142271Y-110347436D02*
X38118078Y-110304730D01*
X246117315Y-158423879D02*
X246072444Y-158403989D01*
X245618078Y-23028602D02*
X245642271Y-22985896D01*
X38001204Y-71117598D02*
X38004815Y-71068648D01*
X39881921Y-110304730D02*
X39857728Y-110347436D01*
X314028602Y-24881921D02*
X313985896Y-24857728D01*
X242495184Y-24098018D02*
X242489176Y-24146731D01*
X110499999Y-156000000D02*
X173500000Y-156000000D01*
X310470031Y-157742980D02*
X310456940Y-157790285D01*
X173646731Y-22510823D02*
X173695091Y-22519214D01*
X246072444Y-158403989D02*
X246028602Y-158381921D01*
X381471397Y-113951411D02*
X381514103Y-113975604D01*
X380010823Y-109980064D02*
X380004815Y-109931351D01*
X379312145Y-155509023D02*
X379368533Y-155458078D01*
X35500000Y-160987727D02*
X35500294Y-160999704D01*
X38404300Y-22696792D02*
X38444429Y-22668530D01*
X177510823Y-156853268D02*
X177519214Y-156804908D01*
X39049068Y-67165462D02*
X39000000Y-67166666D01*
X381995184Y-23401981D02*
X381998795Y-23450931D01*
X174456940Y-23209714D02*
X174470031Y-23257019D01*
X39290285Y-70209726D02*
X39336890Y-70225122D01*
X379961294Y-154390127D02*
X379974701Y-154315325D01*
X177529968Y-24242980D02*
X177519214Y-24195091D01*
M02*
