M48
; DRILL file {KiCad 7.0.9} date Sat Jul 27 11:54:41 2024
; FORMAT={-:-/ absolute / inch / decimal}
; #@! TF.CreationDate,2024-07-27T11:54:41-04:00
; #@! TF.GenerationSoftware,Kicad,Pcbnew,7.0.9
; #@! TF.FileFunction,NonPlated,1,2,NPTH
FMAT,2
INCH
; #@! TA.AperFunction,NonPlated,NPTH,ComponentDrill
T1C0.0079
; #@! TA.AperFunction,NonPlated,NPTH,ComponentDrill
T2C0.0256
; #@! TA.AperFunction,NonPlated,NPTH,ComponentDrill
T3C0.0689
; #@! TA.AperFunction,NonPlated,NPTH,ComponentDrill
T4C0.0866
; #@! TA.AperFunction,NonPlated,NPTH,ComponentDrill
T5C0.1181
; #@! TA.AperFunction,NonPlated,NPTH,ComponentDrill
T6C0.1200
; #@! TA.AperFunction,NonPlated,NPTH,ComponentDrill
T7C0.1570
%
G90
G05
T1
X1.3976Y-0.9843
X1.3976Y-6.1417
X1.414Y-0.9843
X1.414Y-6.1417
X1.4304Y-0.9843
X1.4304Y-6.1417
X1.4469Y-0.9843
X1.4469Y-6.1417
X1.4633Y-0.9843
X1.4633Y-6.1417
X1.4797Y-0.9843
X1.4797Y-6.1417
X1.4961Y-0.9843
X1.4961Y-6.1417
X1.5748Y-0.7874
X1.5748Y-0.8038
X1.5748Y-0.8202
X1.5748Y-0.8366
X1.5748Y-0.853
X1.5748Y-0.8694
X1.5748Y-0.8858
X1.5748Y-2.6444
X1.5748Y-2.6612
X1.5748Y-2.6781
X1.5748Y-2.695
X1.5748Y-2.7118
X1.5748Y-2.7287
X1.5748Y-2.7456
X1.5748Y-2.7625
X1.5748Y-4.3635
X1.5748Y-4.3804
X1.5748Y-4.3973
X1.5748Y-4.4141
X1.5748Y-4.431
X1.5748Y-4.4479
X1.5748Y-4.4648
X1.5748Y-4.4816
X1.5748Y-6.2402
X1.5748Y-6.2566
X1.5748Y-6.273
X1.5748Y-6.2894
X1.5748Y-6.3058
X1.5748Y-6.3222
X1.5748Y-6.3386
X4.1929Y-0.9843
X4.1929Y-6.1417
X4.2098Y-0.9843
X4.2098Y-6.1417
X4.2267Y-0.9843
X4.2267Y-6.1417
X4.2435Y-0.9843
X4.2435Y-6.1417
X4.2604Y-0.9843
X4.2604Y-6.1417
X4.2773Y-0.9843
X4.2773Y-6.1417
X4.2942Y-0.9843
X4.2942Y-6.1417
X4.311Y-0.9843
X4.311Y-6.1417
X6.8701Y-0.9843
X6.8701Y-6.1417
X6.887Y-0.9843
X6.887Y-6.1417
X6.9038Y-0.9843
X6.9038Y-6.1417
X6.9207Y-0.9843
X6.9207Y-6.1417
X6.9376Y-0.9843
X6.9376Y-6.1417
X6.9544Y-0.9843
X6.9544Y-6.1417
X6.9713Y-0.9843
X6.9713Y-6.1417
X6.9882Y-0.9843
X6.9882Y-6.1417
X9.5472Y-0.9843
X9.5472Y-6.1417
X9.5641Y-0.9843
X9.5641Y-6.1417
X9.581Y-0.9843
X9.581Y-6.1417
X9.5979Y-0.9843
X9.5979Y-6.1417
X9.6147Y-0.9843
X9.6147Y-6.1417
X9.6316Y-0.9843
X9.6316Y-6.1417
X9.6485Y-0.9843
X9.6485Y-6.1417
X9.6654Y-0.9843
X9.6654Y-6.1417
X12.2244Y-0.9843
X12.2244Y-6.1417
X12.2413Y-0.9843
X12.2413Y-6.1417
X12.2582Y-0.9843
X12.2582Y-6.1417
X12.275Y-0.9843
X12.275Y-6.1417
X12.2919Y-0.9843
X12.2919Y-6.1417
X12.3088Y-0.9843
X12.3088Y-6.1417
X12.3256Y-0.9843
X12.3256Y-6.1417
X12.3425Y-0.9843
X12.3425Y-6.1417
X14.9606Y-0.7874
X14.9606Y-0.8038
X14.9606Y-0.8202
X14.9606Y-0.8366
X14.9606Y-0.853
X14.9606Y-0.8694
X14.9606Y-0.8858
X14.9606Y-2.6444
X14.9606Y-2.6612
X14.9606Y-2.6781
X14.9606Y-2.695
X14.9606Y-2.7118
X14.9606Y-2.7287
X14.9606Y-2.7456
X14.9606Y-2.7625
X14.9606Y-4.3635
X14.9606Y-4.3804
X14.9606Y-4.3973
X14.9606Y-4.4141
X14.9606Y-4.431
X14.9606Y-4.4479
X14.9606Y-4.4648
X14.9606Y-4.4816
X14.9606Y-6.2402
X14.9606Y-6.2566
X14.9606Y-6.273
X14.9606Y-6.2894
X14.9606Y-6.3058
X14.9606Y-6.3222
X14.9606Y-6.3386
X15.0394Y-0.9843
X15.0394Y-6.1417
X15.0558Y-0.9843
X15.0558Y-6.1417
X15.0722Y-0.9843
X15.0722Y-6.1417
X15.0886Y-0.9843
X15.0886Y-6.1417
X15.105Y-0.9843
X15.105Y-6.1417
X15.1214Y-0.9843
X15.1214Y-6.1417
X15.1378Y-0.9843
X15.1378Y-6.1417
T2
X8.1535Y-1.1707
X8.381Y-1.1707
T3
X1.9857Y-1.5954
X1.9873Y-2.5312
X2.081Y-5.5312
X2.1748Y-3.2812
X2.2685Y-4.0312
X2.3857Y-1.5954
X2.3873Y-2.5312
X2.456Y-4.7812
X2.481Y-5.5312
X2.5748Y-3.2812
X2.6685Y-4.0312
X2.7373Y-2.5312
X2.856Y-4.7812
X2.9001Y-1.5945
X3.0185Y-5.5312
X3.1123Y-3.2812
X3.1373Y-2.5312
X3.2998Y-4.0312
X3.3001Y-1.5945
X3.4185Y-5.5312
X3.4873Y-2.5312
X3.5123Y-3.2812
X3.6501Y-1.5945
X3.6748Y-4.7812
X3.6998Y-4.0312
X3.8623Y-3.2812
X3.8873Y-2.5312
X3.956Y-5.5312
X4.0498Y-4.0312
X4.0501Y-1.5945
X4.0748Y-4.7812
X4.2373Y-2.5312
X4.2623Y-3.2812
X4.356Y-5.5312
X4.4001Y-1.5945
X4.4248Y-4.7812
X4.4498Y-4.0312
X4.6123Y-3.2812
X4.6373Y-2.5312
X4.7998Y-4.0312
X4.8001Y-1.5945
X4.8248Y-4.7812
X4.9873Y-2.5312
X5.0123Y-3.2812
X5.1501Y-1.5945
X5.1748Y-4.7812
X5.1998Y-4.0312
X5.3623Y-3.2812
X5.3873Y-2.5312
X5.5498Y-4.0312
X5.5501Y-1.5945
X5.5748Y-4.7812
X5.7373Y-2.5312
X5.7623Y-3.2812
X5.9248Y-4.7812
X5.9498Y-4.0312
X6.0645Y-1.5945
X6.1123Y-3.2812
X6.1373Y-2.5312
X6.2998Y-4.0312
X6.3248Y-4.7812
X6.4645Y-1.5945
X6.4873Y-2.5312
X6.5123Y-3.2812
X6.6748Y-4.7812
X6.6998Y-4.0312
X6.7685Y-5.5312
X6.8145Y-1.5945
X6.8623Y-3.2812
X6.8873Y-2.5312
X7.0498Y-4.0312
X7.0748Y-4.7812
X7.1685Y-5.5312
X7.2145Y-1.5945
X7.2373Y-2.5312
X7.2623Y-3.2812
X7.4248Y-4.7812
X7.4498Y-4.0312
X7.5645Y-1.5945
X7.6123Y-3.2812
X7.6373Y-2.5312
X7.7998Y-4.0312
X7.8248Y-4.7812
X7.9645Y-1.5945
X7.9873Y-2.5312
X8.0123Y-3.2812
X8.1748Y-4.7812
X8.1998Y-4.0312
X8.3145Y-1.5945
X8.3623Y-3.2812
X8.3873Y-2.5312
X8.5498Y-4.0312
X8.5748Y-4.7812
X8.7145Y-1.5945
X8.7373Y-2.5312
X8.7623Y-3.2812
X8.9248Y-4.7812
X8.9498Y-4.0312
X9.1123Y-3.2812
X9.1373Y-2.5312
X9.2289Y-1.5945
X9.2998Y-4.0312
X9.3248Y-4.7812
X9.4873Y-5.5312
X9.4873Y-2.5312
X9.5123Y-3.2812
X9.6289Y-1.5945
X9.6748Y-4.7812
X9.6998Y-4.0312
X9.8623Y-3.2812
X9.8873Y-5.5312
X9.8873Y-2.5312
X9.9789Y-1.5945
X10.0498Y-4.0312
X10.0748Y-4.7812
X10.2373Y-5.5312
X10.2373Y-2.5312
X10.2623Y-3.2812
X10.3789Y-1.5945
X10.4248Y-4.7812
X10.4498Y-4.0312
X10.6123Y-3.2812
X10.6373Y-5.5312
X10.6373Y-2.5312
X10.7289Y-1.5945
X10.7998Y-4.0312
X10.8248Y-4.7812
X10.9873Y-5.5312
X10.9873Y-2.5312
X11.0123Y-3.2812
X11.1289Y-1.5945
X11.1998Y-4.0312
X11.3623Y-3.2812
X11.3873Y-5.5312
X11.3873Y-2.5312
X11.456Y-4.7812
X11.4789Y-1.5945
X11.7623Y-3.2812
X11.856Y-4.7812
X11.8789Y-1.5945
X11.9728Y-5.5898
X12.0185Y-4.0312
X12.1123Y-2.5312
X12.2998Y-3.2812
X12.3728Y-5.5898
X12.4185Y-4.0312
X12.4865Y-1.5937
X12.5123Y-2.5312
X12.6998Y-3.2812
X12.7228Y-4.8398
X12.7228Y-5.5898
X12.8865Y-1.5937
X13.1228Y-4.8398
X13.1228Y-5.5898
X13.4122Y-2.5309
X13.4122Y-3.2809
X13.4728Y-5.5898
X13.8122Y-2.5309
X13.8122Y-3.2809
X13.8728Y-5.5898
X14.1622Y-2.5309
X14.1622Y-3.2809
X14.5622Y-2.5309
X14.5622Y-3.2809
T4
X1.7312Y-1.077
X1.7315Y-6.0484
X3.3056Y-2.0659
X4.3428Y-1.077
X4.343Y-6.0484
X6.6126Y-2.0659
X6.9543Y-1.077
X6.9546Y-6.0484
X9.5658Y-1.077
X9.5661Y-6.0484
X9.9221Y-2.0693
X12.1774Y-1.077
X12.1776Y-6.0484
X13.2292Y-2.0693
X14.7889Y-1.077
X14.7892Y-6.0484
T5
X2.0357Y-1.4954
X2.0373Y-2.4312
X2.131Y-5.4312
X2.2248Y-3.1812
X2.2857Y-1.3954
X2.2873Y-2.3312
X2.3185Y-3.9312
X2.381Y-5.3312
X2.4748Y-3.0812
X2.506Y-4.6812
X2.5685Y-3.8312
X2.756Y-4.5812
X2.7873Y-2.4312
X2.9501Y-1.4945
X3.0373Y-2.3312
X3.0685Y-5.4312
X3.1623Y-3.1812
X3.2001Y-1.3945
X3.3185Y-5.3312
X3.3498Y-3.9312
X3.4123Y-3.0812
X3.5373Y-2.4312
X3.5998Y-3.8312
X3.7001Y-1.4945
X3.7248Y-4.6812
X3.7873Y-2.3312
X3.9123Y-3.1812
X3.9501Y-1.3945
X3.9748Y-4.5812
X4.006Y-5.4312
X4.0998Y-3.9312
X4.1623Y-3.0812
X4.256Y-5.3312
X4.2873Y-2.4312
X4.3498Y-3.8312
X4.4501Y-1.4945
X4.4748Y-4.6812
X4.5373Y-2.3312
X4.6623Y-3.1812
X4.7001Y-1.3945
X4.7248Y-4.5812
X4.8498Y-3.9312
X4.9123Y-3.0812
X5.0373Y-2.4312
X5.0998Y-3.8312
X5.2001Y-1.4945
X5.2248Y-4.6812
X5.2873Y-2.3312
X5.4123Y-3.1812
X5.4501Y-1.3945
X5.4748Y-4.5812
X5.5998Y-3.9312
X5.6623Y-3.0812
X5.7873Y-2.4312
X5.8498Y-3.8312
X5.9748Y-4.6812
X6.0373Y-2.3312
X6.1145Y-1.4945
X6.1623Y-3.1812
X6.2248Y-4.5812
X6.3498Y-3.9312
X6.3645Y-1.3945
X6.4123Y-3.0812
X6.5373Y-2.4312
X6.5998Y-3.8312
X6.7248Y-4.6812
X6.7873Y-2.3312
X6.8185Y-5.4312
X6.8645Y-1.4945
X6.9123Y-3.1812
X6.9748Y-4.5812
X7.0685Y-5.3312
X7.0998Y-3.9312
X7.1145Y-1.3945
X7.1623Y-3.0812
X7.2873Y-2.4312
X7.3498Y-3.8312
X7.4748Y-4.6812
X7.5373Y-2.3312
X7.6145Y-1.4945
X7.6623Y-3.1812
X7.7248Y-4.5812
X7.8498Y-3.9312
X7.8645Y-1.3945
X7.9123Y-3.0812
X8.0373Y-2.4312
X8.0998Y-3.8312
X8.2248Y-4.6812
X8.2873Y-2.3312
X8.3645Y-1.4945
X8.4123Y-3.1812
X8.4748Y-4.5812
X8.5998Y-3.9312
X8.6145Y-1.3945
X8.6623Y-3.0812
X8.7873Y-2.4312
X8.8498Y-3.8312
X8.9748Y-4.6812
X9.0373Y-2.3312
X9.1623Y-3.1812
X9.2248Y-4.5812
X9.2789Y-1.4945
X9.3498Y-3.9312
X9.4123Y-3.0812
X9.5289Y-1.3945
X9.5373Y-5.4312
X9.5373Y-2.4312
X9.5998Y-3.8312
X9.7248Y-4.6812
X9.7873Y-5.3312
X9.7873Y-2.3312
X9.9123Y-3.1812
X9.9748Y-4.5812
X10.0289Y-1.4945
X10.0998Y-3.9312
X10.1623Y-3.0812
X10.2789Y-1.3945
X10.2873Y-5.4312
X10.2873Y-2.4312
X10.3498Y-3.8312
X10.4748Y-4.6812
X10.5373Y-5.3312
X10.5373Y-2.3312
X10.6623Y-3.1812
X10.7248Y-4.5812
X10.7789Y-1.4945
X10.8498Y-3.9312
X10.9123Y-3.0812
X11.0289Y-1.3945
X11.0373Y-5.4312
X11.0373Y-2.4312
X11.0998Y-3.8312
X11.2873Y-5.3312
X11.2873Y-2.3312
X11.4123Y-3.1812
X11.506Y-4.6812
X11.5289Y-1.4945
X11.6623Y-3.0812
X11.756Y-4.5812
X11.7789Y-1.3945
X12.0228Y-5.4898
X12.0685Y-3.9312
X12.1623Y-2.4312
X12.2728Y-5.3898
X12.3185Y-3.8312
X12.3498Y-3.1812
X12.4123Y-2.3312
X12.5365Y-1.4937
X12.5998Y-3.0812
X12.7728Y-4.7398
X12.7728Y-5.4898
X12.7865Y-1.3937
X13.0228Y-4.6398
X13.0228Y-5.3898
X13.4622Y-2.4309
X13.4622Y-3.1809
X13.5228Y-5.4898
X13.7122Y-2.3309
X13.7122Y-3.0809
X13.7728Y-5.3898
X14.2122Y-2.4309
X14.2122Y-3.1809
X14.4622Y-2.3309
X14.4622Y-3.0809
T6
X2.186Y-4.5062
X3.126Y-4.5062
X5.0Y-5.2562
X8.937Y-5.2562
X11.7485Y-3.7562
X11.8423Y-2.2562
X12.6885Y-3.7562
X12.7823Y-2.2562
T7
X2.1857Y-1.5954
X2.186Y-5.1062
X2.1873Y-2.5312
X2.281Y-5.5312
X2.3748Y-3.2812
X2.4685Y-4.0312
X2.656Y-4.7812
X2.9373Y-2.5312
X3.1001Y-1.5945
X3.126Y-5.1062
X3.2185Y-5.5312
X3.3123Y-3.2812
X3.4998Y-4.0312
X3.6873Y-2.5312
X3.8501Y-1.5945
X3.8748Y-4.7812
X4.0623Y-3.2812
X4.156Y-5.5312
X4.2498Y-4.0312
X4.4373Y-2.5312
X4.6001Y-1.5945
X4.6248Y-4.7812
X4.8123Y-3.2812
X4.9998Y-4.0312
X5.0Y-5.8562
X5.1873Y-2.5312
X5.3501Y-1.5945
X5.3748Y-4.7812
X5.5623Y-3.2812
X5.7498Y-4.0312
X5.9373Y-2.5312
X6.1248Y-4.7812
X6.2645Y-1.5945
X6.3123Y-3.2812
X6.4998Y-4.0312
X6.6873Y-2.5312
X6.8748Y-4.7812
X6.9685Y-5.5312
X7.0145Y-1.5945
X7.0623Y-3.2812
X7.2498Y-4.0312
X7.4373Y-2.5312
X7.6248Y-4.7812
X7.7645Y-1.5945
X7.8123Y-3.2812
X7.9998Y-4.0312
X8.1873Y-2.5312
X8.3748Y-4.7812
X8.5145Y-1.5945
X8.5623Y-3.2812
X8.7498Y-4.0312
X8.937Y-5.8562
X8.9373Y-2.5312
X9.1248Y-4.7812
X9.3123Y-3.2812
X9.4289Y-1.5945
X9.4998Y-4.0312
X9.6873Y-5.5312
X9.6873Y-2.5312
X9.8748Y-4.7812
X10.0623Y-3.2812
X10.1789Y-1.5945
X10.2498Y-4.0312
X10.4373Y-5.5312
X10.4373Y-2.5312
X10.6248Y-4.7812
X10.8123Y-3.2812
X10.9289Y-1.5945
X10.9998Y-4.0312
X11.1873Y-5.5312
X11.1873Y-2.5312
X11.5623Y-3.2812
X11.656Y-4.7812
X11.6789Y-1.5945
X11.7485Y-4.3562
X11.8423Y-2.8562
X12.1728Y-5.5898
X12.2185Y-4.0312
X12.3123Y-2.5312
X12.4998Y-3.2812
X12.6865Y-1.5937
X12.6885Y-4.3562
X12.7823Y-2.8562
X12.9228Y-4.8398
X12.9228Y-5.5898
X13.6122Y-2.5309
X13.6122Y-3.2809
X13.6728Y-5.5898
X14.3622Y-2.5309
X14.3622Y-3.2809
T0
M30
