M48
; DRILL file {KiCad 7.0.9} date Sat Jul 27 11:54:41 2024
; FORMAT={-:-/ absolute / inch / decimal}
; #@! TF.CreationDate,2024-07-27T11:54:41-04:00
; #@! TF.GenerationSoftware,Kicad,Pcbnew,7.0.9
; #@! TF.FileFunction,Plated,1,2,PTH
FMAT,2
INCH
; #@! TA.AperFunction,Plated,PTH,ViaDrill
T1C0.0079
; #@! TA.AperFunction,Plated,PTH,ComponentDrill
T2C0.0138
; #@! TA.AperFunction,Plated,PTH,ViaDrill
T3C0.0157
; #@! TA.AperFunction,Plated,PTH,ComponentDrill
T4C0.0236
; #@! TA.AperFunction,Plated,PTH,ComponentDrill
T5C0.0394
; #@! TA.AperFunction,Plated,PTH,ComponentDrill
T6C0.1024
%
G90
G05
T1
X8.1274Y-1.1417
X8.405Y-1.138
X11.0337Y-5.1001
X12.0195Y-5.1231
X12.1667Y-4.4204
X12.4091Y-5.1325
X12.7264Y-4.0597
X12.7494Y-4.1689
X12.8051Y-5.1367
X12.8552Y-4.1885
X12.924Y-3.6359
X12.924Y-4.1282
X12.9599Y-3.5278
X13.0064Y-2.9402
X13.0246Y-3.1507
X13.04Y-5.135
X13.0531Y-4.8935
X13.1693Y-4.918
X13.1856Y-2.8938
X13.2051Y-3.5645
X13.2063Y-3.5372
X13.2165Y-3.6746
X13.2507Y-3.1759
X13.3331Y-3.7683
X13.3722Y-3.625
X13.373Y-3.7681
X13.4119Y-4.4169
X13.4425Y-4.3416
X13.4734Y-2.2211
X13.4972Y-5.0046
X13.5211Y-5.0048
X13.7076Y-4.7489
X13.7652Y-4.7483
X13.7772Y-4.7686
X13.9582Y-4.6779
X13.9796Y-4.655
X14.0316Y-5.33
X14.0843Y-4.9668
X14.1516Y-4.3798
X14.1542Y-4.5608
X14.2097Y-3.6375
X14.2108Y-4.4992
X14.2377Y-4.5807
X14.2437Y-4.9311
X14.2464Y-5.1496
X14.2846Y-4.9277
X14.3018Y-4.6462
X14.3323Y-4.8536
X14.4132Y-4.9084
X14.4855Y-4.794
X14.5066Y-4.6625
X14.6874Y-4.5427
X14.6943Y-4.5721
X14.8666Y-4.8511
X14.8813Y-4.6085
T2
X14.1806Y-4.7015
X14.1806Y-4.7517
X14.1806Y-4.8019
X14.2308Y-4.7015
X14.2308Y-4.7517
X14.2308Y-4.8019
X14.281Y-4.7015
X14.281Y-4.7517
X14.281Y-4.8019
T3
X2.1812Y-2.8616
X2.1899Y-1.9227
X2.28Y-5.8528
X2.3802Y-3.607
X2.4737Y-4.3593
X2.6697Y-5.1047
X2.923Y-4.6699
X2.9387Y-2.8682
X3.0928Y-1.9233
X3.2148Y-5.8561
X3.3128Y-3.6125
X3.5051Y-4.362
X3.6893Y-2.8608
X3.8383Y-5.0469
X3.8439Y-1.9255
X4.0261Y-4.954
X4.0585Y-3.61
X4.1623Y-5.8608
X4.2504Y-4.3613
X4.4424Y-2.8592
X4.606Y-1.9304
X4.6243Y-5.1108
X4.7902Y-4.9678
X4.8083Y-3.6143
X5.0027Y-4.3616
X5.1897Y-2.8592
X5.3484Y-1.9277
X5.3811Y-5.1129
X5.5645Y-3.6096
X5.6389Y-4.9816
X5.7543Y-4.3598
X5.9444Y-2.86
X6.1202Y-5.1095
X6.2654Y-1.9244
X6.3114Y-3.611
X6.3959Y-4.9954
X6.498Y-4.3606
X6.6942Y-2.86
X6.8721Y-5.1044
X6.9729Y-5.857
X7.0155Y-1.9239
X7.0666Y-3.6085
X7.1709Y-5.0092
X7.2511Y-4.3582
X7.4431Y-2.8625
X7.6189Y-5.1087
X7.7639Y-1.9294
X7.7649Y-5.0229
X7.817Y-3.6106
X8.0131Y-4.3649
X8.0953Y-1.3438
X8.1675Y-1.2744
X8.1921Y-2.8559
X8.3065Y-1.1708
X8.365Y-1.273
X8.3736Y-5.1091
X8.5123Y-1.9266
X8.564Y-3.6093
X8.6359Y-5.0367
X8.7552Y-4.3559
X8.9419Y-2.86
X9.1226Y-5.1034
X9.3235Y-3.6115
X9.3835Y-5.0505
X9.4343Y-1.9255
X9.5053Y-4.3615
X9.6957Y-2.861
X9.6999Y-5.8135
X9.8842Y-5.1185
X10.0711Y-3.6097
X10.1031Y-5.0643
X10.1767Y-1.925
X10.248Y-4.3561
X10.4398Y-2.8585
X10.4402Y-5.8565
X10.6221Y-5.1083
X10.7901Y-5.0781
X10.8162Y-3.6075
X10.9306Y-1.9255
X10.995Y-4.3619
X11.1887Y-2.8614
X11.192Y-5.8615
X11.2784Y-5.0945
X11.537Y-2.7749
X11.5646Y-3.6089
X11.658Y-5.1249
X11.68Y-1.9244
X12.1586Y-5.9174
X12.2163Y-4.3552
X12.2258Y-5.1166
X12.3168Y-2.8591
X12.426Y-3.6112
X12.5303Y-2.7389
X12.6829Y-1.9251
X12.6983Y-1.8854
X12.8704Y-3.8723
X12.9164Y-5.9021
X12.9229Y-5.1404
X13.0087Y-1.9721
X13.0936Y-5.1304
X13.2065Y-1.9502
X13.6046Y-3.586
X13.6095Y-2.8513
X13.6857Y-5.911
X14.3542Y-3.5996
X14.3629Y-2.8592
T5
X13.2873Y-3.8488
X13.2873Y-3.9488
X13.2873Y-4.0488
X13.2873Y-4.1488
X13.6694Y-1.519
X13.6694Y-1.6174
X13.6694Y-1.7159
X14.2402Y-1.519
X14.2402Y-1.7159
T6
X13.9646Y-1.397
X13.9646Y-1.8379
T4
G00X8.0972Y-1.0388
M15
G01X8.0972Y-1.0152
M16
G05
G00X8.0972Y-1.2132
M15
G01X8.0972Y-1.1699
M16
G05
G00X8.4373Y-1.0388
M15
G01X8.4373Y-1.0152
M16
G05
G00X8.4373Y-1.2132
M15
G01X8.4373Y-1.1699
M16
G05
T0
M30
